<?xml version="1.0" encoding="UTF-8"?>
<svg id="_レイヤー_2" data-name=" レイヤー 2" xmlns="http://www.w3.org/2000/svg" version="1.1" viewBox="0 0 1920 1080">
  <defs>
    <style>
      .cls-1 {
        fill: #ff804c;
      }

      .cls-1, .cls-2 {
        stroke: #080808;
        stroke-miterlimit: 10;
        stroke-width: 28px;
      }

      .cls-2 {
        fill: #ff5959;
      }
    </style>
  </defs>
  <path class="cls-1" d="M1326.7,638.7c-147.3-30.1-255.8-6.2-325.5,71.8-7.2,8-19.7,8-26.9,0-69.8-78-178.3-101.9-325.5-71.8-12.7,2.6-23.8-8.7-21.1-21.4l45.9-214.6c1.5-7,7-12.4,14.1-13.9,119.1-24.2,235,7,296.6,85.7,1.8,2.3,5.3,2.3,7.1,0,61.7-78.7,177.6-109.9,296.6-85.7,7,1.4,12.6,6.9,14.1,13.9l45.8,214.6c2.7,12.7-8.5,23.9-21.1,21.4h0Z"/>
  <path class="cls-2" d="M987.7,480.5v247.5-247.5Z"/>
</svg>