<?xml version="1.0" encoding="UTF-8"?>
<svg xmlns="http://www.w3.org/2000/svg" width="289.9" height="294.2" version="1.1" viewBox="0 0 289.9 294.2">
  <defs>
    <style>
      .cls-1 {
        fill: #cbcaa4;
      }

      .cls-2 {
        fill: #6c9fa3;
      }

      .cls-3 {
        fill: #293b47;
      }

      .cls-4 {
        fill: #3c2a25;
      }

      .cls-5 {
        fill: #f9cf98;
      }

      .cls-6 {
        fill: #fdf8e2;
      }

      .cls-7 {
        fill: #d37642;
      }

      .cls-8 {
        fill: #aebea6;
      }

      .cls-9 {
        fill: #17212a;
      }

      .cls-10 {
        fill: #f0b985;
      }

      .cls-11 {
        fill: #7ea9a5;
      }

      .cls-12 {
        fill: #f7c188;
      }

      .cls-13 {
        fill: #f8eac9;
      }

      .cls-14 {
        fill: #dfcf9e;
      }

      .cls-15 {
        fill: #f3c48e;
      }

      .cls-16 {
        fill: #2d4e5f;
      }

      .cls-17 {
        fill: #f9cb92;
      }

      .cls-18 {
        fill: #162c38;
      }

      .cls-19 {
        fill: #171618;
      }

      .cls-20 {
        fill: #93b3a6;
      }

      .cls-21 {
        fill: #793f2c;
      }

      .cls-22 {
        fill: #f3d39d;
      }

      .cls-23 {
        fill: #df8f5e;
      }

      .cls-24 {
        fill: #2a3e4b;
      }
    </style>
  </defs>
  <!-- Generator: Adobe Illustrator 28.7.8, SVG Export Plug-In . SVG Version: 1.2.0 Build 200)  -->
  <g>
    <g id="_レイヤー_1" data-name="レイヤー_1">
      <g>
        <path class="cls-2" d="M13.2,87.2c5.2-9.2,9.7-18.8,15.6-27.4,13-18.8,29.6-33.7,50.2-43.9C103,4,128.2-1.8,155.1.5c20.2,1.7,39.3,7.1,57.1,16.8,9.9,5.4,19,12,27.5,19.5,14,12.4,24.7,27.1,33.6,43.3-.7,1.4-1.4,2.7-2.2,4.3,1.3,1.2,2.7,1.3,4.1-.3,1.1,2.6,2.2,5.1,3.3,7.7-.4.9-.9,1.7-1.3,2.6h0c-.8-.9-2.1-1.7-2.2-2.6-.2-1.3.5-2.8.9-4.2q-7.1-.8-8.3,3.3c-7.3,0-7.6-.4-4.6-5.9-1.5-.7-3-1.5-4.5-2.2,0,0-.2,0-.3-.1,0,0,.2,0,.3.1-.5.6-1.1,1.7-1.5,1.6-2.4-.3-3.9.5-5.4,2.5-1.1,1.5-2.6,1.1-3.4-.5,1.1-1.1,2-2.1,3.1-3.2.2,0,.7.4,1.1.6,1.2-.9,2.2-1.7,3.6-2.8-1.1-1-2.2-2.1-3.4-3.1-.2.2-.4.3-.5.5.4.8.7,1.5,1.1,2.4-1.4.3-2.6.6-3.7.8,0,0,0-.2.1-.3,0,0,0,.2-.1.3-2.4.6-4.8,1.1-7.5,1.8-.2-1-.4-2.7-.9-4.3-1.1-3.5-.1-7.7-3.5-10.5-2.5-6.1-5-12.3-7.5-18.4-.4-.7-.8-1.5-1.3-2.2h0c.8-2,1.7-4.1-.6-5.9-.1,0,0-.4,0-.6,0,0,.2.1.3.2.3-.5.6-.9,1-1.4-.2-.1-.4-.2-.6-.4-.2.5-.5,1-.7,1.5-1.3-.6-3.7-1.1-3.7-1.9-.2-2-1.3-1.2-2.2-1.2h.1c-.2-.3-.5-.6-.7-.8-.9-1-1.9-2-2.8-3.1-7.9-9.4-17.5-16.5-28.8-21.3-18.8-8-38.6-10.4-58.8-7.8-30.2,4-53.7,18.4-67.9,46.2-1.7,3.4-3.3,6.9-5,10.4-.5,1.2-1,2.3-1.4,3.5h0c-.7,2.2-1.3,4.3-2,6.5,0,0,0,0,0,0-.5.8-1.3,1.5-1.6,2.4-.5,1.5-.8,3.1-1,4.7-1.4,8.6-2.7,17.2-4,25.8-.7.5-1.4,1.1-2,1.6-1.1-.7-2.1-1.4-2.6-1.7-1.5.9-2.6,1.6-4.5,2.7.8-2.9,1.3-4.7,1.8-6.5-2.5,1-4-.5-6.3-6,1.6.8,2.5,1.2,3.6,1.8-1.1-3.6,2.3,0,2.9-1.9-1.3-1.3-2.8-2.7-3.8-3.7-1.6,1-2.5,1.8-3.5,2.1-.5.2-1.6-.2-1.9-.7-1.3-2-2.5-4.2-3.8-6.5-1.1.9-1.5,1.3-1.7,1.4-3.3-1.2-6.4-2.3-9.4-3.4-1.1.9-2.6,2.2-4.1,3.5ZM232.6,45.3l-.4-1.5c-.2.2-.5.3-.7.5.4.3.7.6,1.1,1,.7.3,1.4.7,2.1,1,0-.8-.2-1.7-.2-2.5-.3,0-.5.1-.8.2,0,.4.2.9.3,1.3h0c-.4,0-.8,0-1.3,0ZM270,82.1c-.4-.1-.5-.2-.9-.3,0,.6-.2,1.1-.3,1.7.1,0,.3,0,.4.1.3-.5.5-1,.8-1.5ZM226.3,39.6c0,0-.2,0-.2,0,0,0,0,.1,0,.2,0,0,.2,0,.2,0,0,0,0-.1,0-.2Z"/>
        <path class="cls-3" d="M250.8,246.4c-.2.2-.3.4-.5.6-.3.3-.5.5-.8.8,0,0,.1,0,.1,0-.7.4-1.4.8-2.2,1.1-.9.3-1.7.5-3,.9-.4-3.7-.7-7.3-1.1-10.9-.7-6.4-1.5-12.7-2.1-19.1-.6-6.5-1-13-1.4-19.6,0-1.3.5-2.7.8-4.2-3.8-2.1-1.4-5.3-.4-8.4-.7,0-1.5.1-1.8.2-1.2-2.6-2.3-5-3.3-7.4-.4-3.1-1.1-6.1-1.2-9.2-.5-9.6-.9-19.3-1.3-28.9-.6-16.1-1.1-32.3-5.1-48-.4-1.7-.9-3.4-1.4-5.1-.2-.6-.3-1.1-.5-1.7-.2,0-.3.2-.5.3.3.5.6,1,.9,1.5,0,1,0,1.9,0,2.9,1.3,11.3,2.8,22.7,3.7,34.1.7,8.3.5,16.6.7,24.9.2,7.7.4,15.4.7,23.1,0,.6.1,1.3.2,1.9.8,6.6,1.5,13.1,2.3,19.7-.2,2.7-.4,5.4-.7,8.1-.8,10.6-1.6,21.2-2.5,31.8-.5,5.8-.8,11.7-1.9,17.5-1,5.5-2.9,10.9-4.4,16.4,0,0,0,0,0,0-.3,0-.6,0-.9,0,0,.2.1.4.2.5-1.3.8-2.6,1.7-3.9,2.5-.5.3-1.1.7-1.6,1,0,0,0,0,0,0-.3.2-.6.3-.9.5,0,0,0,0,0,0-1.8.9-3.5,1.7-5.3,2.6,0,0,0,0,0,0-.9,0-1.8.2-2.8.2.5-1.5,1-2.8,1.4-4.2,2.3-8.2,5-16.3,5.2-25,.2-6.5,1.1-12.9,1.7-19.4.7-8.4,1.6-16.8,2-25.3.3-7,0-13.9.2-20.9.2-4.8.9-9.6,1.2-14.4.3-5.6,0-11.2.3-16.8.2-5.9.8-11.8,1-17.6.2-7.9,0-15.8.1-23.7.3-12-.2-24-2.6-35.9-.1-2.6,1.8-1.9,3.3-2,.2,0,.4,0,.6,0-1.8,2.4.8,1.6,1.5,2.5,1-1.7,2.1-3.1-.8-3.2-.9-2.8-1.7-5.6-2.6-8.4,0-.4,0-.8,0-1.3.8,1.3,1.9,2.6,2.5,4,.9,2.1,2.2,3.3,4.6,3.1.4,0,.8,0,1.3,0,0,.2,0,.4,0,.6l-2.9,1.6c.6.6,1.1,1.1,1.7,1.7,0,0,.2,0,.3.1,0,0-.2,0-.2-.1.6-.4,1.3-.9,1.9-1.3.8,1.5,1.6,3,2.3,4.5.8,1.9,1.8,2.1,3.2.6.4,1,.9,2,1.1,3,.9,6.5,2,12.9,2.6,19.4,1.2,11.3,2.7,22.6,3.1,33.9.8,22.2-.9,44.5,1.4,66.7.6,5.4,1,10.9,1.7,16.3,1.1,9.1,2.3,18.2,3.5,27.4.1,1,.7,1.9,1.1,2.9,0,.2.2.5.2.7ZM226.8,76h4.5q-2.6-2.5-1.2.4c0,0-.2-.2-.2-.2-.3.3-.6.5-.9.8l.4.4c.3-.3.5-.6-2.6-1.3ZM215.2,266.3c.5-.8,1.3-1.6,1.5-2.5,2-6.5,3.9-13.1,5.7-19.7,1-3.5,1.8-7.1,2.7-10.7-2.2,4.4-4.1,8.9-5.3,13.6-1.7,6.3-3,12.8-4.5,19.2-.2.4-.3.8-.5,1.2.1,0,.3,0,.4,0,0-.4,0-.8,0-1.3Z"/>
        <path class="cls-9" d="M219.7,73.8c2.5,11.8,2.9,23.8,2.6,35.9-.2,7.9,0,15.8-.1,23.7-.1,5.9-.8,11.8-1,17.6-.2,5.6,0,11.2-.3,16.8-.2,4.8-1,9.6-1.2,14.4-.2,7,.2,13.9-.2,20.9-.4,8.4-1.3,16.9-2,25.3-.6,6.5-1.5,12.9-1.7,19.4-.3,8.7-3,16.8-5.2,25-.4,1.4-.9,2.8-1.4,4.2,1,0,1.9-.2,2.8-.2-2.4,1.3-4.8,2.5-7.2,3.8,0-.3,0-.7,0-1,.5-1.2.9-2.3,1.4-3.5,0,0,0,0,0,0,.3-.8.6-1.6.9-2.4,0,0-.1-.2-.1-.2.4-1.3.9-2.5,1.3-3.8h0c.5-1.8.9-3.5,1.4-5.2,0,0-.1,0-.1,0,.5-2.2,1.1-4.4,1.6-6.6.3-1.4.6-2.8.9-4.4-1.2-.1-2.3-.2-3.3-.3-.3-.1-.5-.3-.8-.4-6-2.6-12-5.2-18-7.7,1.2-.1,2.5,0,3.5-.5,1.5-.7,5.3,0,6.4,1.2.9,1,2,1.8,3.2,2.4,1.8,1.1,4.3.6,5.4,3.2.6,1.5,3.7.7,4.1-1.2.6-2.7,1.1-5.5,1.3-8.2.4-4.7.5-9.4.9-14.1.5-7.4,1.3-14.7,1.7-22.1.3-4.9.2-9.8.3-14.7,0-2.1-.3-4.1-.1-6.2.3-3.6.8-7.2,1.2-11-4.1,1.4-7.4,5.1-8.4,9.2-.5,2.1-1.2,2.9-3.3,1.8,0-.7,0-1.4,0-2.1h0c.2-.6.5-1.3.7-1.9h0c.2-.6.5-1.3.7-1.9,0,0,0,0,0,0,.9-1.1,1.9-2.2,2.8-3.3,2.3-2.3,4.5-4.7,6.8-7,.7-1.3,1.9-2.6,2-4,.3-4.7.2-9.4,0-14.1,0-.7-.9-1.5-1.3-2.2-.3,0-.6.2-.9.3-.3,2.5-.6,5-.9,7.5,0,.1.1.2.2.3-.1.6-.2,1.2-.3,1.7-.2.7-.4,1.3-.6,2-.3.9-.6,1.7-.8,2.6,0,0,0,0,0,0l-1.2,3.9c-1.1,2.6-2.2,5.2-3.3,7.8,0-.8-.2-1.6-.1-2.3.6-3.4,1.3-6.8,2-10.2h0c.4-.5,1-1.1,1.1-1.7,2.3-9.6,4.7-19.2,6.7-28.9.7-3.3.4-6.9.7-11.1-2.9,1.6-3.3,3.7-3.5,5.8h0c0,.1-.2.3-.2.5-.4.8-.9,1.6-1.3,2.4-.2,0-.4.2-.6.3-.2.2-.4.5-.6.7h0c-.2.2-.4.4-.7.7h0c-.2.2-.5.4-.7.6,0,0,0,0,0,0-.5-.7-.9-1.4-1.4-2.1,0-.4,0-.9.1-1.3.3-.2.8-.3.8-.5-.3-4.1-.7-8.1-1.1-12.4-2.4.7-4.4,1.2-6.3,1.8-1.2,0-2.3-.1-3.2-.2-1.1,2-2.2,3.8-3.2,5.7v-6.1c-4.9-1-9.6-1.9-14.2-2.8h0c-1.5-.4-3-.8-4.6-1.3h0c-1.1-.4-2.1-.9-3.2-1.3,0,0,0,0,0,0l-.8-.6h.1c-.4-.2-.8-.5-1.1-.8h0c-.9-.8-1.7-1.7-2.6-2.5,0,0,.1,0,.1,0-.4-.7-.7-1.5-1.2-2.6-.3.7-.4,1.1-.6,1.4-2.5,3.6-4.8,7.3-7.6,10.7-1.9,2.2-4.4,3.9-6.6,5.9-.2-.2-.5-.5-.7-.7.7-1.6,1.4-3.3,2.1-4.9.4-1.1.7-2.2,1.1-3.3,0,0,0,0,0,0,.5-.7,1.2-1.4,1.5-2.2,2.9-9.1,3-18.6,2.7-28,0-.5-.3-.9-.8-2.2-1,1.6-1.7,2.6-2.3,3.6h0c0,0-.3,0-.3,0,0,.2,0,.3.1.5-1.9,4.2-3.5,8.7-5.7,12.7-2.7,4.7-6,9.1-9.1,13.6-.6.8-1.3,1.5-1.9,2.3-.4.4-.8.8-1.2,1.2,0,0,0,0,0,0-.2,0-.3,0-.5,0-.5-.9-1-1.8-1.5-2.6.9-2.6,1.7-5.2,2.6-7.8,1.3-4.7,2.6-9.3,3.9-14,.5-1.6,1.2-3.2,1.8-4.8-1.2,6.9-2.3,13.9-3.6,21.3.7-.6,1.1-.8,1.3-1.2,5.5-7.9,10.1-16.2,12.7-25.5,1-3.7,1.9-7.4,2.9-11.1.6-2.1,1-4.6,3.9-5.1-.5,2-1.4,3.9-1.3,5.8.4,6.3,1.1,12.6,1.6,18.8,0,.9,0,1.7,0,2.6-1,7-2.1,13.9-3.2,20.9,0,.1,0,.2-.1.3,0,0,.1-.2.2-.3,5.7-6.7,9.6-14.5,12.1-22.8,3-10,4.2-20.3,4-30.8,0-2.2-.6-4.5-.9-6.7,8.2,15.5,16.5,30.9,21.5,47.7,2.6-12.1-1.2-23.3-3.9-34.8.5-.1,1-.3,1.6-.4,3.6,9.7,7.6,19.2,10.6,29,3.1,9.9,5.2,20.1,7.6,29.6,3.7-4.6,4.7-10.9,4.8-17.4,0-4.5-.1-9-.7-13.5-.7-5.9-1.3-12-3.1-17.6-2.3-7.3-5.3-14.5-8.9-21.2-3.5-6.5-7.9-12.6-14.1-17-4.4-3.1-8.8-6.2-13.4-9.5.9,0,1.7,0,2.4.2,14.1,4.2,22.9,14.2,28.8,27.1,2.9,6.4,6,12.8,9,19.2ZM181,109.1c.5.2,1,.3,1.5.5h-.2s.2,0,.2,0c.8.3,1.7.5,2.5.8,0,0,0,0,0,0,.7.2,1.3.4,2,.5h.1c1.2,2,2.9,2,4.9,1.1.2,0,.5.1.7.2,1.6.5,3.2,1.2,4.9,1.5.4,0,1.4-1.1,1.4-1.5-.3-1.5-.9-2.9-1.4-4.3v-.2c0,0,.2,0,.2,0-.9-3.1-1.7-6.2-2.6-9.3-3.8-10.4-7.3-20.9-12.9-30.5-.3,0-.7,0-1,0-.3,2.3-.5,4.7-.8,7-1.4,9.9-4.6,19.3-8.5,28.4.4.3.7.6,1.1.9h0c.3,0,.6.3.8.5h0c.5.2.9.5,1.4.7h-.1c.7.3,1.4.7,2.1,1.1h0c.4.2.9.5,1.3.7h0c.4.3.9.6,1.3,1,.5.2,1,.5,1.5.7h0ZM203,99.6c-.4,4.7-.8,9.3-1.3,14.7h6.9c2.1,0,1.3-1.4,1-2.5-1.9-7-3.8-14-5.8-20.9-.3,0-.6,0-.9.1v8.6Z"/>
        <path class="cls-11" d="M237.5,68.5c3.4,2.7,2.4,7,3.5,10.5.5,1.6.7,3.3.9,4.3,2.7-.6,5.1-1.2,7.5-1.8h0c1.2-.2,2.3-.5,3.7-.8-.4-.8-.8-1.6-1.1-2.4.2-.2.4-.3.5-.5,1.2,1.1,2.3,2.2,3.4,3.1-1.4,1.1-2.4,1.9-3.6,2.8-.3-.2-.9-.5-1.1-.6-1,1.1-2,2.1-3.1,3.2.8,1.5,2.3,2,3.4.5,1.4-2,3-2.8,5.4-2.5.4,0,1-1.1,1.5-1.6h0c1.5.7,3,1.4,4.5,2.2-3,5.6-2.7,6,4.6,5.9q1.2-4.1,8.3-3.3c-.3,1.4-1.1,2.9-.9,4.2.1,1,1.4,1.8,2.2,2.6h.3c0,0-.2,0-.3,0,.4-.9.9-1.7,1.3-2.6,5.3,11.7,8.5,23.9,9.7,36.7,0,.3.2.5.3.8,0,.4,0,.9.1,1.3-1.3-1-2.7-1.9-4.2-3.1-.4,1.1-.6,1.8-.8,2.4h0c-2.8,1.8-4.9,1.2-6.1-2.8-1.6,2.1-2.6,3.5-3.7,5h-1.5c-1.3,2.2-2.3,4-3.2,5.6-1.8-.7-3.5-1.4-5.1-2-2.2-.9-4-.9-5.3,1.7-.5,1-2.2,1.3-3.9,2.2.2-1.7.2-2.5.4-4.4-3.3.7-6.1,1.3-8.9,1.8,0-1.5-.1-3-.2-4.5.2-.3.6-.7.6-1-.2-4.3-.2-8.6-.6-12.9-.2-2.5-1.1-4.9-1.7-7.4,0-.4-.2-.8-.2-1.3-.8-7.5-1.2-15-2.4-22.4-1-6.4-2.9-12.7-4.4-19ZM249.7,90.3c0,.2-.2.4-.3.6l2.3,1.1c.1-.3.2-.5.3-.8l-2.3-.9ZM251.3,95.8c-.3-.3-.5-.6-.7-.6-.2,0-.5.2-.8.3.2.2.3.6.5.6.2,0,.5-.2,1-.3Z"/>
        <path class="cls-9" d="M237.5,68.5c1.5,6.3,3.4,12.6,4.4,19,1.2,7.4,1.6,15,2.4,22.4,0,.4.1.8.2,1.3.3,5.4.7,10.8,1,16.2-.1,5.4-.3,10.7-.3,16.1,0,.2.6.4,1,.7,0,.5.2.9.2,1.4,0,.2-.1.4-.2.6-1,5.2-1.1,10.3.6,15.4,0,.4,0,.9.1,1.3.8,4.5,1.5,9.1,2.5,13.6.7,3.3,1.8,6.5,2.6,9.8.7,2.9,1.2,5.8,2.1,8.6.5,1.5,1.5,2.8,2.2,4.3,0,.2.1.5.2.7.3.8.6,1.6.9,2.4,0,0,0,0,0,0,.5,1.3,1,2.6,1.4,3.8,0,0,0,0,0,0,.5,1.2,1,2.5,1.4,3.7,0,0,0,.2,0,.2.4,1.3.9,2.5,1.3,3.8h0c.8,3.1,1.5,6.2,2.3,9.2,0,.2,0,.4.1.7.4,1.1.8,2.2,1.2,3.3.1.2.1.4,0,.5-.3.5-.6,1-.8,1.6,0,0-.1.1-.1.1-.5-1.5-1-3-1.6-4.4-.9-2.5-1.9-4.9-2.9-7.4h0c-.4-1.4-.8-2.7-1.2-4,0,0,0,0,0,0-.6-1.5-1.1-3.1-1.7-4.6v-.7c-.4-.8-.7-1.7-1-2.5,0,0,0,0,0,0-1.3-3.7-2.5-7.4-3.8-11.1v-.2c-.3-.9-.7-1.8-1-2.7v-.2c0-.5-.2-.9-.3-1.4,0,0,0,0,0,0-.7-2.8-1.5-5.5-2.2-8.3h.2c-.3-2.5-.5-4.9-.8-7.2,0-.4-1-.6-1.5-.9,0,.5,0,1,0,1.5-.3,1-.8,2-.7,3,.5,10.5.9,21.1,1.6,31.6.2,2.7,1.2,5.3,1.8,8h0c.3,2.9.7,5.7,1,8.6.6,6.4,1.1,12.9,1.6,19.3,0,0,0,0,0,0-.3,0-.6,0-.9,0-.4-1-.9-1.9-1.1-2.9-1.2-9.1-2.4-18.2-3.5-27.4-.7-5.4-1.1-10.8-1.7-16.3-2.3-22.2-.6-44.5-1.4-66.7-.4-11.3-1.9-22.6-3.1-33.9-.7-6.5-1.7-12.9-2.6-19.4-.2-1-.7-2-1.1-3-.2-.8-.2-1.7-.5-2.5-2.7-7.1-5.4-14.2-8.2-21.3-.2-.5-.2-1.1-.5-1.5-4-7-9.3-12.9-15-18.7-8.5-8.8-18.4-14.8-29.9-18-7.8-2.2-15.8-3.7-23.8-5.2-13.1-2.6-26.1-1.2-38.9,1.9-15.4,3.7-28.4,11.8-39.9,22.5-1.8,1.7-3.1,4-4.6,6.1-2.9,4-6.5,7.8-8.5,12.2-3.3,7.1-5.6,14.7-8.3,22.1-.2.5-.6.9-.7,1.4-1.3,6.9-2.4,13.9-3.9,20.8-2.7,12.6-3.1,25.4-4.5,38.2-.8,7.6-2.4,15.2-3.6,22.8-.8,5.6-1.5,11.2-2.2,16.8-.3,2.4-.5,4.9-1,7.3-1.5,7.5-3.2,15-4.8,22.5-2,9.3-3.9,18.6-5.8,27.9-3.6.8.5,2.7-.6,3.8,0,0-.1.1-.1.1-.7-.9-1.4-1.8-2.1-2.7.2-1.5.4-3,.6-4.5.3,0,.6.2.9.3,0-1.2-.1-2.5-.2-3.7,0,0,0,0,0,0,1-3.6,2.1-7.2,2.9-10.9,1.2-5.4,2.1-10.8,3.1-16.2.9-3.5,1.9-6.9,2.6-10.4.5-2.5.5-5.1.7-7.7.1-.6.2-1.2.3-1.7.2.1.3.3.5.4,0,0,.2,0,.2,0,.2-1.2,0-2.4.5-3.5.8-2.3,0-3.2-2.2-3.5,0,0,0,0,0,0,.2-1.9.4-3.9.7-5.8,0-.4,0-.8,0-1.2.5-1.8,1-3.6,1.5-5.5,1.3-5.4,2.8-10.8,3.7-16.3.7-3.9.7-8,1.1-11.9,0-.2.1-.4.1-.6.2-1.5.4-3,.5-4.6,0-.4,0-.8,0-1.3.5-3.6.9-7.2,1.4-10.8.2-2.7.3-5.3.5-8,.2-.3.6-.7.6-1,2-10.9,4-21.7,5.9-32.6,0,0,0,0,0,0,.7-2.2,1.3-4.3,2-6.5,0,0,0,0,0,0,.5-1.2,1-2.3,1.4-3.5,1.6-3.5,3.2-7,5-10.4,14.2-27.8,37.8-42.2,67.9-46.2,20.1-2.7,39.9-.2,58.8,7.8,11.2,4.8,20.9,11.9,28.8,21.3.9,1.1,1.9,2.1,2.8,3.1.2.3.5.5.7.8,0,0-.1,0-.1,0,2.2,3.2,4.4,6.4,6.6,9.6,0,0,0,0,0,0,.4.7.8,1.5,1.3,2.2,2.5,6.1,5,12.3,7.5,18.4Z"/>
        <path class="cls-11" d="M46.5,124.2c0,.4,0,.8,0,1.3-.2,1.5-.4,3-.5,4.6,0,.2,0,.4-.1.6-1.3,1.3-2.5,2.6-3.8,3.9,0,0,0,0,0,0-.8-.9-1.7-1.8-2.6-2.8.6-.9,1.5-2,2.6-3.7h-6.1c-.6-2.2.3-3.4,2.5-3.7-4.4-5.9-9.2-3.7-14.3-.5-.6,2.3-3.3,3.8-6.3,3.3.4-1.6.8-3.1,1.2-4.7-.3-.2-.5-.4-.8-.6-1.1,1-2.3,2-3.4,3-2.1-2.8-4.4-5.8-6.5-8.6-2,.4-3.4.6-4.8.9,3.2-9.9,6.5-19.9,9.7-29.8,1.5-1.3,3-2.6,4.1-3.5,3,1.1,6.1,2.2,9.4,3.4.1-.1.6-.5,1.7-1.4,1.3,2.3,2.5,4.5,3.8,6.5.3.5,1.4.9,1.9.7,1-.3,1.9-1.1,3.5-2.1,1,1,2.4,2.4,3.8,3.7-.5,2-4-1.7-2.9,1.9-1.1-.6-2.1-1-3.6-1.8,2.4,5.5,3.8,7,6.3,6-.5,1.8-1,3.6-1.8,6.5,1.8-1.1,2.9-1.8,4.5-2.7.5.3,1.5,1,2.6,1.7.6-.5,1.3-1,2-1.6,0,.2,0,.5,0,.7-.2,2.7-.3,5.3-.5,8-.1-.5-.2-1-.5-2.4-.3,2.1-.5,3.2-.7,4.8-1-.7-1.6-1.2-1.6-1.2.4,2.4.9,5,1.3,7.7.1.6,0,1.3,0,1.9ZM43.8,119.2c-.3-.3-.5-.6-.8-1-.6.8-1.4,1.4-1.8,2.3-.2.5.1,1.3.2,2,.2,0,.5,0,.7,0,.6-1.1,1.1-2.2,1.7-3.3ZM31.3,93.5c0,.4-.1.6-.2.8.1,0,.3,0,.4,0,0,0,0-.2,0-.3,0-.1-.2-.3-.3-.5ZM6.9,114.8c0,0,.2,0,.3,0,0,0,0-.1,0-.2,0,0-.2,0-.3,0,0,0,0,.1,0,.2Z"/>
        <path class="cls-8" d="M289.9,149.3c.1,10.6-.6,21.1-4.2,31.2-1.6-1.7-3.1-3.4-4.7-5-.7.3-1.3.6-2.4,1,1.1-3.4-1.1-2.8-2.5-2.3-.6.2-.7,1.7-1.1,2.6-.5,1.2-1,3.2-1.7,3.3-1.7.3-3-.9-2.7-3,0-.2-.3-.4-.9-1.4-.2,2.6-.4,4.5-.6,6.4-.9.2-1.6.2-2.3.4-.7.2-1.4.6-1.6.7-.8-1-1.4-1.7-1.9-2.4-.2.8-.6,1.5-.7,2.3,0,1,.1,2.1.3,3.2-1,.1-1.8.2-2.6.3-.8,0-1.5.2-2.3.1-1.6-.3-3.2-.8-4.8-1.2-.8-1.9-1.6-3.8-2.3-5.8-.1-1-.2-1.9-.3-2.9-1-4.1-1.9-8.3-2.9-12.4h.1c-.1-4.4-.3-8.8-.4-13.1,1.7.1,3.4.2,5.2.3.1-.4.4-1.2.4-1.3h12.1c-.4.8-.7,1.5-1.3,2.6,3.2.5,5.1-1.3,7.2-2.6,1.1-.7,2.2-1.3,3.4-1.9,1.2-.5,3-1.8,3.1-1.6,2.3,2.8,3.9.1,5.7-.6,1.2-.5,2.4-1.3,3.8-2.1v4.3c.7-.8,1-1.2,1.3-1.4.5.8.9,1.6,1.4,2.4Z"/>
        <path class="cls-20" d="M42,134.5c1.3-1.3,2.5-2.6,3.8-3.9-.3,4-.4,8-1.1,11.9-1,5.5-2.5,10.8-3.7,16.3-.9.2-1.9.7-2.7.5-2.4-.6-4.8-1.5-7.2-2.3,0,0,0,0,0,0-2-2.2-5-3.8-3.7-7.9-1.5.6-2.2,1-3,1.2-.8.2-1.6.3-2.4.5.2-3.7-.6-4.3-4-3.6-1.1.2-2.5-.3-3.4-1-1.1-.9-1.9-2.2-2.9-3.5-2.5.9-4.8,1.7-6.9,2.4-.4-1.3-.7-2.4-1.1-3.5-1.3,1.7-2.4,3-3.4,4.4-.2-9.8,1.2-19.5,3.4-29,1.4-.3,2.8-.5,4.8-.9,2.1,2.7,4.3,5.8,6.5,8.6,1.1-1,2.3-2,3.4-3,.3.2.5.4.8.6-.4,1.6-.8,3.2-1.2,4.7,3,.5,5.8-.9,6.3-3.3,5-3.2,9.9-5.4,14.3.5-2.1.3-3.1,1.5-2.5,3.7h6.1c-1.2,1.6-2,2.8-2.6,3.7.9,1,1.8,1.9,2.6,2.8,0,0,0,.2-.1.3,0,0,.1-.2.2-.3ZM14.2,127.4c0,0,.2,0,.3.1,0,0-.2,0-.3-.1,0,0-.2,0-.3-.1,0,0,.2,0,.3.1Z"/>
        <path class="cls-9" d="M100.1,285.6c-4.5-1.9-9.1-3.8-13.6-5.7,0,0,0,0,0,0,3.1,1,6.1,1.9,9,2.8-4.2-11.6-8.8-23.1-12.6-34.8-3.4-10.1-6.4-33.5-5.3-36.3,1.7,9.1,3.1,18,5.1,26.8,2,8.9,4,17.8,8.5,26-.1-4.9-.5-9.8-1-14.6-1.1-12.7-2-25.4-3.2-38.1-.4-4.9-1.3-9.7-1.9-14.6-.2-6.4-.5-12.9-.7-19.3-.2-7.2-.4-14.4-.6-21.5,0-1.9,0-3.8-.1-5.7-.3-5.3-1-10.6-1.1-15.9,0-9,.2-18,.6-26.9.3-6.5.4-13,1.4-19.4,2.8-18.4,9.1-35.4,21.7-49.5,2.8-3.2,6.9-5.2,10.4-7.8,0,0,0,0,0,0-2.9,2.9-5.9,5.8-8.8,8.8-7.2,7.5-11.2,17-14.8,26.5-5.4,14.3-6.7,29.4-7.3,44.5-.2,4.6,1.1,9.3,1.7,14-2.3-.1-2.5,1.4-2.5,3.2,0,6.6-.3,13.2,0,19.8.4,7.2,1.3,14.5,2,21.7.3,3.3-.8,7,2.4,9.5.8.4,1.5.8,2.3,1.2,0,0,0,0,0,0,0,.3-.1.6-.2.8-1.3.4-3.7-1.1-3.8,1.6-.2,4-.2,8.1.1,12.1.3,4,1.1,8,1.6,12,.4,3.7-.1,7.5.6,11.3,1.2,6.4,1.4,12.9,2,19.4.2,2,.2,4.1.3,6.4,4.1-1.4,3.2-5.7,4.7-8.9,2.3,2.9-2.6,7.6,3.3,8.4-1,.9-1.7,1.5-2.4,2.2v.7c-1.1-.2-2.1-.4-3.2-.7-.8-.2-1.6-.4-3-.8.9,6.3,1.6,11.9,2.4,17.6.9,4.4,1.7,8.8,2.6,13.1,1,3.4,2.1,6.8,3.1,10.1Z"/>
        <path class="cls-8" d="M0,146.1c1-1.3,2.1-2.6,3.4-4.4.3,1.1.7,2.2,1.1,3.5,2.1-.7,4.4-1.6,6.9-2.4,1,1.2,1.8,2.6,2.9,3.5.9.7,2.4,1.2,3.4,1,3.4-.7,4.2-.1,4,3.6.9-.2,1.7-.2,2.4-.5.8-.2,1.6-.6,3-1.2-1.3,4.1,1.7,5.7,3.7,7.9-.2.2-.3.4-.5.7,0,0,.2.1.2.2,0-.3.2-.5.3-.8,2.4.8,4.8,1.7,7.2,2.3.8.2,1.8-.3,2.7-.5-.5,1.8-1,3.6-1.5,5.5-.2.6-.4,1.1-.6,1.7,0,0,0,.2,0,.2-.5.7-.9,1.5-1.6,2-1.1.7-2.5,1.6-3.5,1.4-2-.5-3.8-1.9-5.7-2.7-.3-.1-1.1.8-1.7,1.3h0c-3.9,0-7.3,2.8-11.4,2-.5,0-1.2.6-1.8,1.1-3.1,2.4-5.8,5.5-10.1,5.9C.5,166.9-.2,156.5,0,146.1ZM24.3,166.9c-.1,0-.3-.2-.4-.3,0,0-.2.1-.2.2,0,.1.1.3.2.4.1-.1.3-.2.4-.3Z"/>
        <path class="cls-18" d="M235.2,180.4c1.1,2.4,2.2,4.8,3.3,7.4.3,0,1-.1,1.8-.2-1,3.1-3.4,6.3.4,8.4-.3,1.5-.9,2.9-.8,4.2.4,6.5.8,13,1.4,19.6.6,6.4,1.4,12.7,2.1,19.1.4,3.6.7,7.2,1.1,10.9,1.2-.4,2.1-.6,3-.9,0,.3,0,.6.1.9-2.6,2.6-5.3,5.2-7.9,7.8q-8.3-.8-10.6,6.9c-.2.6-.2,1.2-.4,1.9-1.4,1.1-2.9,2.2-4.3,3.4,1.5-5.4,3.4-10.8,4.4-16.4,1.1-5.8,1.4-11.6,1.9-17.5.9-10.6,1.7-21.2,2.5-31.8.2-2.7.4-5.4.7-8.1.4-1.2,1.2-2.5,1.3-3.7.2-3.9,0-7.8,0-11.7Z"/>
        <path class="cls-22" d="M5.8,185.5c0-.2-.1-.3-.1-.5,2.1-1.5,5.1-1,6.7-4.2,1-2,4-3.5,6.3-4.1,4.2-1,8.7-1.1,13.1-1.5.2,0,.4,0,.6,0,.9-.4,1.7-.9,2.6-1.3.5-.1,1-.2,1.5-.3-1.5,4.1-2.9,8.2-4.4,12.3-1.6,4.4-3.2,8.8-4.9,13.2-1.9,6.3-3.8,12.5-5.7,18.8-.4.5-.8.9-1.6,1.9-4.3-9.7-8.5-19-12.6-28.4-.5-1.1-.6-2.5-.8-3.7-.2-.7-.4-1.4-.6-2.1Z"/>
        <path class="cls-20" d="M289.9,149.3c-.5-.8-.9-1.6-1.4-2.4-.2.3-.5.6-1.3,1.4v-4.3c-1.4.8-2.6,1.6-3.8,2.1-1.8.7-3.4,3.4-5.7.6-.1-.2-2,1.1-3.1,1.6-1.1.6-2.3,1.2-3.4,1.9-2.1,1.3-4,3.1-7.2,2.6.5-1.1.9-1.7,1.3-2.6h-12.1c0,0-.3.8-.4,1.3-1.8-.1-3.5-.2-5.2-.3-.4-1.9-.8-3.8-1.2-5.7,0-.5-.2-.9-.2-1.4,0-2.4.1-4.7.2-7.1,2.8-.6,5.6-1.2,8.9-1.8-.2,1.8-.2,2.6-.4,4.4,1.7-.9,3.4-1.3,3.9-2.2,1.3-2.6,3.1-2.6,5.3-1.7,1.7.7,3.3,1.3,5.1,2,.9-1.5,1.9-3.3,3.2-5.6h1.5c1.1-1.5,2.2-2.9,3.7-5,1.2,4.1,3.3,4.7,6.1,2.8.2.3.4.7.6,1l.4-.4c-.3-.2-.7-.4-1-.6.2-.7.5-1.4.8-2.4,1.6,1.1,2.9,2.1,4.2,3.1.3,4.7.6,9.3.9,14,0,.3.2.6.3.9,0,1.3,0,2.6,0,3.8Z"/>
        <path class="cls-15" d="M94.4,262.4c-.8-5.6-1.5-11.3-2.4-17.6,1.4.4,2.2.6,3,.8.4,1.6.8,3.1,1.1,4.7.6.7,0,2.9,2.1,1.8.2,1,.2,2.2.7,3.1,8.5,13.8,19.5,25,34.3,32.1-.7.1-1.4.2-2.1.4,0,0-.2,0-.3-.1,0,0,.2,0,.2.1,2.5,2.9-.8,3.6-1.9,5.1-5.9-1.5-11.8-3-17.6-4.5-.6-.4-1.2-.9-1.8-1.3h0c-.7-.4-1.3-.8-2-1.3h0c-.3-.3-.6-.8-1-1.1-5.9-4.7-10.6-10.1-11.5-17.9-.2-1.4-.7-2.8-1.1-4.3Z"/>
        <path class="cls-9" d="M49.8,255.6c-1.2-1.1-2.4-2.2-3.5-3.2,0,0,.2-.2.3-.3,2.1-.5,4.2-1.1,6.3-1.6.9-.3,1.9.9,2.7.9,3-.3,6.5,2.7,9-1.3.2-.4,1-.5,1.5-.5,3.4-.2,3.5-2.5,3-5-1.3-7.5-3.1-15-3.9-22.6-.9-8.3-.8-16.7-1.2-25,0-.7-.8-1.4-1.2-2.2h0c.2-3.2.6-6.5.6-9.8.1-6.7.1-13.4.1-20.1,0,0,.2,0,.2,0,0,0,.2,0,.2,0,.3-1.1.8-2.2.8-3.2-.1-7.7-.4-15.4-.6-23.1,0-.7-.5-1.3-.7-2h0c0-.7,0-1.4,0-2.1,0-.2,0-.4,0-.5,0-1.7-.2-3.4-.3-5.1h.2s0,.2,0,.2c-.4-.3-.8-.6-1.2-.9,1.3-11.7,2.6-23.4,3.8-35.2.3,0,.5,0,.8.1,0,2.9.1,5.8,0,8.7-.4,7.4-1.3,14.7-1.3,22.1,0,8.9,1,17.8,1.1,26.6.1,8.3-.5,16.6-.5,25,0,8.8.4,17.6.6,26.4.6,8.5,1.3,17,1.9,25.5,1,12.7,4.1,25,7.8,37.2,1.2,4.2,3,8.2,4.6,12.2,0,0-.1.1-.1.1-1.2-.7-2.3-1.5-3.5-2.2-2.6-7.6-5.3-15.2-8-23.1-6.2,1.3-12.8,2.7-19.3,4.1Z"/>
        <path class="cls-12" d="M129.3,292.7c1.1-1.5,4.4-2.2,1.9-5.1h0c.7-.1,1.4-.2,2.1-.4,0,0,0,0,0,0,.4.2.8.3,1.2.5,0,0,.3,0,.3,0,1.2.5,2.4,1,3.6,1.5h0c1.3.4,2.6.8,3.9,1.2h0c.8.2,1.7.5,2.5.8,0,0,0,0,0,0,1.3.3,2.6.6,3.8.8,0,0,0,0,0,0,3.9,1.1,7.8,1.4,11.4-1h0c.7-.1,1.3-.4,2-.6,2.5-1.1,5.1-2.2,7.6-3.4,7.5-3.6,12.4-9.7,15.8-17,3-6.5,5-13.3,2.5-20.6.9,0,1.8,0,2.6.3,2.1.7,4.2,1.6,6.3,2.4-.1,5-.2,10-.3,15,0,0,0,0,0,0-.8,1.9-1.5,3.8-2.3,5.8-1.1,2.4-2.2,4.8-3.4,7.1-1.1,2.2-2.4,4.3-3.7,6.4-2.7,1.1-5.3,2.6-8.2,3.4-15.5,4.1-31.2,5.6-47.1,3-1-.2-1.9-.1-2.9-.2ZM134.3,290.9c.2-.3.3-.5.5-.8-.3-.1-.5-.4-.8-.4-.2,0-.4.4-.5.6.2.2.5.3.8.5Z"/>
        <path class="cls-1" d="M253.4,185.5c1.6.4,3.2.9,4.8,1.2.7.1,1.5,0,2.3-.1.8,0,1.6-.2,2.6-.3-.1-1.1-.3-2.2-.3-3.2,0-.8.4-1.5.7-2.3.5.7,1.1,1.3,1.9,2.4.2,0,.9-.5,1.6-.7.7-.2,1.4-.3,2.3-.4.2-1.9.3-3.8.6-6.4.6,1,.9,1.2.9,1.4-.3,2.1.9,3.3,2.7,3,.7-.1,1.2-2.2,1.7-3.3.4-.9.5-2.4,1.1-2.6,1.4-.4,3.6-1.1,2.5,2.3,1.1-.5,1.7-.7,2.4-1,1.6,1.7,3.1,3.4,4.7,5,0,.2,0,.3,0,.5,0,.2,0,.4,0,.7-1.5,4.5-3.1,9-4.6,13.6-.6,0-1.3,0-1.9,0-1.1,0-2.2.3-3.3.2-1.8,0-4-1.1-5.2-.3-3.4,2.1-5.3,0-6.9-1.5-2.9.6-5.3,1.1-7.7,1.6-.3-.4-.7-.8-1-1.1h0c0-.1.1,0,.1,0-.6-2.8-1.2-5.7-1.8-8.5Z"/>
        <path class="cls-22" d="M256.6,208.1c0,.2,0,.4.1.7.6,1.5,1.1,3.1,1.7,4.6,0,0,0,0,0,0,.4,1.3.8,2.7,1.2,4,0,0,0,0,0,0,1,4.7,2,9.3,3,14-2.7,3.8-5.5,7.6-8.4,11.5-.7-1.7-1.2-3-1.8-4.4,0-.5-.2-1-.2-1.6-1.1-6.4-2.1-12.8-3.2-19.2,0,0,0,0,0,0-.4-4.5-.8-9-1.2-13.6.2-1.3.4-2.6.5-3.8,1.6-.5,3.2-.9,4.8-1.4l2.8,6.7s0,0,0,0c.3.8.6,1.7.9,2.5Z"/>
        <path class="cls-22" d="M279.2,195.2c.6,0,1.3,0,1.9,0-3.2,7.5-6.2,15.1-9.5,22.6-1,2.3-2.6,4.4-4.1,6.5-.6.8-1.6,1.3-2.4,1.9-.4-.9-.9-1.8-1.3-2.6,0-.2,0-.4-.1-.7-.8-3.1-1.5-6.1-2.3-9.2,0,0,0,0,0,0-.4-1.3-.9-2.5-1.3-3.8,0,0,0-.2,0-.2-.5-1.2-1-2.5-1.4-3.7,0,0,0,0,0,0-.5-1.3-1-2.6-1.4-3.8,0,0,0,0,0,0-.2-.8-.4-1.5-.6-2.3,1.4.4,2.9,1.7,4.1-.5.2-.3,1-.3,1.5-.3,3.2.2,6.4.4,9.7.6,3.9.3,7-1.7,7.1-4.5Z"/>
        <path class="cls-12" d="M204.9,279.5c0,.3,0,.7,0,1-4.9,2-9.8,4.1-14.8,6.1-.6.2-1.4-.2-2.1-.3,3.1-5.6,6.2-11.2,9.4-16.8.5-.8,1.5-1.6,1.6-2.5.4-4.1.6-8.3.8-12.4,3.2,2,6.4,3.9,9.6,5.9,0,1.4.1,2.7.2,4.1,0,0,.1,0,.1,0-.5,1.7-.9,3.5-1.4,5.2,0,0,0,0,0,0-.4,1.3-.9,2.5-1.3,3.8,0,0,.1.2.1.1-.3.8-.6,1.6-.9,2.4,0,0,0,0,0,0-.5,1.2-.9,2.3-1.4,3.5Z"/>
        <path class="cls-23" d="M49.8,255.6c6.6-1.4,13.1-2.8,19.3-4.1,2.7,7.9,5.4,15.5,8,23.1-2.2-1.2-4.7-2.1-6.7-3.6-6.9-5-13.8-10.2-20.6-15.3Z"/>
        <path class="cls-22" d="M29.4,228.2c-.2,1.5-.4,3-.6,4.5-1.7-2.4-3.4-4.9-5.1-7.3.5-3.8,1-7.6,1.5-11.5.4-1.1.7-2.2,1.1-3.3,0,0,0,.1,0,.1.2-.7.4-1.4.6-2.1,0,0-.1,0-.1,0,.4-1.3.8-2.6,1.3-3.9,0,0,0-.1,0-.1.4-1,.7-1.9,1.1-2.9,0-.2.1-.5.2-.7.8-1.9,1.5-3.9,2.3-5.8.2-.4.4-.9.6-1.3.4-1.1.8-2.2,1.3-3.3.3-.6.5-1.2.8-1.8.4-1.1.8-2.2,1.2-3.3.6-1.6,1.2-3.1,1.8-4.7,0,0,0-.2,0-.2.3,1,.6,2,.9,3,0,0,0,0,0,0-.2,1.1-.5,2.2-.7,3.3,0,0,0,0,0,0-.2,1.1-.5,2.2-.7,3.3h0c-.2,1.1-.4,2.2-.6,3.3,0,0,.2,0,.2,0-.5,1.9-.9,3.9-1.4,5.8,0,0,.2,0,.2,0-.3,1-.6,2.1-.9,3.1,0,0,.2,0,.2,0h0c-.6,2.9-1.2,5.6-1.8,8.4-.9,4.7-1.8,9.4-2.7,14.2,0,0,0,0,0,0-.3,1.1-.5,2.3-.8,3.4Z"/>
        <path class="cls-1" d="M36.3,173.6c-.5.1-1,.2-1.5.3-.4-.4-.8-1.2-1.2-1.2-5-.3-9.9-.9-14.9.4-4.1,1-8.1,1.5-9.4,6.4-.1.5-1.1.8-1.7,1.2-1,.7-2.1,1.5-3.1,2.2-.4-1.9-.9-3.9-1.3-5.8,4.2-.5,7-3.5,10.1-5.9.6-.4,1.3-1.2,1.8-1.1,4.1.7,7.5-2,11.4-2,0,0,.2,0,.3.1,0,0-.2,0-.3-.1.6-.5,1.3-1.4,1.7-1.3,1.9.8,3.7,2.1,5.7,2.7,1,.3,2.4-.7,3.5-1.4.7-.4,1.1-1.3,1.6-2-.8,2.5-1.7,5-2.5,7.4Z"/>
        <path class="cls-14" d="M4.6,182.9c1-.7,2.1-1.5,3.1-2.2.6-.4,1.5-.7,1.7-1.2,1.3-4.9,5.3-5.4,9.4-6.4,5-1.3,9.9-.7,14.9-.4.4,0,.8.8,1.2,1.2-.9.4-1.7.9-2.6,1.3h0c-.2,0-.4,0-.7,0,0,0,0,0,0,0-4.4.5-8.8.5-13.1,1.5-2.4.5-5.4,2.1-6.3,4.1-1.5,3.2-4.6,2.7-6.7,4.2-.4-.7-.7-1.4-1.1-2.1Z"/>
        <path class="cls-9" d="M42.9,249.3c-1.5-1.6-3-3.1-4.6-4.7.1,0,.3-.2.4-.3,1.7,1.1,3,.8,3.6-1.3.3-1.2.5-2.4.9-3.5,1.5-4.7,3.3-9.3,4.5-14,1-3.8,1.3-7.7,1.9-11.6.7-5.5,1.3-10.9,2.1-16.4.1-.9.9-1.6,1.4-2.4.2,18.8-5.1,36.2-9.8,53.7-.2.1-.3.3-.4.5Z"/>
        <path class="cls-22" d="M100.1,285.6c-1-3.4-2.1-6.8-3.1-10.1,1.3,1.5,2.4,3.3,3.9,4.6,2.2,2,4.7,3.8,7.1,5.6,0,0,0,0,0,0,.7.4,1.3.9,2,1.3,0,0,0,0,0,0,0,.4,0,.8,0,1.3-3.3-.9-6.5-1.7-9.8-2.6Z"/>
        <path class="cls-5" d="M228.7,266.3c.1-.6.2-1.3.4-1.9q2.3-7.8,10.6-6.9c-3.7,2.9-7.3,5.9-11,8.8Z"/>
        <path class="cls-19" d="M197.4,269.5c-3.1,5.6-6.2,11.2-9.4,16.8-.2,0-.4.2-.6.2,1.2-2.1,2.5-4.2,3.7-6.4,1.2-2.3,2.3-4.7,3.4-7.1.8-1.9,1.5-3.8,2.3-5.8,0,0,0,0,0,0,2.5-5.3,1-10.8,1-16.3.5,1.1.9,2.1,1.4,3.2-.6,5.1-1.1,10.3-1.7,15.4Z"/>
        <path class="cls-19" d="M248.8,217.8c1.1,6.4,2.1,12.8,3.2,19.2,0,.5.2,1,.2,1.6,0,2.4,1.6,5-.8,7.1-.5-6.4-1.1-12.9-1.6-19.3-.3-2.9-.6-5.7-1-8.6Z"/>
        <path class="cls-19" d="M21.4,217.8c1.9-6.3,3.8-12.5,5.7-18.8,0,0,0,0,0,0,0,1.1,0,2.1,0,3.2h0c-.4,1.5-.9,3-1.3,4.5,0,0,0,0,0,0-2.7,4.8-3.4,10.1-3.2,15.5-.1.2-.3.3-.4.5-.3-1.7-.5-3.3-.8-5Z"/>
        <path class="cls-19" d="M25.3,213.9c-.5,3.8-1,7.6-1.5,11.5-.5-.9-1-1.7-1.6-2.6.1-.2.3-.3.4-.5,1.1-5.2,2.1-10.3,3.2-15.5,0,0,0,0,0,0,.4-.4.9-.9,1.3-1.3.1.1.2.2.4.3-.2.9-.5,1.8-.7,2.7,0,0,.1,0,.1,0-.2.7-.4,1.4-.6,2.1,0,0,0-.1,0-.1-.4,1.1-.7,2.2-1.1,3.3Z"/>
        <path class="cls-19" d="M262.4,231.4c-1-4.7-2-9.3-3-14,1,2.5,2,4.9,2.9,7.4.6,1.5,1,2.9,1.6,4.4-.5.7-1,1.5-1.5,2.2Z"/>
        <path class="cls-11" d="M275.3,84.1c-1.4,1.7-2.7,1.5-4.1.3.8-1.5,1.5-2.9,2.2-4.3.6,1.3,1.3,2.6,1.9,3.9Z"/>
        <path class="cls-9" d="M34.6,240.1c-1.2-1.6-2.4-3.1-3.7-4.7,0,0,.1-.1.1-.1.8.2,1.7.5,2.5.7h.7c0,.2,0,.4,0,.6,0,.2,0,.5,0,.7.2.9.5,1.7.7,2.6-.1,0-.2.2-.3.3Z"/>
        <path class="cls-9" d="M84,278.6c-1.1-.6-2.2-1.2-3.3-1.9h.1c1.2-.1,2.3-.1,3.6-.1,0,.5-.2,1.2-.3,1.9h0Z"/>
        <path class="cls-9" d="M212,276.8c1.8-.9,3.5-1.7,5.3-2.6-1.8.9-3.5,1.7-5.3,2.6Z"/>
        <path class="cls-19" d="M263.7,223.6c.4.9.9,1.8,1.3,2.6,0,.2,0,.5-.1.7-.4-1.1-.8-2.2-1.2-3.3Z"/>
        <path class="cls-19" d="M247.6,249.7c0-.3,0-.6-.1-.9.7-.4,1.4-.8,2.2-1.1-.7.7-1.3,1.4-2,2.1Z"/>
        <path class="cls-9" d="M86.5,280c-.9-.4-1.7-.9-2.6-1.3,0,0,0,0,0,0,.9.4,1.7.9,2.6,1.3,0,0,0,0,0,0Z"/>
        <path class="cls-9" d="M218.1,273.8c.5-.3,1.1-.7,1.6-1-.5.3-1.1.7-1.6,1Z"/>
        <path class="cls-19" d="M109.9,288.2c0-.4,0-.8,0-1.3.6.4,1.2.9,1.8,1.3-.6,0-1.2,0-1.8,0Z"/>
        <path class="cls-9" d="M37.3,243.3c-.4-.5-.8-.9-1.2-1.4,0,0,.1-.2.1-.2.4.4.9.9,1.3,1.3,0,0-.2.2-.2.2Z"/>
        <path class="cls-14" d="M5.8,185.5c.2.7.4,1.4.6,2.1-.2-.7-.4-1.4-.6-2.1Z"/>
        <path class="cls-9" d="M46.3,252.4c-.5-.4-1-.8-1.4-1.2.1-.1.3-.2.4-.4.4.4.9.9,1.3,1.3,0,0-.2.2-.3.3Z"/>
        <path class="cls-19" d="M264,229.1c.3-.5.6-1,.8-1.6-.3.5-.6,1-.8,1.6Z"/>
        <path class="cls-9" d="M35.4,241.2c-.3-.4-.6-.7-.9-1.1.1-.1.2-.2.3-.3.2.4.4.8.7,1.3,0,0-.1.1-.1.1Z"/>
        <path class="cls-9" d="M43.9,250.2c-.3-.3-.7-.6-1-.9.1-.2.2-.3.4-.5.2.4.4.8.7,1.3,0,0,0,0,0,0Z"/>
        <path class="cls-9" d="M44.8,251.2c-.3-.3-.6-.7-.9-1,0,0,0,0,0,0,.4.2.8.5,1.3.7-.1.1-.3.3-.4.4Z"/>
        <path class="cls-18" d="M223.6,270.2c0-.2-.1-.4-.2-.5.3,0,.6,0,.9,0-.2.2-.5.4-.7.6Z"/>
        <path class="cls-8" d="M285.7,181.6c0-.2,0-.4,0-.7,0,.2,0,.4,0,.7Z"/>
        <path class="cls-20" d="M288.6,129.3c0-.3-.2-.5-.3-.8,0,.3.2.5.3.8Z"/>
        <path class="cls-9" d="M36,241.9c-.2-.2-.4-.5-.6-.7,0,0,.1-.1.1-.1.2.2.4.4.6.6,0,0-.1.2-.1.2Z"/>
        <path class="cls-9" d="M37.9,244c-.2-.2-.4-.5-.6-.7,0,0,.2-.2.2-.2.2.2.4.4.6.7,0,0-.2.2-.3.3Z"/>
        <path class="cls-9" d="M38.4,244.6c-.2-.2-.3-.5-.5-.7,0,0,.2-.2.3-.3.2.2.4.4.7.6-.1.1-.3.2-.4.3Z"/>
        <path class="cls-19" d="M250.6,245.7c.3,0,.6,0,.9,0-.2.2-.5.5-.7.7,0-.2-.2-.5-.2-.7Z"/>
        <path class="cls-19" d="M249.5,247.7c.3-.3.5-.5.8-.8-.3.3-.5.5-.8.8Z"/>
        <path class="cls-8" d="M289.9,145.4c0-.3-.2-.6-.3-.9,0,.3.2.6.3.9Z"/>
        <path class="cls-9" d="M217.2,274.2c.3-.2.6-.3.9-.5-.3.2-.6.3-.9.5Z"/>
        <path class="cls-20" d="M48.5,105.4c0-.2,0-.5,0-.7,1.3-8.6,2.7-17.2,4-25.8.3-1.6.5-3.2,1-4.7.3-.9,1-1.6,1.6-2.4-2,10.9-3.9,21.7-5.9,32.6,0,.4-.4.7-.6,1Z"/>
        <path class="cls-11" d="M228.7,47.9c-2.2-3.2-4.4-6.4-6.6-9.6.9,0,2-.8,2.2,1.2,0,.8,2.5,1.3,3.8,1.9,0,.2,0,.5,0,.6,2.3,1.8,1.4,3.8.6,5.9Z"/>
        <path class="cls-20" d="M57,65.4c-.7,2.2-1.3,4.3-2,6.5.7-2.2,1.3-4.3,2-6.5Z"/>
        <path class="cls-11" d="M234,45.3c0-.4-.2-.9-.3-1.3.3,0,.5-.1.8-.2,0,.8.2,1.7.2,2.5-.7-.3-1.4-.7-2.1-1h0c.4,0,.8,0,1.3,0,0,0,.2,0,.3.1,0,0-.2-.1-.2-.2Z"/>
        <path class="cls-20" d="M58.3,61.9c-.5,1.2-1,2.3-1.4,3.5.5-1.2,1-2.3,1.4-3.5Z"/>
        <path class="cls-11" d="M270,82.1c-.3.5-.5,1-.8,1.5-.1,0-.3,0-.4-.1,0-.5.2-1.1.3-1.7.4.1.6.2.9.3Z"/>
        <path class="cls-11" d="M230,50.1c-.4-.7-.8-1.5-1.3-2.2.4.7.8,1.5,1.3,2.2Z"/>
        <path class="cls-11" d="M232.6,45.3c-.4-.3-.7-.6-1.1-1,.2-.2.5-.3.7-.5.1.5.3,1,.4,1.5h0Z"/>
        <path class="cls-11" d="M228,41.4c.2-.5.5-1,.7-1.5.2.1.4.2.6.4-.3.5-.6.9-1,1.4-.1,0-.2-.2-.4-.2Z"/>
        <path class="cls-11" d="M226.3,39.6c0,0,0,.2,0,.2,0,0-.2,0-.2,0,0,0,0-.2,0-.2,0,0,.2,0,.2,0Z"/>
        <path class="cls-11" d="M222.3,38.3c-.2-.3-.5-.5-.7-.8.2.3.5.5.7.8Z"/>
        <path class="cls-11" d="M249.4,81.5c0,0,0-.2.1-.3,0,0,0,.2-.1.3,0,0,0,0,0,0Z"/>
        <path class="cls-11" d="M258.5,82.8c0,0-.2,0-.3-.1,0,0,.2,0,.3.1,0,0,0,0,0,0Z"/>
        <path class="cls-24" d="M34.2,236c-.2,0-.4,0-.7,0,.2-1.1.4-2.2.6-3.4-.9-.4-1.7-.8-2.5-1.1,1.9-9.3,3.9-18.6,5.8-27.9,1.6-7.5,3.3-15,4.8-22.5.5-2.4.7-4.9,1-7.3.7-5.6,1.4-11.2,2.2-16.8,1.1-7.6,2.7-15.1,3.6-22.8,1.4-12.7,1.8-25.6,4.5-38.2,1.5-6.9,2.6-13.8,3.9-20.8,0-.5.4-.9.7-1.4.7.5,1.4,1.1,2.2,1.7,2.6-4.7,5.1-9.4,7.9-14.5.3,2.9.6,5.2.8,7.5.4,0,.9.1,1.3.2,3.7-7.2,7.5-14.3,11.1-21.3-5.1-1.6-7.8,1.1-10.3,4.4,0,0,0,0,0,0,1.8-4.1,3.6-8.2,5.5-12.3h-1.7c1.5-2,2.8-4.4,4.6-6.1,11.4-10.8,24.5-18.9,39.9-22.5,12.8-3.1,25.8-4.4,38.9-1.9,8,1.6,16,3,23.8,5.2,11.5,3.2,21.4,9.2,29.9,18,5.7,5.8,10.9,11.7,15,18.7.3.4.3,1,.5,1.5-.7-.3-1.5-.8-2.2-1-.7-.2-1.5-.3-2.3-.5,0,.8-.3,1.6,0,2.3.3,1,1,1.9,1.5,2.8,1.1,2,2.1,4,3.3,6.3-2.5-.2-3.4-5.5-6-1,0,.4,0,.8,0,1.3-1.8-1.4-3.6-2.7-5.4-4.1.1-.2.3-.4.4-.7.8,2,1.6,4,2.4,6-1.9.9-2,2.2-.6,3.7.5-.4.9-.8,1.3-1.1.2.9.4,1.7.7,2.6,0,0,0,.2-.1.3,0,0,.1-.2.2-.3.9.9,1.7,1.7,2.6,2.6-1.4.1-3.4-.6-3.3,2-3-6.4-6.1-12.8-9-19.2-5.9-13-14.6-22.9-28.8-27.1-.7-.2-1.5-.2-2.4-.2,4.6,3.3,9,6.4,13.4,9.5,6.2,4.4,10.6,10.5,14.1,17,3.6,6.8,6.6,13.9,8.9,21.2,1.8,5.6,2.4,11.7,3.1,17.6.6,4.5.7,9,.7,13.5-.1,6.5-1.2,12.8-4.8,17.4-2.4-9.5-4.5-19.7-7.6-29.6-3-9.8-7-19.4-10.6-29-.5.1-1,.3-1.6.4,2.7,11.4,6.5,22.7,3.9,34.8-5.1-16.8-13.3-32.2-21.5-47.7.3,2.2.8,4.5.9,6.7.2,10.5-1,20.8-4,30.8-2.5,8.3-6.3,16.1-12.1,22.8,0,0,0,0,0,0,1.1-7,2.1-13.9,3.2-20.9.1-.8.1-1.7,0-2.6-.6-6.3-1.3-12.6-1.6-18.8-.1-1.8.8-3.7,1.3-5.8-2.9.6-3.3,3-3.9,5.1-1,3.7-1.9,7.4-2.9,11.1-2.6,9.3-7.2,17.6-12.7,25.5-.2.3-.6.6-1.3,1.2,1.3-7.4,2.4-14.4,3.6-21.3,0-.6,0-1.3,0-1.9.2-1.1.6-2.2.7-3.3.3-4,.5-8,.7-12.1,0-1.9,0-3.9,0-5.7-3.8,8.7-7.3,17.4-11.3,25.9-3.5,7.4-15.4,20.4-17.8,20.6,4.5-14.7,9-29.5,13.5-44.2.3-.2.7-.4,1-.6-.1-.1-.3-.3-.4-.4-.2.3-.4.7-.6,1-1.6-1-2.2,0-2.9,1.3-3.5,6.6-6.9,13.4-10.8,19.7-4.2,6.8-8.9,13.4-13.4,20-1.1,1.6-2.2,3.1-3.2,4.6-.3-.1-.5-.2-.8-.4,2.3-8.3,2.2-17.2,6.4-25.1,2.6-5,4.4-10.4,6.6-15.6,0,0,0,0,0,0,.2-.2.4-.4.6-.6.3-2.3.6-4.6.9-7-2.4.8-5,4.1-4.7,6.2.1.8,1.2,1.4,1.8,2.1-2.3,4.1-4.9,8-6.9,12.2-5,10.2-9.7,20.6-14.4,30.9-1.8,3.9-3.4,7.9-5.2,11.9,0-.2,0-.5,0-.7-.6-4.7-1.9-9.3-1.7-14,.6-15.1,2-30.2,7.3-44.5,3.6-9.5,7.6-19,14.8-26.5,2.9-3,5.9-5.9,8.8-8.8.7-.2,1.4-.4,2.1-.6-.1-.3-.3-.6-.4-.8-.6.5-1.1,1-1.7,1.4-3.5,2.6-7.6,4.6-10.4,7.8-12.6,14.1-18.9,31.1-21.7,49.5-1,6.4-1.1,12.9-1.4,19.4-.4,9-.6,18-.6,26.9,0,5.3.7,10.6,1.1,15.9.1,1.9,0,3.8.1,5.7.2,7.2.4,14.4.6,21.5.2,6.4.4,12.9.7,19.3-2.4-2.1-4.8-4.2-7.3-6.4-2.9,1-6.2,2.1-10.1,2.8-.2,0,.2.2.7.5.6-1,1.2-1.9,1.8-2.9-.4-.2-.7-.5-1.1-.7-.7.9-1.4,1.9-1.4,3.1,2.1,5.7,1.8,6.7-1.3,8.1-.2-8.8-.6-17.6-.6-26.4,0-8.3.6-16.6.5-25-.1-8.9-1.1-17.8-1.1-26.6,0-7.4.9-14.7,1.3-22.1.2-2.9,0-5.8,0-8.7-.3,0-.5,0-.8-.1-1.3,11.7-2.6,23.4-3.8,35.2,0,0,0,0,0,0-2.9.1-3.6,2.1-3.9,4.5h0c-.2.7-.5,1.3-.7,2-.2.6-.4,1.2-.6,1.8-.2.9-.4,1.8-.6,2.7,0,.4,0,.8,0,1.2-.2.9-.4,1.8-.6,2.7,0,1.1,0,2.1-.1,3.2l-.5,3.3c0,.4,0,.8,0,1.2,0,1,.1,2,.1,3,0,.9.2,2-.2,2.7-2.1,3.7-2.4,7.7-2,11.8,0,1.3.2,2.6,0,3.9-1,6.3-4.1,12-4,18.7,0,3.5-1.7,7.1-2.8,10.7-1.5,4.8-3.1,9.5-4.5,14.3-1.9,6.1-3.6,12.3-5.5,18.4-.2.8-1.2,1.3-1.8,2ZM99.5,65.6c1.9,1.3,3,1.9,3.9,2.7,1.8,1.5,3.1,1.1,4.1-.9,1.1-2.3,2.3-4.6,3.3-7,.3-.6-.1-1.7-.5-2.3-.2-.3-1.3-.4-1.6-.2-3,2.4-5.9,4.9-9.2,7.6ZM207,72.8c.9-.8,1.4-1,1.5-1.4.8-2.1-2.8-10.5-5-11.1-.4-.1-1.7,1.1-1.6,1.3,1.5,3.7,3.2,7.2,5.1,11.2ZM78.6,61.9c3.5-3.7,4.1-7.9,6-11.7-3.3,0-6.6,6.2-6,11.7ZM202.4,73.6l1.2-.5c-1.3-2.9-2.7-5.8-4-8.7-1.4,4,1.4,6.3,2.8,9.2ZM67.8,87.2c-.4,0-.7-.1-1.1-.2,0,1.2-.1,2.3-.2,3.5.2,0,.4,0,.5,0,.2-1.1.5-2.2.7-3.4ZM121,28.7c0,0-.2,0-.2,0,0,0,0,.1,0,.2,0,0,.2,0,.2,0,0,0,0-.1,0-.2Z"/>
        <path class="cls-9" d="M235.2,180.4c0,3.9.1,7.8,0,11.7,0,1.3-.8,2.5-1.3,3.7-.8-6.6-1.5-13.1-2.3-19.7,0-.6-.2-1.3-.2-1.9-.2-7.7-.5-15.4-.7-23.1-.2-8.3,0-16.6-.7-24.9-.9-11.4-2.5-22.7-3.7-34.1-.1-1,0-1.9,0-2.9h0c.5,1.7.9,3.4,1.4,5.1,4,15.8,4.5,31.9,5.1,48,.4,9.6.8,19.3,1.3,28.9.2,3.1.8,6.1,1.2,9.2Z"/>
        <path class="cls-16" d="M221.7,61.5c2.6-4.6,3.5.7,6,1-1.2-2.3-2.3-4.3-3.3-6.3-.5-.9-1.2-1.8-1.5-2.8-.2-.7,0-1.6,0-2.3.8.2,1.6.2,2.3.5.8.3,1.5.7,2.2,1,2.7,7.1,5.5,14.2,8.2,21.3.3.8.4,1.7.5,2.5-1.4,1.5-2.4,1.3-3.2-.6-.6-1.5-1.5-3-2.3-4.5-.2-.6-.4-1.3-.6-1.9,0-.2,0-.4,0-.6,0-.3-.2-.5-.2-.8-.3.3-.7.5-1,.8-2.4.3-3.7-1-4.6-3.1-.6-1.4-1.6-2.7-2.5-4Z"/>
        <path class="cls-9" d="M215.2,266.3c1.5-6.4,2.8-12.9,4.5-19.2,1.3-4.7,3.1-9.2,5.3-13.6-.9,3.6-1.7,7.2-2.7,10.7-1.8,6.6-3.7,13.1-5.7,19.7-.3.9-1,1.6-1.5,2.5h0Z"/>
        <path class="cls-16" d="M220.4,69.2c-.2-.9-.4-1.7-.7-2.6-.2-.9-.4-1.7-.7-2.6-.8-2-1.6-4-2.4-6-.1.2-.3.4-.4.7,1.8,1.4,3.6,2.7,5.4,4.1.9,2.8,1.7,5.6,2.6,8.4-.2.2-.4.4-.7.7-.2,0-.4,0-.6,0-.9-.9-1.7-1.7-2.6-2.6h0Z"/>
        <path class="cls-24" d="M230,69.2c.2.6.4,1.3.6,1.9-.6.4-1.3.9-1.9,1.3h0c-.6-.5-1.1-1.1-1.7-1.7l2.9-1.6Z"/>
        <path class="cls-24" d="M223.6,71.8c.2-.2.4-.4.7-.7,2.9.1,1.8,1.5.8,3.2-.6-.9-3.3-.1-1.5-2.5Z"/>
        <path class="cls-24" d="M226.8,76q1.9-2.5,4.5,0h-4.5Z"/>
        <path class="cls-9" d="M226.2,89.2c-.3-.5-.6-1-.9-1.5.2,0,.3-.2.5-.3.2.6.3,1.1.5,1.7,0,0,0,0,0,0Z"/>
        <path class="cls-24" d="M230.2,76.4c-.3.3-.5.6-.8.9l-.4-.4c.3-.3.6-.5.9-.8,0,0,.2.2.2.2Z"/>
        <path class="cls-9" d="M215.2,266.3c0,.4,0,.8,0,1.3-.1,0-.3,0-.4,0,.2-.4.3-.8.5-1.2,0,0,0,0,0,0Z"/>
        <path class="cls-24" d="M228.8,68.5c.3-.3.7-.5,1-.8,0,.3.2.5.2.8-.4,0-.8,0-1.3,0Z"/>
        <path class="cls-24" d="M228.8,72.4c0,0,.2,0,.2.1,0,0-.2,0-.3-.1,0,0,0,0,0,0Z"/>
        <path class="cls-17" d="M214.6,129.3c.2,0,.4-.2.6-.3,0,3.9,0,7.9,0,12.2.9-1.4,1.5-2.5,2.1-3.5-.1,1-.2,2.1-.4,3.1-1.7,7.1-3.4,14.2-5.1,21.3,0,0,0,0,0,0-1.5,5.6-3,11.3-4.5,16.9,0,0,0,0,0,0-.2.7-.5,1.3-.7,2,0,0,0,0,0,0-.2.7-.5,1.3-.7,2,0,0,0,0,0,0-.3.6-.5,1.2-.8,1.7h0c-.4.8-.7,1.5-1.1,2.2h0c-.7,1-1.4,2.1-2.1,3.2h0c-.2.2-.4.4-.6.7h0c-.3.4-.5.8-.8,1.3h0c-.2.2-.4.4-.6.7,0,0,0,0,0,0-.3.4-.6.8-.8,1.2,0,0,.1-.1.1-.1-.2.3-.4.5-.7.8,0,0,0,0,0,0-2.4,2.6-4.8,5.1-7.2,7.7,0,0,.2,0,.2,0h-.1c-1.3,1-2.6,2.1-3.8,3.2,0,0,0,0,0,0-.3.2-.5.5-.8.7,0,0,0,0,0,0-1.5,1.1-2.9,2.3-4.4,3.4,0,0,0,0,0,0l-9.1,5.8h0c-.4.2-.9.4-1.3.7,0,0,0,0,0,0-3.2,1.6-6.4,3.2-9.6,4.9-5.5,2.3-11.2,4.1-17.3,2.7h0c-1.3-.3-2.7-.7-4-1.2h0c-.7-.2-1.4-.4-2-.6,0,0,0,0,0,0-.4-.2-.8-.4-1.2-.7-6.5-3.9-13.1-7.6-19.5-11.7-4.2-2.6-8.2-5.6-12.3-8.4,0,0,0,0,0,0-.2-.3-.4-.5-.7-.8-.2-.2-.4-.3-.6-.5-1.1-1.1-2.2-2.1-3.3-3.2,0,0,0,0,0,0-.4-.5-.8-.9-1.2-1.4h0c-.2-.2-.4-.5-.6-.7h0c-.2-.2-.3-.5-.5-.7,0,0,0,0,0,0-.3-.4-.6-.7-.9-1.1,0,0,0,0,0,0-.3-.4-.5-.9-.8-1.3,0,0,0,0,0,0-.3-.5-.6-1-.9-1.5,0-.1,0-.2-.2-.3-.7-1.2-1.4-2.3-2.2-3.5,0,0,0,0,0,0-.2-.4-.5-.9-.7-1.3,0,0,0,0,0,0-.2-.2-.5-.5-.7-.7,0,0,0,0,0,0-.2-.5-.4-1-.6-1.4,0,0,0,0,0,0-.5-.9-.9-1.8-1.4-2.6,0,0,0,0,0,0-1.5-5.2-3.1-10.3-4.6-15.5.2-.9.5-1.9.5-2.8-.2-4.2-.4-8.3-.7-12.5,0-1.1-.7-2.2-1.1-3.3v-18.2c1.2,1.6,1.8,2.5,2.6,3.6.4-1.2.8-2.1,1.1-3,.5.7.9,1.3,1.4,2,.5.8.9,1.5,1.4,2.3h-.1c.5.4,1.1.7,1.6.9.3,0,.6,0,.9,0-1.5.8-3.1,1.6-4.9,2.5,3.5-.1,5.1,1.6,5.5,4.8,0,.7.5,1.4.8,2,.3.3.5.6.8,1,0,0,0-.2,0-.2.8,1.6,1.7,3.2,2.5,4.8.5.8.9,1.5,1.6,2.6-.9-.2-1.6-.4-2.3-.5-.6,0-1.2,0-1.8,0,0,.1,0,.3,0,.4,1.5.5,3,1.1,4.7,1.7-.6.2-1,.4-1.3.5,2.3,2,3.9.3,5.7-.9,1.3,1,4.1-.5,4.2,2.4,5.3-.6,11.2,2.2,15.6-3.9,3.4-4.7,6.7-8.8,5.6-15.3-1.5-.3-3.1-.7-4.8-1-.6-1.3-1.3-2.6-1.9-3.9,2.4.9,4.8,1.7,7.1,2.6.1-.2.2-.3.3-.5-1.3-1.5-2.6-2.9-4-4.4,0,0,0,0,0,0-.5-.5-1-1-1.5-1.5v-.2c1.2.3,2.3.6,3.7.9,0-.8.2-1.6.3-2.4.1,0,.2,0,.3,0,0,0,.2,0,.3-.1-1.1-1-2.2-2.1-3.3-3.1-.9-.4-1.8-1.1-2.7-1.1-3.9,0-7.8.3-11.6.5.2-.3.4-.6.5-.9,0,0,0,0,0,0,.3-.3.6-.6,1-1,1.7-1.6,3.5-3.3,5.2-4.9.3-.3.5-.5.8-.8h0c.3-.1.5-.3.8-.6,0,0,0,0,0,0,1-.3,1.9-.7,2.9-1,2.7-.8,5.4-1.5,8.1-2.3,0,0,0,0,0,0l1.4-.3c.8-.4,1.6-.8,2.3-1.2.4-.3.8-.5,1.2-.8.4-.2.9-.4,1.3-.6.2,0,.4,0,.6,0l.2.2c-.7,2.3-1.4,4.6-1.9,7-.2.9.2,2,.3,2.9.9-.5,1.9-1.1,2.8-1.6h0c.2-.2.5-.4.7-.6,0,0,0,0,0,0,.4-.4.8-.8,1.2-1.2.6-.8,1.3-1.5,1.9-2.3.4.3,1,.9,1,.8,1.6-1.4,3.3-2.7,4.7-4.3,2.5-3.1,4.9-6.3,7.3-9.5.5.9.3,1.5.4,2.2.3,3.5.7,7,1,10.6-.2.8-.4,1.5-.6,2.3,0,0,0,0,0,0-.4,1.1-.7,2.2-1.1,3.3-.7,1.6-1.4,3.3-2.1,4.9.2.2.5.5.7.7,2.2-1.9,4.8-3.6,6.6-5.9,2.8-3.4,5.1-7.1,7.6-10.7.6.4,1.2.8,1.8,1.1,0,0-.1,0-.1,0,.9.8,1.7,1.7,2.6,2.5,0,0,0,0,0,0,.4.3.8.6,1.2.9,0,0-.1,0-.1,0,.3.2.5.4.8.6,0,0,0,0,0,0,1.1.5,2.1,1,3.2,1.4,0,0,0,0,0,0,1.5.5,3,1,4.6,1.4,0,0,0-.1,0-.1,3.4.9,6.8,1.8,10.2,2.9,1.1.3,3,1,3.1,1.6,0,1.9,1.5,4.3-1.2,5.7,0,0,.1,0,.1,0-.3-.3-.6-.7-.9-.8-5.5-.4-11-.9-16.4-1.2-.6,0-1.3.9-1.9,1.4-.6.5-1.3,1-1.9,1.4.2.7.4,1.5.5,2.2.7.5,1.3,1,2,1.5-.3.3-.6.6-.9.9h0c-.5.4-1,.8-1.4,1.3,0,0,0,0,0,0-.2.3-.4.5-.7.8,0,0,0,0,0,0-.2.6-.4,1.3-.7,2.4,1.3-.6,2.2-1,3-1.4h0c.6,0,1.2-.2,1.8-.3,0,.2,0,.4,0,.7-.4.4-.8.9-1.2,1.3-3.5,1.5-3.7,3.8-3.6,7.6.1,5.5,6.1,7,6.3,11.8,0,0,.2.1.3.2,3,.6,6.1,1.1,9.1,1.7,0-.3.1-.6.2-.9-.3-.1-.6-.2-.8-.4-.2-.2-.2-.5-.6-1.6h6.6c-.2.7-.4,1.3-.6,2.2,2.6-.3,4.9-.6,7.2-.9-.3-1.4-.5-2.5-.7-3.6,1.3-1.5,2.6-2.9,4-4.4,1.1-1.9,2.3-3.8,3.4-5.7h0c.4-.6.8-1.3,1.3-2h.3s.3-.1.3-.1c1.3-.3,2.6-.5,3.9-.8v-.5c-1.7-.2-3.3-.5-5.7-.8,1.9-1.7,3.2-2.9,4.5-4,0,0,0,0,0,0,.2-.2.5-.5.7-.7,0,0,0,0,0,0,.2-.3.4-.5.7-.8,0,0,0,0,0,0,.2-.2.4-.5.6-.7ZM163.5,194.4c.4.2.7.5,1.1.7,1,.5,2,.9,3.8,1.8-.2-1.5-.3-2.4-.4-3.3-2.3-2.9-5.5-2.2-8.5-2.1-4.4.1-8.7.2-13.1.4-2.5.1-4.9.4-7.4.6-1.8.7-3.7,1.5-5.5,2.2.1.5.3.9.4,1.4,1,0,2.1,0,3.1-.2,1.4-.3,2.8-.9,4.2-1.4,7.5,0,15,0,22.5,0h0ZM159,162.2c0,0-.2-.1-.2-.2,0,0-.1,0-.2,0,.1,0,.3,0,.4,0-.1,1.6-.2,3.3-.3,4.9-.1,0-.3,0-.4,0-.2-.6-.3-1.2-.3-1.3-.3,1.8-.6,4.1-.9,6.6,4.3-3,4.5-4.4,1.9-10.3Z"/>
        <path class="cls-18" d="M206.1,184.9c2,1.1,2.8.2,3.3-1.8,1-4.1,4.3-7.8,8.4-9.2-.4,3.8-.9,7.4-1.2,11-.2,2,.1,4.1.1,6.2,0,4.9,0,9.8-.3,14.7-.4,7.4-1.2,14.7-1.7,22.1-.3,4.7-.5,9.4-.9,14.1-.2,2.8-.7,5.5-1.3,8.2-.4,1.9-3.5,2.8-4.1,1.2-1.1-2.7-3.7-2.2-5.4-3.2-1.1-.7-2.3-1.5-3.2-2.4-1.1-1.2-4.9-1.9-6.4-1.2-1,.5-2.3.4-3.5.5,0,0,0,0,0,0-1.4-.9-2.8-1.8-4.2-2.7.4-.1,1.2-.4,1.9-.7-.1-.3-.2-.6-.4-.8-1.5.7-3,1.3-4.6,2-.2-.5-.4-1.1-.7-1.9-1.6,1.4-3.1,2.6-4.5,3.8,0,0,0-.1,0-.1-.5-1.2-1-2.4-1.6-3.6-.8,0-1.7.1-2.5.2h0c-.8.5-1.5.9-2.4,1.5.7-6.4,1.3-12.9,2-19.5.2-1.9.2-3.7-1.8-4.6.4-.9.8-1.8,1.2-2.7,0,0,0,0,0,0,.4-.2.9-.5,1.3-.7,0,0,0,0,0,0,1.1-.2,2.2-.3,3.4-.5h0c3.9.3,4.7-.5,5.8-5.2,0,0,0,0,0,0,.9.1,1.8.3,3.3.5.4-1.3.7-2.6,1.1-3.9,0,0,0,0,0,0,.3-.2.5-.5.8-.7,0,0,0,0,0,0,2.4.2,4.5,0,3.8-3.3h.1c0,.1-.2,0-.2,0,.9.2,1.8.4,3,.7v31.7c.4,0,.9,0,1.3,0,1.4-4.9.3-9.9.3-14.9,0-3.6,0-7.2.2-10.7,0-1.7.8-3.4.4-5-.4-1.9-.1-3,1.2-4.2,1.6-1.4,2.5-3.1.8-5.2,0,0,0,0,0,0,.2-.3.4-.5.7-.8,0,0-.1.1-.1.1.3-.4.6-.8.8-1.2,0,0,0,0,0,0,.2-.3.4-.5.6-.8,0,0,0,.1,0,.1.3-.4.5-.9.8-1.3,0,0,0,0,0,0,.2-.3.4-.5.6-.8,0,0,0,0,0,0,.7-1.1,1.4-2.2,2.1-3.2,0,0,0,0,0,0,.4-.7.7-1.4,1.1-2.1,0,0,0-.1,0-.1.3.1.6.2.9.3Z"/>
        <path class="cls-17" d="M171.9,103.5c3.9-9.2,7.1-18.5,8.5-28.4,1.2,2.4,2.5,4.9,3.7,7.3.6,1.1,1.3,2.2,1.8,3.4,3.3,7.6,6.5,15.2,9.8,22.8.3.8,1.2,1.4,1.8,2,0,.4,0,.9,0,1.3-1.2,0-2.5,0-3.7-.3-5.3-1.3-10.5-2.8-15.7-4.2,0,0,0,0,0,0-.4-.2-.9-.5-1.3-.7,0,0,0,0,0,0-.7-.4-1.4-.8-2.1-1.2,0,0,.1,0,.1,0-.5-.3-.9-.5-1.4-.8,0,0,0,0,0,0-.3-.2-.6-.4-.8-.6,0,0,0,.1,0,.1-.4-.3-.7-.6-1.1-.9Z"/>
        <path class="cls-23" d="M197.6,110.5c-.6-.7-1.5-1.2-1.8-2-3.3-7.6-6.5-15.2-9.8-22.8-.5-1.2-1.2-2.3-1.8-3.4-1.3-2.4-2.5-4.9-3.7-7.3.3-2.3.5-4.7.8-7,.3,0,.7,0,1,0,5.5,9.6,9.1,20.1,12.9,30.5.9,3.1,1.7,6.2,2.6,9.3h-.2s0,.1,0,.2c0,.9.1,1.8.2,2.7Z"/>
        <path class="cls-23" d="M159.2,111.3c-.4-3.5-.7-7-1-10.6,0-.6,0-1.2-.4-2.2-2.4,3.2-4.7,6.4-7.3,9.5-1.4,1.6-3.1,3-4.7,4.3,0,0-.7-.5-1-.8,3.1-4.5,6.4-8.9,9.1-13.6,2.3-4,3.9-8.4,5.7-12.7.1-.2.2-.4.1-.6,0,0,0,0,0,0,2.1-.7,2.4.7,2.4,2.2.2,8.2-.2,16.4-2.9,24.3Z"/>
        <path class="cls-23" d="M199.1,254c-.5-1.1-.9-2.1-1.4-3.2-.2.4-.5.9-.7,1.3-2.1-.8-4.2-1.7-6.3-2.4-.8-.3-1.7-.2-2.6-.3-1.2-1.9-2.4-3.7-3.6-5.6,0-.2.2-.4.3-.6,1.7.6,3.4,1.2,5.2,1.7,0,0,0,0,0,0,6,2.6,12,5.1,18,7.7.3.1.6.3.8.4,1.8,1.1,2.2,2.8,1.9,4.7-.4.9-.9,1.7-1.3,2.6-3.2-2-6.4-3.9-9.6-5.9-.2-.2-.4-.3-.7-.5Z"/>
        <path class="cls-5" d="M198.4,122.4c1-1.8,2.1-3.7,3.2-5.7.9,0,2.1.1,3.2.2.9,0,1.7.1,2.6.2.7,4,1.3,8.1,2.1,12.1.1.5.9,1,1.3,1.4-.3,1.8-1.4,2.2-3,1.6-1-.4-2-.7-3-1,0,0,0,0,0,0,0-.1-.1-.2-.1-.4-1.5-.9-3-1.8-4.4-2.8,0-.2,0-.4,0-.6.9.3,1.7.7,2.7,1.1.4-2.9-1.2-3.6-3.4-3.6h0c-.3-.8-.7-1.6-1-2.5Z"/>
        <path class="cls-23" d="M203,99.6v-8.6c.3,0,.6,0,.9-.1,1.9,7,3.9,13.9,5.8,20.9.3,1,1.1,2.4-1,2.5-4.5-1.8-3.1-6.2-4.1-9.6-.3.5-.6.9-.7,1.2-.3-2.1-.5-4.1-.8-6.2Z"/>
        <path class="cls-23" d="M215.2,160.3c.2-.7.4-1.3.6-2,.1-.6.2-1.2.3-1.7,0-.1-.1-.2-.2-.3.5-.3,1.1-.5,2.6-1.3-.6,5-1.1,9.4-1.6,13.8-2.3,2.3-4.5,4.7-6.8,7,0-.4-.2-.7-.3-1.1,1.1-2.6,2.2-5.2,3.3-7.8.4-1.3.8-2.6,1.2-3.9,0,0,0,0,0,0,.3-.9.6-1.7.8-2.6Z"/>
        <path class="cls-19" d="M211.7,162.2c1.7-7.1,3.5-14.2,5.1-21.3.2-1,.3-2,.4-3.1,0,0,0,0,0,0,.3-.9.6-1.8,1-2.6.3-2.7.8-5.4.9-8.1,0-2.2-.9-2.4-2.3-.8.2-2.1.6-4.2,3.5-5.8-.2,4.2,0,7.8-.7,11.1-2,9.7-4.4,19.3-6.7,28.9-.2.6-.7,1.2-1.1,1.8Z"/>
        <path class="cls-23" d="M216.7,126.2c1.4-1.7,2.4-1.5,2.3.8-.1,2.7-.6,5.4-.9,8.1-.3.9-.6,1.8-1,2.6,0,0,0,0,0,0-.6,1-1.2,2.1-2.1,3.5,0-4.3,0-8.3,0-12.2.4-.8.9-1.6,1.3-2.4.2-.1.2-.3.2-.5h0Z"/>
        <path class="cls-15" d="M203,99.6c.3,2.1.5,4.2.8,6.2.2-.3.4-.6.7-1.2,1,3.4-.5,7.9,4.1,9.6h-6.9c.5-5.4.9-10,1.3-14.7Z"/>
        <path class="cls-23" d="M210.8,130.6c-.5-.5-1.2-.9-1.3-1.4-.8-4-1.4-8.1-2.1-12.1.9-.1,1.9-.3,3.2-.5.3,4,.6,7.7.9,11.4,0,.4,0,.9-.1,1.3-.2.4-.4.9-.6,1.3Z"/>
        <path class="cls-19" d="M159.2,111.3c2.7-7.9,3.1-16.1,2.9-24.3,0-1.5-.3-2.9-2.4-2.2.7-1,1.3-2.1,2.3-3.6.5,1.3.8,1.7.8,2.2.3,9.5.2,18.9-2.7,28-.3.8-1,1.5-1.5,2.2.2-.8.4-1.5.6-2.3Z"/>
        <path class="cls-19" d="M217,168.6c.5-4.4,1-8.8,1.6-13.8-1.5.8-2.1,1.1-2.6,1.3.3-2.5.6-5,.9-7.5.3,0,.6-.2.9-.3.5.7,1.3,1.4,1.3,2.2.1,4.7.2,9.4,0,14.1,0,1.4-1.3,2.7-2,4ZM217.5,153.7c-.2,0-.4-.2-.5-.2,0,.2-.3.4-.2.5,0,.1.4.3.5.2.1,0,.2-.3.2-.5Z"/>
        <path class="cls-19" d="M147.9,84.1c0,.6,0,1.3,0,1.9-.6,1.6-1.3,3.1-1.8,4.8-1.4,4.7-2.6,9.3-3.9,14-.1,0-.2-.2-.3-.3.7-2.8,1.4-5.6,2-8.5.1-.9.2-1.9.4-2.8,0,0,0,0,0,0,.2-.6.5-1.2.7-1.8.5-2.5,1-4.9,1.5-7.4.5,0,1,0,1.6.1Z"/>
        <path class="cls-19" d="M210.8,130.6c.2-.4.4-.9.6-1.3.5.7.9,1.4,1.4,2.1-1.3,1.2-2.7,2.4-4.5,4,2.4.3,4,.6,5.7.8v.5c-1.3.3-2.6.5-3.8.8-1.6-2.3-2.5-5-5.2-6.4,1,.3,2,.6,3,1,1.6.6,2.7.2,3-1.6Z"/>
        <path class="cls-13" d="M198.4,122.4c.3.8.7,1.7,1,2.5-1.1-.4-2.1-.8-3.2-1.2,2.7-1.4,1.3-3.8,1.2-5.7,0-.6-1.9-1.3-3.1-1.6-3.4-1-6.8-1.9-10.2-2.9,4.6.9,9.3,1.8,14.2,2.8v6.1Z"/>
        <path class="cls-13" d="M178.3,107.4c5.2,1.4,10.5,2.8,15.7,4.2,1.2.3,2.5.2,3.7.3-.3.4-.7,1.1-1,1.1-1.4-.1-2.7-.5-4.1-.7-.2,0-.5-.1-.7-.2-1.6-.4-3.2-.8-4.9-1.2,0,0-.1,0-.1,0-.7-.2-1.3-.4-2-.5,0,0,0,0,0,0-.8-.3-1.7-.5-2.5-.8h-.2c0,0,.2,0,.2,0-.5-.2-1-.3-1.5-.5,0,0,0,0,0,0-.5-.2-1-.5-1.5-.7-.4-.3-.9-.7-1.3-1Z"/>
        <path class="cls-19" d="M209.9,174.6c0,.4.2.7.3,1.1-.9,1.1-1.9,2.2-2.8,3.3,1.5-5.6,3-11.3,4.5-16.9-.7,3.4-1.4,6.8-2,10.2-.1.7,0,1.5.1,2.3Z"/>
        <path class="cls-19" d="M211.5,128c-.3-3.7-.6-7.4-.9-11.4-1.3.2-2.2.3-3.2.5-.9,0-1.7-.1-2.6-.2,2-.6,3.9-1.1,6.3-1.8.4,4.3.7,8.3,1.1,12.4,0,.1-.5.3-.8.5Z"/>
        <path class="cls-19" d="M192.6,112.2c1.4.3,2.7.6,4.1.7.3,0,.7-.7,1-1.1,0-.4,0-.9,0-1.3,0-.9-.1-1.8-.2-2.7.5,1.4,1.1,2.9,1.4,4.3,0,.4-1,1.6-1.4,1.5-1.7-.3-3.2-1-4.9-1.5Z"/>
        <path class="cls-19" d="M197.7,107.7c-.9-3.1-1.7-6.2-2.6-9.3.9,3.1,1.7,6.2,2.6,9.3Z"/>
        <path class="cls-19" d="M142.1,104.7c-.9,2.6-1.7,5.2-2.6,7.8,0,0,0,0,0,0,.8-2.7,1.5-5.3,2.3-8,.1,0,.2.2.3.3Z"/>
        <path class="cls-22" d="M209.4,260.4c.4-.9.9-1.7,1.3-2.6.2,0,.3,0,.5,0-.5,2.2-1.1,4.4-1.6,6.6,0-1.4-.1-2.7-.2-4.1Z"/>
        <path class="cls-19" d="M139.6,112.5c.5.9,1,1.8,1.5,2.6,0,.2-.2.4-.2.6,0,0,0,0,0,0-.8.5-1.7.9-3.3,1.8.8-2.2,1.4-3.7,1.9-5.1h0Z"/>
        <path class="cls-12" d="M211.1,257.9c-.2,0-.3,0-.5,0,.3-1.9,0-3.6-1.9-4.7,1,.1,2,.2,3.3.3-.3,1.6-.6,3-.9,4.4Z"/>
        <path class="cls-22" d="M208.3,269.7c.5-1.7.9-3.5,1.4-5.2-.5,1.7-.9,3.5-1.4,5.2Z"/>
        <path class="cls-19" d="M187.1,110.8c1.6.4,3.2.8,4.9,1.2-1.9.8-3.6.8-4.9-1.2Z"/>
        <path class="cls-10" d="M214.5,162.8c-.4,1.3-.8,2.6-1.2,3.9.4-1.3.8-2.6,1.2-3.9Z"/>
        <path class="cls-13" d="M184.3,113.7c-1.5-.5-3-1-4.6-1.4,1.5.5,3,1,4.6,1.4Z"/>
        <path class="cls-22" d="M207.1,273.5c.4-1.3.9-2.5,1.3-3.8-.4,1.3-.9,2.5-1.3,3.8Z"/>
        <path class="cls-19" d="M157.6,116.9c.4-1.1.7-2.2,1.1-3.3-.4,1.1-.7,2.2-1.1,3.3Z"/>
        <path class="cls-13" d="M174.7,109.6c-.9-.8-1.7-1.7-2.6-2.5.9.8,1.7,1.7,2.6,2.5Z"/>
        <path class="cls-22" d="M204.9,279.5c.5-1.2.9-2.3,1.4-3.5-.5,1.2-.9,2.3-1.4,3.5Z"/>
        <path class="cls-13" d="M179.8,112.3c-1.1-.5-2.1-1-3.2-1.4,1.1.5,2.1,1,3.2,1.4Z"/>
        <path class="cls-13" d="M172.3,107c-.6-.4-1.2-.8-1.8-1.1.1-.4.3-.7.6-1.4.5,1.1.9,1.8,1.2,2.6Z"/>
        <path class="cls-10" d="M215.2,160.3c-.3.9-.6,1.7-.8,2.6.3-.9.6-1.7.8-2.6Z"/>
        <path class="cls-10" d="M216.1,156.5c-.1.6-.2,1.2-.3,1.7.1-.6.2-1.2.3-1.7Z"/>
        <path class="cls-19" d="M182.5,109.6c.8.3,1.7.5,2.5.8-.8-.3-1.7-.5-2.5-.8Z"/>
        <path class="cls-13" d="M174.9,105.5c.7.4,1.4.8,2.1,1.2-.7-.4-1.4-.8-2.1-1.2Z"/>
        <path class="cls-22" d="M206.2,276.1c.3-.8.6-1.6.9-2.4-.3.8-.6,1.6-.9,2.4Z"/>
        <path class="cls-19" d="M206.7,181c.2-.7.5-1.3.7-2-.2.7-.5,1.3-.7,2Z"/>
        <path class="cls-19" d="M206,182.9c.2-.7.5-1.3.7-2-.2.7-.5,1.3-.7,2Z"/>
        <path class="cls-19" d="M206.1,184.9c-.3-.1-.6-.2-.9-.3.3-.6.5-1.2.8-1.7,0,.7,0,1.4,0,2.1Z"/>
        <path class="cls-19" d="M184.9,110.3c.7.2,1.3.4,2,.5-.7-.2-1.3-.4-2-.5Z"/>
        <path class="cls-13" d="M142.8,113.9c-.4.4-.8.8-1.2,1.2.4-.4.8-.8,1.2-1.2Z"/>
        <path class="cls-13" d="M171.9,103.5c.4.3.7.6,1.1.9-.4-.3-.7-.6-1.1-.9Z"/>
        <path class="cls-13" d="M173.7,104.8c.5.3.9.5,1.4.8-.5-.3-.9-.5-1.4-.8Z"/>
        <path class="cls-13" d="M177,106.7c.4.2.9.5,1.3.7-.4-.2-.9-.5-1.3-.7Z"/>
        <path class="cls-19" d="M179.6,108.4c.5.2,1,.5,1.5.7-.5-.2-1-.5-1.5-.7Z"/>
        <path class="cls-19" d="M181,109.1c.5.2,1,.3,1.5.5-.5-.2-1-.3-1.5-.5Z"/>
        <path class="cls-13" d="M175.9,110.5c-.4-.3-.8-.6-1.2-.9.4.3.8.6,1.2.9Z"/>
        <path class="cls-13" d="M140.8,115.7c0-.2.2-.4.2-.6.2,0,.3,0,.5,0-.2.2-.5.4-.7.6Z"/>
        <path class="cls-19" d="M216.7,126.2c0,.2,0,.3-.2.5,0-.2.2-.3.2-.5Z"/>
        <path class="cls-19" d="M159.7,84.7c0,.2,0,.4-.1.6,0-.2-.1-.3-.1-.5,0,0,.2,0,.3-.1Z"/>
        <path class="cls-19" d="M214.6,129.3c-.2.2-.4.5-.6.7.2-.2.4-.5.6-.7Z"/>
        <path class="cls-19" d="M214,130c-.2.3-.4.5-.7.8.2-.3.4-.5.7-.8Z"/>
        <path class="cls-19" d="M213.5,130.7c-.2.2-.5.5-.7.7.2-.2.5-.5.7-.7Z"/>
        <path class="cls-13" d="M173,104.3c.3.2.6.4.8.6-.3-.2-.6-.4-.8-.6Z"/>
        <path class="cls-13" d="M176.6,111c-.3-.2-.5-.4-.8-.6.3.2.5.4.8.6Z"/>
        <path class="cls-24" d="M162.2,112.5c0,0-.1.2-.2.3,0-.1,0-.2.1-.3,0,0,0,0,0,0Z"/>
        <path class="cls-20" d="M245.5,127.4c-.3-5.4-.7-10.8-1-16.2.6,2.5,1.4,4.9,1.7,7.4.4,4.3.5,8.6.6,12.9,0,.3-.4.7-.6,1-.2-1.7-.4-3.4-.6-5.2Z"/>
        <path class="cls-19" d="M245.5,127.4c.2,1.7.4,3.4.6,5.2,0,1.5.1,3,.2,4.5,0,2.4-.1,4.7-.2,7.1-.3-.2-1-.4-1-.7,0-5.4.2-10.7.3-16.1Z"/>
        <path class="cls-2" d="M249.7,90.3l2.3.9c-.1.3-.2.5-.3.8l-2.3-1.1c0-.2.2-.4.3-.6Z"/>
        <path class="cls-2" d="M251.3,95.8c-.5.2-.8.4-1,.3-.2,0-.3-.4-.5-.6.3-.1.5-.4.8-.3.2,0,.4.3.7.6Z"/>
        <path class="cls-2" d="M277.2,94.4c0,0,.2,0,.3.1h-.3c0-.1,0-.1,0-.1Z"/>
        <path class="cls-16" d="M71.1,51.7c2.5-3.3,5.2-6,10.3-4.4-3.6,7-7.4,14.1-11.1,21.3-.4,0-.9-.1-1.3-.2-.3-2.3-.5-4.6-.8-7.5-2.8,5.1-5.3,9.8-7.9,14.5-.8-.6-1.5-1.2-2.2-1.7,2.7-7.4,5-14.9,8.3-22.1,2.1-4.4,5.6-8.2,8.5-12.2.6,0,1.3,0,1.7,0-1.9,4.2-3.7,8.2-5.5,12.3,0,0,0,.2-.1.3v-.3ZM77,49.3v-.2c-.5.2-.8.4-1.2.6,0,.1.2.2.3.4.3-.3.6-.5.8-.9h.3c0-.1-.1-.3-.1-.3,0,0-.1.3,0,.4Z"/>
        <path class="cls-14" d="M279.2,195.2c-.1,2.8-3.2,4.7-7.1,4.5-3.2-.2-6.4-.4-9.7-.6-.5,0-1.3,0-1.5.3-1.2,2.2-2.7.9-4.1.5-.1,0-.2,0-.3-.2,0-.2-.1-.5-.2-.7-.1-.7-.3-1.5-.4-2.2,0-.5,0-1.1,0-1.6,2.4-.5,4.9-1,7.7-1.6,1.6,1.5,3.5,3.6,6.9,1.5,1.2-.7,3.5.2,5.2.3,1.1,0,2.2-.1,3.3-.2Z"/>
        <path class="cls-14" d="M252.9,199c-1.6.5-3.2.9-4.8,1.4-.4-.4-.8-.9-1.2-1.3,0-.4,0-.9,0-1.3.3-3.4.5-6.8.8-10.3-.2,0-.4,0-.6,0-.1,1.6-.2,3.1-.3,4.7-.2-5.6-.4-11.3-.6-16.9,0-.5,0-1,0-1.5.8,2.7,1.6,5.4,2.4,8.1,0,0-.2.1-.2.1.7,2.8,1.5,5.5,2.2,8.3,0,0,0,0,0,0,.1.5.3.9.4,1.4,0,0,0,.2,0,.2.3.9.7,1.8,1,2.7,0,0,0,.2,0,.2.3,1.5.6,3,1,4.4Z"/>
        <path class="cls-19" d="M36.3,173.6c.8-2.5,1.7-5,2.5-7.4,0,0,0-.2,0-.2.2-.1.4-.3.5-.4-.2,1.9-.4,3.9-.7,5.8,0,0,0,.2-.1.3,0,0,0-.2.1-.2,2.1.3,3,1.3,2.2,3.5-.4,1.1-.3,2.3-.5,3.5,0,0-.2,0-.2,0-.2-.1-.3-.3-.5-.4.1-1.2.2-2.5.3-3.7-.2,0-.3,0-.5,0-.8,2.2-1.6,4.3-2.4,6.5,0,0,0,.2,0,.2-.5,1-1,1.9-1.5,2.9.2-1.5.3-3.1.5-4.6.6-1.3,1.3-2.6,1.9-4l-1.1-.4c-.3,1.4-.6,2.8-.9,4.3-1.3,2.4-2.6,4.8-3.9,7.1-.1-.1-.2-.2-.4-.3,1.5-4.1,2.9-8.2,4.4-12.3Z"/>
        <path class="cls-19" d="M247,197.8c0,.4,0,.9,0,1.3.2,1.7.4,3.4.6,5.1.4,4.5.8,9,1.2,13.6-.6-2.7-1.7-5.3-1.8-8-.7-10.5-1.1-21.1-1.6-31.6,0-1,.5-2,.7-3,.2,5.6.4,11.3.6,16.9,0,1.9.1,3.7.2,5.6Z"/>
        <path class="cls-19" d="M30.1,224.9c.9-4.7,1.8-9.4,2.7-14.2.6-2.7,1.2-5.5,1.8-8.2,0,0,0-.1,0-.1,0,0-.2,0-.2,0,.3-1,.6-2.1.9-3.1,0,0-.2,0-.2,0,.2-.6.4-1.2.6-1.8.1,0,.2.2.4.3-1,5.4-2,10.8-3.1,16.2-.8,3.7-1.9,7.2-2.9,10.9Z"/>
        <path class="cls-19" d="M250.7,176.8c.1,1,.2,1.9.3,2.9.4,2.1.7,4.3,1.1,6.4h0c-.9-3.2-1.9-6.4-2.6-9.7-1-4.5-1.6-9-2.5-13.6.3.5.7,1,1,1.5,0,0-.1,0-.1,0,1,4.1,1.9,8.3,2.9,12.4Z"/>
        <path class="cls-19" d="M39.5,179.7c-.2,2.6-.3,5.2-.7,7.7-.7,3.5-1.7,6.9-2.6,10.4-.1,0-.2-.2-.4-.3.2-1.4.5-2.7.7-4.1,0,0-.2,0-.2,0,.2-1.1.4-2.2.6-3.4,0,0,0,0,0,0,.2-1.1.5-2.2.7-3.3,0,0,0,0,0,0,.2-1.1.5-2.2.7-3.3,0,0,0,0,0,0,.4-1.3.9-2.6,1.3-3.9Z"/>
        <path class="cls-1" d="M247.9,164.3c-.3-.5-.7-1-1-1.5,0-.4,0-.9-.1-1.3-.2-5.1-.4-10.3-.6-15.4,0-.2.1-.4.2-.6.4,1.9.8,3.8,1.2,5.7.1,4.4.3,8.7.4,13.1Z"/>
        <path class="cls-19" d="M246.2,146.1c.2,5.1.4,10.3.6,15.4-1.7-5.1-1.7-10.2-.6-15.4Z"/>
        <path class="cls-19" d="M255.9,196.8c.1.7.3,1.5.4,2.2-.8-1.4-1.7-2.8-2.2-4.3-.9-2.8-1.4-5.7-2.1-8.6,0,0,0,0,0,0,1,2.6,2.1,5.3,3.1,7.9h-.1c0,0,0,0,0,0,.3.9.6,1.8.9,2.8Z"/>
        <path class="cls-18" d="M31.6,231.4c.8.4,1.7.7,2.5,1.1-.2,1.2-.4,2.3-.6,3.4-.8-.2-1.7-.5-2.5-.7,1.1-1.1-3-3.1.6-3.8Z"/>
        <path class="cls-13" d="M39.5,179.7c-.4,1.3-.9,2.6-1.3,3.9-.3-1-.6-2-.9-3,.8-2.2,1.6-4.3,2.4-6.5.2,0,.3,0,.5,0-.1,1.2-.2,2.5-.3,3.7-.1.6-.2,1.2-.3,1.7Z"/>
        <path class="cls-20" d="M46.5,124.2c0-.6,0-1.3,0-1.9-.4-2.6-.9-5.3-1.3-7.7,0,0,.7.5,1.6,1.2.2-1.5.4-2.7.7-4.8.3,1.4.4,1.9.5,2.4-.5,3.6-.9,7.2-1.4,10.8Z"/>
        <path class="cls-19" d="M252.9,199c-.3-1.5-.6-3-1-4.4,1.3,3.7,2.5,7.4,3.8,11.1-.9-2.2-1.9-4.5-2.8-6.7Z"/>
        <path class="cls-19" d="M261.3,213.8c.8,3.1,1.5,6.1,2.3,9.2-.8-3.1-1.5-6.1-2.3-9.2Z"/>
        <path class="cls-19" d="M248.6,181.8c-.8-2.7-1.6-5.4-2.4-8.1.5.3,1.5.6,1.5.9.4,2.4.6,4.7.8,7.1Z"/>
        <path class="cls-19" d="M250.7,190.1c-.7-2.8-1.5-5.5-2.2-8.3.7,2.8,1.5,5.5,2.2,8.3Z"/>
        <path class="cls-19" d="M258.4,213.4c-.6-1.5-1.1-3.1-1.7-4.6.6,1.5,1.1,3.1,1.7,4.6Z"/>
        <path class="cls-19" d="M259.5,217.4c-.4-1.3-.8-2.7-1.2-4,.4,1.3.8,2.7,1.2,4Z"/>
        <path class="cls-19" d="M257.4,202.2c.5,1.3,1,2.6,1.4,3.8-.5-1.3-1-2.6-1.4-3.8Z"/>
        <path class="cls-19" d="M29.4,228.2c.3-1.1.5-2.3.8-3.4,0,1.2.1,2.5.2,3.7-.3,0-.6-.2-.9-.3Z"/>
        <path class="cls-19" d="M260.1,209.9c.4,1.3.9,2.5,1.3,3.8-.4-1.3-.9-2.5-1.3-3.8Z"/>
        <path class="cls-19" d="M258.7,206c.5,1.2,1,2.5,1.4,3.7-.5-1.2-1-2.5-1.4-3.7Z"/>
        <path class="cls-20" d="M45.9,130c.2-1.5.4-3,.5-4.6-.2,1.5-.4,3-.5,4.6Z"/>
        <path class="cls-19" d="M256.5,199.8c0,0,.2.1.3.2.2.8.4,1.5.6,2.3-.3-.8-.6-1.6-.9-2.4Z"/>
        <path class="cls-19" d="M252,194.3c-.3-.9-.7-1.8-1-2.7.3.9.7,1.8,1,2.7Z"/>
        <path class="cls-19" d="M256.6,208.1c-.3-.8-.6-1.7-.9-2.5.3.8.6,1.7.9,2.5Z"/>
        <path class="cls-1" d="M39.4,165.5c-.2.1-.4.3-.5.4.2-.6.4-1.1.6-1.7,0,.4,0,.8,0,1.2Z"/>
        <path class="cls-19" d="M251,191.5c-.1-.5-.3-.9-.4-1.4.1.5.3.9.4,1.4Z"/>
        <path class="cls-20" d="M43.8,119.2c-.6,1.1-1.1,2.2-1.7,3.3-.2,0-.5,0-.7,0,0-.7-.4-1.4-.2-2,.4-.9,1.2-1.5,1.8-2.3.3.3.5.6.8,1Z"/>
        <path class="cls-2" d="M31.3,93.5c.2.2.3.4.3.5,0,0,0,.3,0,.3-.1,0-.3,0-.4,0,0-.2,0-.4.2-.8Z"/>
        <path class="cls-20" d="M6.9,114.8c0,0,0-.2,0-.2,0,0,.2,0,.3,0,0,0,0,.1,0,.2,0,0-.2,0-.3,0Z"/>
        <path class="cls-13" d="M255.2,194c-1-2.6-2.1-5.3-3.1-7.9-.4-2.1-.7-4.3-1.1-6.4.8,1.9,1.6,3.8,2.3,5.8.6,2.8,1.2,5.7,1.8,8.5Z"/>
        <path class="cls-1" d="M250.7,176.8c-1-4.1-1.9-8.3-2.9-12.4,1,4.1,1.9,8.3,2.9,12.4Z"/>
        <path class="cls-11" d="M14.2,127.4c0,0-.2,0-.3-.1,0,0,.2,0,.3.1,0,0,0,0,0,0Z"/>
        <path class="cls-11" d="M14.2,127.4c0,0,.2,0,.3.1,0,0-.2,0-.3-.1,0,0,0,0,0,0Z"/>
        <path class="cls-11" d="M42,134.5c0,0-.1.2-.2.3,0,0,0-.2.1-.3,0,0,0,0,0,0Z"/>
        <path class="cls-3" d="M68.5,193.9c3.3-1.1,6.5-2.2,9.5-3.2,2.6,2.2,5,4.3,7.3,6.4.6,4.9,1.5,9.7,1.9,14.6,1.1,12.7,2.1,25.4,3.2,38.1.4,4.8.8,9.7,1,14.6-4.5-8.1-6.4-17.1-8.5-26-2-8.8-3.4-17.8-5.1-26.8-1.2,2.8,1.9,26.1,5.3,36.3,3.9,11.7,8.4,23.2,12.6,34.8-2.9-.9-6-1.9-9-2.8-.9-.4-1.7-.9-2.6-1.3.1-.7.2-1.4.3-1.9h-3.6c-1.5-4.1-3.3-8.1-4.6-12.2-3.7-12.2-6.8-24.5-7.8-37.2-.6-8.5-1.3-17-1.9-25.5,3.1-1.4,3.3-2.4,1.9-7.8Z"/>
        <path class="cls-18" d="M105.4,199.7c.2.2.4.3.6.5.2.3.4.5.7.8,0,0,0,0,0,0,.5,1.4.5,3.2,1.5,4.3,1.7,1.9,3.8,3.4,5.7,5.1,0,0,0,.2,0,.2-.9,8.7-1.8,17.4-2.7,26.1-.4.6-.9,1.3-1.3,1.9-.9,1.1-1.7,2.2-2.6,3.2-.2.2-.4.4-.6.7-.2.2-.4.4-.7.6-2.6.9-5.2,1.7-7.7,2.6.7-.6,1.4-1.3,2.4-2.2-5.8-.8-1-5.5-3.3-8.4-1.5,3.2-.6,7.5-4.7,8.9-.1-2.4-.2-4.4-.3-6.4-.6-6.5-.8-13-2-19.4-.7-3.8-.2-7.6-.6-11.3-.5-4-1.3-8-1.6-12-.3-4-.3-8.1-.1-12.1.1-2.7,2.4-1.2,3.8-1.6.5.6,1,1.2,1.5,1.8,0,0,0,0,0,0,.2.5.4,1,.6,1.4,0,0,0,0,0,0,.2.2.5.5.7.7,0,0,0,0,0,0,.2.4.5.9.7,1.3,0,0,0,0,0,0,0,1.6-.3,3.4,2.2,3.5.1,0,.2.1.2.3.3.5.6,1,.9,1.5,0,0,0,0,0,0,.3.4.5.9.8,1.3,0,0,0,0,0,0,.3.4.6.7.9,1.1,0,0,0,0,0,0,.2.3.3.5.5.8,0,0,0,0,0,0,.2.3.4.5.6.8,0,0,0,0,0,0,.4.5.8.9,1.2,1.4,0,0,0,0,0,0-.4,2.7.7,3.7,3.3,3.2Z"/>
        <path class="cls-19" d="M87.4,164.8c1.5,5.2,3.1,10.3,4.6,15.5-.7-.4-1.5-.8-2.2-1.2-.8-3.2-1.6-6.4-2.4-9.5-.7-7.2-1.6-14.4-2-21.7-.3-6.6,0-13.2,0-19.8,0-1.8.2-3.3,2.5-3.2,0,.2,0,.5,0,.7.1.7.2,1.5.4,2.4,1-1.2,1.8-2.1,2.6-3-.4,1.3-.8,2.5-1.1,3.8-.3.9-.6,1.7-1.1,3-.8-1.1-1.4-1.9-2.6-3.6v18.2c.4,6.2.9,12.4,1.3,18.6Z"/>
        <path class="cls-19" d="M107.9,285.7c-2.4-1.9-4.9-3.6-7.1-5.6-1.5-1.3-2.6-3-3.9-4.6-.9-4.4-1.7-8.8-2.6-13.1.4,1.4,1,2.8,1.1,4.3.9,7.9,5.6,13.3,11.5,17.9.4.3.6.8,1,1.2Z"/>
        <path class="cls-19" d="M96.2,250.3c-.4-1.6-.8-3.1-1.1-4.7,1.1.2,2.1.4,3.2.7,0,0,.2.2.2.2,0,1.4,0,2.9-.1,4.3,0,.2,0,.4,0,.6,0,.2,0,.4-.1.7h0c-2.1,1-1.5-1.1-2.1-1.8.4-.3.7-.6,1.1-.8-.2-.1-.3-.2-.5-.4-.2.4-.4.8-.6,1.2Z"/>
        <path class="cls-10" d="M87.3,169.5c.8,3.2,1.6,6.4,2.4,9.5-3.2-2.6-2.1-6.2-2.4-9.5Z"/>
        <path class="cls-19" d="M98.2,245.6c2.6-.9,5.2-1.7,7.7-2.6,0,0,0,0,0,0-2.5,1.1-5,2.3-7.6,3.4,0,0-.2-.2-.2-.2,0-.2,0-.4,0-.7Z"/>
        <path class="cls-19" d="M93.3,182.8c-.5-.6-1-1.2-1.5-1.8,0-.3.1-.6.2-.8.5.9.9,1.7,1.4,2.6Z"/>
        <path class="cls-1" d="M24.3,166.9c-.1.1-.3.2-.4.3,0-.1-.2-.3-.2-.4,0,0,.2-.2.2-.2.1,0,.3.2.4.3Z"/>
        <path class="cls-20" d="M31,157.1c0,.3-.2.5-.3.8,0,0-.2-.1-.2-.2.2-.2.3-.4.5-.7,0,0,0,0,0,0Z"/>
        <path class="cls-19" d="M27.1,199c1.6-4.4,3.2-8.8,4.9-13.2.1,0,.3.2.4.3,0,.9,0,1.7,0,2.6-.4,1.3-.9,2.6-1.3,3.9-.4.9-.9,1.7-1.3,2.6-.4,1.3-.8,2.6-1.2,3.9h0c-.4,0-.8,0-1.3,0,0,0,0,0,0,0Z"/>
        <path class="cls-14" d="M32.3,175.2c-.2,0-.4,0-.6,0,0,0,0,0,0,0,.2,0,.4,0,.7,0h0Z"/>
        <path class="cls-11" d="M283.7,129.9c.3.2.7.4,1,.6l-.4.4c-.2-.3-.4-.7-.6-1,0,0,0,0,0,0Z"/>
        <path class="cls-9" d="M190,245c-1.7-.6-3.4-1.2-5.2-1.7,0,.2-.2.4-.3.6,1.2,1.9,2.4,3.7,3.6,5.6,2.5,7.3.5,14-2.5,20.6-3.4,7.4-8.4,13.4-15.8,17-2.5,1.2-5.1,2.3-7.6,3.4-.7.3-1.3.5-2,.8,0,0,0-.1,0-.1-3.8.3-7.6.7-11.4,1,0,0,0,0,0,0-1.3-.3-2.6-.6-3.8-.8,0,0,0,0,0,0-.8-.3-1.7-.6-2.5-.8,0,0,0,0,0,0-1.3-.4-2.6-.8-3.9-1.2,0,0,0,0,0,0-1.2-.5-2.4-1-3.6-1.5,0,0-.3,0-.3,0-.4-.2-.8-.3-1.2-.5,0,0,0,0,0,0-14.8-7.1-25.8-18.3-34.3-32.1-.5-.9-.5-2.1-.7-3.1,0,0,0,0,0,0,1.2,1.1,2.4,2.3,3.6,3.4,0,0,0,0,0,0,.3.4.5.8.8,1.2h0c.6.9,1.3,1.9,1.9,2.8,1.1,1.6,2.3,3.1,3.4,4.7.3.2.5.4.8.6,0,0-.1,0-.1,0,1,.3,2,.6,3,.9,0,0,.1,0,.1,0-.5.8-1,1.7-1.6,2.7,1,.4,2,.7,2.9,1.1.4.4.8.9,1.3,1.3.2.4.5.8.7,1.3,1.9,1.6,3.7,3.2,5.7,4.7,5.7,4.5,11.9,8.4,19.1,10.2,6.7,2.4,13.5,3.9,20.5,1.4h0c.7-.1,1.3-.4,2-.6,0,0,0,0,0,0,.8-.3,1.5-.5,2.3-.8,9.2-3.3,15.4-9.8,19.7-18.8-8.2,1.9-16.7,1.2-23.7,6.2-.1-.1-.2-.3-.4-.4.9-.8,1.8-1.5,2.7-2.3.4-.3.9-.5,1.3-.8h0c.5-.2.9-.4,1.4-.6h0c4-.8,8-1.7,11.9-2.6v.2s.1,0,.1,0c1-.3,2.1-.6,3.1-.9h.1c.7,0,1.5-.3,2.2-.5h0c.7-.4,1.3-.8,2-1.3h0c1.9-4.6,2.8-9.2,1.1-13.9-1.2-3.8-5-4-7.8-5.7-.3-.3-.6-.7-.9-1,1.4-1.2,2.8-2.4,4.5-3.8.3.9.6,1.4.7,1.9,1.6-.7,3.1-1.4,4.6-2,.1.3.2.6.4.8-.8.3-1.5.6-1.9.7,1.3.9,2.8,1.8,4.2,2.7Z"/>
        <path class="cls-19" d="M109.9,287c-.7-.4-1.3-.9-2-1.3.7.4,1.3.9,2,1.3Z"/>
        <path class="cls-12" d="M131.2,287.6c0,0-.2,0-.2-.1,0,0,.2,0,.3.1,0,0,0,0,0,0Z"/>
        <path class="cls-18" d="M34.2,236c.6-.7,1.6-1.2,1.8-2,1.9-6.1,3.7-12.3,5.5-18.4,1.5-4.8,3.1-9.5,4.5-14.3,1.1-3.5,2.9-7.1,2.8-10.7-.1-6.7,3-12.4,4-18.7.2-1.3.1-2.6,0-3.9-.3-4.1,0-8.1,2-11.8.4-.7.2-1.8.2-2.7,0-1,0-2-.1-3,.6,1,1.2,2,1.9,3,.6.9,1.2,1.7,1.7,2.6v.2c0,.5.3.9.5,1.4h0c.4.9.8,1.8,1.2,2.7v.2c.2.3.5.7.7,1h0c.3.4.5.8.8,1.2h0c.2.2.4.4.6.7h0c.2.2.4.4.7.7,0,0,0,0,0,0,.2.2.5.4.7.6h0c0,6.6,0,13.3-.1,20,0,3.3-.4,6.5-.6,9.8,0,.3-.2.5-.2.8,0-.3.2-.5.2-.8.4.7,1.2,1.4,1.2,2.2.4,8.3.3,16.7,1.2,25,.8,7.6,2.6,15.1,3.9,22.6.4,2.5.4,4.8-3,5-.5,0-1.3.2-1.5.5-2.5,4-6,1.1-9,1.3-.9,0-1.9-1.2-2.7-.9-2.1.5-4.2,1.1-6.3,1.6-.4-.4-.9-.9-1.3-1.3-.4-.2-.8-.5-1.3-.7-.2-.4-.4-.8-.7-1.3,4.7-17.5,10-34.9,9.8-53.7-.5.8-1.2,1.6-1.4,2.4-.8,5.5-1.4,10.9-2.1,16.4-.5,3.9-.9,7.8-1.9,11.6-1.2,4.7-3,9.4-4.5,14-.4,1.2-.6,2.4-.9,3.5-.6,2.1-1.9,2.3-3.6,1.3-.2-.2-.4-.4-.7-.6-.2-.2-.4-.4-.6-.7-.4-.4-.9-.9-1.3-1.3-.2-.2-.4-.4-.6-.6-.2-.4-.4-.8-.7-1.3-.2-.9-.5-1.7-.7-2.6,0-.2,0-.5,0-.7,0-.2,0-.4,0-.5Z"/>
        <path class="cls-10" d="M63.8,164.8h-.2s-.2,0-.2,0c0,0,0,0,0,0-.2-.2-.5-.4-.7-.6,0,0,0,0,0,0-.2-.2-.4-.5-.7-.7,0,0,0,0,0,0-.2-.3-.4-.5-.6-.8,0,0,0,0,0,0,0-.4-.2-.7-.3-1.1h.1c.4-.7,1.2-1.2,1.2-1.8.1-5.1.1-10.1,0-15.2,0-1.3-.5-2.7-.8-4,.5-1.4.9-2.8,1.4-4.2,0,0,0,0,0,0,.2,9.4.4,18.9.6,28.3Z"/>
        <path class="cls-19" d="M63.8,164.8c-.2-9.4-.4-18.9-.6-28.3.3.7.7,1.3.7,2,.3,7.7.5,15.4.6,23.1,0,1.1-.5,2.1-.8,3.2Z"/>
        <path class="cls-19" d="M63.2,136.5c-.5,1.4-.9,2.8-1.4,4.2-.6.9-1.1,1.9-1.7,2.8,0-.6,0-1.1,0-1.7.7-2.3,1.5-4.7,2.2-7h0c.3-.2.6-.3.9-.5v2.2Z"/>
        <path class="cls-14" d="M63.3,134.3c-.3.2-.6.3-.9.5-.1-1.2-.2-2.4-.4-3.6,0,0,0-.2.1-.3,0,0-.1.2-.2.2-.7.4-1.4.8-2.1,1.1,0-.2,0-.3,0-.5.3-.4.6-.8.8-1.2.2-.2.5-.5.7-.7,0,0,0,0,0,0l1.8-1.1s0-.2,0-.2c0,0-.2,0-.2,0,0,1.7.2,3.4.3,5.1,0,.2-.1.4,0,.5Z"/>
        <path class="cls-19" d="M63.4,133.8c0-1.7-.2-3.4-.3-5.1,0,1.7.2,3.4.3,5.1Z"/>
        <path class="cls-19" d="M63.2,128.9c-.6.4-1.2.7-1.8,1.1.2-.7.4-1.3.6-2,0,0,0,0,0,0,.4.3.8.6,1.2.9Z"/>
        <path class="cls-14" d="M197,252.2c.2-.4.5-.9.7-1.3,0,5.4,1.4,11-1,16.3.1-5,.2-10,.3-15Z"/>
        <path class="cls-22" d="M148.7,292.1c3.8-.3,7.6-.7,11.4-1-3.6,2.3-7.5,2.1-11.4,1Z"/>
        <path class="cls-14" d="M196.8,267.2c-.8,1.9-1.5,3.8-2.3,5.8.8-1.9,1.5-3.8,2.3-5.8Z"/>
        <path class="cls-15" d="M138.4,289.3c1.3.4,2.6.8,3.9,1.2-1.3-.4-2.6-.8-3.9-1.2Z"/>
        <path class="cls-15" d="M134.8,287.9c1.2.5,2.4,1,3.6,1.5-1.2-.5-2.4-1-3.6-1.5Z"/>
        <path class="cls-15" d="M134.3,290.9c-.3-.2-.6-.4-.8-.5.2-.2.3-.6.5-.6.2,0,.5.2.8.4-.1.2-.3.5-.5.8Z"/>
        <path class="cls-15" d="M144.8,291.3c1.3.3,2.6.6,3.8.8-1.3-.3-2.6-.6-3.8-.8Z"/>
        <path class="cls-15" d="M142.4,290.5c.8.3,1.7.6,2.5.8-.8-.3-1.7-.6-2.5-.8Z"/>
        <path class="cls-22" d="M160.1,291.3c.7-.3,1.3-.5,2-.8-.7.3-1.3.5-2,.8Z"/>
        <path class="cls-15" d="M133.3,287.3c.4.2.8.3,1.2.5-.4-.2-.8-.3-1.2-.5Z"/>
        <path class="cls-13" d="M255.9,196.8c-.3-.9-.6-1.8-.9-2.8.3.4.7.8,1,1.1,0,.5,0,1.1,0,1.6Z"/>
        <path class="cls-13" d="M247.6,204.2c-.2-1.7-.4-3.4-.6-5.1.4.4.8.9,1.2,1.3-.2,1.3-.4,2.6-.5,3.8Z"/>
        <path class="cls-22" d="M199.1,254c.2.2.4.3.7.5-.2,4.1-.4,8.3-.8,12.4,0,.9-1,1.7-1.6,2.5.6-5.1,1.1-10.3,1.7-15.4Z"/>
        <path class="cls-19" d="M29.3,200.9c0,.2-.1.5-.2.7-.4,1-.7,1.9-1.1,2.9,0,0,0,.1,0,.1-.2.4-.4.8-.6,1.2-.1-.1-.2-.2-.4-.3,0-1.1,0-2.2,0-3.2,0,0,0,0,0,0,.4-1.1.9-2.2,1.3-3.2,0,0,0,0,0,0,.5-.1,1-.3,1.5-.4l-.6,2.3Z"/>
        <path class="cls-13" d="M34.6,202.5c-.6,2.7-1.2,5.5-1.8,8.2.6-2.7,1.2-5.5,1.8-8.2Z"/>
        <path class="cls-13" d="M29.3,200.9l.6-2.3s0,0,0,0c.6-1.2,1.1-2.3,1.7-3.5h0c-.8,2-1.5,3.9-2.3,5.8Z"/>
        <path class="cls-13" d="M36.5,193.4c-.2,1.4-.5,2.7-.7,4.1-.2.6-.4,1.2-.6,1.8.5-1.9.9-3.9,1.4-5.8Z"/>
        <path class="cls-13" d="M35.7,183.7c.5-1,1-1.9,1.5-2.9-.6,1.6-1.2,3.1-1.8,4.7,0,0,0,0,0,0,.1-.6.2-1.2.3-1.7,0,0,0,0,0,0Z"/>
        <path class="cls-13" d="M27.5,205.9c.2-.4.4-.8.6-1.2-.4,1.3-.8,2.6-1.3,3.9.2-.9.5-1.8.7-2.7Z"/>
        <path class="cls-13" d="M25.3,213.9c.4-1.1.7-2.2,1.1-3.3-.4,1.1-.7,2.2-1.1,3.3Z"/>
        <path class="cls-13" d="M28,204.6c.4-1,.7-1.9,1.1-2.9-.4,1-.7,1.9-1.1,2.9Z"/>
        <path class="cls-13" d="M33.5,190.6c-.4,1.1-.8,2.2-1.3,3.3,0,0,0,0,0,0,.1-.6.2-1.2.3-1.7,0,0,0,0,0,0,.3-.5.7-1.1,1-1.6,0,0,0,0,0,0Z"/>
        <path class="cls-13" d="M35.5,185.5c-.4,1.1-.8,2.2-1.2,3.3,0,0,0,0,0,0,.4-1.1.8-2.2,1.2-3.3,0,0,0,0,0,0Z"/>
        <path class="cls-13" d="M37.5,186.8c-.2,1.1-.5,2.2-.7,3.3.2-1.1.5-2.2.7-3.3Z"/>
        <path class="cls-13" d="M35.3,199.3c-.3,1-.6,2.1-.9,3.1.3-1,.6-2.1.9-3.1Z"/>
        <path class="cls-13" d="M36.9,190c-.2,1.1-.4,2.2-.6,3.4.2-1.1.4-2.2.6-3.4Z"/>
        <path class="cls-13" d="M38.2,183.6c-.2,1.1-.5,2.2-.7,3.3.2-1.1.5-2.2.7-3.3Z"/>
        <path class="cls-13" d="M34.2,188.7c-.3.6-.5,1.2-.8,1.8,0,0,0,0,0,0,.1-.6.2-1.1.3-1.7,0,0,0,0,0,0,.2,0,.3-.2.5-.2,0,0,0,0,0,0Z"/>
        <path class="cls-13" d="M26.3,210.7c.2-.7.4-1.4.6-2.1-.2.7-.4,1.4-.6,2.1Z"/>
        <path class="cls-13" d="M32.2,193.9c-.2.4-.4.9-.6,1.3,0,0,0,0,0,0,.2-.4.4-.9.6-1.3,0,0,0,0,0,0Z"/>
        <path class="cls-8" d="M26.5,168.1c0,0,.2,0,.3.1,0,0-.2,0-.3-.1,0,0,0,0,0,0Z"/>
        <path class="cls-22" d="M32.3,175.2c-.2,0-.4,0-.7,0,.2,0,.4,0,.7,0Z"/>
        <path class="cls-18" d="M25.8,206.8c-1.1,5.2-2.1,10.3-3.2,15.5-.2-5.4.5-10.7,3.2-15.5Z"/>
        <path class="cls-18" d="M27.1,202.3c0,1.1,0,2.2,0,3.2-.4.4-.9.9-1.3,1.3.4-1.5.9-3,1.3-4.5Z"/>
        <path class="cls-18" d="M28.4,199.1c-.4,1.1-.9,2.2-1.3,3.2,0-1.1,0-2.1,0-3.2.4,0,.8,0,1.3,0Z"/>
        <path class="cls-24" d="M34.2,236.5c0,.2,0,.5,0,.7,0-.2,0-.5,0-.7Z"/>
        <path class="cls-2" d="M234,45.3c0,0,.2.1.2.2,0,0-.2,0-.3-.1,0,0,0,0,0,0Z"/>
        <path class="cls-9" d="M90.9,124.8c-.8.9-1.6,1.8-2.6,3-.1-.9-.3-1.6-.4-2.4,1.7-4,3.4-7.9,5.2-11.9,4.8-10.3,9.5-20.7,14.4-30.9,2-4.2,4.6-8.2,6.9-12.2.4-.2.9-.4,1.3-.7-2.2,5.2-4,10.6-6.6,15.6-4.2,8-4.2,16.8-6.4,25.1.3.1.5.2.8.4,1.1-1.5,2.2-3,3.2-4.6,4.5-6.6,9.3-13.2,13.4-20,3.9-6.4,7.2-13.1,10.8-19.7.7-1.3,1.3-2.3,2.9-1.3h0c-4.5,14.8-9.1,29.6-13.5,44.2,2.5-.3,14.3-13.2,17.8-20.6,4-8.5,7.5-17.2,11.3-25.9,0,1.8,0,3.7,0,5.7-.2,4-.4,8-.7,12.1,0,1.1-.5,2.2-.7,3.3-.5,0-1,0-1.6-.1,0-.2,0-.3.1-.4,0-1.1,0-2.2.1-3.2-4.5,6.8-9,13.6-13.5,20.3-1.8,2-3.6,4-5.4,6.1-.6.7-1.3,1.4-1.9,2.1.3.4.5.7.8,1.1,2.8-1.1,5.6-2.2,8.5-3.4,0,0,0,0,0,0,.5,0,1,.1,1.5.2-.5.8-.9,1.4-1.2,2.1,0,0,0,0,0,0-.9.4-1.7.9-2.6,1.3,0,0,0,0,0,0-3.1.5-6.3.9-9.4,1.6-.6.1-1.1,1.1-1.7,1.7,0,0,0,0,0,0-.3.2-.5.5-.8.7,0,0,0-.1,0-.1-.3.3-.5.5-.8.8-1.7,1.6-3.5,3.3-5.2,4.9-.3.3-.6.6-1,1,0,0,0,0,0,0-.3.3-.7.6-1,.9-.4.3-.8.5-1.2.8,0-.7,0-1.4,0-2.1,0-.2,0-.4,0-.6.9-1.7,1.8-3.3,2.8-5.2-2,0-3.7-.3-5.1,0-2.3.6-4.4,1.7-6.6,2.6-1.1,1.7-2.1,3.5-3.2,5.2-.2-1-.6-2.1-.5-3.1.1-2.7.4-5.4.7-8.1h0c.5-1.9,1-3.6,1.6-5.4,0,0,0-.2,0-.2,0-.5.1-1,.2-1.4,0-.2,0-.4.2-.6.3,0,.5,0,.8,0,0-.2,0-.5-.1-.7-.1.1-.3.2-.4.3-.4.2-.9.3-1.1.7-3.4,7-6.7,14-10,21.1ZM122,95.6h0c.2-.6.4-1.2.6-1.9,0,0,0,0,0,0,.4-1.3.9-2.6,1.3-3.9h0c.3-.8.5-1.7.8-2.5,0,0,0,0,0,0,.5-.9,1-1.8,1.5-2.6l-1.1-.7c-.5.8-1,1.5-1.4,2.3-.3.6-.6,1.1-.9,1.7-5.3,7.8-10.5,15.6-15.8,23.4-.4.6-.9,1.3-1.3,1.9.1.2.3.5.4.7,3.1-.8,6.2-1.6,9.2-2.4,0,0,.2.1.3.2,1-1.9,1.9-3.8,2.9-5.7.2-.6.5-1.3.7-1.9.4-1.1.8-2.2,1.3-3.3.4-1.1.8-2.2,1.3-3.3.2-.7.4-1.3.6-2Z"/>
        <path class="cls-16" d="M99.5,65.6c3.3-2.7,6.2-5.2,9.2-7.6.3-.3,1.5-.1,1.6.2.4.7.8,1.7.5,2.3-1,2.4-2.2,4.6-3.3,7-1,2-2.3,2.4-4.1.9-1-.8-2.1-1.4-3.9-2.7Z"/>
        <path class="cls-16" d="M207,72.8c-1.8-3.9-3.5-7.5-5.1-11.2,0-.2,1.2-1.4,1.6-1.3,2.1.6,5.8,9,5,11.1-.1.3-.6.5-1.5,1.4Z"/>
        <path class="cls-16" d="M78.6,61.9c-.5-5.5,2.7-11.8,6-11.7-1.9,3.8-2.6,8-6,11.7Z"/>
        <path class="cls-19" d="M59.9,131.9c0,.2,0,.3,0,.5,0,0,0,0,0,0-.3.4-.6.8-.8,1.1,0,0,0,0,0,0-.2.5-.3.9-.5,1.4h0c-.5,2.2-1.1,4.4-1.6,6.6l.4,9.2c0,.3,0,.7.1,1l1.1,4.3c-.6-.9-1.2-1.7-1.7-2.6-.6-1-1.2-2-1.9-3,0-.4,0-.8,0-1.2.2-1.1.3-2.2.5-3.3,0-1.1,0-2.1.1-3.2.2-.9.4-1.8.6-2.7,0-.4,0-.8,0-1.2.2-.9.4-1.8.6-2.7.2-.6.4-1.2.6-1.8.2-.7.5-1.3.7-2,0,0,0,0,0,0,.6-.2,1.2-.4,1.8-.6Z"/>
        <path class="cls-16" d="M115.7,69.8c-.4.2-.9.4-1.3.7-.6-.7-1.7-1.3-1.8-2.1-.4-2,2.3-5.4,4.7-6.2-.3,2.4-.6,4.7-.9,7-.2.2-.4.4-.6.6,0,0,0,0,0,0Z"/>
        <path class="cls-16" d="M202.4,73.6c-1.4-2.9-4.2-5.2-2.8-9.2,1.3,2.9,2.7,5.8,4,8.7l-1.2.5Z"/>
        <path class="cls-9" d="M59.9,131.9c-.6.2-1.2.4-1.8.6.2-2.4.9-4.4,3.9-4.5-.2.7-.4,1.3-.6,2,0,0,0,0,0,0-.2.2-.5.5-.7.7-.3.4-.6.8-.8,1.2Z"/>
        <path class="cls-3" d="M67.2,193.3c.7-.9,1.4-1.9,2-2.8.4.2.7.5,1.1.7-.6,1-1.2,1.9-1.8,2.9l-1.3-.8Z"/>
        <path class="cls-3" d="M219.1,64c.2.9.4,1.7.7,2.6-.4.3-.8.7-1.3,1.1-1.3-1.6-1.2-2.8.6-3.7Z"/>
        <path class="cls-9" d="M67.8,87.2c-.2,1.1-.5,2.2-.7,3.4-.2,0-.4,0-.5,0,0-1.2.1-2.3.2-3.5.4,0,.7.1,1.1.2Z"/>
        <path class="cls-18" d="M55.5,146.1c-.2,1.1-.3,2.2-.5,3.3.2-1.1.3-2.2.5-3.3Z"/>
        <path class="cls-9" d="M56.1,140.2c-.2.9-.4,1.8-.6,2.7.2-.9.4-1.8.6-2.7Z"/>
        <path class="cls-9" d="M56.8,136.3c-.2.9-.4,1.8-.6,2.7.2-.9.4-1.8.6-2.7Z"/>
        <path class="cls-9" d="M58.1,132.5c-.2.7-.5,1.3-.7,2,.2-.7.5-1.3.7-2Z"/>
        <path class="cls-9" d="M117,31.1c.6-.5,1.1-1,1.7-1.4.1.3.3.6.4.8-.7.2-1.4.4-2.1.6,0,0,0,0,0,0Z"/>
        <path class="cls-9" d="M133.8,65.3c.2-.3.4-.7.6-1,.1.1.3.3.4.4-.3.2-.7.4-1,.6,0,0,0,0,0,0Z"/>
        <path class="cls-9" d="M121,28.7c0,0,0,.2,0,.2,0,0-.2,0-.2,0,0,0,0-.2,0-.2,0,0,.2,0,.2,0Z"/>
        <path class="cls-9" d="M115.6,69.8c.2-.2.4-.4.6-.6-.2.2-.4.4-.6.6Z"/>
        <path class="cls-3" d="M220.4,69.2c0,0-.1.2-.2.3,0,0,0-.2.1-.3,0,0,0,0,0,0Z"/>
        <path class="cls-9" d="M96.3,143.1c-.3-.7-.7-1.3-.8-2-.4-3.1-2-4.9-5.5-4.8,1.9-1,3.4-1.7,4.9-2.5.6-.5,1.3-.9,1.9-1.4,0,0,0,0,0,0,.4-.2.9-.5,1.3-.7,0,0,0,0,0,0,.4-.2.9-.5,1.3-.7,0,0,0,0,0,0,.4-.2.9-.5,1.3-.7,0,0,0,0,0,0,1.2-.5,2.5-1,3.7-1.5h.2c.7-.2,1.3-.3,2-.5,0,0,0,0,0,0,6.6-.4,13.1-.9,19.7-1.3h0c.6.4,1.3.9,1.9,1.4,0,0,0,0,0,0,.2.8.4,1.7.5,2.3h-4c.6,1.3,1.3,2.6,1.9,3.9-.1,2.3-.3,4.6-.4,7-.2,4.8-3.1,8.5-7.5,9.5-4,.9-9-1.4-10.7-5.8-1.2-3.2-1.3-6.8-1.9-10.2.2-.6.4-1.1.6-1.8-.6.1-.9.2-1.2.2-4.4.2-7.2,2.1-7.8,5.3-.2,1.7-.4,3.4-.6,5,0,0,0,.2,0,.2-.3-.3-.5-.6-.8-1ZM123.9,141.2c-2,2.1-5.5,2.3-7.5,1.1-1.4-.9-3.2-1.3-4.8-2-.1.3-.3.5-.4.8-.4-.9-.9-1.7-1.5-3.1-2.3,3.2-.8,5.7.6,8,1.9,3,5,4,8,3,3.9-1.3,5.7-3.6,5.6-7.8ZM124.5,134.9c-1.5-1.2-2.2-2.2-3.1-2.3-.5,0-1.8,1.3-1.7,1.9,0,.9.9,2.1,1.7,2.4.6.2,1.6-1,3.1-2Z"/>
        <path class="cls-13" d="M106,135.2c.6,3.4.7,7,1.9,10.2,1.6,4.4,6.6,6.7,10.7,5.8,4.4-1,7.3-4.7,7.5-9.5.1-2.3.3-4.6.4-7,1.6.3,3.3.7,4.8,1,1.1,6.5-2.2,10.6-5.6,15.3-4.4,6.1-10.2,3.4-15.6,3.9,0-2.9-2.9-1.4-4.2-2.4-2.1-1.3-4.3-2.5-6.4-3.8-.8-1.6-1.7-3.2-2.5-4.8.2-1.7.4-3.4.6-5,2.8-1.2,5.5-2.5,8.3-3.7Z"/>
        <path class="cls-9" d="M113.9,210.3c-1.9-1.7-4.1-3.2-5.7-5.1-.9-1.1-1-2.8-1.5-4.3,4.1,2.8,8.1,5.8,12.3,8.4,6.4,4,13,7.8,19.5,11.7.4.2.8.4,1.2.7,0,0,0,0,0,0,.7.2,1.4.4,2,.6,0,0,0,0,0,0,1.3.4,2.7.8,4,1.2,0,0,0,0,0,0,.4.3.7.8,1.2.9,5.6,1.6,10.5-.8,15.5-2.6.3-.1.4-.7.6-1,3.2-1.6,6.4-3.2,9.6-4.9-.4.9-.8,1.8-1.2,2.7-.4.7-.9,1.4-1.3,2.1-3.1,2-6.1,3.9-9.2,5.9-6.9,4.3-13.7,4.2-20.5,0-7.4-4.7-15-9.1-22.5-13.7-.3-.2-.5-.4-.8-.6,0,0,0,0,0,0-.4-.2-.8-.5-1.3-.7,0,0,.1-.1.1-.1l-2-.8Z"/>
        <path class="cls-9" d="M204.9,131.2c2.7,1.4,3.6,4.2,5.2,6.4,0,0-.3.1-.3.1,0,0-.3,0-.3,0-.4.7-.8,1.4-1.3,2.1,0,0,0,0,0,0-.4.2-.9.4-.9.4-.7-1.3-1.3-2.4-2-3.6h0c-.3-.2-.6-.5-.8-.7-3.1-1.1-6.1-2.1-9.2-3.2-.1,0-.3.1-.4.2.1,0,.3.2.4.2h0c0,3.5.1,7.1.2,10.6.1.1.1.2,0,.3-.3-1.2-.6-2.4-1-3.5-.2-.4-.8-.6-1.2-.9-1.8.9-3.8,1.4-5.4,2.6-2.4,1.8-3.6,1.2-4.4-1.4-.2-.6-.4-1.3-.9-1.7-.6-.5-1.5-1.2-2-1-.6.2-1.1,1.1-1.4,1.9-.2.7,0,1.5,0,2.2,0-3.2,0-6.5,0-9.7,0-.2,0-.4,0-.7.2-.2.3-.4.5-.6-.8.3-1.5.6-2.3.9,0,0,0,0,0,0-.8-.3-1.5-.7-2.3-1,0,0,0,0,0,0,.2-.3.4-.5.7-.8,0,0,0,0,0,0,.5-.4,1-.9,1.4-1.3,0,0,0,0,0,0,.6,0,1.4.1,1.9-.2,3.2-2.1,6.7-1.9,10.2-1.2.5,0,1.1-.3,1.7-.4.4,0,.8,0,1.3.1,3.1.8,6.1,1.6,9.2,2.4h0c.7.2,1.3.4,2,.7h0c.6.2,1.3.5,1.9.8h0ZM194,135.8c-1.3-1.2-2.1-2-2.9-2.7-.6.7-1.7,1.5-1.6,2.2,0,.9,1,1.7,1.6,2.6.8-.5,1.5-1.1,2.9-2Z"/>
        <path class="cls-13" d="M204.9,145.4c-1.3,1.5-2.6,2.9-4,4.4-1.9.8-3.9,1.5-5.8,2.3h-6.6c.4,1.1.4,1.4.6,1.6.2.2.5.3.8.4,0,.3-.1.6-.2.9-3-.6-6.1-1.1-9.1-1.7,0,0-.3-.1-.3-.2-.2-4.9-6.2-6.4-6.3-11.8,0-3.7,0-6.1,3.6-7.6,0,2.8-.3,5.6,0,8.4.4,4.7,4.2,8.5,8.7,9,3.6.4,7.5-2.7,9.1-7.2.1-.1.1-.2,0-.3.4-2.9.7-5.7,1.1-8.6,2.7,1.1,5.3,2.2,8,3.3.2,0,.7-.4,1-.6-.2,2.6-.4,5.2-.6,7.7ZM187.2,153.2c-.1-.2-.2-.4-.4-.4-.2,0-.4.1-.6.2.2.2.3.4.5.6.1-.1.3-.3.4-.4Z"/>
        <path class="cls-9" d="M199,194.5c1.6,2,.7,3.7-.8,5.2-1.3,1.2-1.6,2.4-1.2,4.2.4,1.5-.4,3.3-.4,5-.1,3.6-.2,7.2-.2,10.7,0,5,1.1,10-.3,14.9-.4,0-.9,0-1.3,0v-31.7c-1.2-.3-2.1-.5-3-.7,2.4-2.6,4.8-5.1,7.2-7.7Z"/>
        <path class="cls-19" d="M141.1,194.5c-1.4.5-2.7,1-4.2,1.4-1,.2-2,.2-3.1.2-.1-.5-.3-.9-.4-1.4,1.8-.7,3.7-1.5,5.5-2.2,7,0,14.1,0,21.1,0,2.6,0,5.2.7,7.8,1.1.1.9.2,1.8.4,3.3-1.8-.9-2.8-1.3-3.8-1.8-.4-.2-.7-.5-1.1-.7,0,0,0,0,0,0-.5-.2-.9-.6-1.4-.6-6.3,0-12.7-.1-19,0-.7,0-1.4.5-2,.7Z"/>
        <path class="cls-10" d="M101.4,105.5s0,.2,0,.2c-.5,1.8-1,3.5-1.6,5.3,0,0,0,.1,0,.1-.3,1.3-.7,2.7-1,4-1,1-2.4,1.8-2.9,3-1.8,4-3.7,8-4.1,12.5-.2,0-.4,0-.6,0-.5-.7-.9-1.3-1.4-2,.4-1.3.8-2.5,1.1-3.8,3.3-7,6.6-14.1,10-21.1.2-.3.7-.5,1.1-.7-.2,0-.2.2-.2.4-.2.2-.2.4-.2.6,0,.5-.1,1-.2,1.4Z"/>
        <path class="cls-19" d="M195.5,144c-1.5,4.6-5.4,7.7-9.1,7.2-4.4-.5-8.2-4.3-8.7-9-.3-2.8,0-5.6,0-8.4.4-.4.8-.9,1.2-1.3,0,3.2,0,6.5,0,9.7.4,1,.8,2,1.3,2.9,1.9,3.7,5.2,5.1,8.8,3.6,3.6-1.4,5.3-5.3,4.1-9.2.4.3,1,.5,1.2.9.4,1.1.7,2.3,1,3.5Z"/>
        <path class="cls-19" d="M111.8,120.2c0,.7,0,1.4,0,2.1.8,0,1.7.2,2.5.1,4.5-.1,9-.2,13.5-.4,1.1,1,2.2,2.1,3.3,3.1,0,0-.2.1-.3.1,0,0-.2,0-.3,0-2-.8-3.9-1.6-5.9-2.4-3.7.4-7.4.7-11.1,1.1h0c-1.8.4-3.6.8-5.4,1.3-1.6.7-3.3,1.4-4.9,2.1-1.5.4-3,.8-4.5,1.1,2.6-1.5,5.1-3.4,8-4.4,2.3-.8,4-1.7,4.9-4Z"/>
        <path class="cls-13" d="M191.9,127.4c-.4,0-.8,0-1.3-.1-4.4-1.3-8.7-1.3-12.9.9-.7-.5-1.3-1-2-1.5,4.1-.4,8.3-1.1,12.4-1.2,2.7,0,5.5.7,8.2,1.2,0,0,0,0,0,0,1.3.5,2.6.9,3.9,1.4,1.5.9,3,1.8,4.4,2.8-.6-.1-1.2-.3-1.8-.4,0,0,0,0,0,0-.7-.2-1.3-.5-2-.7,0,0,0,0,0,0-3.1-.8-6.1-1.6-9.2-2.4Z"/>
        <path class="cls-10" d="M196.5,126.7c-2.7-.4-5.5-1.2-8.2-1.2-4.2,0-8.3.8-12.4,1.2-.2-.7-.4-1.5-.5-2.2,3.8-.3,7.7-.6,11.5-.8-.4.2-.8.5-1.3.8,3.5.3,7,.6,10.4.8,0,0,0-.2,0-.2h.2c.2.5.3,1,.5,1.5Z"/>
        <path class="cls-19" d="M186.8,123.7c-3.8.3-7.7.6-11.5.8.6-.5,1.3-1,1.9-1.4,6.5-2.1,12.9-.5,19.3.6,0,0-.1,0-.1,0,1.1.4,2.1.8,3.2,1.2,0,0,0,0,0,0,0,.4,0,.8,0,1.2-1.2-.3-2.4-.6-3.6-1h-.2c0,0,0,.2,0,.2-1.9-.5-3.7-.9-5.6-1.4l-2.2-.2c-.4,0-.8,0-1.2,0Z"/>
        <path class="cls-13" d="M98.9,128.6c1.5-.4,3-.8,4.5-1.1,1,0,1.9.2,2.9,0,1.6-.2,3.2-.5,4.9-.8,0,0,0,0,0,0,0,.2,0,.3,0,.5-1.6.4-3.1.9-4.7,1.3,0,0,0,0,0,0-.7.2-1.3.3-2,.5,0,0-.2,0-.2,0-1.2.5-2.5,1-3.7,1.5,0,0,0,0,0,0-.4.2-.9.5-1.3.7,0,0,0,0,0,0-.4.2-.9.5-1.3.7,0,0,0,0,0,0-.4.2-.9.5-1.3.7,0,0,0,0,0,0-1.7-.3-3.4-.6-5.1-.9-.3.3-.5.6-.8.9.5.1,1.1.3,1.6.4-.5-.8-.9-1.5-1.4-2.3.2,0,.4,0,.6,0,2.8,1,5.5,1.2,7.2-1.9Z"/>
        <path class="cls-13" d="M139.5,112.4c-.5,1.4-1.1,2.8-1.9,5.1,1.6-.9,2.4-1.3,3.3-1.8-.9.5-1.9,1.1-2.8,1.6-.1-1-.5-2-.3-2.9.5-2.4,1.3-4.7,1.9-7,0-.1.1-.3.2-.4l-.4.2c-.2,0-.4,0-.6,0-.1-.1-.3-.2-.4-.4.4-.5.8-1,1.2-1.5.4-.5,1-1,1.2-1.6.9-2.7,1.7-5.4,2.6-8.1.1.1.2.2.4.3-.7,2.8-1.4,5.6-2,8.5-.8,2.7-1.5,5.3-2.3,8Z"/>
        <path class="cls-13" d="M168,193.6c-2.6-.4-5.2-1-7.8-1.1-7-.2-14.1,0-21.1,0,2.5-.2,4.9-.5,7.4-.6,4.4-.2,8.7-.3,13.1-.4,3,0,6.2-.8,8.5,2.1Z"/>
        <path class="cls-23" d="M99.6,148.7c2.1,1.3,4.3,2.5,6.4,3.8-1.7,1.2-3.3,3-5.7.9.3-.1.7-.3,1.3-.5-1.7-.6-3.2-1.1-4.7-1.7,0-.1,0-.3,0-.4.6,0,1.2-.1,1.8,0,.7,0,1.4.3,2.3.5-.6-1-1.1-1.8-1.6-2.6Z"/>
        <path class="cls-23" d="M124.7,122.9c2,.8,3.9,1.6,5.9,2.4,0,.8-.2,1.6-.3,2.4-1.4-.3-2.5-.6-3.7-.9-.8-.5-1.6-1-2.4-1.6-.4-.6-.8-1.1-1.3-1.7.6-.2,1.2-.4,1.8-.6Z"/>
        <path class="cls-4" d="M159,162.2c2.5,5.9,2.3,7.2-1.9,10.3.4-2.5.7-4.9.9-6.6,0,0,.2.7.3,1.3.1,0,.3,0,.4,0,.1-1.6.2-3.3.3-4.9h0Z"/>
        <path class="cls-9" d="M182.8,209.4c-1.1,4.8-1.9,5.5-5.8,5.2,0,0-.2,0-.3-.1,0,0,.2,0,.2.1-1.1.2-2.2.3-3.4.5,3-1.9,6.1-3.8,9.1-5.8Z"/>
        <path class="cls-7" d="M195.2,152.1c1.9-.8,3.9-1.5,5.8-2.3.2,1.1.4,2.2.7,3.6-2.3.3-4.6.6-7.2.9.3-.9.5-1.6.6-2.2Z"/>
        <path class="cls-19" d="M162.8,220.6c-.2.4-.3.9-.6,1-5,1.8-9.9,4.2-15.5,2.6-.4-.1-.8-.6-1.2-.9,6.1,1.4,11.7-.5,17.3-2.7Z"/>
        <path class="cls-13" d="M87.4,164.8c-.4-6.2-.9-12.4-1.3-18.6.4,1.1,1,2.2,1.1,3.3.3,4.2.5,8.3.7,12.5,0,.9-.3,1.9-.5,2.8Z"/>
        <path class="cls-13" d="M196.4,123.7c-6.4-1-12.8-2.6-19.3-.6.6-.5,1.3-1.4,1.9-1.4,5.5.3,11,.7,16.4,1.2.3,0,.6.5.9.8Z"/>
        <path class="cls-13" d="M127.9,122.1c-4.5.1-9,.3-13.5.4-.8,0-1.7,0-2.5-.1.4-.3.8-.5,1.2-.8.2,0,.3,0,.5,0,3.9-.2,7.8-.5,11.6-.5.9,0,1.8.7,2.7,1.1Z"/>
        <path class="cls-13" d="M141.1,194.5c.7-.2,1.4-.7,2-.7,6.3,0,12.7,0,19,0,.5,0,.9.4,1.4.6-7.5,0-15,0-22.5,0Z"/>
        <path class="cls-13" d="M124.1,125.3c.8.5,1.6,1,2.4,1.6,0,0,0,.2,0,.2-.1,0-.3,0-.4,0,0,0,0,0,0,0-1.4-.4-2.7-1.1-4.1-1.1-3.1,0-6.3.4-9.4.7-.5,0-1,0-1.5,0,0,0,0,0,0,0,4.3-.5,8.7-1,13-1.5Z"/>
        <path class="cls-19" d="M204.9,145.4c.2-2.6.4-5.2.6-7.7,0-.4,0-.8-.1-1.2.6,1.2,1.3,2.3,2,3.6,0,0,.4-.2.9-.4-1.1,1.9-2.2,3.8-3.4,5.7Z"/>
        <path class="cls-19" d="M124.6,130.8h4c-.1-.6-.3-1.4-.5-2.3,1.3,1.5,2.6,2.9,4,4.4-.1.2-.2.3-.3.5-2.4-.9-4.8-1.7-7.1-2.6Z"/>
        <path class="cls-19" d="M177.8,128.2c4.2-2.2,8.5-2.2,12.9-.9-.6.2-1.2.5-1.7.4-3.5-.7-7-.9-10.2,1.2-.5.3-1.2.1-1.9.2.3-.3.6-.6.9-.9Z"/>
        <path class="cls-19" d="M121.6,113.4c.5-.6,1-1.6,1.7-1.7,3.1-.7,6.2-1.1,9.4-1.6-2.7.8-5.4,1.5-8.1,2.3-1,.3-1.9.7-2.9,1Z"/>
        <path class="cls-9" d="M187.2,206c-.4,1.3-.7,2.6-1.1,3.9-1.5-.2-2.4-.4-3.3-.5,1.5-1.1,2.9-2.3,4.4-3.4Z"/>
        <path class="cls-9" d="M191.8,202.1c.6,3.3-1.4,3.5-3.8,3.3,1.3-1.1,2.6-2.2,3.8-3.3Z"/>
        <path class="cls-19" d="M92.6,132.9c-.5-.1-1.1-.3-1.6-.4.3-.3.5-.6.8-.9,1.7.3,3.4.6,5.1.9-.6.5-1.3.9-1.9,1.4-.3,0-.6,0-.9,0-.5-.3-1.1-.5-1.6-.8,0,0,.1-.1.1-.1Z"/>
        <path class="cls-9" d="M105.4,199.7c-2.6.4-3.8-.6-3.3-3.2,1.1,1.1,2.2,2.1,3.3,3.2Z"/>
        <path class="cls-9" d="M97.3,189.5c-2.5,0-2.1-1.9-2.2-3.5.7,1.2,1.4,2.3,2.2,3.5Z"/>
        <path class="cls-19" d="M204.2,186.7c-.7,1.1-1.4,2.2-2.1,3.2.7-1.1,1.4-2.2,2.1-3.2Z"/>
        <path class="cls-19" d="M174.9,131.1c.8.3,1.5.7,2.3,1-.8.4-1.7.8-3,1.4.3-1.1.5-1.7.7-2.4Z"/>
        <path class="cls-19" d="M145.6,223.5c-1.3-.4-2.7-.8-4-1.2,1.3.4,2.7.8,4,1.2Z"/>
        <path class="cls-19" d="M177.3,132.2c.8-.3,1.5-.6,2.3-.9-.2.2-.3.4-.5.6-.6.1-1.2.2-1.8.3Z"/>
        <path class="cls-19" d="M132.6,110.2c.9-.4,1.7-.9,2.6-1.3-.4.3-.8.7-1.2,1-.5,0-.9.2-1.4.3Z"/>
        <path class="cls-19" d="M205.2,184.7c-.4.7-.7,1.4-1.1,2.1.4-.7.7-1.4,1.1-2.1Z"/>
        <path class="cls-13" d="M134,109.9c.4-.3.8-.7,1.2-1,0,0,0,0,0,0,.4,0,.7-.2,1.1-.3,0,0,0,0,0,0-.8.4-1.6.8-2.3,1.2Z"/>
        <path class="cls-19" d="M126.2,127.1c.1,0,.3,0,.4,0,.5.5,1,1,1.5,1.5-.6-.5-1.3-.9-1.9-1.4Z"/>
        <path class="cls-19" d="M208.3,139.8c.4-.7.8-1.4,1.3-2.1-.4.7-.8,1.4-1.3,2.1Z"/>
        <path class="cls-9" d="M98.3,191.3c-.3-.5-.6-1-.9-1.5.3.5.6,1,.9,1.5Z"/>
        <path class="cls-19" d="M176.9,129.1c-.5.4-.9.9-1.4,1.3.5-.4.9-.9,1.4-1.3Z"/>
        <path class="cls-9" d="M102.1,196.5c-.4-.5-.8-.9-1.2-1.4.4.5.8.9,1.2,1.4Z"/>
        <path class="cls-19" d="M139.6,221.7c-.4-.2-.8-.4-1.2-.7.4.2.8.4,1.2.7Z"/>
        <path class="cls-19" d="M141.6,222.3c-.7-.2-1.4-.4-2-.6.7.2,1.4.4,2,.6Z"/>
        <path class="cls-9" d="M99.1,192.5c-.3-.4-.5-.9-.8-1.3.3.4.5.9.8,1.3Z"/>
        <path class="cls-19" d="M114.1,120.6c.3-.3.6-.6,1-1-.3.3-.6.6-1,1Z"/>
        <path class="cls-9" d="M99.9,193.6c-.3-.4-.6-.7-.9-1.1.3.4.6.7.9,1.1Z"/>
        <path class="cls-19" d="M113.5,121.5c-.1,0-.3,0-.5,0,.3-.3.7-.6,1-.9-.2.3-.4.6-.5.9Z"/>
        <path class="cls-19" d="M93.8,184.2c-.2-.5-.4-1-.6-1.4.2.5.4,1,.6,1.4Z"/>
        <path class="cls-19" d="M200.3,192.6c-.3.4-.6.8-.8,1.2.3-.4.6-.8.8-1.2Z"/>
        <path class="cls-9" d="M95.1,186.1c-.2-.4-.5-.9-.7-1.3.2.4.5.9.7,1.3Z"/>
        <path class="cls-13" d="M92.4,133c.5.3,1.1.5,1.6.8-.5-.3-1.1-.5-1.6-.8Z"/>
        <path class="cls-19" d="M201.6,190.7c-.3.4-.5.9-.8,1.3.3-.4.5-.9.8-1.3Z"/>
        <path class="cls-9" d="M173.8,215.1c-.4.2-.9.5-1.3.7.4-.2.9-.5,1.3-.7Z"/>
        <path class="cls-13" d="M138.9,107.3c-.4.2-.9.4-1.3.6h0c.3-.4.7-.7,1-1,.1.1.3.2.4.4Z"/>
        <path class="cls-13" d="M137.5,107.9c-.4.3-.8.5-1.2.8,0,0,0,0,0,0,.4-.3.8-.5,1.2-.8h0Z"/>
        <path class="cls-4" d="M159.1,162.1c-.1,0-.3,0-.4,0,0,0,.1,0,.2,0,0,0,.2.1.2.2,0,0,0,0,0,0Z"/>
        <path class="cls-9" d="M94.4,184.8c-.2-.2-.5-.5-.7-.7.2.2.5.5.7.7Z"/>
        <path class="cls-19" d="M202.2,189.9c-.2.3-.4.5-.6.8.2-.3.4-.5.6-.8Z"/>
        <path class="cls-19" d="M200.9,191.8c-.2.3-.4.5-.6.8.2-.3.4-.5.6-.8Z"/>
        <path class="cls-9" d="M100.4,194.4c-.2-.3-.3-.5-.5-.8.2.3.3.5.5.8Z"/>
        <path class="cls-19" d="M199.6,193.7c-.2.3-.4.5-.7.8.2-.3.4-.5.7-.8Z"/>
        <path class="cls-19" d="M120.3,114.7c.3-.3.5-.5.8-.8-.3.3-.5.5-.8.8Z"/>
        <path class="cls-9" d="M100.9,195.1c-.2-.3-.4-.5-.6-.8.2.3.4.5.6.8Z"/>
        <path class="cls-13" d="M163.5,194.4c.4.2.7.5,1.1.7-.4-.2-.7-.5-1.1-.7Z"/>
        <path class="cls-9" d="M106.7,201c-.2-.3-.4-.5-.7-.8.2.3.4.5.7.8Z"/>
        <path class="cls-9" d="M188,205.4c-.3.2-.5.5-.8.7.3-.2.5-.5.8-.7Z"/>
        <path class="cls-19" d="M175.6,130.3c-.2.3-.4.5-.7.8.2-.3.4-.5.7-.8Z"/>
        <path class="cls-13" d="M96.3,143.1c.3.3.5.6.8,1-.3-.3-.5-.6-.8-1Z"/>
        <path class="cls-19" d="M120.9,114c.3-.2.5-.5.8-.7-.3.2-.5.5-.8.7Z"/>
        <path class="cls-19" d="M170,220.6c.4-.7.9-1.4,1.3-2.1,2.1,1,2,2.7,1.8,4.6-.7,6.5-1.4,13.1-2,19.5.9-.5,1.7-1,2.4-1.4-.1,3.2-.2,6.4-.3,9.6,0,.5-.2.9-.2,1.4-.2,0-.4,0-.5,0-.6-1.7-1.2-3.4-1.8-5.1.4-7.9.9-15.8,1.3-23.7,0-1.4.6-3.2-1.9-2.9Z"/>
        <path class="cls-23" d="M173.2,250.8c.1-3.2.2-6.4.3-9.6,0,0,0,0,0,0,1.4,1.1,2.7,2.2,4.1,3.4,0,0,0,.1,0,.1.3.3.6.7.9,1-1.7,1.7-3.5,3.5-5.2,5.2Z"/>
        <path class="cls-9" d="M177.6,244.5c-1.4-1.1-2.7-2.2-4.1-3.4.9,0,1.7-.1,2.5-.2.5,1.2,1,2.4,1.6,3.6Z"/>
        <path class="cls-13" d="M196,125.1c1.2.3,2.4.6,3.6,1,0-.4,0-.8,0-1.2,2.3,0,3.9.8,3.4,3.6-1-.4-1.8-.7-2.7-1.1-1.3-.3-2.6-.5-3.8-.8,0,0,0,0,0,0-.2-.5-.3-1.1-.5-1.6Z"/>
        <path class="cls-10" d="M196.4,126.7c1.3.3,2.6.5,3.8.8,0,.2,0,.4,0,.6-1.3-.5-2.6-.9-3.9-1.4Z"/>
        <path class="cls-19" d="M203,130.4c.6.1,1.2.3,1.8.4,0,.1,0,.3.1.4-.6-.3-1.3-.5-1.9-.8Z"/>
        <path class="cls-17" d="M217.2,137.8c.3-.9.6-1.8,1-2.6-.3.9-.6,1.8-1,2.6Z"/>
        <path class="cls-9" d="M217.5,153.7c0,.2-.1.5-.2.5-.1,0-.4,0-.5-.2,0-.1.1-.3.2-.5.2,0,.4.2.5.2Z"/>
        <path class="cls-23" d="M146.4,83.5c-.1,0-.2.2-.1.4-.5,2.5-1,4.9-1.5,7.4-.2.6-.5,1.2-.7,1.8,0,0,0,0,0,0-.3.3-.6.7-.8,1-.4-.8-.8-1.5-1.3-2.5-2.6,3.2-5,6.2-7.3,9.2-.8,1-1.4,1.5-1.7-.2,4.5-6.8,9-13.6,13.5-20.3,0,1.1,0,2.2-.1,3.2Z"/>
        <path class="cls-13" d="M144.2,93.2c.2-.6.5-1.2.7-1.8-.2.6-.5,1.2-.7,1.8Z"/>
        <path class="cls-13" d="M143.4,94.2c.3-.3.6-.7.8-1-.1.9-.2,1.9-.4,2.8-.1,0-.3-.2-.4-.3,0-.5,0-1-.1-1.5Z"/>
        <path class="cls-24" d="M77,49.3c-.3.3-.6.5-.9.8,0-.1-.2-.2-.3-.4.3-.2.7-.4,1-.6v.2Z"/>
        <polygon class="cls-24" points="76.9 49.2 77 48.9 77.1 49 76.9 49.2"/>
        <path class="cls-24" d="M71.1,51.7v.3c-.1,0,0-.2,0-.3,0,0,0,0,0,0Z"/>
        <path class="cls-13" d="M247,197.8c0-1.9-.1-3.7-.2-5.6.1-1.6.2-3.1.3-4.7.2,0,.4,0,.6,0-.3,3.4-.5,6.8-.8,10.3Z"/>
        <path class="cls-18" d="M32.3,188.7c0-.9,0-1.7,0-2.6,1.3-2.4,2.6-4.8,3.9-7.1,0,0,0,0,0,0-.2,1.5-.3,3.1-.5,4.6,0,0,0,0,0,0-.7,1.7-1.4,3.5-2.1,5.2,0,0,0,0,0,0-.5,0-.9,0-1.4,0,0,0,0,0,0,0Z"/>
        <path class="cls-18" d="M36.2,179c.3-1.4.6-2.8.9-4.3l1.1.4c-.6,1.3-1.3,2.6-1.9,4,0,0,0,0,0,0Z"/>
        <path class="cls-9" d="M38.8,171.3c0,0,0,.2-.1.2,0,0,0-.2.1-.3,0,0,0,0,0,0Z"/>
        <path class="cls-19" d="M111.2,236.6c.9-8.7,1.8-17.4,2.7-26.1.2.9.5,1.9.4,2.8-.7,7.3-1.5,14.6-2.2,21.9-.3.5-.6,1-.8,1.5h0Z"/>
        <path class="cls-10" d="M112.1,235.2c.8-7.3,1.5-14.6,2.2-21.9,0-.9-.3-1.8-.4-2.8,0,0,0-.2,0-.2.7.3,1.3.5,2,.8-.3,1.1-.7,2.2-.8,3.3-.5,5.8-.8,11.7-1.4,17.6-.1,1.1-1,2.1-1.6,3.2Z"/>
        <path class="cls-19" d="M107.3,241.8c.9-1.1,1.7-2.2,2.6-3.2.1.1.3.2.4.3-.9,1-1.8,2.1-2.8,3.1l-.2-.2Z"/>
        <path class="cls-19" d="M109.9,238.5c.4-.6.9-1.3,1.3-1.9,0,0,0,0,0,0-.3.7-.7,1.5-1,2.2-.1-.1-.3-.2-.4-.3Z"/>
        <path class="cls-19" d="M106.6,242.4c.2-.2.4-.4.6-.7,0,0,.2.2.2.2l-.7.6s-.1-.1-.1-.1Z"/>
        <path class="cls-19" d="M106,243c.2-.2.4-.4.7-.6,0,0,.1.1.1.1-.2.2-.5.4-.7.5h0Z"/>
        <path class="cls-23" d="M106,243.1c.2-.2.5-.4.7-.5.2-.2.5-.4.7-.6.9-1,1.8-2.1,2.8-3.1.3-.7.7-1.5,1-2.2.3-.5.6-1,.8-1.5.5-1.1,1.4-2.1,1.6-3.2.6-5.8.9-11.7,1.4-17.6,0-1.1.5-2.2.8-3.3,0,0-.1.1-.1.1.4.2.8.5,1.3.7,0,0,0,0,0,0,.3.2.5.4.8.6,7.5,4.6,15,9,22.5,13.7,6.9,4.3,13.7,4.4,20.5,0,3.1-1.9,6.1-3.9,9.2-5.9,2.5-.2,2,1.6,1.9,2.9-.4,7.9-.8,15.8-1.3,23.7,0,.5,0,1.1,0,.8-1.7.4-3.2.4-4.3,1-3.7,2.2-7.1,4.8-10.8,6.9-7.6,4.3-15.6,6.7-24.2,2.8-6.3-2.9-12.7-5.7-18.8-8.9-4.5-2.4-8.1-1.1-11.7,1.6-.6,0-1.1,0-1.7-.1-.2-.2-.5-.3-.7-.5,0-1.4,0-2.9.1-4.3,2.5-1.1,5-2.3,7.6-3.4Z"/>
        <path class="cls-15" d="M99.1,251.3c.6,0,1.1,0,1.7.1.4,1.4.7,2.7,1.1,4.1-1.2-1.1-2.4-2.3-3.6-3.4,0-.2,0-.4.1-.7.2,0,.5,0,.7-.1Z"/>
        <path class="cls-9" d="M96.2,250.3c.2-.4.4-.8.6-1.2.2.1.3.2.5.4-.4.3-.7.6-1.1.8Z"/>
        <path class="cls-12" d="M99.1,251.3c-.2,0-.5,0-.7.1,0-.2,0-.4,0-.6.2.2.5.3.7.5Z"/>
        <path class="cls-18" d="M31,192.6c.4-1.3.9-2.6,1.3-3.9,0,0,0,0,0,0,0,1.1,0,2.2,0,3.4,0,0,0,0,0,0-.5.2-1,.4-1.4.6,0,0,0,0,0,0Z"/>
        <path class="cls-18" d="M29.9,198.7c-.5.1-1,.3-1.5.4.4-1.3.8-2.6,1.2-3.9h0c0,1.2,0,2.3.1,3.5h0Z"/>
        <path class="cls-18" d="M29.7,195.2c.4-.9.9-1.7,1.3-2.6,0,0,0,0,0,0-.4.9-.8,1.7-1.3,2.6,0,0,0,0,0,0Z"/>
        <path class="cls-12" d="M101.8,255.5c-.4-1.4-.7-2.7-1.1-4.1,3.6-2.7,7.2-4,11.7-1.6,6.1,3.2,12.5,6,18.8,8.9,8.6,3.9,16.6,1.5,24.2-2.8,3.7-2.1,7.2-4.7,10.8-6.9,1.1-.7,2.6-.6,4.3-1,0,.3,0-.2,0-.8.6,1.7,1.2,3.4,1.8,5.1.2,0,.4,0,.5,0,0-.5.2-.9.2-1.4,1.7-1.7,3.5-3.5,5.2-5.2,2.7,1.7,6.6,1.8,7.8,5.7-.4,4.6-.7,9.3-1.1,13.9,0,0,0,0,0,0-.7.5-1.3.9-2,1.4,0,0,0-.1,0-.1-.7.2-1.5.4-2.2.6,0,0-.1-.1-.1-.1-1,.3-2.1.6-3.1.9h-.2c0,0,0-.2,0-.2-1,0-2-.3-2.9,0-3,.8-6,1.8-9.1,2.7,0,0,0,0,0,0-.5.2-.9.5-1.4.7,0,0,0,0,0,0-.4.3-.9.5-1.3.8-.9.8-1.8,1.5-2.7,2.3-.1.2-.3.4-.4.6.3,0,.5-.1.8-.2,7-5,15.5-4.3,23.7-6.2-4.3,9-10.5,15.5-19.7,18.8-.8.3-1.5.5-2.3.8,0,0,0,0,0,0-.7.2-1.3.5-2,.7,0,0,0-.1,0-.1-4.3,0-8.7,0-13-.2-2.5-.1-5-.8-7.5-1.2-7.2-1.8-13.3-5.7-19.1-10.2-1.9-1.5-3.8-3.2-5.7-4.7-.2-.4-.5-.8-.7-1.3-.4-.4-.8-.9-1.3-1.3.7-.4,1.5-1.2,2.2-1.1,1.6.2,3.1,1,4.6,1.3,4.4.9,8.8,1.5,13.2,2.4,2.2.5,4.4,1.2,6.5,1.8,0,.1,0,.3,0,.4,0,0,.2,0,.3,0,0-.1-.2-.3-.3-.4-1.1-.7-2.2-1.4-3.3-2.1-.7-.3-1.4-.6-2.1-.9h0c-1.3-.4-2.6-.8-3.9-1.2h-.1c-.8-.1-1.6-.4-2.5-.6h-.1c-2.9-.4-5.7-.9-8.6-1.5-2.4-.7-4.9-1.3-7.3-2,0,0-.1,0-.1,0-1-.3-2-.6-3-.9,0,0,.1,0,.1,0-.3-.2-.5-.4-.8-.6-1.1-1.6-2.3-3.1-3.4-4.7,1.2-2.2.8-3.3-1.9-2.8,0,0,0,0,0,0-.3-.4-.5-.8-.8-1.2h0Z"/>
        <path class="cls-19" d="M111.8,265.7c2.4.7,4.9,1.3,7.3,2,2.9.5,5.7,1.1,8.6,1.6,0,0,.1-.1.1-.1.8.3,1.6.5,2.5.8,0,0,.1-.1.1-.1,1.3.4,2.6.8,3.9,1.3,0,0,0,0,0,0,.7.3,1.4.6,2.1.9,1.1.7,2.2,1.4,3.3,2.1h0c-2.2-.7-4.3-1.4-6.6-1.9-4.4-.9-8.8-1.6-13.2-2.4-1.6-.3-3.1-1.1-4.6-1.3-.7,0-1.5.7-2.2,1.1-1-.4-1.9-.7-2.9-1.1.6-1.1,1.1-1.9,1.6-2.7Z"/>
        <path class="cls-22" d="M139.8,287c2.5.4,5,1,7.5,1.2,4.3.2,8.7.1,13,.2-7,2.5-13.8,1-20.5-1.4Z"/>
        <path class="cls-22" d="M185,265.2c.4-4.6.7-9.3,1.1-13.9,1.6,4.8.7,9.4-1.1,13.9Z"/>
        <path class="cls-22" d="M165.5,270.4c3-.9,6-1.9,9.1-2.7.9-.2,1.9,0,2.9,0-4,.9-8,1.8-11.9,2.7Z"/>
        <path class="cls-15" d="M102.6,256.7c2.7-.5,3.1.7,1.9,2.8-.6-.9-1.3-1.9-1.9-2.8Z"/>
        <path class="cls-19" d="M108.6,264.8c1,.3,2,.6,3,.9-1-.3-2-.6-3-.9Z"/>
        <path class="cls-22" d="M183.1,266.7c.7-.5,1.3-.9,2-1.4-.7.5-1.3.9-2,1.4Z"/>
        <path class="cls-22" d="M177.6,267.9c1-.3,2.1-.6,3.1-.9-1,.3-2.1.6-3.1.9Z"/>
        <path class="cls-22" d="M180.8,267.2c.7-.2,1.5-.4,2.2-.6-.7.2-1.5.4-2.2.6Z"/>
        <path class="cls-22" d="M162.3,287.9c.8-.3,1.5-.5,2.3-.8-.8.3-1.5.5-2.3.8Z"/>
        <path class="cls-22" d="M160.4,288.5c.7-.2,1.3-.5,2-.7-.7.2-1.3.5-2,.7Z"/>
        <path class="cls-15" d="M101.8,255.5c.3.4.5.8.8,1.2-.3-.4-.5-.8-.8-1.2Z"/>
        <path class="cls-22" d="M164.2,271c.5-.2.9-.5,1.4-.7-.5.2-.9.5-1.4.7Z"/>
        <path class="cls-19" d="M114.4,270.8c.2.4.5.8.7,1.3-.2-.4-.5-.8-.7-1.3Z"/>
        <path class="cls-22" d="M163,271.7c.4-.3.9-.5,1.3-.8-.4.3-.9.5-1.3.8Z"/>
        <path class="cls-19" d="M107.9,264.3c.3.2.5.4.8.6-.3-.2-.5-.4-.8-.6Z"/>
        <path class="cls-10" d="M58.5,156.1c-.4-1.4-.7-2.8-1.1-4.3.6,1.1,1.3,2.2,1.9,3.3.6,1.2,1,2.6,1.5,3.9.3.8.4,1.7.6,2.5h-.1c-.2,0-.3,0-.5,0,0,0,0,0,0,0-.2-.3-.5-.7-.7-1,0,0,0-.2,0-.2-.4-.9-.8-1.9-1.2-2.8,0,0,0,0,0,0-.2-.5-.4-.9-.6-1.4v-.2Z"/>
        <path class="cls-19" d="M58.9,157.6c.4.9.8,1.8,1.2,2.8-.4-.9-.8-1.8-1.2-2.8Z"/>
        <path class="cls-9" d="M60.8,161.5c.2,0,.3.1.5.2,0,.4.2.7.3,1.1-.3-.4-.5-.9-.8-1.3Z"/>
        <path class="cls-19" d="M58.4,156.3c.2.5.4.9.6,1.4-.2-.5-.4-.9-.6-1.4Z"/>
        <path class="cls-9" d="M62.7,194.6c0,.3-.2.5-.2.8,0-.3.2-.5.2-.8,0,0,0,0,0,0Z"/>
        <path class="cls-9" d="M60.1,160.6c.2.3.5.7.7,1-.2-.3-.5-.7-.7-1Z"/>
        <path class="cls-9" d="M61.5,162.7c.2.3.4.5.6.8-.2-.3-.4-.5-.6-.8Z"/>
        <path class="cls-9" d="M62.1,163.5c.2.2.4.5.7.7-.2-.2-.4-.5-.7-.7Z"/>
        <path class="cls-9" d="M62.7,164.2c.2.2.5.4.7.6-.2-.2-.5-.4-.7-.6Z"/>
        <path class="cls-23" d="M61.4,161.6c-.2-.8-.3-1.7-.6-2.5-.4-1.3-.9-2.6-1.5-3.9-.5-1.2-1.2-2.2-1.9-3.3,0-.3,0-.7-.1-1,.3-.9.5-1.7.8-2.6.6-1.6,1.3-3.2,2-4.7.6-.9,1.1-1.9,1.7-2.8.3,1.3.8,2.7.8,4,0,5.1,0,10.1,0,15.2,0,.6-.8,1.1-1.2,1.7Z"/>
        <path class="cls-15" d="M60.2,143.5c-.7,1.6-1.4,3.1-2,4.7-.3.8-.5,1.7-.8,2.6-.1-3.1-.3-6.2-.4-9.2.5-2.2,1.1-4.4,1.6-6.6,0,0,0,0,0,0,.2-.5.3-.9.5-1.4,0,0,0,0,0,0,.3-.4.6-.8.8-1.1,0,0,0,0,0,0,.7-.4,1.4-.8,2.1-1.1,0,0,0,0,0,0,.1,1.2.2,2.4.4,3.6,0,0,0,0,0,0-2.6,1.7-2.1,4.5-2.2,7,0,.6,0,1.1,0,1.7Z"/>
        <path class="cls-14" d="M60.1,141.8c.1-2.5-.4-5.3,2.2-7-.7,2.3-1.5,4.7-2.2,7Z"/>
        <path class="cls-19" d="M60.8,130.7c.2-.2.5-.5.7-.7-.2.2-.5.5-.7.7Z"/>
        <path class="cls-15" d="M62,131.2c0,0,.1-.2.2-.2,0,0,0,.2-.1.3,0,0,0,0,0,0Z"/>
        <path class="cls-19" d="M29.8,195.2c.4-.9.8-1.7,1.3-2.6.5-.2,1-.4,1.4-.6-.1.6-.2,1.2-.3,1.7-.2.4-.4.9-.6,1.3-.6,1.2-1.1,2.3-1.7,3.5,0-1.1,0-2.3-.1-3.4Z"/>
        <path class="cls-19" d="M33.7,188.9c.7-1.7,1.4-3.5,2.1-5.2-.1.6-.2,1.2-.3,1.7-.4,1.1-.8,2.2-1.2,3.3-.2,0-.3.1-.5.2Z"/>
        <path class="cls-19" d="M32.4,192.1c0-1.1,0-2.2,0-3.4.5,0,.9,0,1.4,0-.1.6-.2,1.1-.3,1.7-.3.5-.7,1.1-1,1.6Z"/>
        <path class="cls-17" d="M98.9,128.6c-1.7,3.1-4.4,2.9-7.2,1.9.5-4.4,2.3-8.5,4.1-12.5.6-1.2,1.9-2,2.9-3-.5,3.4-.9,6.8-1.4,10.2.4,0,.7.1,1.1.2.4-1.1.8-2.1,1.1-3.2,1.1-1.7,2.1-3.5,3.2-5.2,3.1-.4,6.3-.9,9.4-1.3-.2,1.8-.3,2.9-.4,3.9,0,.2,0,.4,0,.6-.9,2.3-2.6,3.2-4.9,4-2.8,1-5.3,2.9-8,4.4Z"/>
        <path class="cls-17" d="M143.4,94.2c0,.5,0,1,.1,1.5-.8,2.7-1.7,5.4-2.6,8.1-.2.6-.8,1.1-1.2,1.6-.2-.1-.3-.3-.2-.5-.3-.2-.5-.4-.8-.7,0,.3.2.5.2.8-1.4.5-2.7,1-4.1,1.5,0,0,0,0,0,0-2.2.5-4.4,1-6.6,1.4-.2,0-.5-.8-.8-1.2,1.8-2,3.6-4,5.4-6.1.4,1.7.9,1.2,1.7.2,2.3-3,4.7-5.9,7.3-9.2.5.9.9,1.7,1.3,2.5Z"/>
        <path class="cls-23" d="M106.8,111.3c5.3-7.8,10.6-15.6,15.8-23.4.4-.5.6-1.1.9-1.7.4-.3.7-.6,1.4-1.1-.1,1-.2,1.6-.2,2.2,0,0,0,0,0,0-.3.9-.5,1.7-.8,2.6,0,0,0,0,0,0-.4,1.3-.9,2.6-1.3,3.9,0,0,0,0,0,0-.2.7-.4,1.3-.6,2,0,0,0,0,0,0-.2,0-.4.2-.5.3-.4.8-.8,1.7-1.2,2.5,0,0,0,0,0,0-.3.1-.6.3-.9.4-.5.5-1.1.9-1.6,1.5-2.9,3.4-5.8,6.8-8.8,10.2-.5.5-1.5.6-2.2.9Z"/>
        <path class="cls-5" d="M106.8,111.3c.8-.3,1.8-.4,2.2-.9,3-3.3,5.9-6.8,8.8-10.2.5-.5,1.1-1,1.6-1.5-.1,1.2-.2,2.4-.3,3.6,0,0,0-.1,0-.1-.3.7-.5,1.3-.8,2h0c-.7,1.4-1.3,3-2,4.5h0c-.3.6-.5,1.2-.8,1.9,0,0,0,0,0,0-.2.3-.5.6-.7.9-3.1.8-6.2,1.6-9.3,2.4-.1-.2-.3-.5-.4-.7.4-.6.9-1.3,1.3-1.9Z"/>
        <path class="cls-14" d="M111.8,119.6c.1-1,.2-2.1.4-3.9-3.1.4-6.3.9-9.4,1.3,2.2-.9,4.3-2,6.6-2.6,1.5-.4,3.1,0,5.1,0-1,1.9-1.9,3.6-2.8,5.2Z"/>
        <path class="cls-4" d="M99.6,122.2c-.4,1.1-.8,2.1-1.1,3.2-.4,0-.7-.1-1.1-.2.5-3.4.9-6.8,1.4-10.2.3-1.3.7-2.7,1-4-.2,2.7-.6,5.4-.7,8.1,0,1,.3,2.1.5,3.1Z"/>
        <path class="cls-19" d="M127.7,106.7c.3.4.6,1.3.8,1.2,2.2-.4,4.4-.9,6.6-1.4-2.8,1.1-5.6,2.2-8.5,3.4-.3-.4-.5-.7-.8-1.1.6-.7,1.3-1.4,1.9-2.1Z"/>
        <path class="cls-19" d="M135,106.6c1.4-.5,2.7-1,4-1.5,0,0,.3,0,.3,0h.3c-.1,0,0,.2.2.3-.4.5-.8,1-1.2,1.5-.3.3-.7.6-1,.9-.4.3-.8.5-1.2.8-.4,0-.7.2-1.1.3.4-.7.8-1.3,1.2-2.1-.5,0-1-.1-1.5-.2Z"/>
        <path class="cls-19" d="M118.2,106c-1,1.9-1.9,3.8-2.9,5.7.2-.4.3-.7.5-1.1,0,0,0,0,0,0,.3-.7.5-1.3.8-2,0,0,0,.1,0,.1.5-1,1.1-1.9,1.6-2.9,0,0,.2.1.2.1Z"/>
        <path class="cls-19" d="M124.6,87.3c0-.6.1-1.2.2-2.2-.7.5-1,.8-1.4,1.1.5-.8,1-1.5,1.4-2.3l1.1.7c-.5.9-1,1.8-1.5,2.6Z"/>
        <path class="cls-4" d="M99.8,110.9c.5-1.8,1-3.5,1.6-5.3-.5,1.8-1,3.5-1.6,5.3Z"/>
        <path class="cls-19" d="M121.4,97.6c-.4,1.1-.8,2.2-1.3,3.3,0,0-.1,0-.1,0,0-.8.2-1.6.3-2.4,0,0,0,0,0,0,.3-.3.6-.6,1-.9,0,0,.2.1.2.1Z"/>
        <path class="cls-19" d="M122.6,93.6c.4-1.3.9-2.6,1.3-3.9-.4,1.3-.9,2.6-1.3,3.9Z"/>
        <path class="cls-19" d="M120.2,100.9c-.4,1.1-.8,2.2-1.3,3.3h0c.1-.7.2-1.3.3-1.9,0,0,0,.1,0,.1.3-.5.7-1.1,1-1.6,0,0,.1,0,.1,0Z"/>
        <path class="cls-19" d="M146.4,83.5c0-1.1,0-2.2.1-3.2,0,1.1,0,2.2-.1,3.2Z"/>
        <path class="cls-19" d="M123.9,89.8c.3-.9.5-1.7.8-2.6-.3.9-.5,1.7-.8,2.6Z"/>
        <path class="cls-19" d="M122,95.7c.2-.7.4-1.3.6-2-.2.7-.4,1.3-.6,2Z"/>
        <path class="cls-19" d="M121.5,95.8c.2,0,.4-.2.5-.3-.2.7-.4,1.3-.6,2,0,0-.2-.1-.2-.1,0-.5.1-1.1.2-1.6Z"/>
        <path class="cls-4" d="M101.7,103.5c0-.2,0-.3.2-.4.1-.1.3-.2.4-.3,0,.2,0,.5.1.7-.3,0-.5,0-.8,0Z"/>
        <path class="cls-19" d="M118.9,104.1c-.2.6-.5,1.3-.7,1.9,0,0-.2-.1-.2-.1.1-.6.2-1.2.3-1.8,0,0,0,.1,0,.1.2,0,.3-.1.5-.2h0Z"/>
        <path class="cls-4" d="M101.4,105.5c0-.5.1-1,.2-1.4,0,.5-.1,1-.2,1.4Z"/>
        <path class="cls-13" d="M115.8,110.6c-.2.4-.3.7-.5,1.1,0,0-.2-.2-.3-.2.2-.3.5-.6.7-.9Z"/>
        <path class="cls-14" d="M58.6,135c-.5,2.2-1.1,4.4-1.6,6.6.5-2.2,1.1-4.4,1.6-6.6Z"/>
        <path class="cls-14" d="M59.9,132.4c-.3.4-.6.8-.8,1.1.3-.4.6-.8.8-1.1Z"/>
        <path class="cls-14" d="M59.1,133.6c-.2.5-.3.9-.5,1.4.2-.5.3-.9.5-1.4Z"/>
        <path class="cls-21" d="M123.9,141.2c0,4.2-1.6,6.5-5.6,7.8-3,1-6.2,0-8-3-1.4-2.3-2.9-4.7-.6-8,.6,1.3,1.1,2.2,1.5,3.1.1-.3.3-.5.4-.8,1.6.6,3.4,1.1,4.8,2,2,1.2,5.5,1,7.5-1.1Z"/>
        <path class="cls-10" d="M106,135.2c-2.8,1.2-5.5,2.5-8.3,3.7.6-3.2,3.4-5.1,7.8-5.3.3,0,.6-.1,1.2-.2-.2.7-.4,1.2-.6,1.8Z"/>
        <path class="cls-6" d="M124.5,134.9c-1.5,1-2.5,2.2-3.1,2-.8-.3-1.6-1.5-1.7-2.4,0-.6,1.2-2,1.7-1.9.9.1,1.6,1.1,3.1,2.3Z"/>
        <path class="cls-19" d="M112.6,126.8c3.1-.2,6.3-.6,9.4-.7,1.4,0,2.7.7,4.1,1.1-6.6.4-13.1.9-19.7,1.3,1.6-.4,3.1-.9,4.7-1.3.5-.1,1-.3,1.5-.4Z"/>
        <path class="cls-19" d="M100.6,130.4c1.2-.5,2.5-1,3.7-1.5-1.2.5-2.5,1-3.7,1.5Z"/>
        <path class="cls-19" d="M104.5,128.9c.7-.2,1.3-.3,2-.5-.7.2-1.3.3-2,.5Z"/>
        <path class="cls-19" d="M99.3,131.1c.4-.2.9-.5,1.3-.7-.4.2-.9.5-1.3.7Z"/>
        <path class="cls-19" d="M98.1,131.8c.4-.2.9-.5,1.3-.7-.4.2-.9.5-1.3.7Z"/>
        <path class="cls-19" d="M96.8,132.4c.4-.2.9-.5,1.3-.7-.4.2-.9.5-1.3.7Z"/>
        <path class="cls-10" d="M117,212c-.4-.2-.8-.5-1.3-.7.4.2.8.5,1.3.7Z"/>
        <path class="cls-10" d="M117.8,212.6c-.3-.2-.5-.4-.8-.6.3.2.5.4.8.6Z"/>
        <path class="cls-21" d="M193.2,139.6c1.3,3.9-.4,7.8-4.1,9.2-3.6,1.4-6.9,0-8.8-3.6-.5-1-.9-2-1.3-2.9,0-.7-.2-1.6,0-2.2.3-.7.8-1.7,1.4-1.9.5-.2,1.5.5,2,1,.4.4.7,1.1.9,1.7.8,2.6,2,3.1,4.4,1.4,1.6-1.2,3.6-1.8,5.4-2.6Z"/>
        <path class="cls-10" d="M205.4,136.5c0,.4,0,.8.1,1.2-.3.2-.8.7-1,.6-2.7-1-5.4-2.2-8-3.3-.4-.7-.8-1.4-1.2-2.1,0,0,0,0,0,0,0-.1,0-.3,0-.4,3.1,1.1,6.1,2.1,9.2,3.2.3.2.6.5.8.7h0Z"/>
        <path class="cls-13" d="M194,135.8c-1.4.9-2.1,1.5-2.9,2-.6-.8-1.6-1.7-1.6-2.6,0-.7,1-1.5,1.6-2.2.8.8,1.6,1.5,2.9,2.7Z"/>
        <path class="cls-19" d="M195.3,133c.4.7.8,1.4,1.2,2.1-.4,2.9-.7,5.7-1.1,8.6,0-3.5-.1-7.1-.2-10.6Z"/>
        <path class="cls-19" d="M191.9,127.4c3.1.8,6.1,1.6,9.2,2.4-3.1-.8-6.1-1.6-9.2-2.4Z"/>
        <path class="cls-19" d="M201.1,129.7c.7.2,1.3.5,2,.7-.7-.2-1.3-.5-2-.7Z"/>
        <path class="cls-19" d="M195.4,132.6c0,.1,0,.3,0,.4-.1,0-.3-.2-.4-.2.1,0,.3-.1.4-.2Z"/>
        <path class="cls-19" d="M205.4,136.5c-.3-.2-.6-.5-.8-.7.3.2.6.5.8.7Z"/>
        <path class="cls-17" d="M187.2,153.2c-.1.1-.3.3-.4.4-.2-.2-.3-.4-.5-.6.2,0,.4-.2.6-.2.1,0,.2.3.4.4Z"/>
        <path class="cls-12" d="M124.1,125.3c-4.3.5-8.7,1-13,1.5-1.6.3-3.2.6-4.9.8-.9.1-1.9,0-2.9,0,1.6-.7,3.3-1.4,4.9-2.1,1.8-.5,3.6-.9,5.4-1.4,0,0,0,0,0,0,3.1-.2,6.2-.3,9.3-.5.4.6.8,1.1,1.3,1.7Z"/>
        <path class="cls-22" d="M122.9,123.6c-3.1.2-6.2.3-9.3.5,3.7-.4,7.4-.7,11.1-1.1-.6.2-1.2.4-1.8.6Z"/>
        <path class="cls-22" d="M113.7,123.9c-1.8.5-3.6.9-5.4,1.4,1.8-.5,3.6-.9,5.4-1.4Z"/>
        <path class="cls-13" d="M186.8,123.7c.4,0,.8,0,1.2,0,.7,0,1.5.1,2.2.2,1.9.5,3.7.9,5.6,1.4-3.4-.3-6.8-.6-10.4-.8.5-.3.9-.6,1.3-.8Z"/>
        <path class="cls-10" d="M190.3,124c-.7,0-1.5-.1-2.2-.2.7,0,1.5.1,2.2.2Z"/>
        <path class="cls-12" d="M112.6,126.8c-.5.1-1,.3-1.5.4,0-.2,0-.3,0-.5.5,0,1,0,1.5,0Z"/>
        <path class="cls-17" d="M139.5,107.2l.4-.2c0,.1-.1.3-.2.4,0,0-.2-.2-.2-.2Z"/>
        <path class="cls-18" d="M177.1,214.6c0,0-.2,0-.2-.1,0,0,.2,0,.3.1,0,0,0,0,0,0Z"/>
        <path class="cls-22" d="M127.7,269.3c-2.9-.5-5.7-1.1-8.6-1.6,2.9.5,5.7,1.1,8.6,1.6Z"/>
        <path class="cls-22" d="M134.3,271.1c-1.3-.4-2.6-.8-3.9-1.3,1.3.4,2.6.8,3.9,1.3Z"/>
        <path class="cls-22" d="M130.3,269.9c-.8-.3-1.6-.5-2.5-.8.8.3,1.6.5,2.5.8Z"/>
        <path class="cls-22" d="M136.3,271.9c-.7-.3-1.4-.6-2.1-.9.7.3,1.4.6,2.1.9Z"/>
        <path class="cls-19" d="M139.6,274c0,.1.2.3.3.4,0,0-.2,0-.3,0,0-.1,0-.3,0-.4,0,0,0,0,0,0Z"/>
        <path class="cls-9" d="M160.6,274.4c-.3,0-.5.1-.8.2.1-.2.3-.4.4-.6.1.1.2.2.4.4Z"/>
        <path class="cls-13" d="M139.6,105s-.3.1-.3.1c0,0-.3,0-.3,0,0-.3-.2-.5-.2-.8.3.2.5.4.8.7Z"/>
        <path class="cls-13" d="M120.1,100.8c-.3.5-.7,1.1-1,1.6.1-1.2.2-2.4.3-3.6.3-.1.6-.3.9-.4,0,.8-.2,1.6-.3,2.4Z"/>
        <path class="cls-13" d="M121.5,95.8c0,.5-.1,1.1-.2,1.6-.3.3-.6.6-1,.9.4-.8.8-1.7,1.2-2.5Z"/>
        <path class="cls-13" d="M118.4,104.1c-.1.6-.2,1.2-.3,1.8-.5,1-1.1,1.9-1.6,2.9.7-1.6,1.3-3.1,2-4.7Z"/>
        <path class="cls-13" d="M118.8,104c-.2,0-.3.1-.5.2.3-.7.5-1.3.8-2-.1.6-.2,1.2-.3,1.8Z"/>
        <path class="cls-13" d="M116.5,108.7c-.3.7-.5,1.3-.8,2,.3-.7.5-1.3.8-2Z"/>
      </g>
    </g>
  </g>
</svg>