<?xml version="1.0" encoding="UTF-8"?>
<svg xmlns="http://www.w3.org/2000/svg" width="292.3" height="295.9" version="1.1" viewBox="0 0 292.3 295.9">
  <defs>
    <style>
      .cls-1 {
        fill: #cbcaa4;
      }

      .cls-2 {
        fill: #6c9fa3;
      }

      .cls-3 {
        fill: #db8959;
      }

      .cls-4 {
        fill: #293b47;
      }

      .cls-5 {
        fill: #3c2a25;
      }

      .cls-6 {
        fill: #f9cf98;
      }

      .cls-7 {
        fill: #fdf8e2;
      }

      .cls-8 {
        fill: #d37642;
      }

      .cls-9 {
        fill: #aebea6;
      }

      .cls-10 {
        fill: #17212a;
      }

      .cls-11 {
        fill: #488e92;
      }

      .cls-12 {
        fill: #f0b985;
      }

      .cls-13 {
        fill: #7ea9a5;
      }

      .cls-14 {
        fill: #a25c38;
      }

      .cls-15 {
        fill: #f8eac9;
      }

      .cls-16 {
        fill: #dfcf9e;
      }

      .cls-17 {
        fill: #f9cb92;
      }

      .cls-18 {
        fill: #162c38;
      }

      .cls-19 {
        fill: #171618;
      }

      .cls-20 {
        fill: #9cab8b;
      }

      .cls-21 {
        fill: #93b3a6;
      }

      .cls-22 {
        fill: #793f2c;
      }

      .cls-23 {
        fill: #f3d39d;
      }

      .cls-24 {
        fill: #df8f5e;
      }

      .cls-25 {
        fill: #8f5134;
      }
    </style>
  </defs>
  <!-- Generator: Adobe Illustrator 28.7.8, SVG Export Plug-In . SVG Version: 1.2.0 Build 200)  -->
  <g>
    <g id="_レイヤー_1" data-name="レイヤー_1">
      <g>
        <path class="cls-10" d="M290.8,131.2c0,.8,0,1.6-.1,2.3-1.2,1.8-2.4,3.6-3.7,5.4-2,1.2-4,2.4-6,3.6-.2,0-.4,0-.5.2-.3.2-.5.3-.8.5v-.2s-.2,0-.2,0c-.1,0-.3,0-.4,0-3.4.6-6.8,1.2-10.4,1.9,1.6,4.7,3.1,9.3,4.7,14,1.6,6.9,1.1,13.7-.7,20.5-1.5,3-2.8,6.1-4.5,8.9-4.6,7.3-13.9,13.1-21,13.3,11-7.6,10.7-14.5,8.1-27.2-.8,1.1-1.4,1.9-1.8,2.7-2.3,4.3-4.2,8.9-6.8,13-2.2,3.6-5.2,6.8-7.7,10.3-3.1,4.4-3.3,9.2-.8,13.7,2.8,4.9,7.1,8,13.2,7.5-.2.3-.4.6-.6,1-1.9.9-3.9,1.8-5.8,2.7-4.7,0-9.4,0-14.1.1l-1.3-.5c-.4-.1-.7-.2-1.1-.4h0c-.5-.2-.9-.5-1.4-.8-.2-.1-.4-.2-.7-.4-.4-.3-.9-.6-1.3-.9-1.7-1.7-3.8-3.2-5.1-5.2-1.8-2.8-4.1-5-6.9-6.8-4.2-2.7-7-6.8-8.1-11.8-.3-1.3-.7-2.5-1-3.8,0,0,.1-.2.1-.2h.2c.6-4.9,1.1-9.9,1.8-14.8.2-1.5,0-2.3-1.7-2.3-1,.8-2.2,1.5-2.9,2.6-2.4,4-5.2,7.4-9.3,9.6-4,2.1-8.1,3.9-12.2,5.9-1.2.6-2.4,1.2-4.2,2.1,7.9,1.5,14.5,3.5,17.4,11,2,5.1,1.8,7.9-.4,10.5,0-1.5.2-3,0-4.4-1-5.8-5.1-9.3-9.9-12.1-1.1-1.9-2.6-2.5-4.6-1.2,0,0,0,.3,0,.3-.7.4-1.4.7-2.1,1.1-.4.9-1.1,1.8-1,2.7.2,3.8.6,7.6,1.1,11.4.3,2.2,1.1,4.3,1.7,6.5,0,.3.1.5.2.8,0,.6.1,1.3.2,1.9,0,0,0,0,0,0,.2.9.4,1.7.6,2.6.2.7.5,1.3.7,2,.6.7,1.1,1.4,1.7,2.1,0,0,0,0,0,0,.3.4.6.8.9,1.2.2.2.4.5.6.7l.7.7h0c.6.5,1.2,1,1.7,1.5,0,0,0,0,0,0,.3.2.5.4.8.7,0,0,0,0,0,0,.9.6,1.8,1.3,2.6,1.9,0,0,0,0,0,0,1.5,1,2.9,2.1,4.5,2.9,1.4.6,3.4,1.6,4.4,1.1,4.2-2.3,7.8-2.1,11.1,1.4,1.8.7,3.5,1.4,5.3,2.1,1.4.3,2.8.7,4.3.8,5.4.4,10.9.7,16.4,1.1,4.2,1.9,8.4,3.7,12.6,5.6-.9.9-1.8,1.8-2.8,2.6-3.9-4.2-9.4-4.6-14.5-6,0,0,.2-.2.2-.3,0,0,0-.3,0-.3-4.9,0-9.9-.2-14.8-.2-3.8-.4-7.4-1.3-10.1-4.3-1.5-1.6-3.1-1.7-4.8-.3-1,.8-2,1.6-3,2.4-9.1,7.5-18.1,15.2-27.4,22.5-9,7-18.8,12.7-29.4,17.1-.7.1-1.4.2-2.1.4-.3,0-.5.2-.8.3-4.7.7-9.4,1.4-14.2,2.1h0c-1.4-.2-2.9-.5-4.3-.8-.2-.1-.4-.3-.6-.3-14.7-3.1-21.2-21.2-12.9-32,1.5-2,2.7-4.1,4.1-6.2,1.5-.9,3-1.8,4.6-2.7.6-.4,1.3-.9,1.9-1.3,0,0,0,0,0,0,.4-.2.8-.5,1.1-.7,3.4-1.8,4.5-4.4,3-8.1-.5-1.3-.7-2.7-1-4-.4-1.9-.8-3.8-1.4-5.6-.2-.6-.8-1.2-1.3-1.6-5.1-3.1-10.4-5.8-15.3-9.2-10.8-7.6-22.2-14.7-29.4-26.4-.3-.4-.6-.9-.9-1.3h0c-.2-.3-.4-.5-.6-.8h.1c-.4-.9-.9-1.7-1.3-2.5h0c-.2-.5-.5-.9-.7-1.3h0c-.3-.7-.6-1.3-.9-1.9,0,0,0,0,0,0-.6-1.7-1.1-3.5-1.7-5.4-.4.5-.6.9-.8,1.2-.5-.3-.9-.6-1.4-.9,0-.5,0-1.1,0-1.6-.1,0-.1-.2,0-.3.2-.5.4-1.1.7-1.6v-7.7h-1.7c-2,10.8-4.4,21.7-5.8,32.6-.7,5.1,1.1,10.2,4.9,14.3-.2-1-.4-2-.6-3.1-.2-1.8-.4-3.7-.6-5.5.2,0,.4,0,.6,0,.3,1.1.6,2.2,1,3.2.6,1.5,1.2,2.9,1.9,4.4h0c.2.4.4.9.5,1.4h0c.6,1.3,1.3,2.6,1.9,3.9h0c.3.4.7.8,1,1.3,4.1,2.7,8.2,5.4,12.6,8.4-1.2,0-1.9,0-2.6,0-.4,0-.9,0-1.3-.2-8.5-2.2-14.8-7.2-19.2-14.8,0,0,0,0,0,0-.3-.4-.6-.8-.8-1.2-.2-.6-.4-1.3-.7-1.9-.5-3.6-1.3-7.3-1.3-10.9,0-4,.8-8,1.3-12l1.2-5.4c.9-3.4,1.7-6.9,2.6-10.3.1-.6,0-1.4.3-1.8,1.6-2.4.6-4.2-.6-6.7-2.1-4.3-3.9-9-4.5-13.7-.5-4.5-1.1-8.2-4.7-11.5-3.1-3-5.6-6.8-7.8-10.6-4.4-7.5-5.9-15.8-6.3-24.4-1.5,8.6-3.5,17.3.5,25.8-.1.1-.2.2-.4.4-2.2-2.8-4.4-5.6-6.6-8.4,0,0,0,0,0,0-.5-1.4-1-2.8-1.5-4.2,0-.2,0-.3,0-.5-.2-.6-.4-1.3-.6-1.9,0-4.8-.1-9.6,0-14.4.1-2.7.7-5.5,1.1-8.2,0-.2,0-.4,0-.6.5-1.3.9-2.6,1.4-3.9,0,0,0,0,0,0l.7-2s0,0,0,0c.2-.6.5-1.2.7-1.8.1-.2.3-.3.4-.5,9.8-24.1,26.1-41.6,50.8-50.9,1.1-.4,2.1-1,3.1-1.7,6.9-4.6,13.7-9.4,21.9-11.5,8.4-2.1,16.9-4.4,25.5-5.5,19.6-2.5,38.3.9,55.6,10.9,2.4,1.4,4.7,2.7,6.3,3.7,3.2-3.2,5.9-6,8.9-8.6,1.6-1.4,3.5-2.4,5.3-3.6,1.1.5,2.2,1.1,3.2,1.6-5.5,3.3-11.1,6.5-14,12.8,4.2,3.8,8.2,7.5,12.2,11.1,1.4-1.6,2.6-3.6,4.4-4.8,4.6-3.1,9.5-5.9,14.2-8.8.8.6,1.6,1.2,2.4,1.8-4.5,2.5-9.3,4.5-13.3,7.6-5.9,4.4-5.7,4.7-1.3,10.5.6.8,1.2,1.5,1.7,2.3,1.3,1.9,2.9,2.8,5.3,3.1,4.5.6,9,2.1,11.8,5.9,3.1,4.2,5.3,8.9,8,13.4-.5-.4-1.3-.7-1.6-1.3-2-3.1-3.7-6.6-6.1-9.5-3.5-4.2-8-6.8-14.4-6.7,2,5,3.8,9.4,5.7,13.9.8,2,1.4,4.1,2.6,5.9,2.2,3.4,5,6.4,7.1,9.9,6.3,10.4,9.7,21.8,10.1,33.9.6,15.8-4.3,30.3-11.5,44.1-1.2,2.3-2.9,4.3-4.3,6.5-.2-.1-.5-.2-.7-.3,8.1-14,12.4-29.3,14-45.2,1.3-12.8-7.3-39.6-13.5-44.1.8,6.2,1.9,12.5,2.5,18.8,1.1,11.5-.9,22.6-3.5,33.8-4.1,17.7-11.1,34.8-13.1,53-1.1,9.7-1.9,19.2,3.2,28.2,4.4,7.8,14.8,12.6,22.1,9.6-6.1-5.6-6.4-6.4-8.6-12.1-1.8-4.8-1.9-9.5-.9-14.5,1.4-7.1,2.3-14.2,3.4-21.4h1c-.8,9.3-1.6,18.6-2.3,27.6,2.9-3.7,5.8-7.3,8.6-11,2-2.7,4.1-5.4,5.4-8.4,3.7-8.5,4.7-17.5,3.3-26.8.6.9,1.2,1.8,1.5,2.8,2.2,7.3,4.4,14.5,6.6,21.8-.4,4.7-.8,9.4-1.1,14.4,1.4-1.4,2.9-2.9,4.4-4.4,3.5-4.3,6.2-9,7.1-14.6,1.4-8.3.7-16.5-2.8-24.3-2.8-5.2-5.8-10.4-8.4-15.8-.9-1.9-.7-4.3-1.1-6.5,0,0,0,0,0,0,.2.4.4.9.6,1.3,0,.2,0,.4.1.6.2.2.3.5.5.7,2.2,5.1,6.1,7.9,11.6,8.4,1.9.2,3.8-.6,5.7-.5,4.1.2,7.3-1.4,10-4.2,1.5-1.4,2.9-2.8,4.4-4.2ZM111.8,253.9s0,0,0,0c-.2.2-.4.5-.7.7h0c-.2.2-.5.4-.7.6h0c-.2.2-.5.4-.7.7,0,0,0,0,0,0-.2.2-.5.5-.7.7,0,0,0,0,0,0-.2.4-.5.9-.7,1.3h0c-1.2,2.1-2.4,4.3-3.6,6.5,1.9.9,3.7,1.7,5.6,2.6h0c1.5.6,3,1.2,4.5,1.9h0c.4.3.9.5,1.3.7h0c.7.5,1.4,1,2,1.5.7.8,1.4,1.5,2.1,2.3-.1.1-.2.2-.4.3-.9-.6-1.7-1.1-2.6-1.7-1.2-.7-2.3-1.5-3.5-2.2h0c-2.9-1-5.9-2.1-8.8-3.2-.3.2-.6.4-.9.7.8,2.9,1.6,5.8,2.4,8.7,0,0,0,0,0,0,.7,1.1,1.3,2.2,2,3.3,0,0,0,0,0,0,.7.8,1.4,1.7,2.1,2.5h0c.4.5.8.9,1.3,1.3h0c.4.3.7.6,1.1.9h.1c0,0-.1-.2-.1-.2.2.3.5.6.7.8.8.4,1.6.7,2.4,1.1,8.3,3.4,16.4,1.6,24.4-1.1,0,0,0,0,0,0,1.7-.7,3.4-1.4,5.1-2.2h0c.5-.2.9-.4,1.4-.6h0c.4-.2.9-.4,1.3-.7,0,0,0,0,0,0,.5-.2.9-.5,1.4-.7,0,0,0,0,0,0,.7-.4,1.4-.7,2.1-1.1,0,0,.1,0,.1,0,.4-.2.8-.5,1.2-.7,0,0,0,0,0,0,.2-.1.4-.3.6-.4.2,0,.3,0,.4-.2.3-.2.6-.4.9-.5,0,0,.3-.1.3-.1.5-.3,1-.7,1.5-1,0,0,0,0,0,0,.3-.2.5-.4.8-.5h0c.3,0,.5-.2.8-.3,0,0,.2,0,.2,0,.3-.3.7-.6,1-.8h-.1c0-.1,0,0,0,0,.3-.1.5-.3.8-.4,0,0,.2,0,.2,0,.3-.3.7-.5,1-.8h-.2c0-.1.2,0,.2,0l.7-.4s.2-.1.2-.1c.3-.3.6-.6.9-.8h0c.3-.2.5-.3.8-.5,0,0,0,0,0,0,.4-.3.7-.6,1.1-.9,0,0,0,0,0,0,.3-.2.7-.5,1-.7,1.4-.9,2.8-1.8,4.2-2.7,1.6-.9,4.9-.9,2.6-4.2.7-.3,1.4-.5,2.1-.8h0c.5-.2,1-.5,1.5-.8,6.4-5.1,12.7-10.1,19.2-15.2-6-3-11.7-6-15.6-11.5l-.7-1.1s0,0,0,0c-.4-.8-.9-1.7-1.3-2.5,0,0,0,0,0,0-.5-1.3-1-2.5-1.5-3.8,0,0,0,0,0,0-.4-3.4-.8-6.7-1.1-10.1-.6-5.5-1.1-11-1.6-16.5,0,0,0,0,0,0,0-2.2.1-4.4.2-6.5-.7.8-1.3,1.6-2,2.4,0,0,.1,0,.1,0-.2.2-.5.5-.7.7h0c-.2.2-.5.4-.7.7,0,0,0-.1,0-.1-.6.5-1.2,1-1.9,1.5-10.9,8-21.7,16.1-32.8,23.8-4.3,3-8.9,5.8-14.6,5.5,2.2,9,4.2,17.8,2.9,26.9-.5,1-.9,2.1-1.4,3.1-.3-3.1-.4-6.3-.8-9.4,0-.8-.8-1.5-1.3-2.2-.2.2-.5.4-.7.6,0,0,0-.1,0-.1-1.7,1.1-3.4,2.3-5.1,3.4h0c-.2.2-.5.4-.7.6,0,0,0,0,0,0-.4.3-.8.5-1.2.8-.2.2-.4.4-.7.5-.2.2-.5.5-.7.7ZM134.4,91c.2-.2.5-.4.7-.7,0,0,0,0,0,0,1.1-.6,2.2-1.1,3.3-1.7h.7c4.4.5,8.8,1.1,13.2,1.7,2,.3,3.9.7,5.9,1.1,1.7.8,3.4,1.7,5.4,2.7-.8-1.3-1.3-2.2-1.9-3.1-4.7-10.8-9.5-21.5-13.7-31.1-3.1,6.9-6.7,15-10.4,23.1-1.4,2.2-2.9,4.5-4.3,6.7-1.5,1.9-3.1,3.8-4.6,5.6-2.9,2.2-5.8,4.4-8.7,6.6-.3.3-.6.5-.9.8,0,0,.1-.1.1-.1-.2.5-.5.9-.7,1.4,0,0,0,0,0,0-.1.4-.2.8-.4,1.1-.1.2-.2.5-.4.7-.5.7-1.4,1.4-1.6,2.2-.9,4.8-1.8,9.7-2.4,14.5-.2,1.2.7,2.6,1.1,3.9.5,1,1,2,1.5,3-.2.2-.4.4-.7.7-3.4-2.8-7.5-5-10.1-8.4-5.9-7.7-11.7-15.6-14.9-25-.4-1.1-2-2.3-3.1-2.5-12.4-2.3-22.9,9.5-20.5,22.8-.4-.7-.9-1.4-1.3-2.2-.2-.5-.4-1-.7-1.7-.2.6-.4.9-.5,1.3-.6-2.6-1.1-5.2-1.6-7.4-1.5,3.2-.5,6.9-.3,10.7.3,4.7-.3,9.4.2,14,.3,2.6,1.8,5.1,2.8,7.7.1.4.2.8.3,1.2.3.6.5,1.3.8,1.9,1,1.5,1.9,3.1,2.9,4.7-.9,0-1.7,0-2.4-.1,0,1.9-.1,3.9-.2,5.8,0,.7,0,1.3,0,2-.2.9-.5,1.8-.5,2.7,0,3.5,0,7,0,10.5.2,0,.4-.1.6-.2,0,0,0-.2,0-.3.1.4.4.8.4,1.2,1.4,14,8.4,24.9,19,33.5,7.6,6.2,15.5,12,23.2,18,.5.3.9.6,1.4.9h0c.3.1.6.3.8.4h-.2s.2,0,.2,0c.8.6,1.6,1.6,2.4,1.6,4.2,0,8.4-.2,12.6-.7,1.7-.2,3.2-1.6,4.8-2.4h0c.6-.3,1.2-.6,1.8-.9h0c.7-.3,1.4-.7,2.1-1,.2-.1.3-.2.5-.2.9-.4,1.8-.9,2.7-1.3,0,0,0,0,0,0,.9-.4,1.7-.9,2.6-1.3h0c.4-.2.9-.5,1.3-.7,3.4-2.1,6.9-3.9,10-6.3,11-8.3,22.8-15.8,27.7-29.8,0-.1,1,0,1.6.1,2.9,2.4,6,2.7,9.3.8,0,0,0,.2,0,.2.6-.3,1.2-.6,1.9-.9,0,0,0,0,0,0,1.1-.5,2.2-.9,3.3-1.4h0c.5-.2.9-.4,1.4-.7,0,0,0,0,0,0,.3-.2.6-.4.8-.6h-.1c.4-.2.9-.4,1.3-.7,3.8-3.9,7.7-7.8,11.5-11.7.4-.9.9-1.7,1.3-2.6,0,0,0,0,0,0,.4-.9.7-1.8,1.1-2.8,0,0,0,0,0,0,.5-.5,1.2-1,1.4-1.6.8-4.4,1.7-8.8,2-13.2.1-1.6-1.2-3.4-1.9-5.1-.2-.3-.4-.5-.5-.8-4.8-9-8.7-7.2-15-1.7-4.3,3.7-7.5,8.7-11.3,13-1.5,1.7-3.6,2.9-5.4,4.4-1.7.1-2.1-.6-1.2-2,.2-.2.4-.4.6-.7,0-.2,0-.4,0-.6.2-.4.4-.9.7-1.3.3,0,.5,0,.8,0,1.1-.9,2.5-1.7,3.4-2.8,5-6.5,10.1-13.1,11.2-21.7.2-.5.7-.9.7-1.4.2-6,.4-11.9.6-17.9.4,6.3.9,12.7,1.3,19.7.9-5.8,1.7-11.1,2.5-16.4.2-.6.7-1.2.6-1.8-.2-5.8-.4-11.5-.9-17.3-.2-2.8-1.1-5.6-1.7-8.4-.1.1-.3.2-.4.3,0,0,0,.2,0,.3-1.8-5.5-3-11.3-5.5-16.5-2.9-6.1-6.4-12-10.5-17.3-6.4-8.3-15.2-13.7-25.3-17.2,3.3-1.1,4.8-1,8.7.9,13.8,6.7,23.1,17.6,28.8,31.7.4.8.8,1.5,1.2,2.3,0,0,0,0,0,0,.4,1,.9,2.1,1.3,3.1,1.5,5.4,3,10.8,4.5,16.1.2,1.5.3,3.1.5,4.6,0,.2,0,.5.1.7.2,5.6.4,11.3.6,16.9,0,1.5.3,2.9.5,4.4,0,.2,0,.5,0,.7,0,0-.2.1-.2.2,0,.1.1.3.2.4.1.2.2.4.2.6-.5,2.2-.9,4.5-1.4,6.7.3.2.6.5.9.7,3.8-3.2,8-6.1,11.4-9.7,4.2-4.5,7.8-9.6,11.7-14.5,0,0,0,0,0,0-.2.9-.3,1.9-.8,2.7-5.3,8.5-11.3,16.5-20.1,21.8-3.3,2-5.2,4.7-5.8,8.4,0,.1-.1.3-.2.4.1,0,.2-.1.4-.2,6.8-3.3,11.4-.1,15.6,5.8,3-4.3,5.7-8.2,8.3-12,.3.2.6.4.9.6-2.4,4-4.5,8.2-7.3,11.8-1.9,2.5-1.6,4.5-1,7.2,8.1-7.4,15.9-34.9,10.6-54.3-1.6-6.4-3.2-12.7-4.8-19.1,0-.3-.7-.5-1.1-.7l-.6-4c-.2-.1-.2-.2-.2-.4-.4-.9-.8-1.8-1.2-2.7-1.8-3.2-3.3-6.5-5.3-9.5-8.2-12.1-18.7-21.6-31.8-28-6.3-3.1-12.8-6-20-6.6-1-.2-2-.5-2.9-.7,0,0,0,0,0,0-.9-.2-1.7-.4-2.6-.6-.2,0-.4,0-.6,0-1.1-.4-2.2-.7-3.3-1.1-1.3-.1-2.5-.2-3.8-.3-.6,0-1.3,0-1.9,0-.1-.4-.3-1.1-.4-1.1-3.8,0-7.5-.2-11.3,0-2.4.1-4.7.9-7.1,1.3-.8.2-1.7.4-2.5.7-10.9,1.7-21.3,4.8-31.1,9.9-1.8.9-4.5,2.1-4.8,3.5-.6,3.6-3.3,3.7-5.5,4.1-10.3,2.1-18.8,7.5-26.6,14.3-4.7,4.8-9.5,9.6-14.2,14.4-11.4,15.3-18.5,31.9-14.7,51.5.7-11.1,7.2-30.9,11.7-35.2-1,4.7-2.1,9.8-3.1,14.9-.3.3-.8.6-.8.9-.3,5.2-.6,10.4-.7,15.6,0,.9.8,1.8,1.3,2.8.1.1.1.2,0,.3.2,1,.5,1.9.7,2.9,0,0,0,0,0,0,.2.7.5,1.3.7,2,0,0,0,0,0,0,.2.7.5,1.3.7,2h0c.2.4.5.8.7,1.3h0c.2.4.4.9.6,1.3h0c.3.4.5.8.8,1.2.1.3.3.5.4.8.2.5.4.9.7,1.4,4.4,8,11.3,13.3,18.7,17.8-1.4-7-2.7-13.9-4.1-20.8,0-4.5,0-9,0-13.5,0-.3.2-.6.3-.9,2.3-10.9,4.4-21.8,6.8-32.6.6-2.6,1.9-5,3.2-8.3-1.5,8.3-2.9,15.8-4.3,23.2-.3,4.6-.6,9.2-.9,13.8.3,0,.6,0,1,0,.9-3.3,1.8-6.5,2.7-9.8,4.7-12.9,10.7-25.2,18.7-36.4,2.9-4,6.8-7.3,10.2-10.9.2.2.3.3.5.5-2.1,5.3-4.2,10.6-6.2,15.9-.3,2.1-.6,4.2-.8,6.4,0,.5-.2.9-.3,1.4-.2,3.8-.4,7.6-.6,11.5.1-.1.3-.2.4-.3,0,0,0-.2,0-.3l.4,2.1c.3,1.7.7,3.3,1,5,.3.4.5.9.8,1.3,1.5,4,3,8,4.5,12,.3-.1.6-.2.8-.3-.1-1.7-.3-3.4-.4-5.1-.2-1.8-.4-3.5-.6-5.3,0-.2,0-.3,0-.5,0-1.6,0-3.1,0-4.7,0,0,0,0,0,0,.2-2.4.5-4.8.7-7.3,0-.8.2-1.6.2-2.4.3,1.5.8,3,.7,4.5-.3,5-1,10,1.2,14.9.8,3.2,1.6,6.3,2.4,9.5l-.2.2c.3.8.5,1.6.8,2.4,1.2,6,4.8,10.5,9.2,14.4.2.2.8,0,1.2,0,0-2.3.1-4.6.2-7,.1-.5.2-.9.4-1.4.2-.9.4-1.8.6-2.6,0,0,0,0,0,0l.7-3.6c1-2.9,1.7-6,2.9-8.8,4.1-9.2,8.6-18.3,12.6-27.6,1.7-4.1,2.5-8.7,3.7-13.1.4,0,.8.2,1.2.3-1.6,6.5-2.8,13.2-5,19.5-2.2,6.2-5.4,12.1-8.1,18.2,14.9-14.1,23.7-31,24.9-51.7,5.9,24.3,16.5,46.1,32.1,66.3-1-4.2-1.8-8-2.9-11.7-3.2-11.1-6.6-22.2-9.9-33.4.1-.1.3-.2.4-.4,2.1,4.7,4.7,9.2,6.1,14,3.1,10.1,5.7,20.4,8.3,30.6,1,3.8,1.5,7.8,2.3,11.6,0,1.5,0,3,0,4.6,0,.4,0,.9,0,1.3-.4.4-.8.9-1.1,1.3,0-.9,0-1.7,0-2.6,0-1-.2-2-.2-3-.6-1-1.1-1.9-1.7-2.9h0c-.4-.9-.7-1.8-1.1-2.7,0,0,0,0,0,0-.5-.8-1-1.6-1.5-2.5,0,0,0,0,0,0-.2-.4-.5-.9-.7-1.3,0,0,0,0,0,0-.2-.3-.3-.6-.5-.8h0c-.3-.4-.5-.8-.8-1.2,0,0,0,0,0,0-.5-.7-.9-1.4-1.4-2.1-2.6-3.6-5.1-7.2-7.7-10.8-.2-.3-.4-.5-.7-.8h-.2c0,0,.2,0,.2,0-.8-.5-1.7-.9-2.5-1.4h0c0,.1,0,0,0,0-.4-.2-.8-.4-1.3-.6h0c-.7-.4-1.4-.7-2.1-1.1,0,0,0,0,0,0-.9-.5-1.8-1-2.7-1.4-1.3-.5-2.7-1-4-1.4h0c-2.6-2.2-11.4-2.3-14.6,0h0c-1.1,0-2.3.2-3.4,0-.7,0-1.3-.6-2-1,.2-.2.4-.4.6-.6.2-.2.5-.5.7-.7,0,0,0,0,0,0ZM76.2,92.2c.3-.2.5-.4.8-.5h.1c0-.1.2-.1.2-.1.5-.2,1.1-.5,1.6-.7h0c3,0,5.9,0,8.9,0,.4-.2.7-.4,1.1-.6-.4-1.6-.8-3.3-1.2-4.9,0,0,.2,0,.2,0,0-4.2,0-8.4.2-12.5,0-2.3.1-4.6.2-6.9,0-.2.2-.5.2-.7.6-1.8,1.1-3.6,1.7-5.4-.5,0-1,.1-1.5.2,0,0,0,0,0,0-.4.7-.8,1.3-1.2,2-1.9,3-4,5.9-5.6,9-4,7.9-7.9,16-11.8,24,.3.2.6.4.9.5.9-.7,1.9-1.4,2.8-2.1.7-.3,1.3-.6,2-.9.2-.1.3-.2.5-.3,0,0,0,0,0,0ZM197,180.7c-1.6.7-3.3,1.4-4.9,2.1-1.8.8-3.5,1.7-5.3,2.6,0,0,0,0,0,0,.2-.4.4-.9.6-1.3,0,0,.2,0,.2,0,0,0,0-.1,0-.2,0,0-.2.2-.2.3-1.9,0-4.6-.8-5.4.1-2.4,2.8-5.2,5.7-5.2,10.8,5.2-2.8,9.9-5.2,14.4-8,2.4-1.5,4.1-3.9,6.1-5.9.2-.2.4-.5.6-.7-.3,0-.7.2-1,.3ZM223,145.9c-1.6,2.7-3.4,5.3-4.7,8.1-2,4.3-3,9.1-5.5,13-6.4,10.4-7.6,21.3-4.5,32.7.9,3.5,3,6.7,6.7,8.5-.6-3.5-1.6-6.8-1.5-10,.4-10.5,1.6-20.9,4.4-31.1,1.9-7,3.5-14.1,5.2-21.2,0-.1.1-.2.2-.3-.1,0-.2.2-.3.2ZM64.2,163.8c0-5,0-9.4,0-13.7,0-.7-.2-1.6-.6-2-1.9-1.5-3.9-2.8-6-4.2-1.1,6.8,1.7,16,6.7,19.9Z"/>
        <path class="cls-2" d="M28.5,90.4c0,.2,0,.4,0,.6-.9,2.8-1.7,5.6-2.5,8-.8-.9-2-2.2-3.2-3.6.8-.5,2-1.2,3.1-1.9,0-.3.2-.5.2-.8,0,.3-.2.5-.2.8-1.1-.4-2.1-.8-3.2-1.1-2.3,2.1-3.2,1.9-5.4-.5-.3-.4-1.5,0-2.2,0,0,.3,0,.6,0,.9,1.6,1.3,3.3,2.5,5.3,4.1-1.6,1.6-2.9,3.1-4.5,4.3-.2.1-2.2-1.2-2.4-2.1-.2-.8.8-2,1.3-3-1.2,1.1-2.3,2.3-3.5,3.4,0-2.5.1-4.9.2-7.4-.3.3-.6.7-1,1,.1.6.3,1.2.4,1.9,0,0,0,0,0,0-.8,0-1.5,0-2.3,0,4-12.3,10.2-23.4,17.8-33.7,12-16.5,26.3-30.5,43.8-41.2,15.9-9.7,33.1-15.8,51.4-18.7,4.2-.7,8.5-.8,12.8-1.2,6.2,0,12.4,0,18.6,0,12.1.3,23.7,2.9,35.2,6.6,5.6,1.8,11,4,16.5,6.2,1.5.6,2.7,1.6,4.1,2.4-1.8,1.2-3.7,2.2-5.3,3.6-2.9,2.6-5.6,5.4-8.9,8.6-1.6-.9-3.9-2.3-6.3-3.7-17.3-9.9-36-13.4-55.6-10.9-8.6,1.1-17,3.3-25.5,5.5-8.2,2.1-15,6.9-21.9,11.5-1,.6-2,1.3-3.1,1.7-24.6,9.3-41,26.8-50.8,50.9,0,.2-.2.4-.4.5-.2.6-.5,1.2-.7,1.8,0,0,0,0,0,0-.2.7-.5,1.3-.7,2,0,0,0,0,0,0-.5,1.3-.9,2.6-1.4,3.9ZM16.9,89.1c0,0-.2,0-.2-.1,0,0,.2,0,.2.1,0,0,.2,0,.2.1,0,0-.2,0-.2-.1ZM14.2,89.6c.4.2.6.4.8.5,0,0,.3-.4.3-.5-.1-.3-.3-.5-.5-.7-.2.2-.3.4-.6.7Z"/>
        <path class="cls-20" d="M137.7,287.9c.3,0,.5-.2.8-.3.7-.1,1.4-.2,2.1-.4,10.6-4.4,20.4-10.1,29.4-17.1,9.3-7.3,18.3-15,27.4-22.5,1-.8,2-1.6,3-2.4,1.7-1.4,3.3-1.3,4.8.3,2.7,3,6.3,3.9,10.1,4.3,4.9.3,9.8.5,14.7.8,5.1,1.4,10.5,1.8,14.5,6-1.4,1.6-2.6,3.4-4.1,4.7-8.9,7.7-18.1,14.9-29.2,19.4-1,.4-2,.6-3.1.9,3-3.4,5.7-7.2,9.1-10.2,5.8-5.1,12.1-9.7,18.6-14.9-2.3,1.1-4.3,1.7-6,2.8-10.3,6.4-19,14.4-26.1,24.3-6.6,2.4-13,5.3-19.7,7.1-7.3,2-14.8,3-22.3,4.3-1.5.3-3.1-.1-4.7-.2,1.4-1,2.8-1.9,4.2-2.9.7-.4,1.3-.8,2-1.2,1.1-.6,2.2-1.3,3.2-1.9,1.3-.9,2.6-1.7,3.9-2.6,11.2-7.5,19.9-17.6,28.7-27.6-9.7,9-19.5,18-29.2,27-1.3.9-2.6,1.7-3.9,2.6-1.1.7-2.1,1.3-3.2,2-.7.4-1.4.8-2.2,1.2-4.1,1.4-8.1,2.8-12.2,4.2-13.4.8-26.4-1.5-39.3-4.9-4.7-1.3-9.3-3.1-14-4.7l-.6-3.4c.2-5,.5-10,.6-15.1,0-.9-.3-1.8-.5-2.7.5-1.7,1.2-3.4,1.6-5.1.4-1.7.7-3.5,1-5.2h.3s.3,0,.3,0c.2-.2.5-.4.7-.6,0,0,0,.1,0,.1,1.5-.5,3-.9,4.5-1.4,0,0,0,0,0,0,1.4-.5,2.8-.9,4.2-1.4,0,0,.2,0,.2,0,.3-.2.5-.4.8-.7,0,0,.1,0,.1,0,.6,0,1.1,0,1.7,0-1.3,2.1-2.6,4.3-4.1,6.2-8.4,10.8-1.8,28.9,12.9,32,.2,0,.4.2.6.3-.2,0-.4.1-.6.2-.1.1-.2.3-.3.6h5.2s0,0,0,0c3.5-.1,7,0,10.5-.4,1.3-.1,2.5-1.1,3.7-1.7ZM200.4,257.1c-.2-.2-.3-.3-.5-.5-.4.5-.7,1-1.1,1.5l.5.3c.4-.5.8-.9,1.1-1.4Z"/>
        <path class="cls-8" d="M258.7,131c0-.2,0-.4-.1-.6-.2-.4-.4-.9-.6-1.3,0,0,0,0,0,0-.5-1.1-1-2.3-1.4-3.4-.2,0-.3.2-.5.3-.1,1.4-.2,2.8-.3,4.2-.3,0-.6,0-.9.1-.5-1.1-1.2-2.1-1.4-3.3-1.3-10.9-2.5-21.9-3.9-32.8-1-7.8-2.7-15.4-6.1-22.5-2.6-4.5-4.9-9.3-8-13.4-2.8-3.8-7.3-5.3-11.8-5.9-2.4-.3-4-1.2-5.3-3.1-.5-.8-1.1-1.6-1.7-2.3-4.3-5.8-4.6-6.1,1.3-10.5,4-3,8.8-5.1,13.3-7.6,9.4,6.2,17.2,14,24.6,22.4.3.4.4.9.6,1.4-1.7-1-3.4-2-5.1-3-4.5-2.6-8.8-6.1-13.5-5.2,3.8,2,8.3,4.3,12.8,6.6,7.1,6.1,12.8,13.3,14.8,22.5,1.3,6,1.7,12.3,2.1,18.5.7,10-.1,20.2,5.9,29.2-9.9-6.3-13.8-16.5-17.4-26.9,1.2,12.2,5.6,22.7,16.3,29.7,5.5,3.6,11.3,5.9,17.8,2.2.2,1.6.4,3.2.7,4.8-1.5,1.4-2.9,2.8-4.4,4.2-2.8,2.7-6,4.4-10,4.2-1.9-.1-3.8.7-5.7.5-5.5-.4-9.4-3.3-11.6-8.4-.2-.2-.3-.5-.5-.7Z"/>
        <path class="cls-21" d="M29.5,120.3c2.2,2.8,4.4,5.6,6.6,8.4.2.1.4.2.7.3,0-.2-.2-.5-.3-.7-4.1-8.5-2-17.2-.5-25.8.4,8.6,1.9,16.9,6.3,24.4,2.2,3.8,4.6,7.6,7.8,10.6,3.5,3.3,4.1,7,4.7,11.5.6,4.7,2.4,9.4,4.5,13.7,1.2,2.4,2.2,4.2.6,6.7-.3.5-.2,1.2-.3,1.8-2.3.3-4.6.6-7.1.8v2.3c-3.4-.9-3.7,2-4.8,3.8-1.2,2-2.3,2.2-3.6.1,0,0,0-.2.1-.2,0,0,0,.2-.1.3-5.2-1.4,1.1-3.7-.6-5.7-1.7.5-3.5,3.3-4.8,1,.2-2.3.5-3.9.5-5.5,0-.7-.3-1.4-.6-2-.4-.9-.9-1.8-1.4-2.6-.4-.5-1.2-.8-1.5-1.3-1.8-2.7-3.6-5.5-5.2-8.3-.6-1.1-.9-2.4-1.4-3.6-.2.3-.4.6-.6.8-1.1-.4-2.1-.8-3.2-1.2h0c-1.1-2.8-3.5-4-6.1-4.1-2.9-.1-5.7-2.3-8.7-.4h0c-2-.5-4.1-1-6.1-1.5.1-.2.2-.3.3-.5-1.5-.9-3-1.7-4.5-2.6,0-1.9,0-3.9.1-5.8,1.1-1.3,2.5-2.3,1.8-4.7-.9-3,2-4.5,3.9-6.1.5-.4,2,.3,3.1.5,0,0,.2,0,.3.1,0,0-.2-.1-.3-.2.2-.4.2-.9.5-1.1,1.9-1.1,4.6-.7,5.5-3.5,0-.2,2.5-.2,3.3.4,1.4,1,2.4,2.6,3.4,3.7,1.2-.4,2.8-.7,4.2-1.4,1.2-.6,2.2-1.6,3.3-2.4ZM47.9,173.1c0,0,0,.2-.1.3,0,0,0-.2.1-.3,0,0,0-.2.1-.3,0,0,0,.2-.1.3ZM7.6,125.1c-.2,0-.4-.3-.5-.2-.1,0-.3.4-.2.5,0,.1.4.3.5.2.1,0,.2-.3.2-.5ZM46.2,172.4l.5-.3c0,0-.1-.2-.2-.2-.2,0-.4,0-.6.1.1.1.2.2.3.4Z"/>
        <path class="cls-1" d="M57.2,213c4.3,7.6,10.7,12.6,19.2,14.8.4.1.8.1,1.3.2.7,0,1.5,0,2.6,0-4.5-3-8.6-5.7-12.6-8.4-.3-.4-.7-.9-1-1.3,0,0,0,0,0,0-.6-1.3-1.3-2.6-1.9-3.9,0,0,0,0,0,0-.2-.5-.4-1-.5-1.4,0,0,0,0,0,0-.4-2.1-.9-4.2-1.3-6.3.2-.4.3-.8.6-1.5.4,1.3.7,2.3,1,3.5,1-.2,1.9-.7,2.6-.5.9.3,2.2.9,2.5,1.6,1.5,3.9,3,4.3,5.9,1.3,1.4,1.9,2.9,3.8,4.4,5.7.5.6,1.6,1.2,1.5,1.6-.2.8-1,1.4-1.8,2.2,1.5,1.1,3.2,2.2,4.6,3.5.4.3.2,1.3.3,2,0,0,0,.2-.1.2v-.3c2.6.1,5.1.3,7.5.4.1.7.2,1.4.2,1.4,2.7-.7,5.2-1.4,7.7-1.9.4,0,1.4.8,1.4,1.3.1,2.6,0,5.2,0,8.2-.2-.3-.2-.2-.1-.1,6.3,3.8,6.8,3.7,11-2.3.8-1.1,2.1-1.9,3.8-3.3-1,3.9-4.6,6.4-1.6,9.9.7-.9,1.5-1.9,2.1-2.7.6.7,1,1.3,1.5,2,.6-2.1,1-3.7,1.4-5.2.3,1.3.4,2.8,1,4,1.5,3.7.3,6.3-3,8.1-.4.2-.8.5-1.1.7,0,0,0,0,0,0-.2,0-.4,0-.6,0l-2.5-.6c.1-.8.2-1.5.4-2.5q-2.2,1-.4,2.5c0,.6,0,1.2,0,1.8-.6.1-1.3.2-1.9.3-.7-.6-1.4-1.2-2-1.8.5-.9,1.3-1.8,1.1-2.4-.3-1.1-1.6-2.8-1.8-2.7-1.4.5-2.6.5-4.1.3-2.2-.2-4.5.2-6.9.3.9,2.6-1.1,2.3-3.4,1.9-2.5-.4-5-.6-7.4-.9,0-.7,0-1.3-.1-2.5-1.6,1-2.7,1.7-3.9,2.5v1.2c-1.9-1.4-3.9-2.7-6.4-4.3.5,1.8,1,3.2,1.3,4.6,0,.3,0,.9-.3,1.1-.3.2-1,.3-1.1,0-1.2-1.2-2.3-2.6-3.5-4,0-.1.5-.7,1-1.4-1.9-.5-3.7-.5-4.8-1.4-1.6-1.4-2.3-1.2-3.1.5-.4.9-1.1,1.8-1.5,2.3-2.4.2-4.5.3-7.1.5,1.3,2.1,2.1,3.5,3,4.8-.2.2-.4.5-.6.7-.8-.3-1.5-.6-2.3-1-3-1.6-2-4.7-2.5-7.2-.4-1.7-.4-3.5-.6-5.4-5.5,2.7-7.5,2.2-7.1-2.9-1.1.9-2.3,1.9-3.6,2.9-1.2-3.7-1.6-3.8-4.6-2-.6.3-2,.4-2.1.2-1.4-3.4-4.1-2.9-6.9-2.4-.5,0-1.1-.5-1.7-.7-.8-.3-1.7-.4-2.5-.6v2.7c-3.2-5.4-6.5-10.8-9.7-16.2,1.1-.2,2.1-.4,3.3-.7v2h0c-.2.3-.4.6-.5.9,1,.4,2,.9,3,1,.8,0,1.7-.4,2.5-.6-.3-.9-.5-1.8-1-2.6-.3-.7-.9-1.2-1.4-1.8l.6-.8c2.5,1.3,5.1,2.5,7.7,3.8.5-.7,1.1-1.8,1.7-2.8-.3,3.8,3.1,4,4.9,5.5,3.1,2.5,4.5-1.8,7.2-1.8.3.9.6,1.8.7,2.3,2.5-.5,4.9-.9,7.1-1.4,2.7-.7,5.2-1.7,5.2-5.2ZM25.4,219.8c0,0-.2,0-.2,0,0,0,0,.1,0,.2,0,0,.2,0,.2,0,0,0,0-.1,0-.2Z"/>
        <path class="cls-23" d="M55.7,186.9c-.5,4-1.3,8-1.3,12,0,3.6.8,7.3,1.3,10.9-.7.5-1.3.9-2,1.4,0-.3.2-.5.2-.8,0,.3-.2.5-.2.8-2.3-.7-4.3-1.9-7-1.4-2.3.5-4.9.4-7.2,0-1.3-.2-2.5-.5-3.7-.7-2.8-.4-6.2,1.3-8.2-2.6-.3-.6-2.2-3.3-4.6-1.9-.2,0-.6-.4-1-.7-2.1-1.4-4-3.2-6.3-3.9-1.7-.5-3.9.5-5.9.8-2.4-8.2-5.2-16.3-6.9-24.6-1.5-7.2-1.8-14.6-2.7-21.9.5-.6,1-1.2,1.5-1.9,4,2.5,9.3-1.3,13,3.1.5-.8,1-1.6,1.7-2.7,2,3.9,5.3,4.3,8.9,4.1.2,0,.4,0,.6,0,.4,1.1.9,2.1,1.3,3.2,0,1.1,0,2.2,0,3.2-.7,1.6-1.5,3.1-2.2,4.7-.7,1.8-1.5,3.6-2,5.4-.5,1.8-1.5,4.1-.8,5.4.7,1.4,3.2,1.7,5,2.6,1.9,1.5,3.6,3.1,5.6,4.4,1.8,1.3,3.8,2.6,5.8,3.4,2.1.8,4.5,1,6.5,1.4,1.7-.4,3.4-1,5.1-1.2,2.2-.2,4.3-.4,4.8-3.1l.7.4Z"/>
        <path class="cls-21" d="M251.3,221.6c-6.1.5-10.4-2.6-13.2-7.5-2.5-4.5-2.3-9.4.8-13.7,2.5-3.5,5.5-6.7,7.7-10.3,2.6-4.2,4.5-8.7,6.8-13,.4-.8,1.1-1.6,1.8-2.7,2.6,12.7,2.9,19.6-8.1,27.2,7.1-.2,16.4-5.9,21-13.3,1.8-2.8,3-5.9,4.5-8.9,1.5-.3,2.9-.5,4.7-.8-.3.9-.5,1.4-.5,1.4,1.2,1.5,2.3,2.7,3.6,4.3.6-1,1.2-1.9,2.3-3.5.3,2.1.6,3.6.7,4.6,1.7.3,3,.6,4.4.8-2.9,7.9-5.8,15.9-8.7,23.8-.9.6-1.8,1.1-2.5,1.8-.5.5-.8,1.5-1.3,1.6-2.2.4-4.5.3-6.7.7-3,.5-7.2.4-8.8,2.3-2.5,2.9-5.3,4.1-8.6,5.3ZM281.9,186.5c.1-.1.3-.3.4-.4-.3-.4-.7-.8-1-1.1-.1.1-.3.2-.4.4.3.4.7.8,1,1.2Z"/>
        <path class="cls-16" d="M25.8,231.4v-2.7c.9.2,1.7.3,2.5.6.6.2,1.2.8,1.7.7,2.8-.4,5.4-.9,6.9,2.4,0,.2,1.5.1,2.1-.2,3.1-1.9,3.4-1.8,4.6,2,1.3-1.1,2.5-2,3.6-2.9-.4,5.1,1.5,5.6,7.1,2.9.2,1.9.2,3.7.6,5.4.5,2.5-.5,5.6,2.5,7.2.7.4,1.5.7,2.3,1,.2-.2.4-.5.6-.7-.8-1.4-1.7-2.7-3-4.8,2.6-.2,4.7-.4,7.1-.5.4-.5,1.1-1.4,1.5-2.3.8-1.8,1.5-1.9,3.1-.5,1.1.9,2.9.9,4.8,1.4-.5.7-.9,1.2-1,1.4,1.2,1.4,2.3,2.7,3.5,4,.2.2.9.1,1.1,0,.2-.2.4-.7.3-1.1-.3-1.4-.8-2.8-1.3-4.6,2.4,1.6,4.4,3,6.4,4.3v-1.2c1.1-.7,2.3-1.5,3.8-2.5,0,1.2.1,1.8.1,2.5,2.5.3,5,.4,7.4.9,2.3.4,4.2.7,3.4-1.9,2.4-.1,4.7-.5,6.9-.3,1.5.2,2.7.2,4.1-.3.2,0,1.5,1.7,1.8,2.7.2.6-.7,1.5-1.1,2.4.7.6,1.4,1.2,2,1.8-1.6.5-3.1.9-4.7,1.4,0,0,0,0,0,0-.9.3-1.7.5-2.6.8,0,0,0-.1,0-.1-4.5.7-9,1.4-13.5,2.1-6.4.2-12.8.3-19.2.7-1.1,0-2.2,1-3.3,1.5h0c-.7.2-1.4.4-2,.6-.3.2-.7.4-1,.7-.5.2-1,.4-1.5.6,0,0,0,0,0,0-.6.4-1.3.9-1.9,1.3h0c-.5,0-.9,0-1.4-.1-.2-.3-.4-.5-.6-.8,0,0-.1.1-.2.2.3.2.6.4.8.6.2.2.5.4.7.7-.4.3-.8.6-1.2.9-.7-.3-1.9-.4-2-.8-.5-1.5-.6-2.8-2.9-2.2-1.2.4-2.6,0-4.2,0,0-.2,0-.7-.1-1.2,0,0,0-.2.1-.2,0,0,0,.2-.1.3-1.7-.2-3.4-.4-5.2-.6-7.5-6.4-13.3-14.3-18.8-22.4-.2-.3-.4-.6-.6-.8,0,0,0,0,0,0ZM41.9,234.1c0,.2-.1.3-.2.5.2,0,.4.2.5.2.1,0,.2-.3.2-.5-.2,0-.3-.1-.5-.2Z"/>
        <path class="cls-20" d="M93.8,285.5c-5.3-2.3-10.8-4.2-15.9-7-6.2-3.4-12.1-7.5-18-11.3-.7-.4-1.2-1.2-1.7-1.8,1.3-1.5,2.6-2.9,3.9-4.4,1.5-.8,3-1.7,4.6-2.5,0,0,0,0,0,0,.5-.2.9-.4,1.4-.7,0,0,0,0,0,0,6.2-.7,12.4-1.4,18.7-2.2.5,0,.9,0,1.4,0,1.7-.2,3.4-.4,5.1-.6.5-.2.9-.3,1.4-.5.6,0,1.1,0,1.7,0-.2,1.2-.2,2.5-.7,3.6-4.1,8.9-4.4,18-1.7,27.3Z"/>
        <path class="cls-23" d="M247.2,254c-4.2-1.9-8.4-3.7-12.6-5.6-.4-.4-.8-.9-1.3-1-2.8-.5-5.5-.9-8.3-1.3-1.9-1.4-1.5-2.4,1.7-3.1-2.1-1-3.3-1.6-4.4-2.1,1-2.9,5.1-3.6,7.3-1.7,1.6-.6,2.8-1.3,4.2-1.6,1.8-.4,3.8-.9,5.6-.7,2.7.2,5.3,1,7.2,1.4,0-3.3-.2-5.8-.2-8.4,0-.2,0-.4,0-.6,2.8-.6,5.5-2.1,8.5-.4,0,0,.8-1,1.2-1.5,3.2-1.1,6.4-2.1,10.1-3.4,0,0,.4-.9,1.1-1.3,2.2-1,4.5-1.7,6.7-2.5-6.3,11.7-14.6,22-23.6,31.8-.8.9-2.1,1.3-3.1,2Z"/>
        <path class="cls-13" d="M9.1,124.7c-1.1-.2-2.6-.9-3.1-.5-1.9,1.6-4.8,3.1-3.9,6.1.7,2.4-.7,3.3-1.8,4.7.6-13.8,3.4-27.2,8.5-40.1.8,0,1.5,0,2.3,0,0,0,.2,0,.3.1,0,0-.2,0-.3-.1-.1-.6-.3-1.2-.4-1.9.3-.3.6-.7,1-1,0,2.5-.1,4.9-.2,7.4,1.2-1.1,2.3-2.3,3.5-3.4-.5,1-1.5,2.1-1.3,3,.2.9,2.2,2.3,2.4,2.1,1.6-1.2,2.9-2.7,4.5-4.3-2-1.6-3.7-2.8-5.3-4.1,0-.3,0-.6,0-.9.8,0,1.9-.3,2.2,0,2.2,2.5,3.1,2.6,5.4.5,1.1.4,2.1.8,3.2,1.1,0,0,0,0,0,0-1.1.7-2.3,1.4-3.1,1.9,1.2,1.3,2.3,2.6,3.2,3.6.7-2.4,1.6-5.2,2.5-8-.4,2.7-1,5.4-1.1,8.2-.2,4.8,0,9.6,0,14.4.2.6.4,1.3.6,1.9,0,.1,0,.3,0,.5-.2,1.6-.5,3.3-.9,5.8,1.4-.9,1.9-1.3,2.4-1.6,0,0,0,0,0,0-1.1.8-2.1,1.8-3.3,2.4-1.4.7-3.1,1-4.2,1.4-1-1.1-2-2.7-3.4-3.7-.8-.6-3.3-.6-3.3-.4-.9,2.8-3.6,2.5-5.5,3.5-.3.2-.4.7-.5,1.1h0ZM14.1,103.1c0,0,.2,0,.3,0,0,0,0-.2,0-.2,0,0-.2,0-.2-.1,0,0,0,.2,0,.2Z"/>
        <path class="cls-9" d="M287.9,186.1c-1.4-.2-2.7-.5-4.4-.8-.2-.9-.4-2.4-.7-4.6-1,1.6-1.6,2.6-2.3,3.5-1.3-1.6-2.4-2.8-3.6-4.3,0,0,.2-.5.5-1.4-1.8.3-3.3.6-4.7.8,1.8-6.8,2.3-13.6.7-20.5.9-.3,1.9-.9,2.8-1,3.6-.3,3.7-.9,4-4.6.2-2.9-3.2-6.4,1.3-8.7.2,0-.2-1.3-.4-2,2-1.2,4-2.4,6-3.6.2,2.3.3,4.6.7,6.8.4,2.1,2.8,3.2,4.5,2.1.6,12.9-.7,25.7-4.3,38.2Z"/>
        <path class="cls-13" d="M267.2,67c1.2,1.6,2.7,3,3.7,4.7,9.2,15.8,15.7,32.6,19.2,50.6.1.7.1,1.5.1,2.2-6.2.6-11.8-.6-14.8-6.6-1.9-4-2.6-8.5-3.9-12.8.2-.7.6-1.4.6-2.1-.2-7-.3-14.1-.7-21.1,0-1.5-1.1-3-1.6-4.5-.9-3.5-1.7-7-2.6-10.5Z"/>
        <path class="cls-16" d="M9.7,200.9c2-.3,4.2-1.3,5.9-.8,2.3.7,4.2,2.5,6.3,3.9.3.2.8.7,1,.7,2.4-1.4,4.3,1.3,4.6,1.9,2,3.9,5.5,2.2,8.2,2.6,1.3.2,2.5.4,3.7.7,2.3.5,4.9.5,7.2,0,2.7-.5,4.7.6,7,1.4h0c.7-.5,1.3-.9,2-1.4.2.6.4,1.3.7,1.9.3.4.6.8.8,1.2,0,0,0,0,0,0,0,3.4-2.4,4.5-5.2,5.2-2.3.6-4.6.9-7.1,1.4-.1-.5-.4-1.4-.7-2.3-2.7,0-4.1,4.3-7.2,1.8-1.9-1.5-5.2-1.7-4.9-5.5-.6,1-1.3,2.1-1.7,2.8-2.6-1.3-5.2-2.6-7.7-3.8l-.6.8c.5.6,1.1,1.2,1.4,1.8.4.8.7,1.8,1,2.6-.8.2-1.7.7-2.5.6-1,0-2-.6-3-1,.2-.3.4-.6.5-.9,0,0,.2,0,.3.1,0,0-.2,0-.3-.1v-2c-1.2.3-2.3.5-3.3.7-2.1-4.7-4.2-9.5-6.4-14.2ZM23.6,216.8c-.2,0-.3,0-.4-.1,0,0,0,.2,0,.2,0,0,.2,0,.3-.1Z"/>
        <path class="cls-10" d="M267.2,67c.9,3.5,1.7,7,2.6,10.5.3,6.5.7,13,1,19.5.2,2.7.5,5.5.7,8.2,1.3,4.3,2,8.8,3.9,12.8,2.9,6,8.6,7.2,14.8,6.6,0,.6,0,1.2,0,1.8-6.5,3.6-12.3,1.4-17.8-2.2-10.7-7-15.1-17.5-16.3-29.7,3.7,10.4,7.5,20.6,17.4,26.9-6.1-8.9-5.3-19.2-5.9-29.2-.4-6.2-.8-12.5-2.1-18.5-2-9.3-7.7-16.4-14.8-22.5.2-.5.5-1,.7-1.4,1.7,1,3.4,2,5.1,3,0,0,0,0,0,0,.2.3.5.5.7.8,3.3,4.5,6.6,9.1,9.8,13.6Z"/>
        <path class="cls-8" d="M229,27.1c-4.8,2.9-9.6,5.6-14.2,8.8-1.8,1.2-3,3.2-4.4,4.8-3.9-3.6-8-7.2-12.2-11.1,2.9-6.3,8.5-9.5,14-12.8,4.4,2.7,8.7,5.3,13.1,8-5.4,2-11,3.7-13.9,8.6,5.1-2.4,10.5-5,15.9-7.5.6.4,1.2.8,1.8,1.2Z"/>
        <path class="cls-1" d="M55.7,186.9l-.7-.4c-.5,2.8-2.6,2.9-4.8,3.1-1.7.2-3.4.8-5.1,1.2-2-.4-4.4-.6-6.5-1.4-2.1-.8-4-2.1-5.8-3.4-2-1.4-3.7-2.9-5.6-4.4-.5-.9-1.2-1.9-1.6-2.8-.3-.7-.7-1.6-.4-2.1.7-1.6,1.8-3.1,2.5-4.7.7-1.7,1-3.5,1.5-5.2h0c-.6-1.1-1.3-2.2-1.9-3.2,0-1.1,0-2.2,0-3.2,1.2-1.7.7-2.8-1.3-3.2-.2,0-.4,0-.6,0,.3-1,1.3-1.9-.5-3-3.4-2-6.8-3.7-10.9-2.4-.7.2-1.8,0-2.4-.4-3.7-2.2-7.6-1-11.4-.6,0-1.7,0-3.4,0-5.2,1.8.8,3.5,2,5.4,2.3,2.8.4,5.8.3,8.7,0,4-.4,7.1,3.4,11.2,2.2,0,0,0,0,0,0,.9,1.5,1.6,3.3,2.8,4.5,3.8,4,5.3,13.8,2.2,18.2-1.6,2.2-1,4,0,5.9.6,1.3,1.5,2.5,2.1,3.5.9.2,1.7.2,2.3.5,2.5,1.2,4.9,2.7,7.5,3.8,1.1.5,2.6.6,3.8.3,2.6-.7,5.2-1.6,7.6-2.7,1.2-.5,2.3-1.5,3.4-2.3-.4,1.8-.8,3.6-1.2,5.4Z"/>
        <path class="cls-1" d="M274,220.3c-2.3.8-4.5,1.5-6.7,2.5-.7.3-1.1,1.3-1.1,1.3-3.7,1.2-6.9,2.3-10.1,3.4-3.8-2.1-7.7-1.3-9.7,1.9,0,.2,0,.4,0,.6-6.4,4.2-15.5,6.6-22.3,2.1-4.5,3.6-8.1,7.8-8.1,14-.6,0-1.3,0-1.9.1.6-2.5-1.8-1.2-2.6-2,2.2-2.2,4.2-4.6,3.6-8.1,0-.3.7-.7,1.1-1.1,2.3-2.1,4.7-4.1,6.9-6,2.9,1.1,5.8,2.7,8.9,3.1,2.6.3,5.3-.8,8-1.3,1.4-.3,3.2-.4,4-1.3.9-.9.8-2.7,1.1-4.1,1.9-.9,3.9-1.8,5.8-2.7-.3,1.8.3,2.5,1.9,1.3,1-.7,2-2,2.7.3,0,0,0,.2-.1.2,0,0,0-.2.1-.3,1.3-.5,2.6-1,3.9-1.6,1.7-.7,3.5-1.5,5.2-2.3.2,0,.4,0,.6,0,3.2-.6,6.5-1.3,9.7-1.9-.3.6-.5,1.3-.8,1.9Z"/>
        <path class="cls-9" d="M274.7,218.3c-3.2.6-6.5,1.3-9.7,1.9,0,0,0,0,0,0-.1-.3-.2-.5-.3-.8-.1.3-.2.5-.3.8h0c-1.7.8-3.4,1.5-5.2,2.3-1.3.6-2.6,1.1-3.9,1.6h0c-.7-2.3-1.7-1-2.7-.3-1.7,1.2-2.2.5-1.9-1.3.2-.3.4-.6.6-1,3.2-1.1,6.1-2.4,8.6-5.3,1.6-1.9,5.8-1.7,8.8-2.3,2.2-.4,4.5-.4,6.7-.7.5,0,.8-1.1,1.3-1.6.8-.7,1.7-1.2,2.5-1.8-1.5,2.8-3,5.6-4.5,8.4Z"/>
        <path class="cls-16" d="M0,150.5c3.8-.4,7.7-1.6,11.4.6.7.4,1.7.6,2.4.4,4.1-1.2,7.5.4,10.9,2.4,1.8,1.1.7,1.9.5,3-3.5.2-6.8-.2-8.9-4.1-.7,1.1-1.2,1.8-1.7,2.7-3.7-4.4-9.1-.7-13-3.1-.6.7-1,1.3-1.5,1.9,0-1.3,0-2.6,0-3.9ZM23.4,155.2c0,0-.2,0-.2,0,0,0,0,.1,0,.2,0,0,.2,0,.2,0,0,0,0-.1,0-.2Z"/>
        <path class="cls-9" d="M25.2,149.9c-4.1,1.2-7.2-2.6-11.2-2.2-2.9.3-5.8.4-8.7,0-1.9-.3-3.6-1.5-5.4-2.3,0-1.5,0-3,.1-4.6,1.5.9,3,1.7,4.5,2.6-.1.2-.2.3-.3.5,2,.5,4.1,1,6.1,1.5-.2.4-.3.8-.5,1.2h.4c0-.3,0-.7,0-1.2,3-1.9,5.8.3,8.7.4,2.6.1,5,1.4,6.1,4.1Z"/>
        <path class="cls-10" d="M203.6,283.7c7.1-9.8,15.8-17.9,26.1-24.3,1.7-1.1,3.7-1.8,6-2.8-6.5,5.2-12.8,9.8-18.6,14.9-3.4,3-6.1,6.7-9.1,10.2-1.5.7-3,1.4-4.5,2Z"/>
        <path class="cls-18" d="M94.5,254.6c-.5.2-.9.3-1.4.5-1.8-.6-3.6-1.5-5.1.6-.5,0-.9,0-1.4,0-3.6-.1-7.2-.5-10.7-.2-2.7.3-5.3,1.5-8,2.3,0,0,0,0,0,0-.5.2-.9.4-1.4.7,0,0,0,0,0,0-2.1-.2-3.8.4-4.6,2.5-1.3,1.5-2.6,2.9-3.9,4.4-.9-.8-1.8-1.6-2.7-2.4.6-.5,1.1-.9,1.7-1.4.5-.4,1.1-.9,1.6-1.3,0,0,0,0,0,0,.2-.2.5-.4.7-.6h0c1.3-.9,2.6-1.7,3.8-2.6,2.3-.9,4.7-1.9,7-2.8h0c1.3,0,2.6.3,3.8.2,8.5-.6,16.9-1.3,25.4-1.9h0c-.4.5-.8,1-1.2,1.5,0,0,0-.1,0-.1-.2.2-.5.4-.7.6h-.3c0,.1-.3,0-.3,0-.1,0-.2,0-.3-.1-.8,0-1.5,0-2.3.1Z"/>
        <path class="cls-1" d="M292.2,147.9c-1.7,1-4.1,0-4.5-2.1-.4-2.3-.5-4.6-.7-6.8,1.2-1.8,2.4-3.6,3.7-5.4.5,4.8,1,9.6,1.5,14.4Z"/>
        <path class="cls-23" d="M57.2,261.6c-.6.5-1.1.9-1.7,1.4-3.4-2.8-6.8-5.6-10.2-8.5,1.7.2,3.4.4,5.2.6h0c0,.5.1,1,.1,1.2,1.6,0,3,.3,4.2,0,2.2-.7,2.4.6,2.9,2.2.1.4,1.3.6,2,.8,0,.1,0,.2-.1.4,0,0,0,0,0,0-.2.2-.5.4-.7.6,0,0,0,0,0,0-.5.4-1.1.9-1.6,1.3Z"/>
        <path class="cls-10" d="M93.8,285.5c-2.7-9.3-2.4-18.4,1.7-27.3.5-1.1.5-2.4.7-3.6.2,0,.4,0,.6-.1,0,0,.2,0,.3.1-.3,1.7-.6,3.5-1,5.2-.4,1.7-1.1,3.4-1.6,5.1,0,5.9,0,11.9-.1,17.8l.6,3.4-1.2-.6Z"/>
        <path class="cls-10" d="M227.2,25.8c-5.4,2.5-10.8,5.1-15.9,7.5,3-4.9,8.5-6.7,13.9-8.6.7.4,1.3.7,2,1.1Z"/>
        <path class="cls-4" d="M148.2,295.8c4.1-1.4,8.1-2.8,12.2-4.2.2.2.4.4.7.5-1.4,1-2.8,1.9-4.2,2.9-2.9.3-5.8.5-8.6.8Z"/>
        <path class="cls-11" d="M153.2,0C146.9,0,140.7,0,134.5,0c6.2,0,12.4,0,18.6,0Z"/>
        <path class="cls-8" d="M257.3,53.4c-.2-.3-.5-.5-.7-.8.2.3.5.5.7.8Z"/>
        <path class="cls-1" d="M25.9,231.3c.2.3.4.5.6.8-.2-.3-.4-.5-.6-.8Z"/>
        <path class="cls-8" d="M222.9,64.8c0,.2,0,.3.2.4-.4,1.5-.6,3.2-1.3,4.6-3.7,7.4-10.2,11.9-17.5,15.3-1.5-5.4-3-10.8-4.5-16.1.4-.5.6-1.3,1.1-1.5,1.3-.5,2.7-.6,4.1-1,5.1-1.4,10.3-5,11.9-8.3-1.1.9-1.8,1.7-2.7,2.2-4.8,3.1-9.6,6.2-15.7,5.5,0,0,0,0,0,0-.4-.8-.8-1.5-1.2-2.3-5.7-14.1-15-25-28.8-31.7-3.9-1.9-5.4-2-8.7-.9,10,3.6,18.8,8.9,25.3,17.2,4.1,5.3,7.6,11.2,10.5,17.3,2.5,5.2,3.7,11,5.5,16.5.7,4.9,1.7,9.7,2.1,14.6.4,4,.2,8.1.3,12.1-.8,5.3-1.6,10.6-2.5,16.4-.5-7-.9-13.3-1.3-19.7-.2-.5-.4-1-.6-1.5,0,0-.1-.1-.2-.2,0,0,.1.1.2.2-.2,6.9-.5,13.8-.7,20.7-1.1,8.6-6.2,15.1-11.2,21.7-.9,1.1-2.3,1.9-3.4,2.8.2-3.7.8-7.5.6-11.2-.2-5.1-.9-10.2-1.4-15.4-.7-3.9-1.3-7.8-2.3-11.6-2.6-10.2-5.2-20.5-8.3-30.6-1.5-4.8-4.1-9.4-6.1-14-.1-.3-.3-.6-.4-.9-.1,0-.2,0-.4.1.1.4.2.7.3,1.1,3.3,11.1,6.7,22.2,9.9,33.4,1.1,3.7,1.9,7.5,2.9,11.7-15.6-20.1-26.2-42-32.1-66.3-1.2,20.7-10.1,37.6-24.9,51.7,2.7-6,5.9-11.9,8.1-18.2,2.2-6.3,3.4-13,5-19.5-.4,0-.8-.2-1.2-.3-1.2,4.4-1.9,8.9-3.7,13.1-3.9,9.3-8.5,18.4-12.6,27.6-1.3,2.8-2,5.9-2.9,8.8-.2,1.2-.5,2.4-.7,3.6,0,0,0,0,0,0-.2.9-.4,1.8-.6,2.6-.1.5-.2.9-.4,1.4,0,2.3-.1,4.6-.2,7-.4,0-1,.2-1.2,0-4.4-4-8-8.5-9.2-14.4-.3-.8-.5-1.6-.8-2.4,0,0,.2-.2.2-.2,0-1.1,0-2.1-.2-3.2-.6-5.6-1.5-11.2-1.7-16.8-.3-7.4.6-14.7,2.8-21.8.2-.7-.4-1.6-.6-2.4-.5,0-.9,0-1.4,0-.4,2.3-.8,4.6-1.3,6.9h0c-.5,1.8-1,3.7-1.5,5.6-.2,1-.3,1.9-.5,2.9,0,.8-.2,1.6-.2,2.4-.2,2.4-.5,4.8-.7,7.3,0,0,0,0,0,0-.1,1.5-.3,3-.4,4.4-1.6,2.2-2.6-.2-3.8-.5-.3-.4-.5-.9-.8-1.3-.3-1.7-.7-3.3-1-5-.1-.7-.2-1.4-.4-2.1,0-3.6,0-7.2,0-10.8,0-.5.2-.9.3-1.4.3-2.1.6-4.2.8-6.4,2.1-5.3,4.2-10.6,6.2-15.9.2-.3.3-.5.5-.8,0-.3,0-.5,0-.8-.1.2-.3.3-.4.5-.2.2-.5.4-.7.6-3.4,3.6-7.3,6.9-10.2,10.9-8.1,11.1-14.1,23.4-18.7,36.4-.4-1.5-.7-3-1.1-4.4-.5.1-1.1.2-1.7.4,1.4-7.4,2.7-14.8,4.3-23.2-1.3,3.3-2.6,5.7-3.2,8.3-2.4,10.9-4.6,21.8-6.8,32.6,0,.3-.2.6-.3.9,0-.2-.1-.4-.2-.6-.1-.1-.3-.2-.6-.4,0,4.5,0,9,0,13.5,0,.3.6.7.9,1,1.4,6.9,2.7,13.8,4.1,20.8-7.4-4.4-14.2-9.8-18.7-17.8-.2-.5-.4-.9-.7-1.4-.1-.3-.3-.5-.4-.8-.3-.4-.5-.9-.8-1.3,0,0,0,0,0,0-.2-.5-.4-.9-.6-1.4,0,0,0,0,0,0-.2-.4-.5-.9-.7-1.3,0,0,0,0,0,0-.2-.7-.5-1.3-.7-2,0,0,0,0,0,0-.2-.7-.5-1.3-.7-2,0,0,0,0,0,0-.2-1-.5-1.9-.7-2.9.1-.1.1-.2,0-.3,0-4.8,0-9.6,0-14.4,0-1.6.2-3.3.3-4.9,1.1-5.1,2.1-10.2,3.1-14.9-4.5,4.4-11,24.2-11.7,35.2-3.8-19.6,3.3-36.1,14.7-51.5,2.1,2.6,0,4.5-1.1,6.6-1.1,2.3-1.2,2.3.7,3.3,2.6-1.8,5.1-3.6,7.6-5.4,1.6,3.6,4.2,4.5,6.1,1.7,2.1-3.1,3.8-6.4,5.6-9.8.3-.7,0-1.7,0-2.6-.9.2-2,.2-2.6.8-1.3,1.1-2.3,2.5-3.4,3.8-1.1,1.3-2.1,2.7-3.1,4-.3-.2-.5-.3-.8-.5,2.8-4.7,5.6-9.4,8.5-14.2-1.2-.8-2.2-1.5-3.3-2.2,7.8-6.7,16.3-12.2,26.6-14.3,2.2-.5,4.9-.5,5.5-4.1.2-1.4,3-2.6,4.8-3.5,9.8-5.2,20.2-8.2,31.1-9.9,2.5,0,5-.2,7.5-.1,7.6.2,15.2.4,22.8.6.2,0,.4,0,.6,0,.9.2,1.7.4,2.6.6,0,0,0,0,0,0,1,.2,2,.5,2.9.7,7.2.5,13.7,3.4,20,6.6,13.1,6.5,23.7,16,31.8,28,2,3,3.6,6.3,5.3,9.5.4.9.8,1.8,1.2,2.7ZM69.2,59.4c-4.6,1-5.1,5.2-6.3,8.6-.3.9.4,2.2.7,3.9.7-1.5.9-2.1,1.3-2.7,2-3,4.4-5.9,4.4-9.8,0,0,0-.2.1-.3,0,0,0,.2-.1.2ZM147.7,28.6c-6.4-8-21.8-10.7-27.5-4.7,10.1-3,19-.3,27.5,4.7ZM121.9,60.8c-5.2,1.4-8.5,8.9-5.9,13.3,3.7-2.9,5.5-6.7,5.9-13.3ZM180.3,56.6c2.6,4.3,3,9.6,7.9,12.9.7-4.2-4.8-13.2-7.9-12.9ZM185.7,54.1c1,5.2,2,9.9,5.8,13.7,1.4-3.2-2.1-11.5-5.8-13.7ZM152.2,29.1c-1.3-7.3-5.6-11.3-10.9-9.5,5.8,1.2,9.2,4.5,10.9,9.5ZM121.2,71.6c1.9,1,3.8-.2,4.7-3.5.2-.8-.4-1.9-.6-2.9-1,.8-2.2,1.4-2.9,2.3-.7,1-.8,2.4-1.3,4ZM180.5,67c.3-.1.6-.3,1-.4.4-2.6-.4-4.6-3.7-5.3.9,1.9,1.8,3.8,2.7,5.7ZM45,74.1c-.2,0-.4-.3-.5-.2-.1,0-.2.3-.2.5.2,0,.4.3.5.2.1,0,.2-.3.2-.5ZM176.8,59.6c0-.2,0-.3.1-.4,0,0-.1,0-.2,0,0,0,0,.2,0,.3Z"/>
        <path class="cls-6" d="M65.8,114.8c.4.7.9,1.4,1.3,2.2-2.4-13.3,8.2-25.1,20.5-22.8,1.2.2,2.8,1.4,3.1,2.5,3.2,9.4,9,17.3,14.9,25,2.6,3.4,6.7,5.7,10.1,8.4.2-.2.4-.4.7-.7-.5-1-1-2-1.5-3-.9-7.1,1.1-13.9,2.9-20.6.1-.2.2-.5.4-.7.1-.4.2-.8.4-1.1,0,0,0,0,0,0,.2-.5.5-.9.7-1.4,0,0-.1.1-.1.1.3-.3.6-.5.9-.8,2.9-2.2,5.8-4.4,8.7-6.6,1.9,0,3.8.2,5.7,0,3.6-.5,7.3-1.6,10.9-1.7,3.8-.1,7.6.6,11.3.9,0,0,0,0,0,0,1.1.5,2.1.9,3.2,1.4,0,0,0,0,0,0,.7.3,1.4.7,2.1,1,0,0,0,0,0,0,.4.2.8.4,1.3.6,0,0,0,.2,0,.2,0,0,0-.1,0-.1.8.5,1.7.9,2.5,1.4h-.2c0,.1.2,0,.2,0,.2.3.4.5.7.8,2.6,3.6,5.1,7.2,7.7,10.8.5.7.9,1.4,1.4,2.1,0,0,0,0,0,0,.3.4.5.8.8,1.2,0,0,0,0,0,0,.2.3.3.6.5.8,0,0,0,0,0,0,.2.4.5.9.7,1.3,0,0,0,0,0,0,.5.8,1,1.6,1.5,2.5,0,0,0,0,0,0,.4.9.7,1.8,1.1,2.7,0,0,0,0,0,0,.4,5.7,1,11.4,1.2,17.1.2,4.3-.1,8.7-.2,13,0,0,0,0,0,0-.3.6-.6,1.1-.9,1.7,0,0-.1-.1-.1-.1h.2c-.5.8-.9,1.5-1.4,2.2,1.5-.5,2.9-1,4.4-1.5,1.8-1.5,3.9-2.7,5.4-4.4,3.9-4.3,7-9.3,11.3-13,6.3-5.4,10.2-7.2,15,1.7.1.3.4.5.5.8.4,2,1.3,4,1.1,5.9-.6,4.7-1.7,9.4-2.5,14,0,0,0,0,0,0-.4.9-.7,1.8-1.1,2.8,0,0,0,0,0,0-.4.9-.9,1.7-1.3,2.6-3.8,3.9-7.7,7.8-11.5,11.7-.4.3-.9.6-1.3.8,0,0,.1-.1.1-.1-.3.2-.6.4-.8.6,0,0,0,0,0,0-.5.2-.9.5-1.4.7,0,0,0,0,0,0-1.1.5-2.2.9-3.3,1.4,0,0,0,0,0,0-.6.3-1.2.6-1.9.9,0,0,0-.2,0-.2-3.1-.3-6.2-.5-9.3-.8-.5,0-1.5-.3-1.6-.1-4.9,14-16.7,21.5-27.7,29.8-3.1,2.4-6.7,4.2-10,6.3-.4.3-.9.5-1.3.8,0,0,0,0,0,0-.9.4-1.7.9-2.6,1.3,0,0,0,0,0,0-.9.4-1.8.9-2.7,1.3-.2,0-.4,0-.5.2-.7.4-1.4.7-2.1,1.1,0,0,0,0,0,0-.6.3-1.2.6-1.8.8h0c-6.4,2.5-13,4.1-19.8,1.6h-.2c0,0,.2,0,.2,0-.3-.2-.6-.3-.8-.5,0,0,0,0,0,0-.5-.3-.9-.6-1.4-.9-7.7-6-15.6-11.8-23.2-18-10.6-8.7-17.6-19.6-19-33.5,0-.4-.3-.8-.4-1.2,0-4.3-.1-8.5-.2-12.8,0-.7,0-1.3,0-2l.2-5.8c.7,0,1.4,0,2.4.1-1-1.6-2-3.2-2.9-4.7-.3-.6-.5-1.3-.8-1.9-.1-.4-.2-.8-.3-1.2-.1-.8-.3-1.6-.4-2.3.2-1.4.3-2.8.5-4.3,1.7.7,3.5,1.3,4.6,1.8,1.5,2.9,2.8,5.5,4.1,8,1.7,3,3.5,6,5.2,9.1-2.3.8-.6,2.1-.2,2.9.5,1.1,1.4,1.9,2.5,3.4-2.9,1-5.2,1.8-7.6,2.7,1-1.3,2.1-2.6,3.1-3.9-.2-.2-.4-.4-.5-.6-2.6,2-5.3,3.9-7.9,5.9.1.2.3.5.4.7l3-.7c-.9,2-1.8,4-2.7,5.9.2,0,.4.2.7.3,5-3.6,10-7.1,15-10.7.5-.3,1-.5,1.5-.8-.3-.3-.5-.6-.8-.9-.2.5-.5,1.1-.7,1.6h-1.6c.3-1.6.6-3,1-4.5,2,0,4.1.3,6-.1,1.3-.3,2.4-1.5,3.7-2.3,1-1.6,1.9-3.3,2.9-4.9.3-.1.8-.2.8-.4,0-5,0-10,0-15-.3,0-.6,0-.8.1-1.7-2.5-3.3-5-5-7.4,0-.6.2-1.3.3-1.9,1.4,1.3,2.8,2.6,4.2,3.9.2-.1.4-.2.5-.4-1.3-1.8-2.7-3.6-4-5.4,0,0,0,0,0,0-.5-.4-.9-.9-1.4-1.3h0c-.2-.2-.5-.4-.7-.6,0,0,0,0,0,0-.7-.5-1.3-.9-2-1.4h0c-3.5-1.8-7-1.9-10.6,0h0c-.4.2-.9.4-1.3.7-.2.2-.4.4-.7.6-.2.2-.5.4-.7.7,0,0,0,0,0,0-.5.4-.9.9-1.4,1.3h.1c-.2.2-.5.5-.7.7-1.8,2-3.7,4.1-5.5,6.1.3.4,1.6,1.3,1.9,2.5.8,3.3,0,3.8-4.8,3.9-2.4-2.7-2.4-13.6,0-17.6ZM142.2,116.2c-.3.2-.7.4-1,.7-3.6,3.1-5.5,7.1-6.1,11.7h0c-.2,0-.4,0-.6.2.1.3.3.6.4,1,.7-.6,1.4-1.2,2-1.8h0c-.7,2.7-1.6,5.3-1.9,8.1-.8,7,2.4,12.4,7.1,17.2.2.2.4.4.6.6h0c1.6.7,3.1,1.3,4.7,2.1,3.8,1.9,7.5,1.3,10.3-1.8,2.1-2.6,4.5-5,6-7.9.7-1.3,1.4-1.1,2.2-1.4,1-1.9,2-3.9,3.1-5.8,0-.6.2-1.2.3-1.8l.7-2s0,0,0,0c.2-.2.5-.5.7-.7h0c.5-.4,1-.8,1.6-1.2,0,0,.1-.2.2-.3,0,0,0-.2,0-.2-.9,0-1.8,0-2.6.1-1.6-3-1.2-5.7,2-8.1-4.2,1.3-5.6-1.8-7.8-3.7-2.3-2-5-3.5-7.5-5.2-4.3-1.9-8.6-2.3-13-.3,0,0,0,0,0,0-.4.3-.8.5-1.3.8,0,0,0,0,0,0ZM86.6,164c-1.6,1.3-3.3,2.5-4.9,3.8.4.4.8.7,1.2,1.1,1.3-1.6,2.5-3.2,3.8-4.8.3,0,.5-.2.8-.3,0,0-.2-.2-.2-.2-.2.1-.5.3-.7.4ZM138.3,178.3s0,0,0,0c-.4-.2-.9-.7-1.3-.7-11.1,0-22.2,0-33.3,0,0,0,0,.6-.1.9-2.2.6-4.3,1.2-6.5,1.7-1.9.4-2.6,1.4-1.5,3.2,3.7,5.8,7.3,11.8,11.2,17.4,1,1.5,3.3,2.2,5,3.2,1.3.6,2.6,1.7,4,1.8,6.1.6,10.7-2.9,15-6.5,3.1-2.7,6-6,8.1-9.5,1.7-2.9,4.2-6.2,2.1-10.1-.9-.5-1.7-1.1-2.6-1.6ZM73,116.8c.6-.4,1.2-.7,1.8-1.1,3.8-3.1,8-4,12.7-2.3,1.9.7,3.8,1.4,5.6,2.1h0c0,0,0,0,0,0-5.5-5.9-16.2-6.1-20,1.3,0,.2-.1.3-.2.5,0-.2,0-.3.1-.5ZM188.9,171c2.7-.4,5.5-.9,8.2-1.3.8,0,1.7.3,2.4,0,6.5-2.2,13.7-13.6,13.1-20.5,0-.3-.3-.6-.4-.8-.3-2.9-.5-5.8-1-8.6-.4-1.9-1.7-3-3.9-2-5.1,2.2-9.1,5.7-11.9,10.4-.6.9-.9,2.4-.6,3.4,1.9,6.2-1.2,10.5-5.2,14.6-.9,1-1.3,2.4-2,3.7.5.4.9.7,1.4,1.1ZM168.8,155.1c-6.3,4.1-11.9,7.8-17.8,11.7.9.5,1.5,1.1,1.8,1,5.3-2.9,10.5-5.8,14.9-8.3.5-1.7.7-2.6,1.2-4.4ZM165.2,117.9c-5-8.8-22.1-10.8-25.9-4.7,8.6-3.3,15.3-3,25.9,4.7ZM73.9,171c4.8-3.8,8.9-7,13.6-10.7-5.7.5-11.9,5.3-13.6,10.7ZM102.3,169.3l.6-.2c-.4-1.6-.7-3.2-1.4-4.7-1.3-2.8-.9-5,1.1-7.3,1.5-1.7,2.5-3.8,3.7-5.7l-.8-.5c-2,2.8-4.2,5.5-6,8.4-.5.8-.6,2.3-.2,3.3.8,2.3,1.9,4.4,3,6.6Z"/>
        <path class="cls-22" d="M243.4,71.7c3.4,7.1,5.1,14.7,6.1,22.5,1.4,10.9,2.6,21.9,3.9,32.8.1,1.1.9,2.2,1.4,3.3.3,0,.6,0,.9-.1.1-1.4.2-2.8.3-4.2.2,0,.3-.2.5-.3.5,1.1,1,2.3,1.4,3.4.3,2.2.2,4.6,1.1,6.5,2.6,5.4,5.6,10.5,8.4,15.8-.2.5-.5,1-.4,1.5,1.9,8.2-.6,15.9-2.5,23.7-.6,2.7-1.7,5.2-2.6,7.8-.7-1.3-1.4-2.7-2-4-2.2-7.3-4.4-14.6-6.6-21.8-.3-1-.9-1.9-1.5-2.8,1.3,9.3.4,18.3-3.3,26.8-1.3,3-3.4,5.7-5.4,8.4-2.7,3.8-5.7,7.4-8.6,11,.8-9,1.5-18.3,2.3-27.5h-1c-1.1,7.1-2.1,14.2-3.4,21.3-1,5-.9,9.7.9,14.5,2.2,5.7,2.5,6.5,8.6,12.1-7.3,2.9-17.8-1.8-22.1-9.6-5.1-9.1-4.2-18.5-3.2-28.2,2-18.3,9-35.3,13.1-53,2.6-11.2,4.5-22.3,3.5-33.8-.6-6.4-1.7-12.7-2.5-18.8,6.2,4.5,14.8,31.3,13.5,44.1-1.6,15.9-5.9,31.1-14,45.2.2.1.5.2.7.3,1.4-2.2,3.1-4.2,4.3-6.5,7.2-13.8,12.1-28.3,11.5-44.1-.4-12.1-3.8-23.5-10.1-33.9-2.1-3.5-4.9-6.5-7.1-9.9-1.2-1.8-1.8-3.9-2.6-5.9-1.8-4.4-3.6-8.9-5.7-13.9,6.3-.1,10.9,2.5,14.4,6.7,2.4,2.8,4,6.3,6.1,9.5.4.5,1.1.9,1.6,1.3Z"/>
        <path class="cls-17" d="M117.4,272c.9.6,1.7,1.1,2.6,1.7.1-.1.2-.2.4-.3-.7-.8-1.4-1.5-2.1-2.3-.7-.5-1.4-1.1-2-1.6,0,0,0,0,0,0-.4-.2-.9-.5-1.3-.7,0,0,0,0,0,0-1.5-.6-3-1.3-4.5-1.9,0,0,0,0,0,0-1.1-.7-2.2-1.4-3.2-2,0-.2,0-.5,0-.7,4.9-1.3,9.8-2.6,14.7-4,.4-.1.6-.8.9-1.2.5-1,.9-2.1,1.4-3.1,3.3,1.5,6.3,0,9.2-1.3,12.8-6.3,22.8-15.9,31.8-26.7,2.5-3,4.3-3.4,7.7-1.6.8.4,1.9.4,2.8.5l.5.8s0,0,0,0c.5,1.3,1,2.5,1.5,3.8,0,0,0,0,0,0,.4.8.9,1.7,1.3,2.5,0,0,0,0,0,0,.2.4.4.8.7,1.1,3.8,5.5,9.6,8.4,15.6,11.5-6.4,5.1-12.8,10.2-19.2,15.2-.5.3-1,.6-1.5.9,0,0,0-.1,0-.1-3.7.9-7.4,1.8-11.1,2.7-5.6,1-11.2,1.8-16.8,3.1-4.1,1-8.2,2.2-11.2,5.6,1.9-.8,3.8-1.7,5.8-2.5,2.7-.5,5.4-1,8.1-1.6,1.7-.3,3.4-.8,5.1-1.1.9-.1,1.8-.2,2.8-.3,3.8-.7,7.6-1.5,11.4-2.3,1.1-.2,1.1-.2,1.3,1.5-1.4.9-2.8,1.8-4.2,2.7-.3.2-.7.5-1,.7,0,0,0,0,0,0-.4.3-.7.6-1.1.9,0,0,0,0,0,0-.3.2-.5.3-.8.5,0,0,0,0,0,0-.3.3-.6.6-.9.8,0,0-.2.1-.2.1-.2.1-.5.2-.7.4,0,0-.2-.1-.2-.1,0,0,.2.1.2.1-.3.3-.7.5-1,.8,0,0-.2,0-.2,0-.3.1-.5.3-.8.4h0c0-.1.1,0,.1,0-.3.3-.7.6-1,.8,0,0-.2,0-.2,0-.3.1-.5.3-.8.4,0,0,0,0,0,0-.3.2-.5.4-.8.5,0,0,0,0,0,0-.5.3-1,.7-1.5,1,0,0-.3.1-.3.1-.3.2-.6.4-.9.6,0,.1-.2.2-.4.2-.2.1-.4.3-.6.4,0,0,0,0,0,0-.4.2-.8.5-1.2.7,0,0-.1,0-.1,0-.7.4-1.4.7-2.1,1.1,0,0,0,0,0,0-.5.2-.9.5-1.4.7,0,0,0,0,0,0-.4.2-.9.5-1.3.7,0,0,0,0,0,0-.5.2-.9.4-1.4.6,0,0,0,0,0,0-1.7.7-3.4,1.4-5.1,2.2,0,0,0,0,0,0-1,0-2.1,0-3.1.2-3,.5-6,1.3-9.1,1.4-4.1.1-8.2-.3-12.2-.5-.8-.4-1.6-.7-2.4-1.1-.2-.3-.5-.6-.7-.8h.1c0,.1-.1.2-.1.2-.4-.3-.7-.6-1.1-.9,0,0,0,0,0,0-.4-.4-.8-.9-1.3-1.3,0,0,0,0,0,0-.7-.8-1.4-1.7-2.1-2.5,0,0,0,0,0,0-.7-1.1-1.3-2.2-2-3.3,0,0,0,0,0,0-.4-2.7-.8-5.3-1.3-8.1,3.1.7,5.9,1.3,8.6,2,0,0,0,0,0,0,1.2.7,2.3,1.5,3.5,2.2Z"/>
        <path class="cls-24" d="M175.8,226.8c-.9-.2-2-.1-2.8-.5-3.5-1.8-5.2-1.4-7.7,1.6-9,10.8-19,20.4-31.8,26.7-2.9,1.4-5.8,2.9-9.2,1.3,1.4-9.1-.6-17.9-2.9-26.9,5.7.3,10.3-2.5,14.6-5.5,11-7.8,21.9-15.9,32.8-23.8.6-.5,1.2-1,1.9-1.5,0,0,0,.1,0,.1.2-.2.5-.5.7-.7,0,0,0,0,0,0,.2-.2.5-.5.7-.7,0,0-.1,0-.1,0,.3.5.8,1.1.8,1.6,0,4.4-.1,8.8,0,13.2,0,2,.9,4.1,1.3,6.1.6,3,1.1,6,1.7,9Z"/>
        <path class="cls-21" d="M226.3,223.4c.2.1.4.2.7.4.5.3.9.6,1.4.9,0,0,0,0,0,0,.4.1.7.2,1.1.4.4.2.9.3,1.3.5,0,1-.1,2-.2,3.4-2.9-.9-5.8-2.8-7.6-2.1-3.6,1.5-6.9-.2-9.7-.8-3.5-.7-4.9-.7-5.7,2-1.7.3-2.9.8-4.1.6-1.2-.2-2.9,2.1-3.7-.5.3-1,.5-2.1.8-3.1-.4,0-.7,0-1.1,0,0,1.1.2,2.1.3,3.2-1.4-.2-2.9-.4-4.8-.7-.3-.5-.2-2.1-2.5-.4-1.6,1.1-3,2.5-4.7,3.5-1.9,1.2-3.9,1.5-6,1.4-.4-.7-.9-1.3-1.3-2-.1-1.1-.2-2.1-.4-3.2-1-6.8-2-13.6-2.8-20.5-.2-1.4.7-3,1.1-4.5v-.3c1.6.4,3.1.8,4.6,1.2,4.8,2.8,8.8,6.3,9.9,12.1.3,1.4,0,3,0,4.4,2.2-2.6,2.4-5.4.4-10.5-2.9-7.5-9.5-9.6-17.4-11,1.8-.9,3-1.5,4.2-2.1,4.1-2,8.2-3.8,12.2-5.9,4.1-2.2,7-5.6,9.3-9.6.6-1.1,1.9-1.7,2.9-2.6,0,1.2,0,2.4,0,3.7,0,4.5-.1,9-.2,13.5h-.2c0,0-.1.1-.1.1.3,1.3.7,2.5,1,3.8,1.1,5,3.8,9,8.1,11.8,2.8,1.8,5.1,4,6.9,6.8,1.3,2,3.4,3.5,5.1,5.2.4.3.9.6,1.3.9Z"/>
        <path class="cls-9" d="M119.6,233.9c-.4,1.6-.9,3.2-1.4,5.2-.5-.7-1-1.3-1.5-2-.6.8-1.3,1.7-2.1,2.7-3-3.5.6-6,1.6-9.9-1.7,1.5-3,2.2-3.8,3.3-4.2,5.9-4.7,6.1-11,2.3,0,0-.1-.2.1.1,0-3,0-5.6,0-8.2,0-.5-1-1.4-1.4-1.3-2.5.5-5,1.2-7.7,1.9,0,0-.1-.7-.2-1.4-2.4-.1-4.9-.3-7.4-.4h0c0-.7,0-1.6-.3-2-1.5-1.3-3.1-2.4-4.6-3.5.7-.8,1.5-1.4,1.8-2.2.1-.3-1.1-1-1.5-1.6-1.5-1.9-2.9-3.8-4.4-5.7-2.9,3-4.4,2.6-5.9-1.3-.3-.8-1.6-1.4-2.5-1.6-.7-.2-1.6.3-2.6.5-.4-1.2-.7-2.2-1-3.5-.3.7-.5,1.1-.6,1.5.6-7.3,1.2-14.7,1.9-22,.5-1,1.1-2,1.5-2.9.4.4,1.1,1,1.7,1.6,0,0,0,0,0,0,.3.6.6,1.2.9,1.8,0,0,0,0,0,0,.2.4.5.8.7,1.2,0,0,0,.1,0,.1.4.8.9,1.7,1.3,2.5,0,0-.1,0-.1,0,.2.3.4.5.6.8,0,0,0,0,0,0,.3.4.6.9.9,1.3,7.2,11.7,18.5,18.8,29.4,26.4,4.9,3.4,10.2,6.1,15.3,9.2.6.3,1.2.9,1.3,1.6.6,1.8.9,3.7,1.4,5.6Z"/>
        <path class="cls-22" d="M202.2,129.7c.6-3.7,2.4-6.3,5.8-8.4,8.7-5.3,14.8-13.2,20.1-21.8.5-.8.5-1.8.8-2.7.2-.2.4-.4.5-.6,0,0-.1-.1-.2-.2,0,.3-.2.6-.3.8-3.9,4.9-7.4,10-11.7,14.5-3.4,3.6-7.6,6.5-11.4,9.7-.3-.2-.6-.5-.9-.7.5-2.2.9-4.5,1.4-6.7,2.4-3.1,4.8-6.2,7.6-9.9.6,1.6.8,2.2,1,3,.7-.5,1.2-.7,1.5-1.1,4.3-4.9,8.5-9.8,12.8-14.7.4-.4.3-1.2.4-1.8,5.3,19.3-2.5,46.9-10.6,54.3-.6-2.7-1-4.7,1-7.2,2.8-3.6,4.9-7.9,7.3-11.8-.3-.2-.6-.4-.9-.6-2.7,3.8-5.3,7.7-8.3,12-4.2-5.9-8.9-9.1-15.6-5.8l-.2-.2Z"/>
        <path class="cls-9" d="M199.8,228.1c.9,2.6,2.5.3,3.7.5,1.2.2,2.4-.3,4.1-.6.8-2.7,2.2-2.7,5.7-2,2.8.6,6.1,2.3,9.7.8,1.8-.7,4.7,1.2,7.6,2.1,0-1.4.1-2.4.2-3.4,4.7,0,9.4,0,14.1-.1-.3,1.4-.3,3.2-1.1,4.1-.9.9-2.6,1-4,1.3-2.7.6-5.4,1.6-8,1.3-3-.4-5.9-2-8.9-3.1-2.2,1.9-4.6,4-6.9,6-.4.3-1.1.8-1.1,1.1.7,3.5-1.3,5.9-3.6,8.1-.9-.2-1.7-.4-2.6-.7-3.4-3.6-5.4-3.9-9.8-2.3-1.2.5-2.9,0-4.3-.3-2.1-.5-4-1.2-6.1-1.8,0,0,0,0,0,0,0-1.9-1.1-2.2-2.6-1.9,0,0,0,0,0,0-.3-.2-.5-.4-.8-.7,0,0,0,0,0,0-.6-.5-1.2-1-1.7-1.5,0,0,0,0,0,0-.2-.2-.4-.5-.7-.7-.2-.2-.4-.5-.6-.7-.3-.4-.6-.8-.9-1.2,0,0,0,0,0,0,.1-.3.2-.6.3-.9,2.1,0,4.1-.3,6-1.4,1.7-1,3.1-2.4,4.7-3.5,2.3-1.6,2.2,0,2.5.4,1.9.3,3.3.5,4.8.7h0Z"/>
        <path class="cls-8" d="M229.6,89c-.1.6,0,1.4-.4,1.8-4.2,4.9-8.5,9.8-12.8,14.7-.3.4-.8.6-1.5,1.1-.3-.8-.5-1.4-1-3-2.8,3.6-5.2,6.7-7.6,9.9,0-.2-.1-.4-.2-.6.1-.2.1-.4,0-.6,0-.2,0-.5,0-.7.1-2.7.5-5.4.3-8-.3-4.4-.9-8.8-1.4-13.3,0-.2,0-.5-.1-.7-.2-2.3.8-3.7,3.1-4.3,1.3-.4,2.6-1.1,3.7-2,5.1-3.8,10.1-7.7,12.1-14.2.4.2,1.1.4,1.1.7,1.6,6.4,3.2,12.7,4.8,19.1ZM217.2,98.2s0,0,0,0c-.5,0-1.1-.3-1.6-.1-.8.2-1.8.5-2.2,1.1-.4.5-.2,1.5-.3,2.3.9,0,1.8,0,2.6,0,1.2,2.5,2.1.3,2.4-.4,1.8-3.7,3.6-7.3,4.9-11.2,1.2-3.5,1.8-7.2,2.7-10.8,0,0-.2,0-.3,0-2.5,6-5,11.9-7.5,17.9-.3.4-.5.8-.8,1.2Z"/>
        <path class="cls-9" d="M56.9,181.5c-1.1.8-2.2,1.8-3.4,2.3-2.5,1.1-5,2-7.6,2.7-1.2.3-2.7.2-3.8-.3-2.6-1.1-5-2.6-7.5-3.8-.6-.3-1.4-.3-2.3-.5-.6-1-1.5-2.2-2.1-3.5-.9-1.9-1.5-3.7,0-5.9,3.1-4.4,1.6-14.2-2.2-18.2-1.2-1.2-1.9-3-2.8-4.5,1.1.4,2.1.8,3.2,1.2.2-.3.4-.6.6-.8.5,1.2.8,2.5,1.4,3.6,1.7,2.8,3.4,5.6,5.2,8.3.4.5,1.1.8,1.5,1.3.6.8,1,1.7,1.4,2.6.3.6.6,1.4.6,2,0,1.6-.3,3.2-.5,5.5,1.2,2.3,3.1-.5,4.8-1,1.7,1.9-4.6,4.2.6,5.7h0c1.3,2.1,2.4,1.9,3.6-.1,1.1-1.8,1.3-4.6,4.8-3.8v-2.3c2.5-.3,4.8-.6,7.1-.8-.9,3.4-1.7,6.9-2.6,10.3Z"/>
        <path class="cls-22" d="M223.1,146c-1.7,7.1-3.3,14.2-5.2,21.2-2.8,10.2-4,20.6-4.4,31.1-.1,3.2.9,6.5,1.5,10-3.7-1.8-5.8-5-6.7-8.5-3-11.5-1.8-22.4,4.5-32.7,2.4-4,3.5-8.7,5.5-13,1.3-2.8,3.1-5.4,4.7-8.1,0,0,0,0,0,0Z"/>
        <path class="cls-24" d="M60.1,48.1c1,.7,2.1,1.4,3.3,2.2-2.9,4.8-5.7,9.5-8.5,14.2.3.2.5.3.8.5,1-1.3,2-2.7,3.1-4,1.1-1.3,2.2-2.7,3.4-3.8.6-.5,1.7-.5,2.6-.8,0,.9.4,1.9,0,2.6-1.7,3.3-3.5,6.7-5.6,9.8-1.9,2.8-4.5,1.9-6.1-1.7-2.5,1.8-5,3.5-7.6,5.4-2-1-1.9-.9-.7-3.3,1-2,3.1-4,1.1-6.6,4.7-4.8,9.5-9.6,14.2-14.4Z"/>
        <path class="cls-6" d="M133.2,89.9c1.4-2.2,2.9-4.5,4.3-6.7.7-.3,1.8-.3,2.1-.9,1.6-2.6,3.1-5.4,4.6-8.1,1-1.7,2-3.3,3.4-5.6,2.7,8.3,5.5,15.6,11.3,21.2-.9.2-1.8.4-2.6.6,0,0,0,0,0,0-.2-.3-.4-.9-.7-1-5-.8-10-1.6-15.1-2.2-1-.1-2.1,1-3.2,1.5,0,0-.1,0-.1,0-.7.4-1.4.8-2.1,1.2,0,.2,0,.3,0,.5,0,0,0,0,0,0-.2,0-.4,0-.5,0-.4-.2-.9-.3-1.3-.5Z"/>
        <path class="cls-24" d="M159,89.8c-5.8-5.6-8.6-12.9-11.3-21.2-1.4,2.3-2.4,3.9-3.4,5.6-1.5,2.7-3,5.5-4.6,8.1-.3.5-1.4.6-2.1.9,3.7-8.1,7.3-16.2,10.4-23.1,4.2,9.5,8.9,20.3,13.7,31.1-.9-.4-1.8-.9-2.6-1.3Z"/>
        <path class="cls-8" d="M261.9,184.2c.9-2.6,2-5.1,2.6-7.8,1.9-7.8,4.4-15.5,2.5-23.7-.1-.4.3-1,.4-1.5,3.5,7.8,4.2,15.9,2.8,24.3-.9,5.5-3.6,10.3-7.1,14.6-.4-2-.8-4-1.3-5.9Z"/>
        <path class="cls-24" d="M123,259c-.3.4-.5,1.1-.9,1.2-4.9,1.4-9.8,2.7-14.7,4-1.2-2.6,2.1-3.1,2.5-4.8-.5-.7-.9-1.2-1.3-1.7,0,0,0,0,0,0,.2-.4.5-.9.7-1.3,0,0,0,0,0,0,.2-.2.5-.5.7-.7,0,0,0,0,0,0,.2-.2.5-.5.7-.7,0,0,0,0,0,0,.2-.2.5-.5.7-.7,0,0,0,0,0,0,.2-.2.4-.5.7-.7,0,0,0,0,0,0,.2-.2.5-.5.7-.7.2-.2.4-.4.7-.5.4-.3.8-.5,1.2-.8,0,0,0,0,0,0,.2-.2.5-.4.7-.6,0,0,0,0,0,0,1.7-1.1,3.4-2.3,5.1-3.4,0,0,0,.1,0,.1.2-.2.5-.4.7-.6.4.7,1.2,1.4,1.3,2.2.4,3.1.6,6.3.8,9.4Z"/>
        <path class="cls-23" d="M88.8,90.4c-.4.2-.7.4-1.1.6-3,0-5.9,0-8.9,0,0,0,0,0,0,0-.5.2-1.1.5-1.6.7,0,0-.2,0-.2,0,0,0-.1.1,0,.1-.3.2-.5.4-.8.5,0,0,0,0,0,0-.2,0-.4.1-.5.3-.7.3-1.3.6-2,.9,2.2-4.4,4.2-9,6.9-13.1,1.5-2.4,4.2-4.1,6.3-6.1.3,3.7.6,7.4.9,11.1,0,0-.2,0-.2,0,.4,1.6.8,3.3,1.2,4.9Z"/>
        <path class="cls-24" d="M86.9,74.2c-2.1,2-4.8,3.7-6.3,6.1-2.6,4.1-4.6,8.7-6.9,13.1-.9.7-1.9,1.4-2.8,2.1-.3-.2-.6-.4-.9-.5,3.9-8,7.7-16,11.8-24,1.6-3.1,3.7-6,5.6-9,.4-.7.8-1.3,1.2-2,0,0,0,0,0,0,0,1.7-.1,3.5-.2,5.2,0,.2-.2.5-.2.7-.4,2.8-.9,5.5-1.3,8.3Z"/>
        <path class="cls-21" d="M281.1,142.5c.1.7.6,1.9.4,2-4.4,2.3-1.1,5.9-1.3,8.7-.2,3.7-.3,4.3-4,4.6-1,0-1.9.7-2.8,1-1.5-4.6-3.1-9.3-4.7-14,3.6-.7,7-1.3,10.4-1.9.1.1.3.3.4.4,0-.2,0-.3,0-.5,0,0,.2,0,.2,0,0,0,0,.2,0,.2.3-.2.5-.3.8-.5.2-.2.3-.2.5-.2Z"/>
        <path class="cls-14" d="M64,176.4c-.1.1,0,.2,0,.3-1,3.9-2.3,7.8-2.9,11.8-1.1,7.5-2,15,.3,22.5.2,1,.4,2,.6,3.1-3.7-4.1-5.5-9.2-4.9-14.3,1.4-11,3.8-21.9,5.8-32.8h1.7c0,2.7,0,5.3,0,7.9-.2.5-.4,1.1-.7,1.6Z"/>
        <path class="cls-22" d="M186.8,185.4c1.8-.9,3.5-1.7,5.3-2.6,1.6-.8,3.3-1.4,4.9-2.1.1.2.3.3.4.5-2,2-3.8,4.4-6.1,5.9-4.4,2.9-9.2,5.2-14.4,8,0-5.1,2.8-8,5.2-10.8.8-.9,3.5-.1,5.4-.1h0c-.2.4-.4.9-.6,1.3-.9.4-1.7.9-2.6,1.3,0,0-.1.2-.1.2,0,0,0-.2.1-.3.9-.4,1.7-.9,2.6-1.3Z"/>
        <path class="cls-8" d="M64.2,163.8c-5-3.9-7.8-13.1-6.7-19.9,2.1,1.4,4.1,2.7,6,4.2.5.4.6,1.3.6,2,0,4.3,0,8.7,0,13.7Z"/>
        <path class="cls-19" d="M170,267.5c-.2-1.7-.2-1.7-1.3-1.5-3.8.7-7.6,1.5-11.4,2.3-.9.2-1.8.2-2.8.3-4.4.9-8.8,1.8-13.2,2.7-1.9.8-3.8,1.7-5.8,2.5,3-3.4,7.1-4.6,11.2-5.6,5.5-1.3,11.2-2.1,16.8-3.1,3-.6,6-1.3,9-1.9,2.3,3.3-.9,3.3-2.6,4.2Z"/>
        <path class="cls-19" d="M223.7,69.2c-1.9,6.5-7,10.4-12.1,14.2-1.1.8-2.4,1.6-3.7,2-2.3.7-3.3,2-3.1,4.3-.2-1.5-.3-3.1-.5-4.6,7.3-3.4,13.7-7.9,17.5-15.3.7-1.4.9-3,1.3-4.6.2,1.3.4,2.7.6,4Z"/>
        <path class="cls-3" d="M99.2,68.9c.4-2.3.8-4.6,1.3-6.9.5,0,.9,0,1.4,0,.2.8.8,1.7.6,2.4-2.2,7.1-3.1,14.4-2.8,21.8.2,5.6,1.1,11.2,1.7,16.8.1,1.1.1,2.1.2,3.2-.8-3.2-1.6-6.3-2.4-9.5.1-9.5.2-19.1.3-28.1.2-.2,0,0-.2.3Z"/>
        <path class="cls-19" d="M65.2,137.2c.1.8.3,1.6.4,2.3-1-2.6-2.5-5.1-2.8-7.7-.5-4.6.1-9.4-.2-14-.3-3.8-1.2-7.5.3-10.7.5,2.2,1,4.8,1.6,7.4-1.9,7.6-1.9,15.2.7,22.7Z"/>
        <path class="cls-23" d="M133.2,89.9c.4.2.9.3,1.3.5,0,.2-.1.4-.2.6,0,0,0,0,0,0-.2.2-.5.5-.7.7-.2.2-.4.4-.6.6-.9,1-1.7,2-3,3.6,3.3-1.1,5.8-1.9,8.4-2.7,0,0,0,0,0,0,4.9,0,9.7,0,14.6.1,0,0,0,0,0,0,1.2.5,2.3,1,3.5,1.4-3.8-.4-7.6-1.1-11.3-.9-3.6.1-7.2,1.3-10.9,1.7-1.9.2-3.8,0-5.7,0,1.5-1.9,3.1-3.8,4.6-5.6Z"/>
        <path class="cls-19" d="M198.5,65.8c6.1.7,10.9-2.4,15.7-5.5.9-.6,1.6-1.3,2.7-2.2-1.6,3.3-6.8,6.9-11.9,8.3-1.3.4-2.8.5-4.1,1-.5.2-.7,1-1.1,1.5-.4-1-.9-2.1-1.3-3.1Z"/>
        <path class="cls-23" d="M180.8,151.5c0-4.3.4-8.7.2-13-.2-5.7-.8-11.4-1.2-17.1.6,1,1.1,1.9,1.7,2.9,0,1,.2,2,.2,3,0,.9,0,1.7,0,2.6.1,4,.3,8,.4,12.1,0,.9-.2,1.8-.3,2.8-.4,2.3-.8,4.6-1.1,6.8Z"/>
        <path class="cls-19" d="M99.2,68.9c.2-.3.4-.5.2-.3,0,9.1-.2,18.6-.3,28.1-2.2-4.8-1.5-9.8-1.2-14.9,0-1.5-.5-3-.7-4.5.2-1,.3-1.9.5-2.9.5-1.9,1-3.8,1.5-5.7h0Z"/>
        <path class="cls-14" d="M261.9,184.2c.4,2,.8,4,1.3,5.9-1.5,1.5-3,3-4.4,4.4.4-5,.8-9.7,1.1-14.4.7,1.3,1.4,2.7,2,4Z"/>
        <path class="cls-14" d="M65.2,90.8c.6-.1,1.2-.3,1.7-.4.3,1.4.7,2.9,1.1,4.4-.9,3.3-1.8,6.5-2.7,9.8-.3,0-.6,0-1,0,.3-4.6.6-9.2.9-13.8Z"/>
        <path class="cls-25" d="M92.1,91c1.3.3,2.2,2.8,3.8.5.2,0,.3.2.4.3,0,.2,0,.3,0,.5.2,1.8.4,3.5.6,5.3.1,1.7.3,3.4.4,5.1-.3.1-.6.2-.8.3-1.5-4-3-8-4.5-12Z"/>
        <path class="cls-9" d="M178.4,201.8c-.4,1.5-1.3,3-1.1,4.5.8,6.8,1.8,13.6,2.8,20.5.1,1,.2,2.1.4,3.2-.2.3-.4.5-.6.8-.2-.7-.5-1.3-.7-2-.2-.9-.4-1.7-.6-2.6,0,0,0,0,0,0,0-.6-.1-1.3-.2-1.9,0-.3-.1-.5-.2-.8-.6-6.9-1.2-13.7-1.8-20.6.7-.4,1.4-.7,2.1-1.1Z"/>
        <path class="cls-1" d="M188.6,239.1c2,.6,4,1.4,6.1,1.8,1.4.3,3.1.7,4.3.3,4.3-1.6,6.3-1.3,9.8,2.3,0,.3,0,.6,0,.9-3.3-3.5-6.9-3.7-11.1-1.4-1,.5-3-.5-4.4-1.1-1.6-.8-3-1.9-4.5-2.9Z"/>
        <path class="cls-19" d="M61.4,210.9c-2.3-7.5-1.4-15-.3-22.5.6-4,1.9-7.8,2.9-11.8,0,.5,0,1.1,0,1.6-1.1,7.7-2.2,15.5-3.3,23.2,0,.4,0,.9,0,1.3,0,.9,0,1.7,0,2.6.2,1.8.4,3.7.6,5.5Z"/>
        <path class="cls-19" d="M64.8,184.7c-.6,7.3-1.2,14.7-1.9,22,.4,2.1.9,4.2,1.3,6.3-.6-1.5-1.3-2.9-1.9-4.4-.4-1.1-.7-2.2-1-3.2,0-.4,0-.9,0-1.3.2-.9.4-1.7.6-2.6.5-5.5.9-11,1.4-16.4,0-.3.7-.6,1.1-.9,0,.2.1.4.2.5Z"/>
        <path class="cls-18" d="M64.6,184.2c-.4.3-1.1.6-1.1.9-.5,5.5-1,11-1.4,16.4-.4,0-.8,0-1.2,0,1.1-7.7,2.2-15.5,3.3-23.2.5.3,1,.6,1.4.9-.3,1.7-.6,3.3-.9,5Z"/>
        <path class="cls-19" d="M182.2,141.9c-.1-4-.3-8-.4-12.1.4-.4.8-.9,1.1-1.3-.2,7.3-.4,14.6-.6,22,0,.2,0,.4,0,.6-.2.2-.4.4-.6.7-.9,1.4-.5,2.1,1.2,2-1.5.5-2.9,1-4.4,1.5.5-.7.9-1.4,1.4-2h-.2c0-.1.2,0,.1,0,.3-.6.6-1.1.9-1.7,0,0,0,0,0,0,.4-2.3.8-4.6,1.1-6.8,0-.9.2-1.8.3-2.8Z"/>
        <path class="cls-19" d="M203.5,108.8c0-4,0-8.1-.3-12.1-.5-4.9-1.4-9.8-2.1-14.6,0-.1,0-.2,0-.3.1-.1.3-.2.4-.3.6,2.8,1.5,5.5,1.7,8.4.5,5.7.7,11.5.9,17.3,0,.6-.4,1.2-.6,1.8Z"/>
        <path class="cls-24" d="M158.4,16.7c-7.6-.2-15.2-.4-22.8-.6-2.5,0-5,0-7.5.1.8-.2,1.7-.4,2.5-.7,6.3,0,12.5-.2,18.8-.3.6,0,1.3,0,1.9,0,1.3.1,2.5.2,3.8.3,1.1.4,2.2.7,3.3,1.1Z"/>
        <path class="cls-23" d="M116.1,285.6c4.1.2,8.2.6,12.2.5,3,0,6-.9,9.1-1.4,1-.2,2.1-.2,3.1-.2-8,2.8-16.1,4.5-24.4,1.1Z"/>
        <path class="cls-15" d="M214,246.3c.6,0,1.3,0,1.9-.1,3,0,6,0,9,0,2.8.4,5.6.8,8.3,1.3.5,0,.9.7,1.3,1-5.5-.3-10.9-.7-16.4-1.1-1.4-.1-2.8-.5-4.3-.8,0-.1,0-.2,0-.4Z"/>
        <path class="cls-19" d="M175.8,226.8c-.6-3-1.1-6-1.7-9-.2-5.6-.3-11.1-.5-16.7.5,5.5,1.1,11,1.6,16.5.3,3.4.7,6.7,1.1,10.1-.2-.3-.4-.5-.5-.8Z"/>
        <path class="cls-19" d="M149.4,15.3c-6.3,0-12.5.2-18.8.3,2.4-.5,4.7-1.2,7.1-1.3,3.8-.2,7.5,0,11.3,0,.1,0,.3.7.4,1.1Z"/>
        <path class="cls-12" d="M173.6,201c.2,5.6.3,11.1.5,16.7-.5-2-1.2-4-1.3-6.1-.2-4.4,0-8.8,0-13.2,0-.5-.6-1.1-.8-1.6.7-.8,1.3-1.6,2-2.4,0,2.2-.1,4.4-.2,6.5h0Z"/>
        <path class="cls-19" d="M117.9,106c-1.8,6.8-3.8,13.5-2.9,20.6-.4-1.3-1.2-2.7-1.1-3.9.6-4.9,1.5-9.7,2.4-14.5.2-.8,1-1.5,1.6-2.2Z"/>
        <path class="cls-19" d="M176.3,202.9c.6,6.9,1.2,13.7,1.8,20.6-.6-2.2-1.4-4.3-1.7-6.5-.6-3.8-.9-7.6-1.1-11.4,0-.9.7-1.8,1-2.7Z"/>
        <path class="cls-15" d="M65.2,137.2c-2.6-7.5-2.6-15.1-.7-22.7.1-.3.3-.7.5-1.3.3.7.5,1.2.7,1.7-2.4,4-2.4,14.9,0,17.6,0,.2,0,.3,0,.5-.2,1.4-.3,2.8-.5,4.3Z"/>
        <path class="cls-19" d="M112.1,221.9c6.8,2.5,13.3.9,19.8-1.6-1.6.8-3.1,2.2-4.8,2.4-4.2.5-8.4.6-12.6.7-.8,0-1.6-1-2.4-1.6Z"/>
        <path class="cls-19" d="M183,122.7c.5,5.1,1.2,10.2,1.4,15.4.1,3.7-.4,7.4-.6,11.2-.3,0-.5,0-.8,0,.2-6.3.5-12.6.6-18.9,0-1-.4-2-.6-3,0-1.5,0-3,0-4.6Z"/>
        <path class="cls-15" d="M137.4,88.8c1.1-.5,2.2-1.6,3.2-1.5,5,.5,10.1,1.4,15.1,2.2.3,0,.5.6.7,1-5.7-1.5-11.4-3-17.3-2-.2,0-.4,0-.7.1-.3,0-.6.1-.9.2Z"/>
        <path class="cls-19" d="M213.7,158.8c.9-4.7,2-9.3,2.5-14,.2-1.9-.7-3.9-1.1-5.9.7,1.7,2,3.4,1.9,5.1-.3,4.4-1.2,8.8-2,13.2-.1.6-.9,1.1-1.4,1.6Z"/>
        <path class="cls-19" d="M39.7,93.7c0,1.6-.3,3.3-.3,4.9,0,4.8,0,9.6,0,14.4-.4-.9-1.3-1.9-1.3-2.8.1-5.2.4-10.4.7-15.6,0-.3.5-.6.8-.9Z"/>
        <path class="cls-18" d="M183,127.2c.2,1,.6,2,.6,3-.1,6.3-.4,12.6-.6,18.9-.2.4-.4.9-.7,1.3.2-7.3.4-14.6.6-22,0-.4,0-.9,0-1.3Z"/>
        <path class="cls-19" d="M86.9,74.2c.4-2.8.9-5.5,1.3-8.3,0,2.3-.2,4.6-.2,6.9,0,4.2-.1,8.4-.2,12.5-.3-3.7-.6-7.4-.9-11.1Z"/>
        <path class="cls-12" d="M108.5,257.7c.4.5.8,1.1,1.3,1.7-.4,1.7-3.7,2.2-2.5,4.8,0,.2,0,.5,0,.7-.8-.2-1.6-.4-2.4-.6l3.6-6.6Z"/>
        <path class="cls-19" d="M205,90.4c.5,4.4,1.1,8.8,1.4,13.3.2,2.7-.2,5.4-.3,8-.2-1.5-.4-2.9-.5-4.4-.2-5.6-.4-11.3-.6-16.9Z"/>
        <path class="cls-19" d="M139,88.5c6-1.1,11.7.5,17.3,2,0,0,0,0,0,0,.6.4,1.2.7,1.8,1.1-2-.4-3.9-.8-5.9-1.1-4.4-.7-8.8-1.3-13.2-1.9Z"/>
        <path class="cls-19" d="M204.2,194.8c0-4.5.1-9,.2-13.5,0-1.2,0-2.4,0-3.7,1.7,0,1.9.8,1.7,2.3-.7,5-1.2,9.9-1.8,14.9Z"/>
        <path class="cls-15" d="M114,269.9c-2.8-.6-5.5-1.3-8.6-2,.4,2.8.9,5.4,1.3,8.1-.8-2.9-1.6-5.8-2.4-8.7.3-.2.6-.4.9-.7,2.9,1.1,5.9,2.2,8.8,3.3Z"/>
        <path class="cls-19" d="M199.1,104c.2.5.4,1,.6,1.5-.2,6-.4,11.9-.6,17.9,0,.5-.5.9-.7,1.4.2-6.9.5-13.8.7-20.7h0Z"/>
        <path class="cls-9" d="M137.7,287.9c-1.2.6-2.4,1.6-3.7,1.7-3.5.3-7,.3-10.5.4,4.7-.7,9.4-1.4,14.2-2.1Z"/>
        <path class="cls-19" d="M230,250.7c-4.9-.3-9.8-.5-14.7-.8,4.9,0,9.9.2,14.8.2,0,0,0,.2,0,.3,0,0-.1.2-.2.3Z"/>
        <path class="cls-19" d="M153,93.3c-4.9,0-9.7,0-14.6-.1,3.2-2.3,11.9-2.2,14.6.1Z"/>
        <path class="cls-1" d="M64.6,184.2c.3-1.7.6-3.3.9-5,.2-.3.5-.7.8-1.2.6,1.9,1.2,3.6,1.7,5.4-.6-.6-1.3-1.2-1.7-1.6-.4.8-1,1.9-1.5,2.9,0-.2-.2-.3-.2-.5Z"/>
        <path class="cls-15" d="M158.1,91.5c-.6-.4-1.2-.7-1.8-1.1.9-.2,1.8-.4,2.6-.6.9.4,1.8.9,2.6,1.3.5.9,1.1,1.8,1.9,3.1-2.1-1-3.7-1.9-5.4-2.7Z"/>
        <path class="cls-24" d="M59.2,123c-.3-.3-.9-.7-.9-1,0-4.5,0-8.9,0-13.5.3.2.5.2.6.4.1.2.2.4.2.6,0,4.5,0,9,0,13.5Z"/>
        <path class="cls-15" d="M172.6,263.2c-3,.6-6,1.3-9,1.9,3.7-.9,7.4-1.8,11.1-2.7-.7.3-1.4.5-2.1.8Z"/>
        <path class="cls-19" d="M67.2,155c0,4.3.1,8.5.2,12.8,0,.1,0,.3,0,.3-.2,0-.4.1-.6.2,0-3.5,0-7,0-10.5,0-.9.3-1.8.5-2.7Z"/>
        <path class="cls-19" d="M138.5,93.1c-2.6.8-5.1,1.7-8.4,2.7,1.3-1.6,2.2-2.6,3-3.6.7.3,1.3.9,2,1,1.1.1,2.2,0,3.4-.1Z"/>
        <path class="cls-19" d="M106.6,249.7c1.6-.5,3.1-.9,4.7-1.4.6-.1,1.3-.2,1.9-.3.3,0,.6-.1.9-.2.1,0,.2.2.3.3-1.5.9-3,1.8-4.6,2.7-.6,0-1.1,0-1.7,0-.5-.4-1.1-.7-1.6-1.1Z"/>
        <path class="cls-15" d="M182.1,179c3.1.3,6.2.5,9.3.8-3.3,1.9-6.4,1.6-9.3-.8Z"/>
        <path class="cls-16" d="M214,246.3c0,.1,0,.2,0,.4-1.8-.7-3.5-1.4-5.3-2.1,0-.3,0-.6,0-.9.9.2,1.7.4,2.6.7.8.8,3.2-.5,2.6,2Z"/>
        <path class="cls-19" d="M90,71.7c0,3.6,0,7.2,0,10.8,0,.1,0,.2,0,.3-.1.1-.3.2-.4.3.2-3.8.4-7.6.6-11.5Z"/>
        <path class="cls-21" d="M29.4,120.3c-.5.3-1,.7-2.4,1.6.4-2.5.6-4.2.9-5.8.5,1.4,1,2.8,1.5,4.2Z"/>
        <path class="cls-19" d="M78.8,90.9c3,0,5.9,0,8.9,0-3,0-5.9,0-8.9,0Z"/>
        <path class="cls-19" d="M112.6,123.3c0-2.3.1-4.6.2-7,0,2.3-.1,4.6-.2,7Z"/>
        <path class="cls-19" d="M88.4,65.2c0-1.7.1-3.5.2-5.2.5,0,1-.1,1.5-.2-.6,1.8-1.1,3.6-1.7,5.4Z"/>
        <path class="cls-19" d="M183,202.7c-1.5-.4-3-.8-4.6-1.2,2-1.3,3.4-.7,4.6,1.2Z"/>
        <path class="cls-15" d="M104.9,264.3c.8.2,1.6.4,2.4.6,1.1.7,2.2,1.4,3.2,2-1.9-.9-3.7-1.7-5.6-2.6Z"/>
        <path class="cls-19" d="M91.1,63.9c-.3,2.1-.6,4.2-.8,6.4.3-2.1.6-4.2.8-6.4Z"/>
        <path class="cls-12" d="M120.2,247.9c-1.7,1.1-3.4,2.3-5.1,3.4,1.7-1.1,3.4-2.3,5.1-3.4Z"/>
        <path class="cls-19" d="M96.2,87.1c.2-2.4.5-4.8.7-7.3-.2,2.4-.5,4.8-.7,7.3Z"/>
        <path class="cls-23" d="M140.5,284.6c1.7-.7,3.4-1.4,5.1-2.2-1.7.7-3.4,1.4-5.1,2.2Z"/>
        <path class="cls-19" d="M173.6,201c0-2.2.1-4.4.2-6.5,0,2.2-.1,4.4-.2,6.5Z"/>
        <path class="cls-9" d="M123.6,290.1h-5.2c.1-.3.2-.5.3-.6.2-.1.4-.2.6-.2,1.4.3,2.9.5,4.3.8Z"/>
        <path class="cls-19" d="M90.3,84.6c.3,1.7.7,3.3,1,5-.3-1.7-.7-3.3-1-5Z"/>
        <path class="cls-19" d="M88.8,90.4c-.4-1.6-.8-3.3-1.2-4.9.4,1.6.8,3.3,1.2,4.9Z"/>
        <path class="cls-19" d="M67.3,147.3c0,1.9-.1,3.9-.2,5.8,0-1.9.1-3.9.2-5.8Z"/>
        <path class="cls-15" d="M110.5,266.9c1.5.6,3,1.3,4.5,1.9-1.5-.6-3-1.3-4.5-1.9Z"/>
        <path class="cls-19" d="M156.6,94.7c-1.2-.5-2.3-1-3.5-1.4,1.3.5,2.7,1,4,1.5-.2,0-.3,0-.5,0h0Z"/>
        <path class="cls-1" d="M179.8,230.7c.2-.3.4-.5.6-.8.4.7.9,1.3,1.3,2-.1.3-.2.6-.3.9-.6-.7-1.1-1.4-1.7-2.1Z"/>
        <path class="cls-19" d="M177.8,231.3c-.5-1.3-1-2.5-1.5-3.8.5,1.3,1,2.5,1.5,3.8Z"/>
        <path class="cls-13" d="M28.5,90.4c.5-1.3.9-2.6,1.4-3.9-.5,1.3-.9,2.6-1.4,3.9Z"/>
        <path class="cls-19" d="M64.7,214.4c.6,1.3,1.3,2.6,1.9,3.9-.6-1.3-1.3-2.6-1.9-3.9Z"/>
        <path class="cls-19" d="M137.4,88.8c.3,0,.6-.1.9-.2-1.1.6-2.2,1.1-3.3,1.7,0-.2,0-.3,0-.5.7-.4,1.4-.8,2.1-1.2,0,0,.1,0,.1,0Z"/>
        <path class="cls-19" d="M97,97.6c-.2-1.8-.4-3.5-.6-5.3.2,1.8.4,3.5.6,5.3Z"/>
        <path class="cls-1" d="M186,237.3c1.5-.3,2.7,0,2.6,1.9-.9-.6-1.8-1.3-2.6-1.9Z"/>
        <path class="cls-15" d="M193.3,179.1c1.1-.5,2.2-.9,3.3-1.4-1.1.5-2.2.9-3.3,1.4Z"/>
        <path class="cls-19" d="M96.3,91.8c-.1,0-.3-.2-.4-.3.1-1.5.3-3,.4-4.4,0,1.6,0,3.1,0,4.7Z"/>
        <path class="cls-15" d="M106.6,275.9c.7,1.1,1.3,2.2,2,3.3-.7-1.1-1.3-2.2-2-3.3Z"/>
        <path class="cls-19" d="M211.4,164.1c.4-.9.9-1.7,1.3-2.6-.4.9-.9,1.7-1.3,2.6Z"/>
        <path class="cls-15" d="M117.4,272c-1.2-.7-2.3-1.5-3.5-2.2,1.2.7,2.3,1.5,3.5,2.2Z"/>
        <path class="cls-19" d="M222.9,64.8c-.4-.9-.8-1.8-1.2-2.7.4.9.8,1.8,1.2,2.7Z"/>
        <path class="cls-19" d="M155.1,15.6c-1.3-.1-2.5-.2-3.8-.3,1.3.1,2.5.2,3.8.3Z"/>
        <path class="cls-15" d="M108.4,279.2c.7.8,1.4,1.7,2.1,2.5-.7-.8-1.4-1.7-2.1-2.5Z"/>
        <path class="cls-19" d="M181.7,127.2c0-1-.2-2-.2-3,0,1,.2,2,.2,3Z"/>
        <path class="cls-23" d="M165.7,99.2c-.8-.5-1.7-.9-2.5-1.4.8.5,1.7.9,2.5,1.4Z"/>
        <path class="cls-23" d="M156.6,94.7c.2,0,.3,0,.5,0,.9.5,1.8,1,2.7,1.4-1.1-.5-2.1-.9-3.2-1.4Z"/>
        <path class="cls-1" d="M70.8,189c-.4-.8-.9-1.7-1.3-2.5.4.8.9,1.7,1.3,2.5Z"/>
        <path class="cls-23" d="M179.8,121.4c-.4-.9-.7-1.8-1.1-2.7.4.9.7,1.8,1.1,2.7Z"/>
        <path class="cls-23" d="M178.7,118.6c-.5-.8-1-1.6-1.5-2.5.5.8,1,1.6,1.5,2.5Z"/>
        <path class="cls-19" d="M139,217c.9-.4,1.7-.9,2.6-1.3-.9.4-1.7.9-2.6,1.3Z"/>
        <path class="cls-19" d="M136.3,218.3c.9-.4,1.8-.9,2.7-1.3-.9.4-1.8.9-2.7,1.3Z"/>
        <path class="cls-21" d="M27.9,115.6c-.2-.6-.4-1.3-.6-1.9.2.6.4,1.3.6,1.9Z"/>
        <path class="cls-19" d="M204.9,198.7c-.3-1.3-.7-2.5-1-3.8.3,1.3.7,2.5,1,3.8Z"/>
        <path class="cls-1" d="M183.5,235.2c.6.5,1.2,1,1.7,1.5-.6-.5-1.2-1-1.7-1.5Z"/>
        <path class="cls-19" d="M115.7,246.8c.2,0,.4,0,.6,0-.6.4-1.3.9-1.9,1.3-.1,0-.2-.2-.3-.3.5-.3,1.1-.7,1.6-1Z"/>
        <path class="cls-19" d="M212.7,161.5c.4-.9.7-1.8,1.1-2.8-.4.9-.7,1.8-1.1,2.8Z"/>
        <path class="cls-12" d="M170.6,198.2c-.6.5-1.2,1-1.9,1.5.6-.5,1.2-1,1.9-1.5Z"/>
        <path class="cls-19" d="M179.1,233.8c-.4-.8-.9-1.7-1.3-2.5.4.8.9,1.7,1.3,2.5Z"/>
        <path class="cls-19" d="M113.7,112.3c.2-1.2.5-2.4.7-3.6-.2,1.2-.5,2.4-.7,3.6Z"/>
        <path class="cls-23" d="M175.4,112.9c-.5-.7-.9-1.4-1.4-2.1.5.7.9,1.4,1.4,2.1Z"/>
        <path class="cls-24" d="M161.7,17.3c-.9-.2-1.7-.4-2.6-.6.9.2,1.7.4,2.6.6Z"/>
        <path class="cls-23" d="M161.8,97.2c-.7-.3-1.4-.7-2.1-1,.7.3,1.4.7,2.1,1Z"/>
        <path class="cls-19" d="M39.6,113.3c.2,1,.5,1.9.7,2.9-.2-1-.5-1.9-.7-2.9Z"/>
        <path class="cls-23" d="M149.4,280.6c.7-.4,1.4-.7,2.1-1.1-.7.4-1.4.7-2.1,1.1Z"/>
        <path class="cls-19" d="M133.7,219.5c.7-.4,1.4-.7,2.1-1.1-.7.4-1.4.7-2.1,1.1Z"/>
        <path class="cls-24" d="M164.6,18c-1-.2-2-.5-2.9-.7,1,.2,2,.5,2.9.7Z"/>
        <path class="cls-13" d="M30.5,84.7c.2-.6.5-1.2.7-1.8-.2.6-.5,1.2-.7,1.8Z"/>
        <path class="cls-19" d="M197.2,63.5c.4.8.8,1.5,1.2,2.3-.4-.8-.8-1.5-1.2-2.3Z"/>
        <path class="cls-19" d="M43.9,124.7c.2.5.4.9.7,1.4-.2-.5-.4-.9-.7-1.4Z"/>
        <path class="cls-19" d="M88.5,60c-.4.7-.8,1.3-1.2,2,.4-.7.8-1.3,1.2-2Z"/>
        <path class="cls-15" d="M116.3,269.5c.7.5,1.4,1.1,2,1.6-.7-.5-1.4-1.1-2-1.6Z"/>
        <path class="cls-18" d="M61.5,204.1c0,.4,0,.9,0,1.3-.2,0-.4,0-.6,0,0-.9,0-1.7,0-2.6l.7,1.3Z"/>
        <path class="cls-19" d="M178.4,226.1c.2.9.4,1.7.6,2.6-.2-.9-.4-1.7-.6-2.6Z"/>
        <path class="cls-19" d="M113.1,114.9c.2-.9.4-1.8.6-2.6-.2.9-.4,1.8-.6,2.6Z"/>
        <path class="cls-13" d="M29.9,86.6c.2-.7.5-1.3.7-2-.2.7-.5,1.3-.7,2Z"/>
        <path class="cls-3" d="M101.3,106.4c.3.8.5,1.6.8,2.4-.3-.8-.5-1.6-.8-2.4Z"/>
        <path class="cls-19" d="M40.2,116.2c.2.7.5,1.3.7,2-.2-.7-.5-1.3-.7-2Z"/>
        <path class="cls-19" d="M40.9,118.1c.2.7.5,1.3.7,2-.2-.7-.5-1.3-.7-2Z"/>
        <path class="cls-19" d="M66,140.8c.3.6.5,1.3.8,1.9-.3-.6-.5-1.3-.8-1.9Z"/>
        <path class="cls-15" d="M191.6,179.9c.6-.3,1.2-.6,1.9-.9-.6.3-1.2.6-1.9.9Z"/>
        <path class="cls-1" d="M68.9,185.2c-.3-.6-.6-1.2-.9-1.8.3.6.6,1.2.9,1.8Z"/>
        <path class="cls-19" d="M131.9,220.3c.6-.3,1.2-.6,1.8-.8-.6.3-1.2.6-1.8.8Z"/>
        <path class="cls-19" d="M110,220.5c.5.3.9.6,1.4.9-.5-.3-.9-.6-1.4-.9Z"/>
        <path class="cls-9" d="M226.3,223.4c-.4-.3-.9-.6-1.3-.9.4.3.9.6,1.3.9Z"/>
        <path class="cls-19" d="M178.3,224.2c0,.6.1,1.3.2,1.9,0-.6-.1-1.3-.2-1.9Z"/>
        <path class="cls-19" d="M116.3,246.8c.4-.2.8-.5,1.1-.7-.4.2-.8.5-1.1.7Z"/>
        <path class="cls-23" d="M155,277.5c.5-.3,1-.7,1.5-1-.5.3-1,.7-1.5,1Z"/>
        <path class="cls-15" d="M110.6,281.7c.4.4.8.9,1.3,1.3-.4-.4-.8-.9-1.3-1.3Z"/>
        <path class="cls-9" d="M140.6,287.3l-2.1.4,2.1-.4Z"/>
        <path class="cls-23" d="M163.9,271.7c.4-.3.7-.6,1.1-.9-.4.3-.7.6-1.1.9Z"/>
        <path class="cls-23" d="M177.3,116.1c-.2-.4-.5-.9-.7-1.3.2.4.5.9.7,1.3Z"/>
        <path class="cls-23" d="M176.1,114.1c-.3-.4-.5-.8-.8-1.2.3.4.5.8.8,1.2Z"/>
        <path class="cls-19" d="M179.8,235c-.2-.4-.4-.8-.7-1.1.2.4.4.8.7,1.1Z"/>
        <path class="cls-23" d="M151.6,279.5c.4-.2.8-.5,1.2-.7-.4.2-.8.5-1.2.7Z"/>
        <path class="cls-19" d="M77.2,91.6c.5-.2,1.1-.5,1.6-.7-.5.2-1.1.5-1.6.7Z"/>
        <path class="cls-15" d="M111.8,283c.4.3.7.6,1.1.9-.4-.3-.7-.6-1.1-.9Z"/>
        <path class="cls-22" d="M258.7,131c.2.2.3.5.5.7-.2-.2-.3-.5-.5-.7Z"/>
        <path class="cls-1" d="M181.4,232.7c.3.4.6.8.9,1.2-.3-.4-.6-.8-.9-1.2Z"/>
        <path class="cls-15" d="M115.1,268.8c.4.2.9.5,1.3.7-.4-.2-.9-.5-1.3-.7Z"/>
        <path class="cls-19" d="M118.6,104.1c-.1.4-.2.8-.4,1.1.1-.4.2-.8.4-1.1Z"/>
        <path class="cls-22" d="M258,129.1c.2.4.4.9.6,1.3-.2-.4-.4-.9-.6-1.3Z"/>
        <path class="cls-19" d="M119.2,102.8c-.2.5-.5.9-.7,1.4.2-.5.5-.9.7-1.4Z"/>
        <path class="cls-23" d="M160.1,274.3c.3-.3.7-.5,1-.8-.3.3-.7.5-1,.8Z"/>
        <path class="cls-23" d="M162.1,273c.3-.3.6-.6.9-.8-.3.3-.6.6-.9.8Z"/>
        <path class="cls-23" d="M148.1,281.2c.5-.2.9-.5,1.4-.7-.5.2-.9.5-1.4.7Z"/>
        <path class="cls-23" d="M158.2,275.6c.3-.3.7-.6,1-.8-.3.3-.7.6-1,.8Z"/>
        <path class="cls-23" d="M146.9,281.9c.4-.2.9-.5,1.3-.7-.4.2-.9.5-1.3.7Z"/>
        <path class="cls-23" d="M163.1,97.8c-.4-.2-.8-.4-1.3-.6.4.2.8.4,1.3.6Z"/>
        <path class="cls-19" d="M42.8,122.6c.3.4.5.9.8,1.3-.3-.4-.5-.9-.8-1.3Z"/>
        <path class="cls-23" d="M145.5,282.4c.5-.2.9-.4,1.4-.6-.5.2-.9.4-1.4.6Z"/>
        <path class="cls-19" d="M42.2,121.3c.2.5.4.9.6,1.4-.2-.5-.4-.9-.6-1.4Z"/>
        <path class="cls-19" d="M41.5,120c.2.4.5.9.7,1.3-.2-.4-.5-.9-.7-1.3Z"/>
        <path class="cls-23" d="M153.8,278.2c.3-.2.6-.4.9-.6-.3.2-.6.4-.9.6Z"/>
        <path class="cls-15" d="M174.7,262.6c.5-.3,1-.6,1.5-.9-.5.3-1,.6-1.5.9Z"/>
        <path class="cls-9" d="M229.5,224.9c-.4-.1-.7-.2-1.1-.4.4.1.7.2,1.1.4Z"/>
        <path class="cls-9" d="M228.3,224.6c-.5-.3-.9-.6-1.4-.9.5.3.9.6,1.4.9Z"/>
        <path class="cls-19" d="M66.7,218.3c.3.4.7.9,1,1.3-.3-.4-.7-.9-1-1.3Z"/>
        <path class="cls-19" d="M141.5,215.7c.4-.3.9-.5,1.3-.8-.4.3-.9.5-1.3.8Z"/>
        <path class="cls-19" d="M64.2,213c.2.5.4,1,.5,1.4-.2-.5-.4-1-.5-1.4Z"/>
        <path class="cls-1" d="M57.2,213c-.3-.4-.6-.8-.8-1.2.3.4.6.8.8,1.2Z"/>
        <path class="cls-1" d="M72.2,191.1c-.3-.4-.6-.9-.9-1.3.3.4.6.9.9,1.3Z"/>
        <path class="cls-1" d="M69.5,186.4c-.2-.4-.5-.8-.7-1.2.2.4.5.8.7,1.2Z"/>
        <path class="cls-22" d="M197,180.7c.3,0,.7-.2,1-.3-.2.2-.4.5-.6.7-.1-.2-.3-.3-.4-.5Z"/>
        <path class="cls-15" d="M196.6,177.8c.5-.2.9-.5,1.4-.7-.5.2-.9.5-1.4.7Z"/>
        <path class="cls-15" d="M198.6,176.6c.4-.3.9-.6,1.3-.8-.4.3-.9.6-1.3.8Z"/>
        <path class="cls-19" d="M64,176.4c.2-.5.4-1.1.7-1.6-.2.5-.4,1.1-.7,1.6Z"/>
        <path class="cls-12" d="M114.4,251.8c-.4.3-.8.5-1.2.8.4-.3.8-.5,1.2-.8Z"/>
        <path class="cls-12" d="M109.3,256.4c-.2.4-.5.9-.7,1.3.2-.4.5-.9.7-1.3Z"/>
        <path class="cls-19" d="M75.7,92.5c.1-.2.3-.3.5-.3-.2,0-.3.2-.5.3Z"/>
        <path class="cls-19" d="M76.2,92.2c.3-.2.5-.4.8-.5-.3.2-.5.4-.8.5Z"/>
        <path class="cls-19" d="M133.7,91.6c.2-.2.5-.5.7-.7-.2.2-.5.5-.7.7Z"/>
        <path class="cls-19" d="M134.4,91c0-.2.1-.4.2-.6.2,0,.4,0,.5,0-.2.2-.5.4-.7.7Z"/>
        <path class="cls-23" d="M161.1,273.5c.2-.1.5-.2.7-.4-.2.1-.5.2-.7.4Z"/>
        <path class="cls-23" d="M159.2,274.7c.3-.1.5-.3.8-.4-.3.1-.5.3-.8.4Z"/>
        <path class="cls-23" d="M157.2,276c.3-.1.5-.3.8-.4-.3.1-.5.3-.8.4Z"/>
        <path class="cls-1" d="M185.3,236.6c.3.2.5.4.8.7-.3-.2-.5-.4-.8-.7Z"/>
        <path class="cls-23" d="M156.5,276.5c.3-.2.5-.4.8-.5-.3.2-.5.4-.8.5Z"/>
        <path class="cls-23" d="M152.8,278.7c.2-.1.4-.3.6-.4-.2.1-.4.3-.6.4Z"/>
        <path class="cls-1" d="M182.9,234.5c.2.2.4.5.7.7-.2-.2-.4-.5-.7-.7Z"/>
        <path class="cls-12" d="M110.5,255.1c-.2.2-.5.5-.7.7.2-.2.5-.5.7-.7Z"/>
        <path class="cls-15" d="M113,283.7c.2.3.5.6.7.8-.2-.3-.5-.6-.7-.8Z"/>
        <path class="cls-9" d="M279.5,143c0,.2,0,.3,0,.5-.1-.1-.3-.3-.4-.4.1-.1.2-.1.4,0Z"/>
        <path class="cls-9" d="M280.5,142.7c-.3.2-.5.3-.8.5.3-.2.5-.3.8-.5Z"/>
        <path class="cls-19" d="M111.3,221.4c.3.2.6.3.8.5-.3-.2-.6-.3-.8-.5Z"/>
        <path class="cls-22" d="M202.4,129.9c-.1,0-.2.1-.4.2,0-.1.1-.3.2-.4,0,0,.2.2.2.2Z"/>
        <path class="cls-12" d="M120.9,247.4c-.2.2-.5.4-.7.6.2-.2.5-.4.7-.6Z"/>
        <path class="cls-12" d="M111.2,254.5c-.2.2-.5.5-.7.7.2-.2.5-.5.7-.7Z"/>
        <path class="cls-12" d="M171.3,197.6c-.2.2-.5.5-.7.7.2-.2.5-.5.7-.7Z"/>
        <path class="cls-12" d="M171.9,196.9c-.2.2-.5.5-.7.7.2-.2.5-.5.7-.7Z"/>
        <path class="cls-1" d="M71.3,189.8c-.2-.3-.4-.5-.6-.8.2.3.4.5.6.8Z"/>
        <path class="cls-22" d="M187.5,184.1c0,0,.2-.2.2-.3,0,0,0,.1,0,.2,0,0-.1,0-.2,0,0,0,0,0,0,0Z"/>
        <path class="cls-12" d="M111.8,253.8c-.2.2-.4.5-.7.7.2-.2.4-.5.7-.7Z"/>
        <path class="cls-15" d="M197.9,177.1c.3-.2.6-.4.8-.6-.3.2-.6.4-.8.6Z"/>
        <path class="cls-23" d="M164.9,270.8c.3-.2.7-.5,1-.7-.3.2-.7.5-1,.7Z"/>
        <path class="cls-23" d="M176.6,114.9c-.2-.3-.3-.6-.5-.8.2.3.3.6.5.8Z"/>
        <path class="cls-12" d="M112.5,253.2c-.2.2-.5.5-.7.7.2-.2.5-.5.7-.7Z"/>
        <path class="cls-19" d="M206.1,112.4c.1.2.1.4,0,.6,0-.1-.1-.3-.2-.4,0,0,.1-.1.2-.2Z"/>
        <path class="cls-12" d="M109.9,255.8c-.2.2-.5.5-.7.7.2-.2.5-.5.7-.7Z"/>
        <path class="cls-23" d="M163,272.1c.3-.2.5-.3.8-.5-.3.2-.5.3-.8.5Z"/>
        <path class="cls-12" d="M115.1,251.3c-.2.2-.5.4-.7.6.2-.2.5-.4.7-.6Z"/>
        <path class="cls-19" d="M120,102.1c-.3.3-.6.5-.9.8.3-.3.6-.5.9-.8Z"/>
        <path class="cls-18" d="M181.7,151.7c.2-.2.4-.4.6-.7-.2.2-.4.4-.6.7Z"/>
        <path class="cls-23" d="M166.3,100c-.2-.3-.4-.5-.7-.8.2.3.4.5.7.8Z"/>
        <path class="cls-22" d="M223,145.9c.1,0,.2-.2.3-.2,0,.1-.1.2-.2.3,0,0,0,0,0,0Z"/>
        <path class="cls-13" d="M14.2,89.6c.3-.3.4-.5.6-.7.2.2.4.4.5.7,0,.1-.2.5-.3.5-.3,0-.5-.3-.8-.5Z"/>
        <path class="cls-13" d="M25.9,93.6c0-.3.2-.5.2-.8,0,.3-.2.5-.2.8h0Z"/>
        <path class="cls-13" d="M16.9,89.1c0,0,.2,0,.2.1,0,0-.2,0-.2-.1h0Z"/>
        <path class="cls-13" d="M16.9,89.1c0,0-.2,0-.2-.1,0,0,.2,0,.2.1,0,0,0,0,0,0Z"/>
        <path class="cls-19" d="M169.6,285.8c9.7-9,19.5-18,29.2-27-8.7,10-17.5,20-28.7,27.6-.2-.2-.4-.4-.5-.6Z"/>
        <path class="cls-9" d="M94.4,282.7c0-5.9,0-11.9.1-17.8.2.9.6,1.8.5,2.7-.2,5-.4,10-.6,15.1Z"/>
        <path class="cls-18" d="M106.6,249.7c.5.4,1.1.7,1.6,1.1,0,0-.1,0-.1,0-.3.2-.5.4-.8.7,0,0-.2,0-.2,0-1.4.5-2.8.9-4.2,1.4,0,0,0,0,0,0-1.1,0-2.2,0-3.3,0,0,0,0,0,0,0,1.5-.7,2.9-1.5,4.4-2.2,0,0,0,.1,0,.1.9-.3,1.7-.5,2.6-.8h0Z"/>
        <path class="cls-19" d="M170.1,286.3c-1.3.9-2.6,1.7-3.9,2.6-.2-.2-.4-.4-.6-.6,1.3-.9,2.6-1.7,3.9-2.6.2.2.4.4.5.6Z"/>
        <path class="cls-19" d="M99.6,252.6c1.1,0,2.2,0,3.3,0-1.5.5-3,.9-4.5,1.4.4-.5.8-1,1.2-1.5Z"/>
        <path class="cls-19" d="M166.3,288.9c-1.1.6-2.2,1.3-3.2,1.9-.2-.2-.3-.3-.5-.5,1.1-.7,2.1-1.3,3.2-2,.2.2.4.4.6.6Z"/>
        <path class="cls-19" d="M102.8,252.7c1.4-.5,2.8-.9,4.2-1.4-1.4.5-2.8.9-4.2,1.4Z"/>
        <path class="cls-19" d="M161,292.1c-.2-.2-.4-.4-.7-.5.7-.4,1.4-.8,2.2-1.2.2.2.3.3.5.5-.7.4-1.3.8-2,1.2Z"/>
        <path class="cls-19" d="M200.4,257.1c-.4.5-.8.9-1.1,1.4l-.5-.3c.4-.5.7-1,1.1-1.5.2.2.3.3.5.5Z"/>
        <path class="cls-19" d="M97.7,254.5c.2-.2.5-.4.7-.6-.2.2-.5.4-.7.6Z"/>
        <path class="cls-19" d="M107.3,251.4c.3-.2.5-.4.8-.7-.3.2-.5.4-.8.7Z"/>
        <path class="cls-19" d="M251.4,49.7c-.2.5-.5,1-.7,1.4-4.5-2.3-9-4.7-12.8-6.6,4.8-.9,9,2.6,13.5,5.2Z"/>
        <path class="cls-13" d="M7.6,125.1c0,.2-.1.4-.2.5-.1,0-.4,0-.5-.2,0-.1,0-.4.2-.5.1,0,.3.1.5.2Z"/>
        <path class="cls-9" d="M46.2,172.4c-.1-.1-.2-.2-.3-.4.2,0,.4,0,.6-.1,0,0,.1.1.2.2-.2,0-.3.2-.5.3Z"/>
        <path class="cls-10" d="M36.5,128.3c0,.2.2.5.3.7-.2-.1-.4-.2-.7-.3.1-.1.2-.2.4-.4Z"/>
        <path class="cls-13" d="M9.1,124.6c0,0,.2.1.3.2,0,0-.2,0-.3-.1,0,0,0,0,0,0Z"/>
        <path class="cls-9" d="M44,178.3c0,0,0-.2.1-.3,0,0,0,.2-.1.2h0Z"/>
        <path class="cls-9" d="M47.9,173.1c0,0,0,.2-.1.3,0,0,0-.2.1-.3h0Z"/>
        <path class="cls-9" d="M47.9,173.1c0,0,0-.2.1-.3,0,0,0,.2-.1.3,0,0,0,0,0,0Z"/>
        <path class="cls-16" d="M113.1,246.2q-1.8-1.4.4-2.5c-.1.9-.3,1.7-.4,2.5,0,0,0,0,0,0Z"/>
        <path class="cls-16" d="M115.7,246.8c-.5.3-1.1.7-1.6,1-.3,0-.6.1-.9.2,0-.6,0-1.2,0-1.8,0,0,0,0,0,0,.8.2,1.7.4,2.5.6Z"/>
        <path class="cls-16" d="M25.4,219.8c0,0,0,.2,0,.2,0,0-.2,0-.2,0,0,0,0-.2,0-.2,0,0,.2,0,.2,0Z"/>
        <path class="cls-9" d="M84.7,226.1v.3c0,0,0-.2,0-.2,0,0,0,0,0,0Z"/>
        <path class="cls-16" d="M29.1,166.7c-.5,1.7-.8,3.5-1.5,5.2-.7,1.6-1.8,3.1-2.5,4.7-.2.6.1,1.5.4,2.1.4,1,1.1,1.9,1.6,2.8-1.7-.8-4.2-1.2-5-2.6-.7-1.3.3-3.6.8-5.4.5-1.9,1.2-3.6,2-5.4.7-1.6,1.4-3.1,2.2-4.7.6,1.1,1.3,2.1,1.9,3.2,0,0,0,.2-.1.3,0,0,0-.2.1-.3Z"/>
        <path class="cls-16" d="M25.9,157c2,.5,2.4,1.5,1.3,3.2-.4-1.1-.9-2.1-1.3-3.2Z"/>
        <path class="cls-16" d="M53.7,211.2c0-.3.2-.5.2-.8,0,.3-.2.5-.2.8,0,0,0,0,0,0Z"/>
        <path class="cls-9" d="M281.9,186.5c-.3-.4-.7-.8-1-1.2.1-.1.3-.2.4-.4.3.4.7.8,1,1.1-.1.1-.3.3-.4.4Z"/>
        <path class="cls-19" d="M104,250.4c-1.5.7-2.9,1.5-4.4,2.2-8.5.6-16.9,1.3-25.4,1.9-1.3,0-2.5-.1-3.8-.2,6.7-.6,13.4-1.2,20.1-1.8,4.5-.7,9-1.4,13.5-2.1Z"/>
        <path class="cls-15" d="M90.5,252.5c-6.7.6-13.4,1.2-20.1,1.8,0,0,0,0,0,0-.8.1-1.6.2-2.4.3,1.1-.5,2.2-1.4,3.3-1.5,6.4-.3,12.8-.5,19.2-.7Z"/>
        <path class="cls-19" d="M68,254.6c.8-.1,1.6-.2,2.4-.3-2.3.9-4.7,1.9-7,2.8,0,0,0,0,0,0,0-.2,0-.3.1-.5,0,0,0,0,0,0,.5-.2,1-.4,1.5-.6.3-.2.7-.4,1-.7.7-.2,1.4-.4,2-.6,0,0,0,0,0,0Z"/>
        <path class="cls-19" d="M59.5,259.7c0-.1,0-.2.1-.4.4-.3.8-.6,1.2-.9.2-.2.5-.4.7-.5,0,0,0,0,0,0,.6-.3,1.2-.6,1.8-.8,0,0,0,0,0,0-1.3.9-2.6,1.7-3.8,2.6Z"/>
        <path class="cls-1" d="M41.9,234.1c.2,0,.3.1.5.2,0,.2-.1.4-.2.5-.1,0-.3-.1-.5-.2,0-.2.1-.3.2-.5Z"/>
        <path class="cls-23" d="M63.3,257.1c-.6.3-1.2.6-1.8.8.6-.4,1.3-.9,1.9-1.3,0,.2,0,.3-.1.5Z"/>
        <path class="cls-19" d="M106.6,249.7c-.9.3-1.7.5-2.6.8.9-.3,1.7-.5,2.6-.8Z"/>
        <path class="cls-15" d="M68,254.6c-.7.2-1.4.4-2,.6.7-.2,1.4-.4,2-.6Z"/>
        <path class="cls-23" d="M60.2,257.8c-.3-.2-.6-.4-.8-.6,0,0,.1-.1.2-.2.2.3.4.5.6.8,0,0,0,0,0,0Z"/>
        <path class="cls-23" d="M65,255.9c-.5.2-1,.4-1.5.6.5-.2,1-.4,1.5-.6Z"/>
        <path class="cls-23" d="M61.6,257.9c-.2.2-.5.4-.7.5-.2-.2-.5-.4-.7-.7,0,0,0,0,0,0,.5,0,.9,0,1.4.1Z"/>
        <path class="cls-23" d="M50.5,255.2c0,0,0-.2.1-.3,0,0,0,.2-.1.2h0Z"/>
        <path class="cls-19" d="M67.9,257.9c2.7-.8,5.3-2.1,8-2.3,3.5-.3,7.1,0,10.7.2-6.2.7-12.4,1.4-18.7,2.2Z"/>
        <path class="cls-19" d="M88,255.7c1.5-2.1,3.3-1.2,5.1-.6-1.7.2-3.4.4-5.1.6Z"/>
        <path class="cls-19" d="M62.1,261c.8-2.2,2.5-2.7,4.6-2.5-1.5.8-3,1.7-4.6,2.5Z"/>
        <path class="cls-19" d="M96.8,254.5c-.2,0-.4,0-.6.1-.6,0-1.1,0-1.7,0,.8,0,1.5,0,2.3-.1Z"/>
        <path class="cls-19" d="M66.7,258.5c.5-.2.9-.4,1.4-.7-.4.2-.9.4-1.4.7Z"/>
        <path class="cls-16" d="M225,246.1c-3,0-6,0-9,0,0-6.3,3.6-10.4,8.1-14,6.8,4.5,15.9,2.1,22.3-2.1,0,2.6.1,5.1.2,8.4-1.9-.4-4.5-1.2-7.2-1.4-1.8-.2-3.8.3-5.6.7-1.3.3-2.6,1-4.2,1.6-2.2-1.9-6.3-1.2-7.3,1.7,1.2.6,2.3,1.1,4.4,2.1-3.2.6-3.6,1.6-1.7,3.1Z"/>
        <path class="cls-16" d="M246.3,229.3c2-3.2,5.9-4,9.7-1.9-.4.5-1.1,1.6-1.2,1.5-2.9-1.7-5.7-.2-8.5.4Z"/>
        <path class="cls-2" d="M14.1,103.1c0,0,0-.2,0-.2,0,0,.2,0,.2.1,0,0,0,.1,0,.2,0,0-.2,0-.3,0Z"/>
        <path class="cls-2" d="M11,94.9c0,0,.2,0,.3.1,0,0-.2,0-.3-.1,0,0,0,0,0,0Z"/>
        <path class="cls-21" d="M271.6,105.2c-.3-2.7-.6-5.5-.7-8.2-.4-6.5-.7-13-1-19.5.6,1.5,1.5,3,1.6,4.5.4,7,.5,14.1.7,21.1,0,.7-.4,1.4-.6,2.1Z"/>
        <path class="cls-1" d="M23.6,216.8c-.2,0-.3,0-.3.1,0,0,0-.2,0-.2.1,0,.2,0,.4.1Z"/>
        <path class="cls-1" d="M19.5,216.4c0,0,.2,0,.3.1,0,0-.2,0-.3-.1,0,0,0,0,0,0Z"/>
        <path class="cls-9" d="M255.3,224.2c0,0,0,.2-.1.3,0,0,0-.2.1-.2,0,0,0,0,0,0Z"/>
        <path class="cls-9" d="M265,220.3c-.2,0-.4,0-.6,0,0,0,0,0,0,0,.2,0,.4,0,.7,0,0,0,0,0,0,0Z"/>
        <path class="cls-1" d="M265,220.3c-.2,0-.4,0-.7,0,.1-.3.2-.5.3-.8.1.3.2.5.3.8Z"/>
        <path class="cls-23" d="M23.4,155.2c0,0,0,.2,0,.2,0,0-.2,0-.2,0,0,0,0-.2,0-.2,0,0,.2,0,.2,0Z"/>
        <path class="cls-21" d="M10.4,145.3c0,.4,0,.8,0,1.3h-.4c.2-.5.3-.9.5-1.2,0,0,0,0,0,0Z"/>
        <path class="cls-19" d="M57.2,261.6c.5-.4,1.1-.9,1.6-1.3-.5.4-1.1.9-1.6,1.3Z"/>
        <path class="cls-19" d="M58.8,260.3c.2-.2.5-.4.7-.6-.2.2-.5.4-.7.6Z"/>
        <path class="cls-19" d="M147.7,28.6c-8.5-5-17.4-7.7-27.5-4.7,5.7-6,21.1-3.3,27.5,4.7Z"/>
        <path class="cls-24" d="M121.9,60.8c-.5,6.6-2.2,10.4-5.9,13.3-2.5-4.3.7-11.9,5.9-13.3Z"/>
        <path class="cls-24" d="M180.3,56.6c3.1-.3,8.6,8.7,7.9,12.9-4.8-3.3-5.3-8.6-7.9-12.9Z"/>
        <path class="cls-24" d="M185.7,54.1c3.7,2.2,7.2,10.5,5.8,13.7-3.8-3.8-4.8-8.5-5.8-13.7Z"/>
        <path class="cls-24" d="M69.2,59.4c0,4-2.3,6.8-4.4,9.8-.4.5-.6,1.2-1.3,2.7-.4-1.7-1.1-3-.7-3.9,1.3-3.4,1.7-7.6,6.3-8.6h0Z"/>
        <path class="cls-19" d="M152.2,29.1c-1.7-5-5-8.3-10.9-9.5,5.3-1.8,9.5,2.2,10.9,9.5Z"/>
        <path class="cls-3" d="M121.2,71.6c.5-1.6.6-3,1.3-4,.7-1,1.9-1.6,2.9-2.3.2,1,.8,2,.6,2.9-.9,3.3-2.8,4.4-4.7,3.5Z"/>
        <path class="cls-24" d="M180.5,67c-.9-1.9-1.8-3.8-2.7-5.7,3.3.7,4.1,2.7,3.7,5.3-.3.1-.6.3-1,.4Z"/>
        <path class="cls-3" d="M99.2,68.9c-.5,1.9-1,3.8-1.5,5.7.5-1.9,1-3.8,1.5-5.7Z"/>
        <path class="cls-24" d="M45,74.1c0,.2-.1.5-.2.5-.1,0-.3-.1-.5-.2,0-.2.1-.5.2-.5.1,0,.3.1.5.2Z"/>
        <path class="cls-10" d="M165.8,66.7c-.1-.4-.2-.7-.3-1.1.1,0,.2,0,.4-.1.1.3.3.6.4.9-.1.1-.3.3-.4.4Z"/>
        <path class="cls-24" d="M176.8,59.6c0-.2,0-.3,0-.3,0,0,.1,0,.2,0,0,.1,0,.2-.1.4Z"/>
        <path class="cls-24" d="M69.2,59.4c0,0,0-.2.1-.2,0,0,0,.2-.1.3,0,0,0,0,0,0Z"/>
        <path class="cls-10" d="M97.9,47.3c-.2.3-.3.5-.5.8-.2-.2-.3-.3-.5-.5.2-.2.5-.4.7-.6,0,.1.2.2.3.3Z"/>
        <path class="cls-10" d="M97.6,47c.1-.2.3-.3.4-.5,0,.3,0,.5,0,.8-.1,0-.2-.2-.3-.3Z"/>
        <path class="cls-19" d="M199.1,104c0,0-.1-.1-.2-.2,0,0,.1.1.2.2,0,0,0,0,0,0Z"/>
        <path class="cls-15" d="M142.3,153.1c-4.7-4.7-7.9-10.2-7.1-17.2.3-2.7,1.2-5.3,1.9-8,0-.1,0-.2.1-.3,0,0-.1.2-.2.3-.7.6-1.4,1.2-2,1.8,0-.4.1-.8.2-1.2,0,0,0,0,0,0,1.1-1.4,2.1-2.8,3.2-4.2.7.3,1.9,1.1,2,.9,2-2.4,4.6-2.2,7.3-1.9,0,.2-.1.4-.3.6,0,0,0,0,0,0-.7.4-1.3.9-2,1.3,0,0,0,0,0,0-.2.2-.5.5-.7.7h0c-.2.2-.4.4-.7.7,0,0,0,0,0,0-.3.4-.6.8-.8,1.2,0,0,0,0,0,0-3.5,5.9-3,12.2-1.4,18.4.9,3.4,3,6.2,6.9,6.2,4.1,0,8.2-.5,10.3-5h0c.4-1.5.8-3,1.2-4.5,0-.2,0-.4,0-.6.2-.4.3-.9.5-1.3,0-2.6,0-5.3,0-7.9,0-.4.2-.8.3-1.1,1.5,1.4,3,2.8,4.6,4.2.4-1.1.7-2,.9-2.9,1.1,3.9.4,7.8-.6,11.6-.8.3-1.5.2-2.2,1.4-1.5,2.9-4,5.3-6,7.9-3,.3-6.1.8-9.1.8-2,0-3.9-.8-5.9-1.2,0,0,0,0,0,0-.2-.2-.4-.4-.6-.6Z"/>
        <path class="cls-10" d="M111.8,204.2c-1.7-1.1-3.9-1.7-5-3.2-4-5.7-7.5-11.6-11.2-17.4-1.1-1.8-.4-2.8,1.5-3.2,1.7.2,3.5.4,5.2.5.2.4.3.9.5,1.3.3.3.5.5.8.8l2,1.1c.2,0,.4,0,.6,0,5.9,2.7,12,1.4,18.1,1,0,0,0-.5,0-.8.4,0,.9,0,1.3-.1,1.1,0,2.1-.1,3.2-.2h0c2.2-.6,4.4-1.2,6.5-1.9.6-.2,1.2-.5,1.9-.7.9-.7,1.8-1.4,2.8-2.1,0,0,0,0,0,0,.3.2.5.4.8.6h0c-.7,2.9-1.5,5.9-2.2,8.8,0,.1-.5.2-.6.2-.1-.1-.1-.4-.2-.6-1.9-.6-3.8-1.2-5.7-1.8,2,0,4,0,6,0,0-.3,0-.5,0-.8-2,.3-3.9.6-5.9.8-6.3.8-12.9.8-18.8,2.7-7.2,2.3-7.7,8.9-1.8,13.4.5.4,1,.8,1.5,1.2-.3,0-.7.1-1,.2ZM99.3,183.8c0,.2-.4.6-.3.8,1.5,2.9,2.9,5.9,4.5,8.7.2.3,1.1.5,1.4.3,2.6-1.5,4.6-3.6,5.8-6.3-4-1.2-7.5-2.3-11.4-3.5Z"/>
        <path class="cls-10" d="M97.2,145.8c-1,1.6-1.9,3.3-2.9,4.9-.6.3-1.3.6-1.9.9-1.3-.6-2.5-1.1-3.8-1.7,4.9,0,7.6-3.3,5.8-7.2-.4.6-.9,1.3-1.3,1.9-.9-.1-2,0-2.6-.4-1.1-.9-2-2.2-3-3.3-1.6-1.9-3.1-2.3-4.3.5-.4-.5-1.2-1-1.1-1.5.3-4.3.8-8.6,1.2-12.9h0c.3-.4.5-.8.8-1.2,0,0,0,0,0,0,.2-.2.4-.5.6-.7.2-.2.4-.4.6-.6,2.6-.1,5.5-2.8,7.8.7,0,0,0,0,0,0-1.2.5-2.5,1.1-3.7,1.6-.2.1-.3.2-.5.4-.3.4-.5.9-.8,1.3,0,0,0,0,0,0-2.1,2.7-1.7,4.7,1.3,6.3,0,0,0,0,0,0,.3.1.5.3.8.4,0,0,0,0,0,0,1.2,1.8,2.1,1.1,2.8-.4h0c.2-.2.5-.4.7-.7,0,0,0,0,0,0,.2-.4.5-.9.7-1.3,0,0,0,0,0,0,.5-.8,1.1-1.7,2-3.1.3,3.2.4,5.7.7,8.3.2,2,.4,3.9.5,5.9,0,.6-.2,1.2-.3,1.8Z"/>
        <path class="cls-24" d="M212.2,148.5c.1.3.4.5.4.8.7,6.9-6.6,18.2-13.1,20.5-.7.2-1.6,0-2.4,0,5.8-2.8,8.8-7.2,7.9-13.9-.5-4.1-2.6-7.1-6.8-9.6,3.7-2.7,7-5.1,10.7-7.9.7,2.1,1,3.2,1.4,4.3.6,2,1.2,4,1.8,5.9Z"/>
        <path class="cls-15" d="M85.3,124.6c-.2.2-.4.4-.6.6-.2.2-.4.5-.6.7,0,0,0,0,0,0-.3.4-.5.8-.8,1.2,0,0,0,0,0,0-3.9,7.1-2.8,14.3.3,21.2,1.4,3.2,5.1,4.3,8.8,3.3.6-.3,1.3-.6,1.9-.9-1.2.8-2.3,2-3.7,2.3-1.9.4-4,.1-6,.1-1.1-.2-2.1-.5-3.2-.7-.2-.2-.5-.4-.7-.6-.4,0-.8,0-1.3,0-1.7-3-3.5-6-5.2-9.1-.2-3.4-.4-6.9-.6-10.3.4,1.5.9,3,1.3,4.6,0-8.5,4.3-13.8,11.1-13.3-.3.3-.6.6-.9.9Z"/>
        <path class="cls-10" d="M138.3,124.4c-1.1,1.4-2.1,2.8-3.2,4.2.6-4.7,2.6-8.6,6.1-11.7.3-.2.7-.4,1-.7,0,0,0,0,0,0,.4-.3.8-.5,1.3-.8,0,0,0,0,0,0,4.1.2,8.1.5,12.2.7.3,0,.6-.3.8-.4,2.5,1.7,5.3,3.2,7.5,5.2,2.2,1.9,3.6,4.9,7.8,3.7-3.2,2.4-3.5,5.1-2,8.1.7,0,1.6-.1,2.6-.1,0,0,0,.2,0,.2,0,0-.1.2-.2.3-.5.4-1,.8-1.6,1.3,0,0,0,0,0,0-.2.2-.5.5-.7.7,0,0,0,0,0,0-.2.7-.5,1.4-.7,2,0,.6-.2,1.2-.3,1.8-.4-1.1-.7-2.1-1.1-3.2-.7-1.9-1.4-3.8-2-5.8,0,0,0,0,0,0-.2-.5-.5-.9-.7-1.4,0,0,0,0,0,0-.2-.3-.4-.5-.6-.8,0,0,0,0,0,0-.2-.2-.4-.5-.6-.7,0,0,0,0,0,0-.3-.4-.6-.7-.9-1.1,0,0,.1,0,.1,0-.3-.3-.5-.5-.8-.8-1.3-1.1-2.6-2.2-4-3.2-7.3-5.2-15.5-4.3-20.3,2.2Z"/>
        <path class="cls-19" d="M212.2,148.5c-.6-2-1.2-4-1.8-5.9-.3-1.1-.7-2.2-1.4-4.3-3.8,2.8-7,5.2-10.7,7.9,4.1,2.5,6.3,5.5,6.8,9.6.8,6.7-2.1,11.1-7.9,13.9-2.7.4-5.5.9-8.2,1.3,1.5-.6,2.9-1.1,4.4-1.7,4.7-1.8,9.2-4,10.1-9.7.8-5.1-1.5-8.9-6.5-12.4,0,2.6-.5,4.6-.1,6.4.7,3,.4,5.6-1.5,7.9-2.5,2.9-5.2,5.6-7.8,8.5.7-1.2,1.1-2.7,2-3.7,4-4.1,7.1-8.4,5.2-14.6-.3-1,0-2.4.6-3.4,2.9-4.7,6.9-8.2,11.9-10.4,2.2-1,3.5.2,3.9,2,.6,2.8.7,5.7,1,8.6Z"/>
        <path class="cls-24" d="M187.5,170c2.6-2.8,5.3-5.5,7.8-8.5,1.9-2.3,2.2-4.9,1.5-7.9-.4-1.8,0-3.7.1-6.4,5,3.6,7.3,7.3,6.5,12.4-.9,5.7-5.4,7.9-10.1,9.7-1.5.6-2.9,1.1-4.4,1.7-.5-.4-.9-.7-1.4-1.1Z"/>
        <path class="cls-10" d="M73.8,132.4c.2,3.4.4,6.9.6,10.3-1.3-2.6-2.6-5.1-4.1-8-1.1-.4-2.8-1.1-4.6-1.8,0-.2,0-.3,0-.5,4.8,0,5.5-.5,4.8-3.9-.3-1.2-1.6-2.1-1.9-2.5,1.9-2.1,3.7-4.1,5.5-6.1.2-.3.5-.5.7-.8,0,0-.1,0-.1,0,.5-.4.9-.9,1.4-1.3,0,0,0,0,0,0,.2-.2.5-.4.7-.7.2-.2.4-.4.7-.6.4-.2.9-.5,1.3-.7,0,0,0,0,0,0,3.5,0,7,0,10.6,0,0,0,0,0,0,0,.7.5,1.3.9,2,1.4,0,0,0,0,0,0,.2.2.5.5.7.7,0,0,0,0,0,0,.5.4.9.9,1.4,1.3,0,0,0,0,0,0-.5.3-1.1.6-1.6.9h0c-.2,0-.3-.1-.5-.2-.2-.1-.5-.3-.7-.4-.5-.2-.9-.4-1.4-.5h0c-1.6-1.7-3.2-1.4-4.9,0h0c-1.1.3-2.2.8-3.3,1.2,0,0,0,0,0,0-.5.3-.9.5-1.4.8-3.8,2.9-6.5,6.3-5.8,11.4Z"/>
        <path class="cls-12" d="M73.8,132.4c-.7-5.1,2.1-8.5,5.8-11.4.5-.3.9-.5,1.4-.8,0,0,0,0,0,0,1.1-.4,2.2-.9,3.3-1.3,0,0,0,.1,0,0,1.6,0,3.3,0,4.9.1,0,0,0,0,0,0,.5.2.9.4,1.4.5.2.1.5.3.7.4.1.2.3.2.5.2,0,0,0,0,0,0,.3.3.6.6.9.9,0,.6-.2,1.3-.3,1.9-.2-.1-.3-.3-.5-.4-2-.8-4.1-1.7-5.7.8v.2c-6.7-.5-11,4.7-11,13.3-.4-1.5-.9-3-1.3-4.6Z"/>
        <path class="cls-19" d="M139.8,179.4c-.9.7-1.8,1.4-2.8,2.1,0,0,0,0,0,0-.3-.4-.5-1.1-.8-1.1-1.8-.2-3.7-.3-5.5-.5-9.5.4-18.9.7-28.4,1.1-1.7-.2-3.5-.4-5.2-.5,2.2-.6,4.3-1.2,6.5-1.7,5-.3,10.1-.9,15.1-.9,6.6,0,13.1.4,19.7.7,0,0,0,0,0,0,.5.4,1,.7,1.5,1.1Z"/>
        <path class="cls-12" d="M81.5,152.4c1.1.2,2.1.5,3.2.7-.3,1.5-.6,2.9-1,4.5h1.6c-5,3.6-10,7.2-15,10.7-.2,0-.4-.2-.7-.3.9-2,1.8-4,2.7-5.9,0,0,0,0,0,0,.6-.4,1.3-.9,1.9-1.3,0,0,0,0,0,0,2.3-.8,4.7-1.7,7.6-2.7-1.1-1.5-2.1-2.3-2.5-3.4-.4-.9-2.1-2.2.2-2.9.4,0,.8,0,1.3,0,.2.2.5.4.7.6Z"/>
        <path class="cls-19" d="M137.6,188.4c0,.2,0,.5.2.6,0,0,.5,0,.6-.2.8-2.9,1.5-5.9,2.2-8.8,0,0,.2,0,.3-.1,2.1,3.9-.3,7.2-2.1,10.1-2.1,3.5-4.9,6.8-8.1,9.5-4.2,3.6-8.9,7.1-15,6.5-1.4-.1-2.7-1.2-4-1.8.3,0,.7-.1,1-.2,3.1,1.6,6,.8,8.9-.4,7.3-2.9,12.1-8.5,15.9-15.1Z"/>
        <path class="cls-12" d="M168.8,155.1c-.5,1.8-.7,2.7-1.2,4.4-4.3,2.4-9.6,5.4-14.9,8.3-.2.1-.8-.5-1.8-1,5.9-3.9,11.5-7.6,17.8-11.7Z"/>
        <path class="cls-19" d="M165.2,117.9c-10.6-7.6-17.3-7.9-25.9-4.7,3.8-6.1,20.9-4.2,25.9,4.7Z"/>
        <path class="cls-19" d="M91.8,122.7c.2.1.3.3.5.4,1.7,2.5,3.3,5,5,7.4,0,4.5.2,9,.2,13.5-.2-2-.4-3.9-.5-5.9-.2-2.6-.4-5.1-.7-8.3-.9,1.4-1.5,2.3-2,3.1.3-5.3-.9-6.7-5-6,1.2-.5,2.5-1.1,3.7-1.6.2.2.4.4.6.6,0,0,.2,0,.3.1,0,0-.2-.1-.3-.2-.2-.2-.4-.4-.6-.6-2.3-3.4-5.2-.8-7.8-.7.3-.3.6-.6.9-.9,0,0-.1-.2-.1-.2,1.9-.3,3.8-.5,5.7-.8Z"/>
        <path class="cls-19" d="M93.1,115.6c-1.9-.7-3.8-1.4-5.6-2.1-4.7-1.7-8.8-.8-12.7,2.3-.5.4-1.2.7-1.8,1.1h0c3.9-7.4,14.5-7.2,20-1.3h0Z"/>
        <path class="cls-12" d="M73.9,171c1.8-5.5,7.9-10.3,13.6-10.7-4.7,3.7-8.9,7-13.6,10.7Z"/>
        <path class="cls-19" d="M102.3,169.3c-1-2.2-2.2-4.3-3-6.6-.3-1-.3-2.5.2-3.3,1.8-2.9,4-5.6,6-8.4l.8.5c-1.2,1.9-2.2,4-3.7,5.7-2,2.3-2.4,4.6-1.1,7.3.7,1.5.9,3.1,1.4,4.7l-.6.2Z"/>
        <path class="cls-15" d="M138.3,178.4c-6.6-.2-13.1-.7-19.7-.7-5,0-10.1.6-15.1.9,0-.3,0-.9.1-.9,11.1,0,22.2,0,33.3,0,.4,0,.9.5,1.3.7Z"/>
        <path class="cls-19" d="M142.9,153.7c2,.4,3.9,1.2,5.9,1.2,3,0,6.1-.5,9.1-.8-2.9,3.1-6.5,3.7-10.3,1.8-1.5-.8-3.1-1.4-4.7-2.2Z"/>
        <path class="cls-19" d="M166,130c.7,1.9,1.4,3.8,2,5.8.4,1,.7,2.1,1.1,3.2-1,1.9-2,3.9-3.1,5.8,1-3.8,1.7-7.7.6-11.6-.2-1-.4-2.1-.7-3.1Z"/>
        <path class="cls-24" d="M72.4,162.1l-3,.7c-.1-.2-.3-.5-.4-.7,2.6-2,5.3-3.9,7.9-5.9.2.2.4.4.5.6-1,1.3-2.1,2.6-3.1,3.9,0,0,0,0,0,0-.6.4-1.3.9-1.9,1.3,0,0,0,0,0,0Z"/>
        <path class="cls-15" d="M97.5,144.1c0-4.5-.2-9-.2-13.5.3,0,.6,0,.8-.1,0,5,0,10,0,15,0,.1-.5.2-.8.4,0-.6.2-1.2.3-1.8Z"/>
        <path class="cls-19" d="M156.4,115.8c-.3.1-.6.4-.8.4-4.1-.2-8.1-.4-12.2-.7,4.4-2,8.7-1.6,13,.3Z"/>
        <path class="cls-19" d="M92.5,121.2c-.3-.3-.6-.6-.9-.9.5-.3,1.1-.6,1.6-.9,1.3,1.8,2.7,3.6,4,5.4-.2.1-.4.2-.5.4l-4.2-3.9Z"/>
        <path class="cls-19" d="M89.4,116.2c-3.5,0-7,0-10.6,0,3.5-2,7-1.9,10.6,0Z"/>
        <path class="cls-12" d="M86.7,164.1c-1.3,1.6-2.5,3.2-3.8,4.8-.4-.4-.8-.7-1.2-1.1,1.6-1.3,3.3-2.5,4.9-3.8h0Z"/>
        <path class="cls-15" d="M140.9,179.9c-.1,0-.2,0-.3.1,0,0,0,0,0,0-.3-.2-.5-.4-.8-.6,0,0,0,0,0,0-.5-.4-1-.7-1.5-1.1.9.5,1.7,1.1,2.6,1.6Z"/>
        <path class="cls-12" d="M85.4,157.6c.2-.5.5-1.1.7-1.6.3.3.5.6.8.9-.5.3-1,.5-1.5.8,0,0,0,0,0,0Z"/>
        <path class="cls-23" d="M179.9,153.2c-.5.7-.9,1.4-1.4,2,.5-.7.9-1.4,1.4-2Z"/>
        <path class="cls-19" d="M170.7,134.4c.5-.4,1-.8,1.6-1.3-.5.4-1,.8-1.6,1.3Z"/>
        <path class="cls-19" d="M91.3,117.5c-.7-.5-1.3-.9-2-1.4.7.5,1.3.9,2,1.4Z"/>
        <path class="cls-19" d="M76.2,118c-.5.4-.9.9-1.4,1.3.5-.4.9-.9,1.4-1.3Z"/>
        <path class="cls-19" d="M93.3,119.4c-.5-.4-.9-.9-1.4-1.3.5.4.9.9,1.4,1.3Z"/>
        <path class="cls-19" d="M169.4,137.1c.2-.7.5-1.4.7-2-.2.7-.5,1.4-.7,2Z"/>
        <path class="cls-23" d="M180.7,151.5c-.3.6-.6,1.1-.9,1.7.3-.6.6-1.1.9-1.7Z"/>
        <path class="cls-10" d="M135.2,128.5c0,.4-.1.8-.2,1.2-.1-.3-.3-.6-.4-1,.2,0,.4-.1.6-.2Z"/>
        <path class="cls-19" d="M78.9,116.1c-.4.2-.9.5-1.3.7.4-.2.9-.5,1.3-.7Z"/>
        <path class="cls-19" d="M143.5,115.4c-.4.3-.8.5-1.3.8.4-.3.8-.5,1.3-.8Z"/>
        <path class="cls-12" d="M86.6,164c.2-.1.5-.3.7-.4,0,0,.1.1.2.2-.3,0-.5.2-.8.3,0,0,0,0,0,0Z"/>
        <path class="cls-19" d="M142.3,153.1c.2.2.4.4.6.6-.2-.2-.4-.4-.6-.6Z"/>
        <path class="cls-19" d="M170.1,135.1c.2-.2.5-.5.7-.7-.2.2-.5.5-.7.7Z"/>
        <path class="cls-19" d="M74.9,119.2c-.2.3-.5.5-.7.8.2-.3.5-.5.7-.8Z"/>
        <path class="cls-19" d="M92,118.1c-.2-.2-.5-.5-.7-.7.2.2.5.5.7.7Z"/>
        <path class="cls-19" d="M76.9,117.4c-.2.2-.5.4-.7.7.2-.2.5-.4.7-.7Z"/>
        <path class="cls-19" d="M73,116.8c0,.2,0,.3-.1.5,0-.2.1-.3.2-.5,0,0,0,0,0,0Z"/>
        <path class="cls-19" d="M142.2,116.2c-.3.2-.7.4-1,.7.3-.2.7-.4,1-.7Z"/>
        <polygon class="cls-19" points="93.2 115.6 93.2 115.7 93.1 115.6 93.2 115.6"/>
        <path class="cls-15" d="M141.3,271.3c4.4-.9,8.8-1.8,13.2-2.7-1.7.4-3.4.8-5.1,1.1-2.7.5-5.4,1.1-8.1,1.6Z"/>
        <path class="cls-9" d="M199.7,228c0-1.1-.2-2.1-.3-3.2.4,0,.7,0,1.1,0-.3,1-.5,2.1-.8,3.1,0,0,0,0,0,0Z"/>
        <path class="cls-10" d="M228.8,96.9c0-.3.2-.6.3-.8,0,0,.2.2.2.2-.2.2-.3.4-.5.6,0,0,0,0,0,0Z"/>
        <path class="cls-10" d="M218,96.9c2.5-6,5-11.9,7.5-17.9,0,0,.2,0,.3,0-.9,3.6-1.5,7.3-2.7,10.8-1.3,3.8-3.2,7.5-4.9,11.2-.3.7-1.2,2.9-2.4.4.5-1.1,1-2.2,1.5-3.2,0,0,0,0,0,0,.3-.4.5-.8.8-1.2Z"/>
        <path class="cls-14" d="M217.2,98.2c-.5,1.1-1,2.2-1.5,3.2-.9,0-1.8,0-2.6,0,0-.8-.1-1.8.3-2.3.5-.6,1.4-.8,2.2-1.1.5-.1,1,0,1.6.1Z"/>
        <path class="cls-14" d="M218,96.9c-.3.4-.5.8-.8,1.2.3-.4.5-.8.8-1.2Z"/>
        <path class="cls-15" d="M137.3,88.7c-.7.4-1.4.8-2.1,1.2.7-.4,1.4-.8,2.1-1.2Z"/>
        <path class="cls-10" d="M186.8,185.4c-.9.4-1.7.9-2.6,1.3,0,0,0,0,0,0,.9-.4,1.7-.9,2.6-1.3,0,0,0,0,0,0Z"/>
        <path class="cls-10" d="M184.2,186.7c0,0,0,.2-.1.3,0,0,0-.2.1-.2,0,0,0,0,0,0Z"/>
        <path class="cls-18" d="M182.2,141.9c0,.9-.2,1.8-.3,2.8,0-.9.2-1.8.3-2.8Z"/>
        <path class="cls-10" d="M61.5,204.1l-.7-1.3c0-.4,0-.9,0-1.3.4,0,.8,0,1.2,0-.2.9-.4,1.7-.6,2.6Z"/>
        <path class="cls-1" d="M29.1,166.7c0,0,0,.2-.1.3,0,0,0-.2.1-.3,0,0,0,0,0,0Z"/>
        <path class="cls-10" d="M160.4,142.2c0,.2,0,.4,0,.6-.4,1.5-.8,3.1-1.2,4.6,0,0,0,0,0,0-.9.6-1.8,1.3-2.7,1.9.2-.9.4-1.8.5-2.7h0c1.4-1.2,1.9-2.6.4-4.8-1.3,1.3-2.4,2.4-3.6,3.6,0,0,0,0,0,0-.7-.6-1.4-1.3-2.2-1.9-1.5-2.5-3.5-1.8-5.5-.7-.2.2-.5.4-.7.6-.4.2-.8.5-1.3.7-.5,0-1.1.1-1.8.2,0-.9-.2-1.7-.1-2.6.3-4.7.7-9.3,1.1-14,0,0,0,0,0,0,.3-.4.6-.8.8-1.2,0,0,0,0,0,0,.2-.2.4-.5.7-.7,0,0,0,0,0,0,.2-.2.5-.5.7-.7,0,0,0,0,0,0,.7-.4,1.3-.9,2-1.3,0,0,0,0,0,0,2.7.2,5.3.4,8,.6h0c.4.2.8.5,1.2.8,0,0,0,0,0,0l.7.6s0,0,0,0c.2.2.5.5.7.7,0,0,0,0,0,0,.2.2.4.5.6.7l2.5,5.7c0,2.6,0,5.3,0,7.9-.2.4-.3.9-.5,1.3ZM150.6,131.4c.2,1.9.3,4,3,3.9,2.6-.1,3.6-1.9,3.7-4.4,0-2.5-1.6-3.5-3.6-3.6-2.6-.1-3,1.9-3.1,4Z"/>
        <path class="cls-12" d="M160.9,132.9c-.8-1.9-1.7-3.8-2.5-5.7-.2-.2-.4-.5-.6-.7,0,0,0,0,0,0-.2-.2-.5-.5-.7-.7,0,0,0,0,0,0-.2-.2-.5-.4-.7-.6,0,0,0,0,0,0-.4-.3-.8-.5-1.2-.8,0,0,0,0,0,0-2.1-.6-4.2-1.2-6.2-1.8-.6.2-1.1.5-1.7.7,0,0,.2,0,.2,0-2.7-.3-5.3-.5-7.3,1.9-.1.1-1.3-.6-2-.9,4.9-6.5,13-7.4,20.3-2.2,1.4,1,2.6,2.1,4,3.2.3.3.5.5.8.8,0,0-.1,0-.1,0,.3.4.6.7.9,1.1,0,0,0,0,0,0,.2.2.4.5.6.7,0,0,0,0,0,0,.2.3.4.5.6.8,0,0,0,0,0,0,.2.5.5.9.7,1.4,0,0,0,0,0,0,.2,1,.4,2.1.7,3.1-.3.9-.6,1.8-.9,2.9-1.6-1.4-3.1-2.8-4.6-4.2,0,.3-.2.7-.3,1.1Z"/>
        <path class="cls-19" d="M156.5,149.2c.9-.6,1.8-1.3,2.7-1.9-2,4.5-6.1,5.1-10.3,5-3.9,0-6-2.8-6.9-6.2-1.6-6.2-2.1-12.5,1.4-18.4-.4,4.7-.8,9.3-1.1,14,0,.8,0,1.7.1,2.6.7,0,1.3-.1,1.8-.2.3,1.2.3,2.6.9,3.5,2,3,5,3.3,9.8,1.4,0,0,.2.2.3.2.4,0,.9,0,1.3,0,0,0,0,0,0,0Z"/>
        <path class="cls-19" d="M149.1,122.7c2.1.6,4.2,1.2,6.2,1.8-2.7-.2-5.3-.4-8-.6.1-.2.2-.4.3-.6,0,0-.2,0-.2,0,.6-.2,1.1-.5,1.7-.7Z"/>
        <path class="cls-19" d="M159.1,147.4c.4-1.5.8-3.1,1.2-4.6-.4,1.5-.8,3.1-1.2,4.6Z"/>
        <path class="cls-19" d="M147.4,123.9c-.7.4-1.3.9-2,1.3.7-.4,1.3-.9,2-1.3Z"/>
        <path class="cls-19" d="M160.4,142.2c.2-.4.3-.9.5-1.3-.2.4-.3.9-.5,1.3Z"/>
        <path class="cls-19" d="M144.1,126.5c-.3.4-.6.8-.8,1.2.3-.4.6-.8.8-1.2Z"/>
        <path class="cls-6" d="M137.1,127.9c0,0,.1-.2.2-.3,0,.1,0,.2-.1.3,0,0,0,0,0,0Z"/>
        <path class="cls-19" d="M144.8,125.8c-.2.2-.4.5-.7.7.2-.2.4-.5.7-.7Z"/>
        <path class="cls-19" d="M145.4,125.2c-.2.2-.5.5-.7.7.2-.2.5-.5.7-.7Z"/>
        <path class="cls-3" d="M137.6,188.4c-3.8,6.6-8.6,12.2-15.9,15.1-2.9,1.2-5.9,1.9-8.9.4-.5-.4-1-.9-1.5-1.2-6-4.4-5.5-11,1.8-13.4,6-1.9,12.5-1.9,18.8-2.7h0c1.9.6,3.8,1.2,5.7,1.8Z"/>
        <path class="cls-15" d="M106.1,184.1c-.2,0-.4,0-.6,0-.3-.3-.6-.5-1-.8,1.5-.6,3-1.7,4.4-1.7,8.1.1,16.3.6,24.4.9-1.6.5-3.2,1-4.7,1.5,0,0,0,0,0,0-1.1,0-2.1.1-3.2.2-.4,0-.9,0-1.3.1-6,0-12.1-.1-18.1-.2Z"/>
        <path class="cls-16" d="M133.3,182.5c-8.1-.3-16.3-.7-24.4-.9-1.5,0-2.9,1.1-4.4,1.7h0c-.6-.4-1.2-.7-1.8-1.1l-.5-1.3c9.5-.4,18.9-.7,28.4-1.1,1,.5,2,1,3.1,1.5,0,.2-.2.6-.4,1.1h0Z"/>
        <path class="cls-5" d="M99.3,183.8c3.9,1.2,7.4,2.3,11.4,3.5-1.2,2.8-3.2,4.8-5.8,6.3-.3.2-1.3,0-1.4-.3-1.6-2.9-3-5.8-4.5-8.7,0-.2.2-.6.3-.8Z"/>
        <path class="cls-19" d="M106.1,184.1c6,0,12.1.1,18.1.2,0,.3,0,.8,0,.8-6.1.4-12.2,1.7-18.1-1Z"/>
        <path class="cls-19" d="M128.6,184c1.6-.5,3.2-1,4.7-1.5,0,0,0,0,0,0,.6-.1,1.2-.2,1.7-.4h0c-2.2.7-4.4,1.3-6.5,2Z"/>
        <path class="cls-3" d="M131.9,186.7c2-.3,3.9-.6,5.9-.8,0,.3,0,.5,0,.8-2,0-4,0-6,0,0,0,0,0,0,0Z"/>
        <path class="cls-19" d="M125.5,184.2c1.1,0,2.1-.1,3.2-.2-1.1,0-2.1.1-3.2.2Z"/>
        <path class="cls-19" d="M104.5,183.3c.3.3.6.5,1,.8-.7-.4-1.3-.7-2-1.1.4,0,.7.1,1.1.2h0Z"/>
        <path class="cls-19" d="M137,181.5c-.6.2-1.2.5-1.9.7,0,0,0,0,0,0,.6-.2,1.3-.5,1.9-.7h0Z"/>
        <path class="cls-15" d="M104.5,183.2c-.4,0-.7-.1-1.1-.2-.3-.3-.5-.5-.8-.8.6.3,1.2.6,1.8,1Z"/>
        <path class="cls-19" d="M139.8,179.4c.3.2.5.4.8.6-.3-.2-.5-.4-.8-.6Z"/>
        <path class="cls-14" d="M83.3,141.5c1.1-2.7,2.6-2.3,4.3-.5,1,1.1,1.8,2.4,3,3.3.6.5,1.7.3,2.6.4.4-.6.9-1.3,1.3-1.9,1.7,3.9-.9,7.2-5.8,7.2-3.9-1.5-4.9-4.8-5.3-8.5Z"/>
        <path class="cls-7" d="M89.4,126.9c4.1-.7,5.2.7,5,6,0,0,0,0,0,0-.2.4-.5.9-.7,1.3,0,0,0,0,0,0-.2.2-.5.5-.7.7,0,0,0,0,0,0-.9.1-1.9.3-2.8.4,0,0,0,0,0,0-.3-.1-.5-.3-.8-.4,0,0,0,0,0,0-.4-2.1-.9-4.2-1.3-6.3,0,0,0,0,0,0,.3-.4.5-.9.8-1.3.2-.1.3-.2.5-.4Z"/>
        <path class="cls-19" d="M83.3,141.5c.4,3.7,1.4,7,5.3,8.5,1.3.6,2.5,1.1,3.8,1.7-3.7,1-7.4,0-8.8-3.3-3.1-7-4.2-14.1-.3-21.2-.4,4.3-.8,8.6-1.2,12.9,0,.5.7,1,1.1,1.5Z"/>
        <path class="cls-19" d="M88.1,128.6c.4,2.1.9,4.2,1.3,6.3-3-1.6-3.4-3.6-1.3-6.3Z"/>
        <path class="cls-19" d="M90.2,135.2c.9-.1,1.9-.3,2.8-.4-.8,1.5-1.6,2.2-2.8.4Z"/>
        <path class="cls-19" d="M94.4,142.8c-.4.6-.9,1.3-1.3,1.9.4-.6.9-1.3,1.3-1.9Z"/>
        <path class="cls-19" d="M93.6,134.3c.2-.4.5-.9.7-1.3-.2.4-.5.9-.7,1.3Z"/>
        <path class="cls-19" d="M88.9,127.3c-.3.4-.5.9-.8,1.3.3-.4.5-.9.8-1.3Z"/>
        <path class="cls-19" d="M83.3,127.2c.3-.4.5-.8.8-1.2-.3.4-.5.8-.8,1.2Z"/>
        <path class="cls-19" d="M89.3,134.8c.3.1.5.3.8.4-.3-.1-.5-.3-.8-.4Z"/>
        <path class="cls-19" d="M93,134.9c.2-.2.5-.5.7-.7-.2.2-.5.5-.7.7Z"/>
        <path class="cls-19" d="M84.1,125.9c.2-.2.4-.5.6-.7-.2.2-.4.5-.6.7Z"/>
        <path class="cls-6" d="M81.5,152.4c-.2-.2-.5-.4-.7-.6.2.2.5.4.7.6Z"/>
        <path class="cls-19" d="M166,129.9c-.2-.5-.5-.9-.7-1.4.2.5.5.9.7,1.4Z"/>
        <path class="cls-19" d="M164.2,127.2c-.3-.4-.6-.7-.9-1.1.3.4.6.7.9,1.1Z"/>
        <path class="cls-19" d="M165.4,128.7c-.2-.3-.4-.5-.6-.8.2.3.4.5.6.8Z"/>
        <path class="cls-19" d="M164.8,127.9c-.2-.2-.4-.5-.6-.7.2.2.4.5.6.7Z"/>
        <path class="cls-19" d="M163.5,126.1c-.3-.3-.5-.5-.8-.8.3.3.5.5.8.8Z"/>
        <path class="cls-19" d="M89,119.2c-1.6,0-3.3,0-4.9-.1,1.7-1.3,3.3-1.6,4.9.1Z"/>
        <path class="cls-19" d="M84.2,119c-1.1.4-2.2.9-3.3,1.3,1.1-.4,2.2-.9,3.3-1.3Z"/>
        <path class="cls-19" d="M81,120.2c-.5.3-.9.5-1.4.8.5-.3.9-.5,1.4-.8Z"/>
        <path class="cls-19" d="M90.5,119.7c-.5-.2-.9-.4-1.4-.5.5.2.9.4,1.4.5Z"/>
        <path class="cls-19" d="M91.7,120.3c-.2,0-.4,0-.5-.2.2,0,.3.2.5.2Z"/>
        <path class="cls-15" d="M91.8,122.7c-1.9.3-3.8.5-5.7.8,1.6-2.5,3.6-1.6,5.7-.8Z"/>
        <path class="cls-15" d="M136.9,181.4c-.6.2-1.3.5-1.9.7-.6.1-1.2.2-1.7.4.2-.5.3-.9.4-1.1-1.1-.5-2.1-1-3.1-1.5,1.9.1,3.7.2,5.5.5.3,0,.5.7.8,1.1Z"/>
        <path class="cls-6" d="M72.4,162.1c.6-.4,1.3-.9,1.9-1.3-.6.4-1.3.9-1.9,1.3Z"/>
        <path class="cls-10" d="M93.8,125.9c0,0,.2.1.3.2,0,0-.2,0-.3-.1,0,0,0,0,0,0Z"/>
        <path class="cls-10" d="M93.7,126c-.2-.2-.4-.4-.6-.6,0,0,0,0,0,0,.2.2.4.4.6.6,0,0,0,0,0,0Z"/>
        <path class="cls-14" d="M154.9,149c-4.8,1.9-7.8,1.6-9.8-1.4-.6-1-.6-2.3-.9-3.5.4-.2.8-.5,1.3-.7.2,0,.3,0,.5,0,.9.5,1.8,1,2.8,1.4,1.3.5,2.6.9,3.8,1.3.4-.2.8-.4,1.3-.6,0,0,0,0,0,0,.9-.4,1.9-.9,3.1-1.5v2.8s0,0,0,0c-.7.8-1.4,1.6-2.1,2.4Z"/>
        <path class="cls-15" d="M150.6,131.4c.1-2.2.4-4.2,3.1-4,2.1,0,3.7,1.1,3.6,3.6,0,2.4-1.1,4.2-3.7,4.4-2.7.1-2.8-2-3-3.9Z"/>
        <path class="cls-25" d="M152.6,146c-1.3-.4-2.6-.8-3.8-1.3-1-.4-1.8-.9-2.8-1.4,0-.2.1-.4.2-.6,2-1.1,4-1.8,5.5.7.3.8.6,1.7.9,2.5Z"/>
        <path class="cls-19" d="M157,146.6v-2.8c-1.2.6-2.2,1-3.1,1.5,1.1-1.1,2.2-2.2,3.6-3.6,1.4,2.2.9,3.6-.4,4.9Z"/>
        <path class="cls-19" d="M154.9,149c.7-.8,1.4-1.6,2.1-2.4-.2.9-.4,1.8-.5,2.7,0,0,0,0,0,0-.4,0-.9,0-1.3,0,0,0-.2-.2-.3-.2Z"/>
        <path class="cls-19" d="M152.6,146c-.3-.8-.6-1.7-.9-2.5.7.6,1.4,1.3,2.2,1.9-.4.2-.8.4-1.3.6Z"/>
        <path class="cls-19" d="M155.2,124.4c.4.3.8.5,1.2.8-.4-.3-.8-.5-1.2-.8Z"/>
        <path class="cls-19" d="M146.2,142.7c0,.2-.1.4-.2.6-.2,0-.3,0-.5,0,.2-.2.5-.4.7-.6Z"/>
        <path class="cls-19" d="M157.8,126.5c.2.2.4.5.6.7-.2-.2-.4-.5-.6-.7Z"/>
        <path class="cls-19" d="M157.1,125.8c.2.2.5.5.7.7-.2-.2-.5-.5-.7-.7Z"/>
        <path class="cls-19" d="M156.5,125.3c.2.2.5.4.7.6-.2-.2-.5-.4-.7-.6Z"/>
        <path class="cls-15" d="M149.1,122.7c-.6.2-1.1.5-1.7.7.6-.2,1.1-.5,1.7-.7Z"/>
        <path class="cls-10" d="M155.2,149.2c.4,0,.9,0,1.3,0-.4,0-.9,0-1.3,0Z"/>
      </g>
    </g>
  </g>
</svg>