<?xml version="1.0" encoding="UTF-8"?>
<svg xmlns="http://www.w3.org/2000/svg" width="288.7" height="294.4" version="1.1" viewBox="0 0 288.7 294.4">
  <defs>
    <style>
      .cls-1 {
        fill: #cbcaa4;
      }

      .cls-2 {
        fill: #6c9fa3;
      }

      .cls-3 {
        fill: #db8959;
      }

      .cls-4 {
        fill: #d37642;
      }

      .cls-5 {
        fill: #aebea6;
      }

      .cls-6 {
        fill: #17212a;
      }

      .cls-7 {
        fill: #488e92;
      }

      .cls-8 {
        fill: #f0b985;
      }

      .cls-9 {
        fill: #7ea9a5;
      }

      .cls-10 {
        fill: #a25c38;
      }

      .cls-11 {
        fill: #f5c370;
      }

      .cls-12 {
        fill: #f7c188;
      }

      .cls-13 {
        fill: #f8eac9;
      }

      .cls-14 {
        fill: #dfcf9e;
      }

      .cls-15 {
        fill: #f9cb92;
      }

      .cls-16 {
        fill: #162c38;
      }

      .cls-17 {
        fill: #171618;
      }

      .cls-18 {
        fill: #93b3a6;
      }

      .cls-19 {
        fill: #793f2c;
      }

      .cls-20 {
        fill: #f3d39d;
      }

      .cls-21 {
        fill: #df8f5e;
      }

      .cls-22 {
        fill: #8f5134;
      }
    </style>
  </defs>
  <!-- Generator: Adobe Illustrator 28.7.8, SVG Export Plug-In . SVG Version: 1.2.0 Build 200)  -->
  <g>
    <g id="_レイヤー_1" data-name="レイヤー_1">
      <g>
        <path class="cls-2" d="M153,.3c11.9.9,23.5,3.5,34.9,7.1,20.2,6.4,38.3,16.4,53.7,31,14.3,13.6,26.2,29,33.6,47.5,3.4,8.5,6.2,17.3,9.2,26,.3,1,.4,2.1.6,3.2,0,0-.1.2-.2.2,0,0-.2,0-.3,0-.9-.6-1.8-1.2-2.8-1.8-.4.7-.7,1.3-1.1,2-.3.6-.7,1.2-1,1.9-.7-1.7-1.3-3.1-2-4.7-1.7.8-3,1.4-4.2,2.1-.8.4-1.6.9-2.4,1.4-.4-.8-.8-1.5-1.1-2.3.3.1.6.2,1,.4,1.2-1.3,2.5-2.5,3.2-3.3-1.2-1.1-2.2-2-2.8-2.6-1,.7-2.1,1.9-2.7,1.7-3.3-1.4-4.9.2-6.1,3.4-1.8-2.5-4-3.5-5.8-.9-1.9,2.8-3.3,1.2-4.8,0-.7-.6-1.2-1.5-2.2-2.8v7.7c-.5,0-.9,0-1.4,0,0-3.5.1-6.9,0-10.4,0-1.3-.9-2.6-1.4-4,0-.4,0-.9,0-1.3-.1-3.9-.1-7.7-.4-11.6,0-1.1-.9-2.2-1.4-3.3-2.7-16.3-7.4-31.8-17.1-45.4-8.7-12.3-20.1-20.8-35-24-1.1-.2-2.2-.8-3.2-1.4-5.7-3.8-11.9-6.3-18.7-7.2-1,0-2.1,0-3.1,0-.2,0-.4-.1-.6-.1-.2-.2-.5-.4-.7-.6-.4,0-.9,0-1.3,0-.2,0-.4,0-.6,0-.2,0-.4-.1-.6-.1-2.2-.4-4.3-.7-6.5-1.1-.5,0-.9,0-1.4,0-7.5.2-15,.4-22.5.6h-.7c-.7.2-1.3.3-2,.4-.6.1-1.2.2-1.9.3-1,.2-2.1.4-3.1.7-22,5.5-40.5,16.7-54.6,34.3-14.1,17.7-23.4,38-29,60-1.2,2.1-2.4,4.1-3.7,6.6v-6.5c-1.7,1.2-3.2,2.2-5,3.5-.4-.5-1.3-1-1.3-1.7-.2-3.1-1.5-3.6-3.8-2.2-.4-.8-.9-2.1-.9-2.1-1.3.4-3.4-1.1-3.7,1.6,0,0,0,.2-.1.2,0,0,0-.2.1-.2-.7,1-1.2,2.3-2.2,3-1.4,1-3.2,1.6-5.2,2.6,0,0-.9-.2-1.7-.4-.6-1-1.2-2-1.8-3,.5-.7,1.1-1.4,2.2-2.8-1.8.3-3.8.3-3.8.6-.4,3.3-3.6,2.1-5.2,3.4,4-13,9.8-25.2,17-36.7,15.2-24.5,35.6-43.2,61.3-55.9C99.9,5.3,116.5,1.3,133.7.3c3.3,0,6.5-.1,9.8-.2.1-.1.2-.1.4,0,3.1,0,6.1.1,9.2.2ZM268.5,108.3c0-.2,0-.4-.2-.5-.1,0-.3.1-.5.2,0,.2,0,.4.2.5.1,0,.3-.1.5-.2ZM273.5,105.8c-.4,0-.6-.1-.8-.2,0,.1,0,.3,0,.4,0,0,.2,0,.3,0,.1,0,.3-.2.5-.3Z"/>
        <path class="cls-11" d="M241,256.6c-12.2,11.4-26.6,19.1-41.5,26.1-9.9,4.6-20.2,7.9-30.9,9.8-12,2.1-24.1,2.5-36.3,1.4-20.6-1.9-39.7-8.5-57.7-18.5-4.1-2.3-8-5-11.9-7.6-.5-.4-.8-1.1-1.2-1.7.8-.5,1.5-1.1,2.4-1.4,4.7-1.8,9.5-3.5,14.2-5.2,1.6-.3,3.3-.5,4.9-.8l10-1.4s.2.2.2.2c1.6-.5,3.2-.9,4.8-1.4,2-.7,4-1.5,6.1-2.2,0,0,0,.1,0,.1,1.5-.5,3-1,4.5-1.5,0,0,0,0,0,0,.8-.3,1.7-.6,2.5-.9.5-.2.9-.4,1.4-.6.5-.2,1-.4,1.5-.6.6-.2,1.1-.3,1.7-.5,2.5-.6,4.9-1.2,7.4-1.7,0,.2,0,.4.1.6-.4.3-.8.5-1.2.8h0c-.4.2-.9.4-1.3.7,0,0,0,0,0,0-.5.2-.9.5-1.4.7-.6.4-1.3.8-1.9,1.2-6.4,4.4-7,11.2-2.7,19.1,5.1,13.4,16.9,20.7,30.6,18.5,6.2-1,12.1-2.6,17.8-6,15.8-9.7,30.1-21.4,43.7-33.9h0c.2-.2.5-.4.7-.6,0,0,0,0,0,0,.2-.2.5-.4.7-.7,0,0,0,0,0,0,.9-.8,1.8-1.6,2.7-2.4.2-.2.4-.4.7-.6,1.2,0,2.4.2,3.6.3.3.3.7.7,1,1,.5.4,1,.8,1.4,1.1,3.3,1.7,6.5,3.7,9.9,5,4.4,1.6,9,2.5,13.5,3.7ZM103.2,270.8c0-2.7,0-5.4,0-8.1,0-1.5,0-2.9-.1-4.4-.3,0-.6,0-.9,0-2.1,2.3-2.7,7.7-1,10.1.5,5.8,2.7,11.1,5.9,16.4-1.4-5-2.6-9.5-3.9-14ZM191.5,278c9.9-6.3,19.4-13,26.6-22.4-8.9,7.5-17.7,15-26.6,22.4Z"/>
        <path class="cls-9" d="M23.8,102.4c.3-2.7,2.4-1.2,3.7-1.6,0,0,.6,1.3.9,2.1,2.3-1.4,3.7-.9,3.8,2.2,0,.6.9,1.2,1.3,1.7,1.8-1.3,3.3-2.3,5-3.5v6.5c1.4-2.4,2.5-4.5,3.7-6.6-1.9,7.3-3.3,14.7-2.4,22.3.9,8.2,2.9,16.1,14,20.7-3.8-5.1-4.4-10.5-3.7-16.1,1.9,4.6,3.5,9.4,5.9,13.7,1.8,3.2,2.9,6.1,2.4,9.7-2.2,1.5-1.4,3.4-.5,5.2v.6c-1.1,4.1-2.1,8.2-3.2,12.3h0c-.2.4-.4.9-.7,1.3h0c-.2.5-.5,1-.7,1.6,0,.3-.2.6-.3,1-.3.4-.6.9-.9,1.3,0,0,0,.1,0,.1-.3,0-.6-.2-.8-.3-.2-.7-.5-1.9-.7-1.9-3.5.1-4-2.8-5.8-4.8-2.3-2.5-4.6-4.5-2.3-8.9-3.2,1.7-4.8.3-5.3-1.7-.5-2-1.8-2.1-3.3-2.1,0,0-.2,0-.3-.1,0,0,.2.1.3.2.1.7.3,1.4.4,2.1-.8,0-1.6.1-2.4,0-.5,0-1-.3-1.5-.4-2.3-.2-4.9.2-5.2-3.2-.6.5-1,.8-1.2,1-.7-1.5-1.2-2.9-1.8-4.2,0,0,0-.2.1-.3,0,0-.1.2-.2.3-1,0-2.6.4-3,0-1.9-2.6-4.3-2.1-6.9-1.8-.8.1-2.1.2-2.5-.3-3-3.1-6.5-2.7-10.2-1.7-.1-14.7,1.7-29.2,6.1-43.2,1.6-1.3,4.8,0,5.2-3.4,0-.3,2-.3,3.8-.6-1.1,1.4-1.6,2.1-2.2,2.8.6,1.1,1.2,2,1.9,3.3,0,0-.2-.3-.4-.5-.5.5-1,1-1.6,1.5.3.3.6.7,1,1,.4-.6.7-1.1,1-1.9.7,0,1.5.2,1.5.2,2-1,3.8-1.6,5.2-2.6.9-.7,1.5-2,2.2-3h0ZM32.5,156.2c0-.2,0-.3.1-.4,0,0-.2,0-.2,0,0,0,0,.2,0,.3Z"/>
        <path class="cls-20" d="M57.4,263.3c-10.7-8.7-20.4-18.5-28.9-29.4-.8-1.1-1.4-2.4-2.1-3.5.3-1.4.7-2.8,1-4.2,6.7,2,7.3,1.9,10.2-1.1-1.8,0-3.4.2-5.1.2,1.5-1.8,2.8-3.4,4.2-5,1.7.9,3.5,1.8,5.2,2.8.6.4,1.2.8,1.8,1.3-.6.4-1.2.9-1.8,1.3-.5.3-1.1.3-1.7.4.4,3.2,2.4,3.1,4.4,2.4.6,1.1,1,2.1,1.6,3,1.4,2.2,2.6,4.4,4.3,6.4.9,1,2.9,2.4,3.7,2,2.6-1.4,4.6-.7,6.9.8.5-2.6,2.1-2.8,3.9-1.6.8-2.3,1-5.2,2.5-6.2,1.2-.9,4,.5,6.3.9-.1-.6-.3-1.3-.5-2.1h1.6c-.6-.9-1.3-1.8-2-2.7.3,0,.6.2.8.3,0,0,.2,0,.2,0,1.2.4,2.3.7,3.5,1.1.4.1.9.2,1.3.3,3.1.8,6.2,1.6,9.3,2.4h.1c.7.4,1.4.7,2.1,1h0c1.5.4,3,.9,4.6,1.4,0,0,0,0,0,0l1.5,1.1h0c.3.4.6.7.9,1h0c.2.2.5.4.7.6h0c.2.2.5.4.7.6h0c.3.1.5.4.8.6.2.2.4.3.6.5.7.5,1.4.9,2.1,1.4.4.2.8.4,1.2.6,4.8,3.1,9.9,2.1,15,1.2,2.4,1,4.8,2.1,7.1,3.1-4.9,1.1-9.7,2.2-14.6,3.3-1.1.2-2.3.4-3.4.7-3.5,1-6.9,2.1-10.4,3.2-1.9.2-3.9.4-5.8.6-2.1,0-4.2-.2-6.2.2-3.3.5-6.5,1.4-9.8,2.1-1.5.4-3,.9-4.5,1.3-.5.2-.9.4-1.4.5-2.1,1.1-4.3,2.2-6.4,3.3,0,0,0,0,0,0l-.8.6s0,0,0,0c-1.5.5-3,.9-4.5,1.4ZM36.5,229.2c0-.2,0-.4-.2-.5-.1,0-.3.1-.5.2,0,.2,0,.4.2.5.1,0,.3-.1.5-.2Z"/>
        <path class="cls-1" d="M284.8,184.4c-2.6,7.7-4.8,15.6-7.8,23.1-4.3,10.7-10.4,20.4-18,29.2.5-1.3-1.1-1.9-1.2-2.4-.3-2.7-3.6-1.6-4.3-3.7,0-.1-1.1-.1-1.1,0-.9,2.3-2.2,1-3.5.5-.7-.3-1.7,0-2.5.3-2.5,1.2-4.9,2.7-7.5,3.9-.7.3-1.8-.2-3.1-.4-.2.2-.8,1.3-1.5,1.4-4,.4-7.6,1.2-9.3,5.8-.8-1.1-1.4-1.8-1.9-2.5-2.8.6-5.6.6-6.3,4-.5-.2-1-.5-1.4-.7-.4-.3-.9-.5-1.3-.8.5,0,1.1-.2,1.6-.3,0-.1,0-.3-.1-.4-.5.2-1,.4-1.5.6-1.6.6-3.2,1.2-4.8,1.7-1,.3-2,.3-3.1.5h0c-1-.4-1.9-.9-2.9-1.4-.1-.1-.2-.2-.4,0-.7-.4-1.5-.7-2.2-1.1-1.1-1.3-2.1-2.6-3.4-4.3,3.3-1.5,6.2-2.8,9.1-4.1.2.2.3.3.5.5-1.4,1.5-2.7,3-4.6,5,1.7-.3,2.8-.3,3.7-.7,6.1-2.7,12.2-5.2,16.9-10.2,3.4-3.6,5.5-8.5,10.7-10.4.1.2.3.4.4.6-1.2,1.6-2.4,3.2-3.6,4.8,4.9-.2,10.9-3.2,17.1-9.1,8.5-8.2,11.6-18.7,12.2-30.2,0,.9.2,1.8.3,2.8,0,3.7,0,7.3,0,11,0,.2,0,.4.2.6,0,.5,0,.9,0,1.4-1.2,3.6-2.5,7.2-3.6,10.5,1.5-1.2,3.4-2.7,5.3-4.2,5.8-4.8,9.5-10.7,11.1-18.2,1.5-7.3,0-14-2.3-20.8,0,0,.1-.2.2-.2,0,0,.3,0,.3,0,1.3,3.5,3.2,7,3.8,10.6.5,3.3-.4,6.9-.8,11.1,2.3-.3,4.3-.6,6.3-.9,0,0,0,.2-.1.3,0,0,0-.2.1-.3,1-1.7,1.8-3.7,4.4-2.6ZM283.1,186.8c0-.2.2-.4.2-.5,0-.1-.3-.2-.5-.2,0,.2-.2.4-.2.5,0,.1.3.2.5.2Z"/>
        <path class="cls-14" d="M73,229.2c.7.9,1.3,1.8,2,2.7h-1.6c.2.8.3,1.5.5,2.1-2.3-.4-5.1-1.8-6.3-.9-1.5,1-1.7,3.9-2.5,6.2-1.8-1.3-3.4-1-3.9,1.6-2.3-1.5-4.4-2.1-6.9-.8-.7.4-2.8-1-3.7-2-1.6-1.9-2.9-4.2-4.3-6.4-.6-.9-1-1.9-1.6-3-2,.6-4,.8-4.4-2.4.6-.1,1.2-.2,1.7-.4.7-.3,1.2-.8,1.8-1.3-.6-.4-1.2-.9-1.8-1.3-1.8-1-3.5-1.9-5.2-2.8-1.4,1.6-2.7,3.2-4.2,5,1.7,0,3.3-.2,5.1-.2-2.9,3-3.4,3.1-10.2,1.1-.3,1.4-.7,2.8-1,4.2-3.8-6.1-7.9-12-11.4-18.2-2-3.4-3.2-7.2-4.7-10.9,0-1.8.2-3.7.3-5.5.3.4.6.8.9,1.2.7-1.1,1.3-2.3,1.9-3.2,1.1,2.7,2,3.5,4.7,3-.5-.9-1-1.8-1.3-2.4,3-5.6,5.9-11,8.6-16,1.6.4,2.4.6,3.1.8h0c-1.3,2-1,5.1-4,5.7,0,1.7-.7,4,.1,5,1.9,2.2,3.3,4.9,5.3,6.9,1.8,1.9,4.6,3,7,4.5,1.3-.4,2-3.7,4-.8.3.4,1.1.4,1.7.6,0,1.8-.1,3.6.1,5.4.3,1.9,1,3.6,1.6,5.4h-.1c.2.5.4.9.7,1.4h0c.2.4.4.8.6,1.3h0c.3.6.6,1.3.8,1.9,2.7,2.4,5.4,4.8,8.2,7.2,1.3.6,2.6,1.2,3.9,1.9,0,0,0,0,0,0,.2,0,.3.2.5.3.3-1.5-.2-2.3-1.9-2.1h0c.6-2.1,1.9-1,2.9-.5,1,.5,1.8,1.2,3.2,2.1.2-1.5.4-2.3.5-3.2.2.2.5.3.7.5l.2.2c.3.3.6.5.9.8h0c.8.7,1.7,1.4,2.5,2h0c.3.1.5.3.8.5h0c.4.3.8.6,1.2.8h0c1.1.6,2.3,1.3,3.4,1.9ZM62.9,236c-.2,0-.3-.1-.5-.2,0,.2-.2.4-.2.5,0,.1.3.2.5.2,0-.2.1-.3.2-.5Z"/>
        <path class="cls-18" d="M287.8,130.5c.3,9.6.6,19.1,1,28.7-1.6.8-3.1,1.6-4.7,2.3-2,.9-3.9,2.2-6.2.9,0,0-.2,0-.3-.1,0,0,.2.1.3.2-.5.5-1,.9-1.5,1.4-.2-.7-.4-1.5-.6-2-2-.6-4.2-1.3-6.3-2-1.1-.4-2.2-.8-3.3-1.2-3-3.9-6.1-7.8-9.1-11.7,0,0,.1-.1.2-.2,0,0,0-.1-.1-.1,0,0-.2,0-.3.1v-.2c0-1.9-.1-3.6-2.6-3.9h0v-3.1c.9,0,1.6,0,2.1.1v-6.4c-2.5-1.1-3.2-2.4-1.4-4.9.7-.9.1-2.8.1-4.5,4.1,1.5,8.6,3.1,12.9,4.6-.2,1.2-.3,2.2-.5,3.1,1.7-.6,3.1-1.1,4.4-1.7-.6-.7-1.4-1.6-2.6-2.9,2.3-.6,4.1-1,6-1.5,0,2.1-.2,3.5,0,4.8.2.7,1.2,1.5,2,1.8.6.2,1.5-.3,2.2-.7,1.2-.6,2.3-1.3,3.5-2-.4-.3-1.3-.8-2.2-1.3,1-1.4,1.9-2.6,3.3-4.6,1.1,3,1.9,5,2.7,7,0,.1.6,0,.8,0ZM256.5,141.1v-.2c0,0,0,.2,0,.3,0,0,0,.2-.1.2,0,0,0-.2.1-.2Z"/>
        <path class="cls-9" d="M287.8,130.5c-.3,0-.8,0-.8,0-.8-2-1.5-4-2.7-7-1.4,1.9-2.3,3.2-3.3,4.6.9.5,1.8,1.1,2.2,1.3-1.2.7-2.3,1.4-3.5,2-.7.3-1.6.9-2.2.7-.8-.3-1.8-1-2-1.8-.3-1.3,0-2.7,0-4.8-1.9.5-3.7.9-6,1.5,1.2,1.3,1.9,2.1,2.6,2.9-1.4.5-2.8,1-4.4,1.7.1-.9.3-1.9.5-3.1-4.3-1.5-8.8-3.1-12.9-4.6,0,1.7.6,3.6-.1,4.5-1.8,2.5-1.1,3.8,1.4,4.9v6.4c-.4,0-1.2,0-2.1-.1,0,1.1,0,2.1,0,3.1-.8-1.7-1.7-3.5-2.4-5.2-4.9-11-4.5-22.8-4.9-34.4.5,1.3,1.3,2.6,1.4,4,.2,3.4,0,6.9,0,10.4.5,0,.9,0,1.4,0v-7.7c1,1.3,1.5,2.3,2.2,2.8,1.5,1.2,2.9,2.9,4.8,0,1.8-2.6,4-1.6,5.8.9,1.2-3.1,2.9-4.7,6.1-3.4.5.2,1.6-1,2.7-1.7.6.5,1.6,1.4,2.8,2.6-.7.8-2,2-3.2,3.3-.3-.1-.6-.2-1-.4.4.8.8,1.5,1.1,2.3.8-.5,1.5-1,2.4-1.4,1.2-.7,2.5-1.3,4.2-2.1.7,1.6,1.3,3.1,2,4.7.4-.7.7-1.3,1-1.9.4-.7.7-1.3,1.1-2,.9.6,1.8,1.2,2.8,1.8,0,0,.2,0,.3,0,0,0,.2-.2.2-.2.9,5.2,1.8,10.3,2.7,15.5ZM266.9,115c.5,0,1-.1,1.5-.2-.2-1.1-.4-2.1-.6-3.2-.4,0-.8,0-1.1.1,0,1.1.2,2.2.2,3.3ZM269.8,117.2c-.1-.3-.2-.5-.3-.8-.7.3-1.4.4-2,.8-.2.1,0,.9.2,2.2,1-1.1,1.5-1.7,2.1-2.3Z"/>
        <path class="cls-20" d="M28.3,179.3c-.8-.2-1.6-.4-3.1-.8-2.7,5-5.6,10.4-8.6,16,.3.5.8,1.4,1.3,2.4-2.7.5-3.6-.2-4.7-3-.5.9-1.2,2.1-1.9,3.2-.3-.4-.6-.8-.9-1.2,0,1.8-.2,3.7-.3,5.5-5.3-12.9-8.2-26.3-9.6-40.1,2,.1,3.9.2,5.9.5.4,0,.8.6,1.1,1,2.5,3.1,3.4,3.2,7,.9.7,1.1,1.4,2.2,1.8,2.7,1.5-.4,2.4-.6,3.4-.9.3,2.1,4.9,2.7,1.5,6.2,1.8-.3,3-.5,4.2-.7.8,1.5,1.8,2.9,2.4,4.5.4,1.2.4,2.6.5,3.9Z"/>
        <path class="cls-18" d="M0,148.9c3.7-1,7.1-1.3,10.2,1.7.5.5,1.7.4,2.5.3,2.5-.3,5-.8,6.9,1.8.3.5,1.9,0,3,0h0c.6,1.3,1.1,2.6,1.8,4.2.3-.2.7-.6,1.2-1,.3,3.5,2.9,3,5.2,3.2.5,0,1,.3,1.5.4.8,0,1.6,0,2.4,0-.1-.7-.3-1.4-.4-2.1h0c1.6,0,2.8,0,3.3,2.1.6,2.1,2.1,3.4,5.3,1.7-2.2,4.4,0,6.3,2.3,8.9,1.8,1.9,2.3,4.9,5.8,4.8.2,0,.4,1.3.7,1.9,0,0,0,0,0,0,0,0-.2.1-.2.1,0,.1.1.3.2.4.2.1.4.2.6.4-2.1,4.4-4.3,8.9-6.4,13.3-.6-.6-1.3-1.3-1.9-1.9.2-.2.3-.4.5-.7,0,0-.2-.1-.2-.2l-.2.8c-.7-.9-2-1.9-1.9-2.8.2-3.3-.6-5.9-3.6-7.1-2.5-1.1-1.2-3.5-2.4-4.9.2-.4.4-.8.7-1.3,1,0,2-.1,2.8-.2-.5-2.7-.9-5-1.4-7.9-1.1-.5-2.9-1.4-4.6-2.3-.2,0-.4,0-.6,0h-.6c-.2,0-.4,0-.7,0-1.1-2.5-2.2-1.4-3.2,0-.7,0-1.6.4-2,0-3.6-2.2-7-4.5-10.6-6.7-.9-.5-2-1.1-3-1.1-4.2,0-8.4.3-12.6.5,0-2.1,0-4.3-.1-6.4ZM48.9,178.4c0-.2-.1-.4-.2-.5,0,0-.2.1-.2.2,0,.2,0,.4,0,.6.1,0,.2-.2.4-.2ZM42.4,168.9c0,0,0-.2-.1-.2,0,0-.2.1-.2.2,0,0,0,.2.1.2,0,0,.1-.1.2-.2Z"/>
        <path class="cls-14" d="M216.9,243.6c.6-3.4,3.5-3.4,6.3-4,.5.6,1.1,1.4,1.9,2.5,1.7-4.6,5.3-5.4,9.3-5.8.7,0,1.3-1.2,1.5-1.4,1.3.2,2.4.7,3.1.4,2.6-1.2,5-2.6,7.5-3.9.7-.3,1.8-.5,2.5-.3,1.4.5,2.6,1.8,3.5-.5,0-.1,1.1-.1,1.1,0,.6,2.1,4,1,4.3,3.7,0,.5,1.7,1.1,1.2,2.4-1.5,2-3,4-4.5,6-1.5.2-3,.4-4.5.6h0c-1.4,0-3.3.7-4.2,0-3.6-2.4-6.6-2.2-9.5,1-3,3.2-6.5,3.4-8.2.8-1.3,1.1-2.5,2.2-3.8,3.2-.8-.3-1.6-.5-2.4-.8-.7-.4-1.3-.8-2-1.2-.5-.4-.9-.8-1.4-1.2-.2-.2-.5-.4-.7-.6-.3-.3-.5-.6-.8-.9Z"/>
        <path class="cls-5" d="M266.1,158.7c1.1.4,2.2.8,3.3,1.2,2.1.7,4.2,1.3,6.3,2,.2.6.4,1.3.6,2,.5-.5,1-.9,1.5-1.4h0c2.3,1.2,4.3,0,6.2-1,1.6-.8,3.1-1.5,4.7-2.3-1.3,8.4-2.6,16.8-3.9,25.2-2.7-1.1-3.4,1-4.4,2.6h0c-2,.3-4,.6-6.3.9.4-4.2,1.3-7.7.8-11.1-.6-3.7-2.5-7.1-3.8-10.6,0,0-.2,0-.3,0,0,0-.1.2-.2.2-1.5-2.6-3-5.3-4.4-7.9ZM284.7,162.7c0,.2-.2.4-.2.5,0,.1.3.2.5.2,0-.2.2-.4.2-.5,0-.1-.3-.2-.5-.2Z"/>
        <path class="cls-14" d="M28.3,179.3c-.2-1.3,0-2.7-.5-3.9-.6-1.6-1.5-3-2.4-4.5-1.2.2-2.5.4-4.2.7,3.4-3.5-1.1-4.1-1.5-6.2-1,.3-1.9.5-3.4.9-.3-.5-1.1-1.6-1.8-2.7-3.6,2.3-4.5,2.1-7-.9-.3-.4-.7-1-1.1-1-1.9-.2-3.9-.3-5.9-.5,0-.6,0-1.3,0-1.9,1.9-.2,3.2-3.1,5.6-1.1.1.1.6,0,.9-.3,2.4-2,4.7-.4,6.8.4,2.2.8,4.1,2.3,6,3.7.8.6,1.3,1.7,2.1,2.2,3.5,1.8,7.2,3.5,11.1,5.4-2.8,2.1-1.8,4.4-.9,6.7.4.9.9,1.7,1.4,2.5-.2.2-.5.4-.7.6-1.5,0-3,0-4.5,0h0Z"/>
        <path class="cls-20" d="M250,243.2c1.5-.2,3-.4,4.5-.6-3.6,3.7-7.1,7.4-10.7,11.2-6.5-1.8-13.1-3.6-19.6-5.5,1.3-1.1,2.5-2.2,3.8-3.2,1.7,2.7,5.3,2.4,8.2-.8,3-3.2,6-3.3,9.5-1,1,.6,2.8,0,4.2,0,.2.4.3.7.5,1.1.1,0,.3-.2.4-.3-.3-.3-.6-.5-.9-.8Z"/>
        <path class="cls-1" d="M33.6,178.7c-.5-.8-1-1.6-1.4-2.5-1-2.3-2-4.6.9-6.7-3.9-1.9-7.6-3.6-11.1-5.4-.9-.4-1.3-1.6-2.1-2.2-1.9-1.3-3.9-2.8-6-3.7-2.1-.8-4.5-2.3-6.8-.4-.2.2-.7.4-.9.3-2.3-2-3.7.9-5.6,1.1-.1-1.3-.3-2.7-.4-4,4.2-.2,8.4-.4,12.6-.5,1,0,2.1.5,3,1.1,3.6,2.2,7,4.5,10.6,6.7.5.3,1.4,0,2,0,1.1,2,2.2,2,3.2,0,.2,0,.4,0,.7,0,.2,0,.4,0,.6,0,.2,0,.4,0,.6,0-.7,2.8,1.5,4.4,2.6,6.4,0,0,0,0,0,0,.2,1.3.4,2.6.6,3.9-.2.4-.4.8-.7,1.3-.6,1-1.1,2-1.7,3-.3.5-.5,1.1-.8,1.6Z"/>
        <path class="cls-16" d="M96.8,253.6c3.5-1.1,6.9-2.2,10.4-3.2,1.1-.3,2.3-.5,3.4-.7,1.7,0,3.3.2,5,.3-.6.2-1.1.3-1.7.5-.5.2-1,.4-1.5.6-.5.2-.9.4-1.4.6-.8.3-1.7.6-2.5.9,0,0,0,0,0,0-1.5.5-3,1-4.5,1.5,0,0,0-.1,0-.1-2.8.8-5.6,1.7-8.5,2.5-5.5.6-11,1.2-16.5,1.9-.4,0-.7.8-1,1.3-4.7,1.7-9.5,3.4-14.2,5.2-.9.3-1.6.9-2.4,1.4-.5-.2-1-.5-1.5-.7.6-1.1,1.3-2.2,1.9-3.3,0,0,0,0,0,0,.3-.2.5-.4.8-.6,0,0,0,0,0,0,.3,0,.7-.1,1-.2.5-.3,1-.5,1.5-.8,0,0,0,0,0,0,.5-.2.9-.5,1.4-.7,0,0,0,0,0,0,.5-.2.9-.5,1.4-.7,0,0,0,0,0,0,1.9-.7,3.8-1.5,5.6-2.2,0,0,.1,0,.1,0,2.5.5,4.9.7,6.8-1.4h.2c5.7,1.3,11-.6,16.4-2.2Z"/>
        <path class="cls-17" d="M224.2,248.3c6.5,1.8,13.1,3.6,19.6,5.5-.4.4-.8.8-1.2,1.2-2.5-.9-5.1-1.8-7.6-2.7-.1.5-.3,1.1-.4,1.6,2.6.4,5.3.7,7.9,1.1-.5.5-1,1-1.6,1.5-4.5-1.2-9.1-2.2-13.5-3.7-3.5-1.2-6.6-3.3-9.9-5,0,0,.1-.2.1-.2,1.6.6,3.1,1.3,4.7,1.9.1-.2.2-.4.3-.6-.4-.5-.8-.9-1.1-1.4,0,0,.2-.2.3-.3.8.3,1.6.5,2.4.8ZM227.6,251.6l.2-1c-1.3-.2-2.5-.4-3.8-.6,0,.3,0,.6-.1.9l3.8.7ZM229.8,251.9c0,.2-.3.4-.2.5,0,.1.3.2.5.2,0-.2.3-.4.2-.5,0-.1-.3-.2-.5-.3Z"/>
        <path class="cls-7" d="M143.5,0c-3.3,0-6.5.1-9.8.2,3.3,0,6.5-.1,9.8-.2Z"/>
        <path class="cls-13" d="M61.9,262c-.6,1.1-1.3,2.2-1.9,3.3-.9-.6-1.7-1.3-2.6-1.9,1.5-.5,3-.9,4.5-1.4Z"/>
        <path class="cls-7" d="M153,.3c-3.1,0-6.1-.1-9.2-.2,3.1,0,6.1.1,9.2.2Z"/>
        <path class="cls-6" d="M266.1,158.7c1.5,2.6,3,5.3,4.4,7.9,2.2,6.8,3.8,13.4,2.3,20.8-1.6,7.6-5.3,13.4-11.1,18.2-1.9,1.6-3.8,3.1-5.3,4.2,1.1-3.3,2.3-6.9,3.6-10.5.3,0,1-.2,1-.3,0-4.1,0-8.1,0-12.2,0-.2-.7-.4-1.1-.5,0-.9-.2-1.8-.3-2.8-.6,11.6-3.7,22-12.2,30.2-6.1,5.9-12.2,8.9-17.1,9.1,1.2-1.6,2.4-3.2,3.6-4.8.2-.2.4-.5.5-.7,0-.1.1-.3.2-.4,0,0-.2,0-.2,0,0,.1,0,.3,0,.4-.3,0-.6,0-1,.1-5.1,1.8-7.3,6.7-10.7,10.4-4.7,5-10.9,7.5-16.9,10.2-.9.4-2,.4-3.7.7,1.8-2,3.2-3.5,4.6-5-.2-.2-.3-.3-.5-.5-2.9,1.3-5.8,2.6-9.1,4.1,1.3,1.7,2.4,3,3.4,4.3.7.4,1.5.7,2.2,1.1.1-.1.3,0,.4,0-.3,3,1.8,1.2,2.9,1.4,0,0,0,0,0,0,.6,1.4,1.2,2.9,1.9,4.3,0,0,0,0,0,0-.2.2-.5.4-.7.7,0,0,0,0,0,0-.2.2-.5.4-.7.6,0,0,0,0,0,0-.7-.4-1.3-.9-2-1.3h0c.2-.2.4-.4.6-.7h0c0,0,.2-.1.2-.2,0-.2-.1-.3-.2-.4-.3-.1-.6-.2-1-.3h-.2c-1.8-1-3.5-2-5.3-3,0,0,0,0,0,0-1.1-1.1-2.2-2.2-3.3-3.3-.2-.2-.3-.4-.5-.6-.2-.3-.5-.5-.7-.8h.1c-.3-.4-.5-.8-.8-1.2h0c-.2-.4-.5-.8-.7-1.3h0c-.7-3.1-1.3-6.3-2-9.3-2.7-.3-5.3-.7-7.9-1h0c-.4-.2-.9-.4-1.3-.7h0c-.2-.2-.5-.4-.7-.7,0,0,.1,0,.1,0-.1-.4-.2-.8-.3-1.2,1.4-1.6,2.7-3.2,4.1-4.8.2-.2.4-.3.6-.5.3-.6.6-1.2.8-1.8,0-.4,0-.8,0-1.3.1-.3.4-.6.4-.9,0-8.7,0-17.3,0-26,0-.4-.2-.8-.4-1.2h0c.4-.7.8-1.3,1.2-2-.2,0-.4-.2-.6-.3-.1.3-.2.5-.3.8-.7.8-1.3,1.5-2,2.3-13.7,17.2-34.4,25-51.3,38.5,2.3,9.4,3.3,19.5,1.6,29.8-.6,1.3-1.1,2.5-1.7,3.8v-13.8c-5.8,3-10.6,5.4-15.4,7.9-.3-.7-.6-1.5-.9-2.2.6-.4,1.3-.8,1.9-1.2.5-.2.9-.5,1.4-.7,0,0,0,0,0,0,.4-.3.9-.5,1.3-.8,0,0,0,0,0,0,.9-.1,2.6-.3,2.6-.4,0-2.3,1.7-2,3.1-2.2.3,0,.6-.8.8-1.2h0c.4-.3.8-.6,1.1-.9,0,0,0,.1,0,.1.3-.3.7-.5,1-.8.8-.6,1.6-1.2,3-2.4-4.7-.5-8.6-.8-12.5-1.2-.8-.3-1.5-.5-2.3-.8,0,0,0,0,0,0-.5-.2-.9-.5-1.4-.7h.1c-.5-.1-1-.3-1.4-.6h0c-2.8-1.8-5.5-3.6-8.3-5.5l-.6.6c2.2,2.2,4.4,4.3,6.7,6.5h0c.3.1.5.4.8.6,0,0,0,0,0,0,.4.3.7.7,1.1,1-1.2.3-2.4.7-3.6.7-3,0-6-.3-9.1-.5-.4-.2-.8-.4-1.2-.6-.7-.5-1.4-.9-2.1-1.4-.2-.2-.4-.3-.6-.5-.3-.2-.5-.5-.8-.7,0,0,0,0,0,0-.2-.2-.5-.4-.7-.7,0,0,0,0,0,0-.2-.2-.5-.5-.7-.7,0,0,0,0,0,0-.3-.3-.6-.6-.9-1,0,0,0,0,0,0-.5-.4-1-.7-1.5-1.1,0,0,0,0,0,0-1.5-.5-3-.9-4.6-1.4,0,0,0,0,0,0-.7-.3-1.4-.7-2.1-1,0,0-.1,0-.1,0-2.5-3.3-6.1-2.2-9.3-2.4-.4-.1-.9-.2-1.3-.3-1.2-.4-2.3-.7-3.5-1.1,0,0-.2,0-.2,0-1.4-.7-2.8-1.5-4.2-2.2,0,0,0,0,0,0-.4-.3-.8-.5-1.2-.8,0,0,0,0,0,0-.3-.2-.5-.4-.8-.6,0,0,0,0,0,0-.8-.7-1.7-1.4-2.5-2,0,0,0,0,0,0-.3-.3-.6-.5-.9-.8,0,0-.2-.2-.2-.2-.3-.3-.5-.6-.8-1-.2-.2-.4-.4-.6-.6-.2-.2-.4-.5-.6-.7h0c-.3-.4-.5-.8-.8-1.2-3.4-4-5.5-8.5-6.2-13.7.2-1.1.4-2.3.6-3.4-.4-.2-.8-.3-1.3-.5-.3.9-.5,1.7-.8,2.6,0,.2,0,.5,0,.7-.5,1.2-1.4,2.3-1.5,3.5-.4,4.2-1,8.5,2.5,11.8h0c0,1.1-.1,2.2-.2,3.4-2.7-2.4-5.4-4.8-8.2-7.2-.3-.6-.6-1.3-.8-1.9,0,0,0,0,0,0-.2-.5-.4-.9-.6-1.4,0,0,0,0,0,0-.2-.5-.4-.9-.7-1.4,0,0,.1,0,.1,0-.2-4.1-.3-8.2-.5-12.3,0-.8-.3-1.6-.4-2.4.8-2.2,1.7-4.3,2.5-6.5,2.1-4.4,4.3-8.9,6.4-13.3.1-.2.2-.5.3-.7,0,0,0-.1,0-.1.3-.4.6-.9.9-1.3,0-.3.2-.6.3-1,.2-.5.5-1.1.7-1.6,0,0,0,0,0,0,.2-.4.4-.9.7-1.3,0,0,0,0,0,0,1-4.1,2.1-8.2,3.1-12.3v-.6c.3-1.7.4-3.4.6-5.2.5-3.6-.5-6.5-2.4-9.7-2.5-4.3-4-9.1-5.9-13.7-.8,5.6-.2,10.9,3.7,16.1-11.1-4.5-13.1-12.5-14-20.7-.9-7.6.5-15,2.4-22.3,5.6-22,14.8-42.3,29-60,14.1-17.6,32.7-28.9,54.6-34.3,1-.2,2.1-.4,3.1-.7.6-.1,1.2-.2,1.9-.3.7,0,1.3-.2,2-.3.2,0,.5,0,.7,0,1.2.2,2.5.5,3.7.5,5.2-.1,10.5-.4,15.7-.6,1,0,2.1-.3,3.1-.5.5,0,.9,0,1.4,0,2.2.4,4.3.7,6.5,1.1.2,0,.4,0,.6.1.2,0,.4,0,.6,0,.4,0,.9,0,1.3,0,.2.2.5.4.7.6.2,0,.4,0,.6.1,1,0,2.1,0,3.1,0,6.8.9,13,3.4,18.7,7.2.9.6,2.1,1.2,3.2,1.4,14.9,3.3,26.3,11.7,35,24,9.7,13.6,14.4,29.1,17.1,45.4.6,4.9,1.2,9.9,1.8,14.8,0,.4,0,.9,0,1.3.4,11.7,0,23.4,4.9,34.4.8,1.8,1.6,3.5,2.4,5.2,0,0,0,0,0,0,.8,1.3,1.6,2.6,2.4,3.9,0,0,.1.2.1.2s.2.2.2.2c3,3.9,6.1,7.8,9.1,11.7ZM116.9,216.6c.3.2.6.4.8.6h0c.4.2.8.5,1.3.7,0,0,0,0,0,0,.4.2.9.5,1.3.7h0c2.8,2,7.1,2,10.1-.3,0,0,0,.1,0,.1,1.5-.5,3-.9,4.5-1.4h0c1.3-.4,2.5-.9,3.8-1.3h.1c1.1-.3,2.2-.8,3.3-1.2h0c1.1-.4,2.2-.9,3.4-1.3.8-.3,1.6-.7,2.3-1,16.6-7.4,30.9-17.5,40.6-33.4,1.4-2.2,2.7-4.5,4.1-6.7,3.8,1.7,7.4,3,11.1,1.2,8.2-4,15.6-9,20-17.4,2.5-2.4,3.9-8.7,2.6-11.6h0c-.4-.2-.8-.4-1.2-.7,0,0,0,0,0,0-.7-.4-1.4-.7-2.1-1.1,0,0,.1,0,.1,0-.4-.3-.8-.5-1.2-.8-.4.6-.8,1.2-1.3,2-1-3.9-4.1-6.6-7.8-7.2-.7-.8-1.4-1.6-2.1-2.4l-.9-.2h0c-.7-.4-1.4-.8-2.1-1.1,0,.2-.2.3-.2.5-.4,1.3-.8,2.6-1.2,3.9h0c-.3.6-.6,1.2-.8,1.8h0c0,.1,0,0,0,0-.5.9-.9,1.9-1.4,2.8-3.5,4.5-7.1,9-10.6,13.5-.2.2-.5.5-.7.7h0c-.6.4-1.2.9-2.1,1.6.5-3.3.9-6.2,1.3-9,0,.2.1.4.2.6.1.1.3.2.6.4,0-6.2.1-12.3,0-18.4,0-2.1-1.1-4.1-1.6-6.1-.2-.5-.3-1.1-.5-1.6v-.2c-.5-1.6-1.1-3.3-1.6-4.9,0,0,0,0,0,0-.2-.3-.4-.5-.6-.8h0c-.3-.2-.5-.5-.8-.7-3.9-3.7-7.8-7.5-11.7-11.2-.5-.2-.9-.4-1.4-.7h0c-.9-.4-1.8-.8-2.7-1.2h0c-.9-.4-1.8-.8-2.7-1.2h0c-.6-.2-1.2-.6-1.8-.9h0c-.5-.2-.9-.4-1.4-.6h0c-.5-.2-.9-.4-1.4-.6h0c-1.7-.7-3.4-1.4-5.1-2.1-2.7-.6-5.5-1.9-8.2-1.8-5.7.2-11.4,1.1-17.1,1.8.1-.4.2-.7.4-1.1h0c.2,0,.3,0,.4-.2.4-.2.9-.3,1.3-.5,1.7-.7,3.3-1.4,5-2.1,4.9,0,9.7,0,14.6-.1,0,0,0-.1,0-.1,1.7.5,3.4,1.1,5.1,1.6,1.5.6,3.1,1.1,4.6,1.7h.3c2.1,1.4,4.2,2.7,6.3,4,.1-.2.2-.3.4-.5l-5.1-7.2h0c-.2-.4-.5-.8-.7-1.3,0,0,0,0,0,0-.3-.6-.5-1.2-.8-1.9-5.2-10.6-10.8-20.9-13.5-32.6-1.6,3.4-2.5,6.8-4.1,9.9-6.5,12.8-14.8,24.1-26.3,32.9-4.3,2.2-8.6,4.4-12.9,6.7-.2-.3-.4-.7-.7-1,7.8-8.7,13.4-18.7,17.5-29.5.7-1.9,1.3-3.9,2-5.8h0c.2-.4.5-.9.7-1.3h0c.7-1.5,1.3-3.1,2-4.6-.2,0-.4-.2-.6-.3-1,1.4-1.9,2.8-2.9,4.2-.9.9-1.8,1.8-2.6,2.8-8.2,10-17,19.3-28.6,25.8.9.7,1.6,1.3,2.3,1.9.7,1.4,1.4,2.8,2.2,4.5-2.5-1.3-4.6-2.3-6.6-3.4-1.3,0-2.8-.4-4,0-4.2,1.4-8.1,3.5-10.8,7.2l-.8,1.3h0c-.2.2-.4.5-.6.8v.2c-.3-.7-.6-1.3-.9-2,0-.3-.2-.7-.3-1-1.2,1.1-3.3,2-3.6,3.3-.7,3.2-.5,6.7-.7,10,0,.3.1.6.2,1-2.2,2.7-1.8,8.9.6,11,.9,4.7,1.7,9.5,2.6,14.2.2,1.1.8,2.1,1.2,3.2,0,.2.2.4.2.6,0,.5,0,.9,0,1.4.1,1,.3,1.9.4,2.9v4.7c0,1-.1,2,0,2.9.9,3.8,1.9,7.5,2.8,11.3h-.1c-.3,3,.2,5.7,2.7,7.7h0c.4.7.7,1.4,1.1,2.1,3.6,4.2,6.9,8.7,10.8,12.7,6.5,6.5,13.4,12.6,20.2,18.9.4.3.8.6,1.1.9h0c.3.2.5.4.8.6,0,0,0,0,0,0ZM212.6,211c.2-.2.5-.4.7-.6,1.6-1.2,3.5-2.1,4.9-3.5,8.7-9.6,12.5-21.2,13.9-33.9.3-2.5,1-4.9,1.4-7.4,2.2,22.9-6.1,40.6-26.1,52.9,9.9,1.7,19,1.5,27.1-5.1,5-4.1,9-8.8,11.7-14.7h0c0,.7.1,1.3.2,2-1.3,3-2.4,6-3.9,9-1.2,2.4-2.8,4.7-4.2,7-.3.3-.6.7-.8,1,.1.1.2.2.4.3.3-.3.6-.6.9-1,3.3-2.6,6.9-5,9.8-8,4.7-4.8,5.5-11.4,7.4-17.5,1.9-11.3.5-22.2-3.9-32.7-.3-.7,0-1.7,0-2.6,2.9,6.9,5.9,13.8,8.5,20.8,2.9,7.6,4.3,15.5,2.7,23.7,4.6-5.7,7.9-11.8,7.5-19.3-.4-8.9-3.7-16.7-9.2-23.7-4.6-5.9-9-12-13.2-18.2-7.4-10.9-9-23.9-12.3-36.2.3,0,.5-.2.8-.3,2.8,9,5.6,17.9,8.5,26.9.3,0,.5-.2.8-.3-.4-3.2-.9-6.4-1.1-9.6-.9-14.3-1.3-28.6-5-42.5-.6-2.1-1.5-4.2-2.2-6.3-1.9-4.9-3.8-9.9-5.7-14.8-.1-.3-.3-.5-.4-.8h0c-6.3-14.2-15.9-25.2-30.1-31.4-7.4-3.3-15.1-5.9-22.6-9-16.4-6.7-33.6-5.5-50.7-3-4.7.7-9.4,2.4-13.9,4.2-14.3,5.4-26.6,13.9-37,25.2-9.7,9.9-16.3,21.8-21.9,34.3h0c-.8,1.5-1.5,3-2.3,4.5-2.3,6.3-4.9,12.6-7,19-2.5,7.8-3.9,15.9-3.6,24.1.1,4.5,1.1,9,4.1,13.2,1.2-12.7,2.9-24.6,7.7-35.8.2.9,0,1.7-.2,2.5-2.6,8.9-3.2,18-.8,27,2.6,9.4,7.5,17.3,15.8,22.7.3.2.5.3.8.5,0-.3-.2-.7-.3-1-3.4-11.9-3.3-24.1-1.8-36.2.8-6.8,2.3-13.6,4.6-20,2.9-8.2,6.9-15.9,10.5-23.9.9-1.1,0-3.7,2.8-3.2-.2.7-.4,1.4-.7,2.1-2.7,6.8-5.8,13.4-8.1,20.3-1.5,4.4-2,9.1-2.9,13.7-.3.2-.6.4-1,.6.1.1.2.3.4.4.2-.3.5-.6.7-.9,2.3-1.8,5.4-3.2,6.6-5.6,7.5-14.4,16.4-27.8,27.7-39.4,5.9-6,12.8-11,19.2-16.4.4.1.9.3,1.3.4-1.3,1-2.6,1.9-3.9,2.9-15,12-26.1,27.3-36.2,43.3-1.1,1.7-1.8,3.5-2.7,5.3,5.6,2.1,9.3-1,13-3.6,10.3-7.3,18.8-16.4,26.4-26.3,3.8-4.9,7.5-10,11.2-15-4.5,17.1-10.1,33.6-19.7,48.4,0,.2-.2.3-.3.5.2,0,.5,0,.7,0,13.5-8.5,22.2-21,28.9-35.1,2.6-5.5,4.2-11.5,6.1-16.7,6.8,32,22.7,58.7,49.8,78.3-2.5-3.6-5.4-7-7.9-10.7-12.2-17.9-17.1-38.8-24.8-58.6l.2-.2c.7,1,1.5,1.8,1.9,2.9,5.3,12.6,10.5,25.2,16,37.7,7.7,17.6,18.2,33,35.6,42.4,5.4,2.9,11.3,4.9,17,7.4-2.2-4.2-4.8-7.6-7.2-11.1-11.2-16.6-16.9-35.7-24.6-53.9-4.4-10.5-8.6-21.2-16-30-5.6-6.6-11.6-12.9-20.9-14.5,4.1-1.7,7.8-1,11.5,1.5,7.7,5.3,13.7,12.1,18.2,20.2,7.6,13.8,13.2,28.4,18.1,43.3,3.9,12,9.8,23.2,16.9,33.6,2.5,3.6,5.6,6.8,8.5,10.1,1.4,1.6,3.1,2.8,4.7,4.2-1,.1-2,.6-2.9.4-4.9-1.3-9.8-2.8-14.7-4.2-1-.4-2-.8-3.2-1.2-1.2,8.2-4.5,15.2-10,21.1-.5.6-1,1.5-.9,2.2.4,2.9,1.6,5.9,1.5,8.8-.2,7-.5,14.1-1.7,21-.6,3.9-3,7.5-4.6,11.2-.2.2-.4.5-.6.7,0,.1-.2.2-.3.3.1,0,.2-.2.3-.3ZM65.8,154.8c-1.3-1.2-2.7-2.4-4.3-3.8,0,.8-.2,1.2-.1,1.6.4,10.2-2.1,19.5-7.4,28.2-3.6,6-6.6,12.3-7.3,19.4-.5,5-.3,9.8,2.9,14.7.2-2.9.2-5.1.5-7.3,1.2-8.8,5.3-16.5,8.9-24.4.2.6.8,1.5.6,1.9-2.9,5.4-2.6,11.2-2.1,16.9.7,7.9,3.2,15.1,10.1,20,4.3,3,8.6,5.8,14.4,6.2-.3-.7-.5-1.1-.7-1.4-1.9-3.1-4.7-5.9-5.6-9.3-1.6-5.9-2.7-12.2-2.6-18.3.2-10.6,1.6-21.1,2.2-31.7.2-2.9-.7-5.9-1.2-8.8,0-.4-1-.7-1.5-1-2.3-1-4.5-2-6.8-2.9ZM107.7,240.1c.1,0,.3.1.4.2,0-.1-.1-.3-.2-.4-5.6-8.2-5.5-17.9-7.6-27,3.5,6.4,5,13.7,11.3,18.5,6.2,4.7,12.8,7.1,20.6,6.5.8-4.8-1.2-8.6-3.5-12-1.2-1.8-3.7-2.9-5.8-3.9-2.7-1.3-6-1.7-8.2-3.4-6.5-5-12.9-10.3-18.9-16-5-4.8-9.6-10.1-13.6-15.8-2.5-3.5-3.4-8.1-5.1-12.4-.3,3.6-.3,7.1-.8,10.5-1.8,12.5-1.5,24.7,4.6,36.1,2.7,5,5.6,10,12.4,10.4-1.6-7.2-3.1-14.3-4.7-21.4l1.1-.2c.2.7.4,1.4.7,2.1,2.1,6.5,4,13.1,6.3,19.6,1.8,5.1,5.8,7.7,11,8.8ZM215.2,170.2c-4.4,2.3-8.1,4.2-11.8,6.2-.6.3-1.2,1.2-1.3,2-.4,2.1-.4,4.3-.7,6.4-1.6,11.5-4,22.8-10.9,32.6-1.4,2-2.6,4.1-3.8,6.1l.3.7c3.9-1,7.8-1.9,11.7-3,.4-.1.9-1.1.9-1.7,0-2.5,1.2-3.2,3.5-3.6,1.8-.4,4-1.6,4.9-3.1,6.2-10.2,10.1-21.1,8.8-33.3-.3-3-1.1-6-1.7-9.3ZM200.6,177.1c-2.5-.4-4.7-.7-6.9-1-6.9,11.7-3.8,24.1-4.2,36.2,7.8-10.4,8.3-23,11.1-35.2ZM193.7,123.6c.4,8.6.7,17.1,1.1,26.2,4.3-4.6,7.5-9.4,9.1-15,.4-1.4-.4-3.8-1.5-4.8-2.7-2.5-5.9-4.4-8.7-6.4ZM195.9,233.3c6.4.8,15-5.4,16.3-11.7-6.6-1.6-11.6,3-17.6,4.4.4,2.6.9,5,1.2,7.3ZM73.8,153.9c-1.2-8.9-2.4-17.9-3.6-26.8-1.4,10.4.1,23.2,3.6,26.8ZM211.5,232.1c5.7-1.4,8.7-5.8,12.3-9.8-6.6,0-10.6,3.1-12.3,9.8Z"/>
        <path class="cls-17" d="M156.2,6.8c-1,.2-2.1.5-3.1.5-5.2.3-10.5.5-15.7.6-1.2,0-2.5-.3-3.7-.5,7.5-.2,15-.4,22.5-.6Z"/>
        <path class="cls-9" d="M246.8,101.7c-.6-4.9-1.2-9.9-1.8-14.8.5,1.1,1.3,2.1,1.4,3.3.3,3.9.3,7.7.4,11.6Z"/>
        <path class="cls-17" d="M164.1,8c-2.2-.4-4.3-.7-6.5-1.1,2.2.4,4.3.7,6.5,1.1Z"/>
        <path class="cls-17" d="M129.1,8.1c-1,.2-2.1.4-3.1.7,1-.2,2.1-.4,3.1-.7Z"/>
        <path class="cls-17" d="M133,7.5c-.7,0-1.3.2-2,.3.7,0,1.3-.2,2-.3Z"/>
        <path class="cls-17" d="M171.1,8.8c-1,0-2.1,0-3.1,0,1,0,2.1,0,3.1,0Z"/>
        <path class="cls-9" d="M268.5,108.3c-.2,0-.4.2-.5.2-.1,0-.1-.3-.2-.5.2,0,.4-.2.5-.2.1,0,.1.3.2.5Z"/>
        <path class="cls-9" d="M273.5,105.8c-.3.2-.4.3-.5.3,0,0-.3,0-.3,0,0-.1,0-.3,0-.4.2,0,.4,0,.8.2Z"/>
        <path class="cls-17" d="M165.3,8c-.2,0-.4,0-.6,0,.2,0,.4,0,.6,0Z"/>
        <path class="cls-17" d="M167.4,8.6c-.2-.2-.5-.4-.7-.6.2.2.5.4.7.6Z"/>
        <path class="cls-9" d="M23.8,102.4c0,0,0,.2-.1.2,0,0,0-.2.1-.2h0Z"/>
        <path class="cls-17" d="M204.8,248.4c.7.4,1.3.9,2,1.3-13.6,12.5-27.8,24.2-43.7,33.9-5.7,3.5-11.6,5-17.8,6-13.6,2.3-25.4-5.1-30.6-18.5,0,0,.2-.2.2-.2.9-.9,1.8-1.8,2.7-2.7,4.3,1.4,8.6,2.9,12.9,4.3,0,.2-.1.3-.2.5-4.2-.8-8.3-1.6-12.6-2.5,2,7.5,6.5,12,13,14.7.5.2,1.1.5,1.6.7h0c.6.3,1.2.7,1.8,1.1-.5,0-1.1,0-1.6.1v.5c.6-.2,1.1-.4,1.6-.6,5.6.7,11.2,1.2,16.6-1.1v.2s.2,0,.2,0c1.9-.7,3.8-1.4,5.7-2.1,0,0,0,0,0,0,.4-.2.9-.4,1.3-.6,0,0,0,0,0,0,.6-.3,1.2-.6,1.7-1,0,0,0,0,0,0,.7-.4,1.4-.7,2.1-1.1,0,0,0,0,0,0,.5-.3,1-.6,1.5-.9,4.7-2.9,9.3-5.8,14-8.7-.2-.5-.4-1-.6-1.5-6.7,1.3-13.3,2.5-19.5,3.7,4-2.7,9-4,14.4-4.5,6.1-.5,11.7-1.8,16.3-6.4,5.2-5.2,10.8-10,16.3-14.9.2,0,.4,0,.7,0ZM118.6,275.4c-.2-.1-.3-.2-.5-.3,0,.2,0,.3,0,.5,0,0,.2.2.2.2.1,0,.2-.2.3-.3Z"/>
        <path class="cls-17" d="M191.5,278c8.9-7.5,17.7-15,26.6-22.4-7.2,9.4-16.7,16.2-26.6,22.4Z"/>
        <path class="cls-17" d="M117.5,252.1c.3.7.6,1.5.9,2.2-.9.8-1.9,1.7-2.8,2.5-.2.3-.4.6-.6.8,0,.1,0,.3,0,.4.2,3,.4,6,.6,9.1-.4,0-.9,0-1.3,0,0,0-.2,0-.3-.1,0,0,.2.1.2.2.2,1.3.5,2.6.7,3.8,0,0-.2.2-.2.2-4.3-7.9-3.7-14.7,2.7-19.1ZM113.1,260.6c.2,0,.3,0,.5,0,0-.4-.1-.8-.2-1.2,0,0-.2,0-.3,0v1.2ZM113.3,263c0,.2,0,.3,0,.5,0,0,.2-.1.2-.2,0,0,0-.2-.1-.3Z"/>
        <path class="cls-17" d="M102.2,258.3c.3,0,.6,0,.9,0-.6,4.2-1.8,8.3,0,12.5,1.3,4.5,2.5,9,3.9,14-3.2-5.3-5.4-10.6-5.9-16.4.3-3.4.7-6.7,1-10.1Z"/>
        <path class="cls-17" d="M128.5,245.8c-.3.4-.5,1.1-.8,1.2-1.4.2-3,0-3.1,2.2,0,.2-1.7.3-2.6.4.4-.3.8-.5,1.2-.8,0-.2,0-.4-.1-.6-2.5.6-4.9,1.2-7.4,1.7-1.7,0-3.3-.2-5-.3,4.9-1.1,9.7-2.2,14.6-3.3,1.1-.2,2.1-.4,3.2-.6Z"/>
        <path class="cls-17" d="M208.1,248.5c-.6-1.4-1.3-2.9-1.9-4.3,1-.2,2.1-.2,3.1-.5,1.6-.5,3.2-1.1,4.8-1.7,0,0,0,0,0,0,.4.3.9.5,1.3.8-.1.1-.2.2-.4.4-.3.2-.6.4-.9.5.3.3.6.5.9.8,0,0,0,0,0,0,0,.4,0,.8,0,1.2h0c-1.2,0-2.4-.2-3.6-.3,0-.1-.2-.2-.3-.3,0-.4-.2-.8-.3-1.2-.4.2-.9.5-1.3.7.3.4.6.8.9,1.2,0,0,.2.2.3.3-.9.8-1.8,1.6-2.7,2.4Z"/>
        <path class="cls-17" d="M78.1,259.4c.3-.4.6-1.2,1-1.3,5.5-.7,11-1.3,16.5-1.9h0c-.8.4-1.7.8-2.5,1.1,0,0-.2-.2-.2-.2-3.3.5-6.7.9-10,1.4-1.6.3-3.3.5-4.9.8Z"/>
        <path class="cls-14" d="M103.2,270.8c-1.8-4.1-.7-8.3,0-12.5,0,1.5.1,2.9.1,4.4,0,2.7,0,5.4,0,8.1Z"/>
        <path class="cls-14" d="M102.2,258.3c-.3,3.4-.7,6.7-1,10.1-1.6-2.4-1.1-7.8,1-10.1Z"/>
        <path class="cls-20" d="M83,258.6c3.3-.5,6.7-.9,10-1.4-3.3.5-6.7.9-10,1.4Z"/>
        <path class="cls-17" d="M95.6,256.2c2.8-.8,5.6-1.7,8.5-2.5-2,.7-4,1.5-6.1,2.2-.8.1-1.6.2-2.3.4h0Z"/>
        <path class="cls-20" d="M95.7,256.3c.8-.1,1.6-.2,2.3-.4-1.6.5-3.2.9-4.8,1.4.8-.3,1.7-.7,2.5-1Z"/>
        <path class="cls-17" d="M104.1,253.9c1.5-.5,3-1,4.5-1.5-1.5.5-3,1-4.5,1.5Z"/>
        <path class="cls-17" d="M217.6,247.9c-.5-.4-1-.8-1.4-1.1,0,0,.2-.2.3-.3.4.4.9.8,1.3,1.3,0,0-.1.2-.1.2Z"/>
        <path class="cls-17" d="M108.5,252.5c.8-.3,1.7-.6,2.5-.9-.8.3-1.7.6-2.5.9Z"/>
        <path class="cls-17" d="M112.4,251c.5-.2,1-.4,1.5-.6-.5.2-1,.4-1.5.6Z"/>
        <path class="cls-17" d="M216.1,246.8c-.3-.3-.7-.7-1-1,0,0,0,0,0,0,.4.2.8.5,1.3.7,0,0-.2.2-.3.3Z"/>
        <path class="cls-17" d="M122,249.5c-.4.3-.9.5-1.3.8.4-.3.9-.5,1.3-.8Z"/>
        <path class="cls-17" d="M120.7,250.2c-.5.2-.9.5-1.4.7.5-.2.9-.5,1.4-.7Z"/>
        <path class="cls-17" d="M211.5,245.5c-.2.2-.4.4-.7.6,0,0-.2-.2-.3-.3l.6-.6c.1.1.2.2.3.3Z"/>
        <path class="cls-17" d="M207.4,249.2c.2-.2.5-.4.7-.7-.2.2-.5.4-.7.7Z"/>
        <path class="cls-17" d="M206.7,249.7c.2-.2.5-.4.7-.6-.2.2-.5.4-.7.6Z"/>
        <path class="cls-18" d="M58,159.2c-1,4.1-2.1,8.2-3.1,12.3,1-4.1,2.1-8.2,3.1-12.3Z"/>
        <path class="cls-18" d="M58.6,153.4c-.2,1.7-.3,3.4-.5,5.2-.9-1.8-1.7-3.6.5-5.2Z"/>
        <path class="cls-2" d="M15,108c-.4.6-.7,1.1-1.1,1.7-.3-.3-.6-.7-1-1,.5-.5,1-1,1.6-1.5.2.3.3.5.5.8Z"/>
        <path class="cls-18" d="M55,171.6c-.2.4-.4.9-.7,1.3.2-.4.4-.9.7-1.3Z"/>
        <path class="cls-18" d="M54.3,172.9c-.2.5-.5,1.1-.7,1.6.2-.5.5-1.1.7-1.6Z"/>
        <path class="cls-18" d="M53.3,175.4c-.3.4-.6.9-.9,1.3.3-.4.6-.9.9-1.3Z"/>
        <path class="cls-18" d="M32.5,156.2c0-.2,0-.3,0-.3,0,0,.2,0,.2,0,0,.1,0,.2-.1.4Z"/>
        <path class="cls-18" d="M34.1,157.3c0,0-.2-.1-.3-.2,0,0,.2,0,.3.1,0,0,0,0,0,0Z"/>
        <path class="cls-18" d="M52.5,176.9c-.1.2-.2.5-.3.7-.2-.1-.4-.2-.6-.4,0-.2,0-.3,0-.5,0,0,0,0,0,0,.3,0,.6.2.8.3Z"/>
        <path class="cls-18" d="M22.5,152.8c0,0,.1-.2.2-.3,0,0,0,.2-.1.3,0,0,0,0,0,0Z"/>
        <path class="cls-14" d="M128.5,245.8c-1.1.2-2.1.4-3.2.6-2.4-1-4.8-2.1-7.1-3.1,0-.4,0-.7,0-1.1-1.1-.5-2.2-.9-3.3-1.4,0,0,0,0,0,0-.3-.2-.5-.5-.8-.7,0,0,0,0,0,0-.2-.6-.4-1.3-.7-1.9,1.1.1,2,.2,2.9.3,0,0,0,0,0,0,.5.2,1,.4,1.4.7,0,0-.1,0-.1,0,.5.2.9.5,1.4.7,0,0,0,0,0,0,.8.3,1.5.5,2.3.8,3.9.4,7.7.8,12.5,1.2-1.5,1.1-2.2,1.8-3,2.4-.3.3-.7.5-1,.8,0,0,0-.1,0-.1-.4.3-.8.6-1.1.9h0Z"/>
        <path class="cls-17" d="M118.1,242.1c0,.4,0,.7,0,1.1-5.1.9-10.2,1.9-15-1.2,3,.2,6,.5,9.1.5,1.2,0,2.4-.5,3.6-.7.7.1,1.5.2,2.2.4Z"/>
        <path class="cls-17" d="M96.8,253.6c-5.3,1.6-10.6,3.5-16.4,2.2,3.5-.5,7-1.1,10.6-1.6,1.9-.2,3.9-.4,5.8-.6Z"/>
        <path class="cls-13" d="M91,254.1c-3.5.5-7,1.1-10.6,1.6,0,0-.2,0-.2,0-1.7.2-3.4.4-5.2.6h0c3.3-.8,6.5-1.6,9.8-2.1,2-.3,4.1-.1,6.2-.2Z"/>
        <path class="cls-17" d="M78.8,230.9c3.3.2,6.9-.9,9.3,2.4-3.1-.8-6.2-1.6-9.3-2.4Z"/>
        <path class="cls-13" d="M63.7,261.3c-.3,0-.7.1-1,.2,2.1-1.1,4.3-2.2,6.4-3.3h0c-.5.4-1,.8-1.5,1.1,0,0,0,0,0,0-.5.2-.9.5-1.4.7,0,0,0,0,0,0-.5.2-.9.5-1.4.7,0,0,0,0,0,0-.5.3-1,.5-1.5.8Z"/>
        <path class="cls-17" d="M69.6,227.2c1.4.7,2.8,1.5,4.2,2.2-.3,0-.6-.2-.8-.3-1.1-.7-2.3-1.3-3.4-2Z"/>
        <path class="cls-13" d="M70.5,257.6c1.5-.4,3-.9,4.5-1.3,0,0,0,0,0,0-.6.2-1.1.5-1.7.7,0,0-.1,0-.1,0-.9.2-1.8.4-2.7.7h0Z"/>
        <path class="cls-17" d="M74,229.5c1.2.4,2.3.7,3.5,1.1-1.2-.4-2.3-.7-3.5-1.1Z"/>
        <path class="cls-17" d="M90.3,234.3c1.5.5,3,.9,4.6,1.4-1.5-.5-3-.9-4.6-1.4Z"/>
        <path class="cls-14" d="M36.5,229.2c-.2,0-.4.2-.5.2-.1,0-.1-.3-.2-.5.2,0,.4-.2.5-.2.1,0,.1.3.2.5Z"/>
        <path class="cls-17" d="M88.2,233.3c.7.3,1.4.7,2.1,1-.7-.3-1.4-.7-2.1-1Z"/>
        <path class="cls-17" d="M99.9,240.1c.7.5,1.4.9,2.1,1.4-.7-.5-1.4-.9-2.1-1.4Z"/>
        <path class="cls-17" d="M94.8,235.6c.5.4,1,.7,1.5,1.1-.5-.4-1-.7-1.5-1.1Z"/>
        <path class="cls-17" d="M96.3,236.8c.3.3.6.6.9,1-.3-.3-.6-.6-.9-1Z"/>
        <path class="cls-13" d="M69.1,258.2c.5-.2.9-.4,1.4-.5,0,0,0,.1,0,.1-.5.2-.9.3-1.4.5h0Z"/>
        <path class="cls-17" d="M97.2,237.7c.2.2.5.5.7.7-.2-.2-.5-.5-.7-.7Z"/>
        <path class="cls-17" d="M97.8,238.3c.2.2.5.4.7.7-.2-.2-.5-.4-.7-.7Z"/>
        <path class="cls-17" d="M98.5,238.9c.3.2.5.5.8.7-.3-.2-.5-.5-.8-.7Z"/>
        <path class="cls-13" d="M62.7,261.4c-.3.2-.5.4-.8.6l.8-.6Z"/>
        <path class="cls-17" d="M259.9,186.4c.4.2,1.1.3,1.1.5,0,4.1,0,8.1,0,12.2,0,.1-.6.2-1,.3,0-.5,0-.9,0-1.4,0,0,.1-.2.1-.2,0-.1-.2-.3-.3-.4,0-3.7,0-7.3,0-11Z"/>
        <path class="cls-17" d="M206.2,244.3c-1.1-.2-3.2,1.6-2.9-1.4,1,.5,1.9.9,2.9,1.4Z"/>
        <path class="cls-17" d="M216.9,243.6c.3.3.5.6.8.9h0c-.9,0-1.7,0-2.6,0,0,0,0,0,0,0,0-.4,0-.9,0-1.3.1-.1.2-.3.4-.4.5.2,1,.5,1.4.7Z"/>
        <path class="cls-5" d="M283.1,186.8c-.2,0-.4-.1-.5-.2,0-.1.1-.3.2-.5.2,0,.4.1.5.2,0,.1-.1.3-.2.5Z"/>
        <path class="cls-17" d="M203,242.8c-.7-.4-1.5-.7-2.2-1.1.7.4,1.5.7,2.2,1.1Z"/>
        <path class="cls-14" d="M214.1,242c.5-.2,1-.4,1.5-.6,0,.1,0,.3.1.4-.5,0-1,.2-1.6.3,0,0,0,0,0,0Z"/>
        <path class="cls-5" d="M280.4,187c0,0,0,.2-.1.3,0,0,0-.2.1-.3,0,0,0,0,0,0Z"/>
        <path class="cls-6" d="M259.9,197.4c0,.1.2.2.3.4,0,0,0,.1-.1.2-.1-.2-.2-.4-.2-.6Z"/>
        <path class="cls-1" d="M28.4,179.3c1.5,0,3,0,4.5,0-.5,3.3-1,6.6-1.5,10,.8.5,1.6,1,2.6,1.6.5-.9.9-1.7,1-2,.7.6,1.3,1.4,2.1,1.7,3.5,1.1,5.6,3.1,5.7,7,0,1.2-.1,2.5-.2,3.7-.6-.2-1.4-.2-1.7-.6-2.1-2.9-2.8.5-4,.8-2.4-1.5-5.2-2.6-7-4.5-2-2.1-3.4-4.7-5.3-6.9-.8-1-.1-3.2-.1-5,2.9-.5,2.7-3.7,4-5.7Z"/>
        <path class="cls-1" d="M54.9,205.7c.8,5.2,2.8,9.7,6.2,13.7.3.4.5.8.8,1.2h0c.2.3.4.5.6.7.2.2.4.4.6.6,0,.2,0,.3,0,.5-.1.9-.3,1.7-.5,3.2-1.4-.9-2.3-1.6-3.2-2.1-1-.5-2.2-1.7-2.9.5-.8-1.1-1.6-2.3-2.3-3.4,0,0,0,0,0,0-2-5-2.1-10.1-1-15.4,0-.2,0-.5,0-.7.5.4,1,.9,1.5,1.3Z"/>
        <path class="cls-13" d="M42.5,201.2c0-1.2.1-2.5.2-3.7.2,0,.4,0,.6-.1.1.8.3,1.6.4,2.4.2,4.1.4,8.2.5,12.3-.5-1.8-1.3-3.6-1.6-5.4-.3-1.8-.1-3.6-.1-5.4Z"/>
        <path class="cls-17" d="M54.3,220.5c.8,1.1,1.6,2.3,2.3,3.4,0,0,0,0,0,0l1.4,1.8c-1.3-.6-2.6-1.2-3.9-1.9,0-1.1.1-2.3.2-3.4Z"/>
        <path class="cls-1" d="M58.1,225.8l-1.4-1.8c1.7-.2,2.2.6,1.9,2.1-.2,0-.4,0-.5-.3h0Z"/>
        <path class="cls-17" d="M65.2,223.9c.8.7,1.7,1.4,2.5,2-.8-.7-1.7-1.4-2.5-2Z"/>
        <path class="cls-20" d="M62.9,236c0,.2-.1.3-.2.5-.2,0-.4-.1-.5-.2,0-.1.1-.3.2-.5.2,0,.3.1.5.2Z"/>
        <path class="cls-13" d="M45.2,214.8c.3.6.6,1.3.8,1.9-.3-.6-.6-1.3-.8-1.9Z"/>
        <path class="cls-13" d="M44,212.1c.2.5.4.9.7,1.4-.2-.5-.4-.9-.7-1.4Z"/>
        <path class="cls-13" d="M44.6,213.4c.2.5.4.9.6,1.4-.2-.5-.4-.9-.6-1.4Z"/>
        <path class="cls-17" d="M63.3,222.4c0-.2,0-.3,0-.5.3.3.5.6.8,1-.2-.2-.5-.3-.7-.5Z"/>
        <path class="cls-17" d="M64.2,223.1c.3.3.6.5.9.8-.3-.3-.6-.5-.9-.8Z"/>
        <path class="cls-17" d="M68.5,226.4c.4.3.8.5,1.2.8-.4-.3-.8-.5-1.2-.8Z"/>
        <path class="cls-17" d="M58,225.7c.1.2.3.3.5.3-.2,0-.3-.2-.5-.3Z"/>
        <path class="cls-17" d="M67.6,225.8c.3.2.5.4.8.6-.3-.2-.5-.4-.8-.6Z"/>
        <path class="cls-9" d="M256.7,146.5c-.8-1.3-1.6-2.6-2.4-3.9,2.4.3,2.6,1.9,2.4,3.9Z"/>
        <path class="cls-5" d="M277.8,162.5c0,0-.2-.1-.3-.2,0,0,.2,0,.3.1,0,0,0,0,0,0Z"/>
        <path class="cls-9" d="M256.5,141.1c0,0,0-.2.1-.3v.2c-.1,0-.1,0-.1,0Z"/>
        <path class="cls-9" d="M256.5,141.1c0,0,0,.2-.1.2,0,0,0-.2.1-.2,0,0,0,0,0,0Z"/>
        <path class="cls-9" d="M257,146.9s-.2-.2-.2-.2c0,0,.2-.1.3-.1,0,0,.1.1.1.1,0,0-.1.1-.2.2Z"/>
        <path class="cls-2" d="M266.9,115c0-1.1-.2-2.2-.2-3.3.4,0,.8,0,1.1-.1.2,1.1.4,2.1.6,3.2-.5,0-1,.1-1.5.2Z"/>
        <path class="cls-2" d="M269.8,117.2c-.5.6-1.1,1.2-2.1,2.3-.2-1.3-.4-2.1-.2-2.2.6-.4,1.3-.6,2-.8.1.3.2.5.3.8Z"/>
        <path class="cls-5" d="M43.2,197.4c-.2,0-.4.1-.6.1,0-3.8-2.2-5.9-5.7-7-.8-.3-1.4-1.1-2.1-1.7-.2.3-.5,1.1-1,2-1-.6-1.7-1.1-2.6-1.6.5-3.3,1-6.7,1.5-10,.2-.2.5-.4.7-.6.3-.5.5-1.1.8-1.6.5-1,1.1-2,1.7-3,1.1,1.5-.1,3.9,2.4,4.9,2.9,1.3,3.7,3.8,3.6,7.1,0,.9,1.2,1.9,1.9,2.8h0c.6.7,1.3,1.3,1.9,1.9-.8,2.2-1.7,4.3-2.5,6.5Z"/>
        <path class="cls-5" d="M36.1,168.9c-1.1-2-3.3-3.6-2.6-6.4,1.8.9,3.5,1.7,4.6,2.3.5,2.9.9,5.2,1.4,7.9-.8,0-1.8,0-2.8.2-.2-1.3-.4-2.6-.6-3.9.2-.2.4-.4.6-.6,0,0,0-.2.1-.2,0,0,0,.2-.1.3-.2.2-.4.4-.6.6Z"/>
        <path class="cls-5" d="M31.6,162.5c-1.1,2-2.2,2-3.2,0,1.1-1.4,2.2-2.5,3.2,0Z"/>
        <path class="cls-9" d="M48.9,178.4c-.1,0-.3.2-.4.2,0-.2,0-.4,0-.6,0,0,.1-.1.2-.2,0,.2.1.4.2.5Z"/>
        <path class="cls-5" d="M43.8,188.9l.2-.8c0,0,.2.1.2.2-.2.2-.3.4-.5.7,0,0,0,0,0,0Z"/>
        <path class="cls-9" d="M42.4,168.9c0,0-.1.1-.2.2,0,0-.1-.2-.1-.2,0,0,.1-.1.2-.2,0,0,0,.2.1.2Z"/>
        <path class="cls-5" d="M32.8,162.5c-.2,0-.4,0-.6,0,.2,0,.4,0,.6,0Z"/>
        <path class="cls-9" d="M51.6,176.7c0,.2,0,.3,0,.5,0-.1-.1-.2-.2-.4,0,0,.1,0,.2-.1Z"/>
        <path class="cls-17" d="M219.8,246.3c.7.4,1.3.8,2,1.2,0,0-.2.2-.3.3-.6-.4-1.3-.9-1.9-1.3l.2-.2Z"/>
        <path class="cls-17" d="M218.4,245.1c.5.4.9.8,1.4,1.2,0,0-.2.2-.2.2-.4-.4-.9-.9-1.3-1.3h.1Z"/>
        <path class="cls-17" d="M217.7,244.5c.2.2.5.4.7.6,0,0-.1.1-.1.1-.2-.2-.4-.4-.6-.6h0Z"/>
        <path class="cls-18" d="M284.7,162.7c.2,0,.4.1.5.2,0,.1-.1.3-.2.5-.2,0-.4-.1-.5-.2,0-.1.1-.3.2-.5Z"/>
        <path class="cls-14" d="M250,243.2c.3.3.6.5.9.8-.1,0-.3.2-.4.3-.2-.4-.3-.7-.5-1.1h0Z"/>
        <path class="cls-17" d="M73.4,257.2c.6-.2,1.1-.5,1.7-.7,1.7-.2,3.4-.4,5.2-.6-2,2-4.4,1.9-6.8,1.4Z"/>
        <path class="cls-17" d="M69.1,258.2c.5-.2.9-.3,1.4-.5.9-.2,1.8-.4,2.7-.7-1.9.7-3.8,1.5-5.6,2.2.5-.4,1-.7,1.5-1.1Z"/>
        <path class="cls-17" d="M66.3,259.9c.5-.2.9-.5,1.4-.7-.5.2-.9.5-1.4.7Z"/>
        <path class="cls-17" d="M65,260.6c.5-.2.9-.5,1.4-.7-.5.2-.9.5-1.4.7Z"/>
        <path class="cls-17" d="M63.7,261.3c.5-.3,1-.5,1.5-.8-.5.3-1,.5-1.5.8Z"/>
        <path class="cls-6" d="M217.7,244.6c.2.2.4.4.6.6.4.4.9.9,1.3,1.3.6.4,1.3.9,1.9,1.3.4.5.8.9,1.1,1.4-.1.2-.2.4-.3.6-1.6-.6-3.1-1.3-4.7-1.9-.4-.4-.9-.8-1.3-1.3-.4-.2-.8-.5-1.3-.7,0-.4,0-.8,0-1.2.9,0,1.7,0,2.6,0Z"/>
        <path class="cls-6" d="M242.6,255l-7.9-1.1c.1-.5.3-1.1.4-1.6,2.5.9,5.1,1.8,7.6,2.7,0,0,0,0,0,0Z"/>
        <path class="cls-6" d="M227.6,251.6l-3.8-.7c0-.3,0-.6.1-.9,1.3.2,2.5.4,3.8.6l-.2,1Z"/>
        <path class="cls-6" d="M229.8,251.9c.2,0,.4.1.5.3,0,.1-.1.3-.2.5-.2,0-.5-.1-.5-.2,0-.1.1-.3.2-.5Z"/>
        <path class="cls-10" d="M237.7,71.3c.7,2.1,1.6,4.1,2.2,6.3,3.7,13.9,4.1,28.3,5,42.5.2,3.2.7,6.4,1.1,9.6-.3,0-.5.2-.8.3-2.8-9-5.6-17.9-8.5-26.9-.3,0-.5.2-.8.3,3.3,12.3,4.8,25.3,12.3,36.2,4.2,6.2,8.7,12.3,13.2,18.2,5.4,7,8.7,14.8,9.2,23.7.4,7.5-2.9,13.6-7.5,19.3,1.7-8.3.2-16.1-2.7-23.7-2.6-7-5.7-13.9-8.5-20.8,0-1,0-2,0-2.3h4.3c-1.5-1.8-2.5-3-3.5-4.3-1.1.4-2.1.8-3.2,1.2-1.6-1.4-3.3-2.7-4.7-4.2-3-3.3-6.1-6.5-8.5-10.1-7.1-10.4-13-21.6-16.9-33.6-4.8-15-10.5-29.6-18.1-43.3-4.5-8.1-10.5-14.9-18.2-20.2-3.6-2.5-7.4-3.2-11.5-1.5,9.3,1.6,15.3,7.9,20.9,14.5,7.5,8.8,11.6,19.5,16,30,7.6,18.2,13.4,37.3,24.6,53.9,2.4,3.5,5,6.9,7.2,11.1-5.7-2.4-11.5-4.5-17-7.4-17.4-9.4-27.9-24.8-35.6-42.4-5.5-12.5-10.6-25.1-16-37.7-.4-1.1-1.3-1.9-1.9-2.9-.2-.2-.5-.4-.7-.6,0-.3,0-.6,0-.1-.3-.4-.1-.2,0,0,.2.3.3.5.5.8,7.7,19.8,12.6,40.7,24.8,58.6,2.5,3.7,5.4,7.1,7.9,10.7-27-19.6-43-46.3-49.8-78.3-1.9,5.2-3.5,11.2-6.1,16.7-6.6,14.1-15.3,26.6-28.9,35.1-.1-.1-.3-.3-.4-.4,9.6-14.9,15.3-31.4,19.7-48.4-3.7,5-7.4,10.1-11.2,15-7.7,9.9-16.2,19-26.4,26.3-3.8,2.7-7.5,5.7-13,3.6.9-1.7,1.6-3.6,2.7-5.3,10.1-16.1,21.2-31.3,36.2-43.3,1.3-1,2.6-1.9,3.9-2.9,4.3-2.2,8.5-5,13.7-4.3-5.8-1.8-10.3,1.2-15,3.8-6.4,5.4-13.4,10.4-19.2,16.4-11.3,11.6-20.3,25-27.7,39.4-1.2,2.4-4.4,3.8-6.6,5.6,0,0-.1-.1-.1-.1.9-4.6,1.4-9.3,2.9-13.7,2.3-6.9,5.4-13.5,8.1-20.3.3-.7.5-1.4.7-2.1,0,0,0,0,0,0,0-.4,0-.9,0-1.3,1.8-3.2,3.6-6.4,5.4-9.6-.4-.3-.7-.6-1.1-.9-1.1.8-2.3,1.6-3.2,2.6-1.2,1.2-2.3,2.4-3.2,3.7-1.3,1.9-2.7,3.7-3.4,5.8-.8,2.2,2.1,1.5,2.8,2.7-3.5,7.9-7.6,15.7-10.5,23.9-2.3,6.4-3.7,13.3-4.6,20-1.5,12.1-1.5,24.3,1.8,36.2-.2.2-.4.3-.5.5-8.3-5.4-13.3-13.3-15.8-22.7-2.5-9.1-1.8-18.1.8-27,.2-.8.4-1.6.2-2.5-4.8,11.2-6.5,23.1-7.7,35.8-3.1-4.2-4-8.7-4.1-13.2-.3-8.2,1.1-16.3,3.6-24.1,2.1-6.4,4.6-12.7,7-19,.8-1.5,1.5-3,2.3-4.5,0,0,0,0,0,0,3-.1,3.4-2.7,4.6-4.6,1-1.6,1.9-3.4,3.2-4.7,3.1-2.9,5.7-2.6,6.7.2,1.7-1.3,3.3-2.7,5.4-4.3v5c7.2-1.7,7.7-7.9,9.5-13.1.3-.9-.3-2.2-.5-4-3.4,5.1-6.9-.4-9.8,2.2,0-.3-.2-.5-.3-.8,2.8-4,5.6-8,8.4-11.9.3-.1.5-.2.8-.4,0,0-.2-.2-.2-.2-.2.1-.5.3-.7.4-.9.4-1.8.9-2.7,1.2-.8.3-1.7.5-2.6.7,10.4-11.3,22.7-19.7,37-25.2,4.5-1.7,9.1-3.5,13.9-4.2,17.1-2.5,34.3-3.7,50.7,3,7.5,3.1,15.2,5.8,22.6,9,14.2,6.2,23.8,17.3,30.1,31.4-1.8-1.2-3.6-2.5-5.4-3.7-.3.2-.5.5-.8.7,1.7,3.9,3.5,7.8,5.2,11.7-.4.2-.8.4-1.2.6-1.7-2.8-3.4-5.5-5-8.3-.8-1.6-1.3-3.2-3.7-2.4-2.4.9-2.2,2.8-1.6,4.5,1.2,3.6,2.9,7.1,4.2,10.8,1.1,3,3,4.8,6.8,4.7-.1-1.8-.4-3.6-.3-5.4,0-.8.5-1.6.8-2.4.7.5,1.5,1,1.9,1.7.9,1.4,1.6,3,2.4,4.4,1.1-.4,2-.8,2.9-1.1ZM170.5,29.3c.9-.4,1.8-.8,2.7-1.2,2.9-1,5.8-2,8.8-3-.1-.3-.3-.6-.4-1-2.9,1.2-5.8,2.4-8.6,3.6-.8.5-1.6,1-2.4,1.5l-2.1.6c0,.2.1.3.2.5.6-.4,1.3-.8,1.9-1.1ZM166,30.6c.2.1.4.3,0,0,.4.1.1,0,0,0-.2-1-.4-2-.6-3l-.8.3c.5.9.9,1.8,1.4,2.8ZM100.1,35.1c5.4-2.2,10.8-4.7,16.3-6.5,11.8-3.9,23.5-5,34.6,2.1.2.1.3.3.5.4,0-.3,0-.5,0-.8-1.8-1.6-3.4-3.7-5.5-4.7-8.9-4.4-18.2-3.8-27.2-.8-6.8,2.3-13.5,5-18.6,10.3,0,0-.2,0-.2.1,0,0,0,.1,0,.2,0-.1.1-.2.2-.3ZM213.8,59.7c-1.9,2.8.6,11.3,3.5,12.1.6.2,2.3-1,2.3-1.4-.3-4.3-2.3-7.8-5.7-10.7ZM184.7,59.9c2.2,4,4,7.3,5.8,10.6,1.2-.3,2.1-.5,3-.7-.5-5.3-3.6-9-8.8-9.9ZM164.2,25.5c-1.8-4.9-10.2-9.6-13.3-7.6,4.4,2.5,9.1,5.2,13.3,7.6ZM182.7,69c-1.2-1.3-2.1-2.4-3-3.4-.5.4-1.4,1.1-1.4,1.3.7,1.3,1.6,2.5,2.5,3.7.5-.4,1-.8,1.9-1.6Z"/>
        <path class="cls-15" d="M77.5,159.8c0-1.6,0-3.2,0-4.7-.1-1-.3-1.9-.4-2.9,0-.5,0-.9,0-1.4,1-5.1.2-10-1.8-14.7h.2c-.6-3.5-1.1-6.9-1.7-10.4.8-3.5,1.6-6.9,2.4-10.4,1.4-1.1,2.7-2.3,4.1-3.4,4.5-3.6,9-7.3,13.5-10.9,2,1,4.1,2.1,6.6,3.4-.8-1.7-1.5-3.1-2.2-4.5,2.6-2,5.4-3.8,7.9-6,6.5-5.7,12.9-11.6,19.3-17.4.2.2.5.5.7.7-4.1,10.8-9.7,20.8-17.5,29.5.2.3.4.7.7,1,4.3-2.2,8.6-4.4,12.9-6.7.7,0,1.6.4,2,.2,2.3-1.5,4.9-2.8,6.8-4.8,4.6-5,9.1-10.2,13.3-15.6,2.9-3.7,5.3-7.8,8.1-11.9,1.4,3.7,2.7,7.4,4.2,10.9,2.1,4.7,4.3,9.4,8.9,12.3.5.2.9.4,1.4.6,0,0,0,0,0,0,.2.4.5.9.7,1.3,0,0,0,0,0,0,.1,1.2.3,2.3.4,3.6-.3,0-1.1.1-1.9.2,0,0-.3,0-.3,0-1.5-2.6-4-3-6.7-3-5.6-3.9-17.4-2.1-22.2.5-.3.2-.3,1-.4,1.5-.4.2-.9.3-1.3.5-.1,0-.3-.1-.4-.2,0,.2,0,.3,0,.5,0,0,0,0,0,0-.3.4-.6.8-.8,1.2h0c0,.4,0,.9-.1,1.4,1.2-.4,2.4-.8,3.5-1.2,0,0,.2.1.2.1,2.2-.1,4.4-.4,6.6-.3,5.9.3,11.9.8,17.8,1.2.9.3,1.9.6,2.8.9,0,0,0,0,0,0,.5.2.9.4,1.4.6,0,0,0,0,0,0,.5.2.9.4,1.4.6,0,0,0,0,0,0,.6.3,1.2.6,1.8.9,0,0,0,0,0,0,.9.4,1.8.9,2.7,1.3,0,0,0,0,0,0,.9.4,1.8.9,2.7,1.3,0,0,0,0,0,0,.5.2.9.4,1.4.7,3.9,3.7,7.8,7.5,11.7,11.2.3.3.5.5.8.8,0,0,0,0,0,0,.2.3.4.5.6.8,0,0,0,0,0,0,.5,1.6,1.1,3.3,1.6,4.9,0,0,0,.2,0,.2,0,2.6.3,5.3.2,7.9-.1,8.9-.3,17.9-.5,27.4.9-1.1,1.6-2,2.4-2.9,0,0,0,0,0,0,.2-.2.5-.5.7-.7,3.5-4.5,7.1-9,10.6-13.5.5-.9.9-1.9,1.4-2.8v.2s0-.1,0-.1c.3-.6.6-1.3.8-1.9,0,0,0,0,0,0,.4-1.3.8-2.6,1.2-3.9,0-.2.2-.3.2-.5.7.4,1.4.8,2.1,1.2,0,0,0,0,0,0,0,1,.1,1.9.2,2.9h0c-.7,1.3-1.4,2.7-2.2,4-.6,1-1.4,1.9-1.9,2.9-.6,1.2-1.6,2.9-1.2,3.8,2.2,4.9-.2,8-3.4,11.3-1.2,1.2-1.6,3.2-2.4,4.9-.9,1.3-.6,2.1,1,1.9,2.8-.3,5.8-.4,8.5-1.3,9-2.8,15.1-10.9,15.5-20.1.5-.2.9-.4,1.4-.6,0,0,0,0,0,0,.4.3.8.5,1.2.8,0,0,0,0,0,0-.9,3.9-1.7,7.7-2.6,11.6-4.4,8.4-11.9,13.3-20,17.4-3.7,1.8-7.3.5-11.1-1.2-1.3,2.2-2.7,4.5-4.1,6.7-9.6,15.9-24,26-40.6,33.4-.8.3-1.6.7-2.3,1-1.1.5-2.2.9-3.4,1.4,0,0,0,0,0,0-1.1.4-2.2.8-3.3,1.2,0,0-.1,0-.1,0-1.3.5-2.5.9-3.8,1.4,0,0,0,0,0,0-1.5.5-3,.9-4.5,1.4,0,0,0-.1,0-.1-3.4,0-6.8.1-10.1.2,0,0,0,0,0,0-.4-.2-.9-.5-1.3-.7,0,0,0,0,0,0-.4-.3-.8-.6-1.3-.8,0,0,0,0,0,0-.3-.2-.6-.4-.8-.6,0,0,0,0,0,0-.3-.2-.5-.4-.8-.5,0,0,0,0,0,0-.4-.3-.8-.6-1.1-.9-6.7-6.3-13.6-12.4-20.2-18.9-3.9-3.9-7.2-8.4-10.8-12.7-.4-.7-.7-1.4-1.1-2.1,0,0,0,0,0,0-.9-2.6-1.8-5.1-2.7-7.7,0,0,.1,0,.1,0-.9-4.7-1.9-9.4-2.8-14.2ZM101.5,134.9c-.7.2-1.3.5-2,.7h0c-4.6,0-9.2,0-13.9,0h0c-2.7-1.9-7.3-2-8.8,0,1.1.5,2.1,1,3.2,1.5-.6,1-1.3,2.1-1.9,3.1v1.2c.2.3.4.9.7,1,2.9.5,5.9,1.3,8.8,1.4,1.5,0,3-1,4.5-1.6h.2c0,0,0,.3,0,.3l4.5-1.4s0,.1,0,.1c1.1-.5,2.2-.9,3.3-1.4.5-.3,1-.6,1.6-1h.3s.2,0,.2,0c.8,0,1.6-.2,2.3-.2,0-.2,0-.4,0-.5-.8-.2-1.5-.3-2.3-.5,0-.2-.1-.5-.2-.7.3-.2.7-.4,1-.6.4-.4.8-.8,1.2-1.2h-.1c-.8,0-1.6.2-2.5.3,0,0,0,0,0,0ZM171.9,140.6c.2,0,.4-.1.5-.3,1-.3,2-.6,3.1-.9,0-.2-.2-.5-.2-.7-.9-.2-1.9-.3-3.1-.5,1.5-1.2,2.7-2.1,4.5-3.6-4.7.6-8.5,1-12.3,1.5-5.6-.5-11.2-.9-16.8-1.4-1.8-.2-3.6-.4-5.4-.6,1.1,2,1.5,3.8-1.6,4.4-.3.4-.6.8-.9,1.2.9.5,1.7,1.2,2.6,1.4,2.8.6,5.6,1.1,8.4,1.3,3.7.4,7.5.5,11.2.6.3,0,.5-.7.8-1,1.1-.1,2.1-.2,3.2-.3.7-.1,1.5-.2,2.2-.4,1.2-.2,2.5-.5,3.7-.7h0ZM138.3,182s0,0,0,0c-2.5.7-5,1.5-7.6,2.2l-.2-.2c-1.3,0-2.5-.2-3.8-.2-1.6,0-3.3,0-3.4,2.3v-.2c2.4,1.9,9.5,1.2,12.1-1.1,2.6-1.6,5.3-3.2,7.9-4.8h0c0-.1,0,0,0,0-.8.2-1.5.4-2.3.5-1,.5-1.9.9-2.9,1.4ZM111.6,148.9c-.2,0-.4-.2-.6-.3-1.9,2.7-4,5.3-5.7,8.1-.6,1-.7,2.7-.3,3.8,1.2,3,2.9,5.9,4.3,8.8.3,0,.5-.2.8-.2-.3-1.1-.4-2.2-.9-3.2-.8-1.6-1.8-3.1-2.7-4.7-1.1-1.8-.7-3.1.7-4.8,1.8-2.2,2.9-4.9,4.3-7.5ZM157.8,131.9c-4-4.6-14.5-4.9-17.8-.4,6.1-2.4,11.9-1.5,17.8.4ZM81.9,156.5c.9.8,1.6,1.4,2,1.8,3.7-3.1,7.2-6.1,10.6-9-.2-.2-.3-.5-.5-.7-3.9,2.6-7.9,5.1-12.1,7.9ZM102.6,131.6c-3.2-2.9-9-2.6-12.6.6,3.9-.2,8.4-.4,12.6-.6ZM111.4,129.3c.3-.1.6-.3,1-.4-1.6-4.2-3.2-8.3-4.8-12.5-.3.1-.6.2-.9.4,1.6,4.2,3.2,8.4,4.8,12.5ZM108.9,183.6c1.5,3.4,4.2,2.8,6.8,2.4-2.3-.8-4.5-1.6-6.8-2.4Z"/>
        <path class="cls-12" d="M115.6,267.1c-.2-3-.4-6-.6-9.1,2.7,1.6,5.4,3.4,8.2,4.8,4.1,2,7.3,1,10.5-2.6.6-1.3,1.1-2.5,1.7-3.8.1.6.2,1.2.4,1.9,2.6-1.8,4.8-3.6,7.3-5,10.8-5.9,20.6-13.2,29.2-21.9,2.7-2.7,5.6-5.1,8.5-7.6.3.4.5.8.8,1.2,0,0-.1,0-.1,0,.2.3.5.5.7.8,0,0,0,0,0,0,.4.2.9.5,1.3.7,0,0,0,0,0,0,2.2.9,4.5,1.7,6.6,2.6,1,2.4,2.1,5.1,3.2,7.8,0,0,0,0,0,0,.2.4.5.9.7,1.3,0,0,0,0,0,0,.3.4.5.8.8,1.3,0,0-.1,0-.1,0,.2.3.5.5.7.8.2.2.3.4.5.6,1.1,1.1,2.2,2.2,3.3,3.3,0,0,0,0,0,0,1.8,1,3.5,2,5.3,3.1,0,0,.2,0,.2,0-.1.5-.3,1.1-.4,1.6-5.5,5-11.1,9.7-16.3,14.9-4.6,4.6-10.3,5.9-16.3,6.4-5.4.5-10.4,1.8-14.4,4.5,6.1-1.2,12.8-2.4,19.5-3.7.2.5.4,1,.6,1.5-4.7,2.9-9.3,5.8-14,8.7-.5.3-1,.6-1.5.9,0,0,0,0,0,0-.7.4-1.4.7-2.1,1.1,0,0,0,0,0,0-.6.3-1.2.6-1.7,1,0,0,0,0-.1,0-.4.2-.9.4-1.3.6,0,0,0,0,0,0-1.9.7-3.8,1.4-5.7,2.1h-.2s0-.2,0-.2c-6.1.5-12.2,1.2-18.3-.1,0,0,0,0,0,0-.5-.2-1.1-.5-1.6-.7-6.5-2.7-10.9-7.2-13-14.7,4.3.8,8.4,1.7,12.6,2.5,0-.2.1-.3.2-.5-4.3-1.4-8.6-2.9-12.9-4.3,0,0,0,0,0,0-.5-.2-.9-.5-1.4-.7-.2-.2-.4-.3-.6-.5Z"/>
        <path class="cls-3" d="M180.9,223.9c-2.8,2.5-5.8,4.9-8.5,7.6-8.7,8.8-18.4,16-29.2,21.9-2.5,1.4-4.8,3.2-7.3,5-.1-.8-.2-1.3-.4-1.9,1.7-10.2.7-20.3-1.6-29.8,16.9-13.5,37.6-21.3,51.3-38.5.3.9.6,1.8.9,2.7h.1c-.3.8-.8,1.7-.7,2.6.2,8,.5,16,.8,24h0c-.3.4-.5.9-.8,1.5-1.4,1.6-2.7,3.2-4.1,4.8-.2,0-.3,0-.5,0Z"/>
        <path class="cls-22" d="M249.5,150.8c1.1-.4,2.1-.8,3.2-1.2,1,1.2,2,2.5,3.5,4.3h-4.3c0,.4,0,1.3,0,2.3,0,.9-.3,1.9,0,2.6,4.4,10.5,5.7,21.4,3.9,32.7-2.6,1.1-5.2,2.2-8.5,3.6,1.7.2,2.6.4,3.2.5-.2,1.8-.5,3.5-.7,5.4-1.2-.1-2.3-.2-3.4-.3,0-.6-.1-1.3-.2-1.9.5-.1,1-.3,1.5-.4-.2-.2-.3-.5-.5-.7-.3.4-.7.7-1,1.1-2.7,5.9-6.6,10.6-11.7,14.7-8.1,6.6-17.2,6.8-27.1,5.1,20-12.2,28.3-30,26.1-52.9.7-4.3,1.4-8.6,2.1-12.9-.3,0-.6-.1-1-.2-.4.3-.8.6-.9.7-.6-2.1-1.2-4.1-1.8-6.1,4.9,1.4,9.8,2.9,14.7,4.2.9.2,1.9-.2,2.9-.4Z"/>
        <path class="cls-19" d="M107.7,240.1c-5.2-1-9.2-3.7-11-8.8-2.3-6.5-4.2-13-6.3-19.6-.2-.7-.4-1.4-.7-2.1l-1.1.2c1.6,7.1,3.1,14.2,4.7,21.4-6.8-.4-9.8-5.4-12.4-10.4-6.1-11.4-6.4-23.6-4.6-36.1.5-3.4.5-6.9.8-10.5,1.7,4.4,2.7,8.9,5.1,12.4,4,5.7,8.6,11,13.6,15.8,5.9,5.7,12.3,11,18.9,16,2.3,1.7,5.6,2.1,8.2,3.4,2.1,1,4.6,2.1,5.8,3.9,2.3,3.4,4.3,7.2,3.5,12-7.8.5-14.4-1.8-20.6-6.5-6.3-4.8-7.7-12.1-11.3-18.5,2.2,9.1,2,18.8,7.6,27,0,0-.2.2-.2.2Z"/>
        <path class="cls-19" d="M65.8,154.8c2.3,1,4.5,1.9,6.8,2.9.6.2,1.4.6,1.5,1,.5,2.9,1.4,5.9,1.2,8.8-.6,10.6-2,21.1-2.2,31.7-.1,6.1,1.1,12.4,2.6,18.3.9,3.3,3.7,6.2,5.6,9.3.2.3.4.7.7,1.4-5.8-.4-10.2-3.2-14.4-6.2-6.9-4.9-9.4-12.1-10.1-20-.5-5.7-.8-11.6,2.1-16.9.2-.4-.4-1.2-.6-1.9-.1-1-.6-2.2-.3-3.1,1.2-3.7,2.9-7.3,4-11.1,1.3-4.7,2.1-9.5,3.2-14.2Z"/>
        <path class="cls-19" d="M215.2,170.2c.6,3.3,1.4,6.3,1.7,9.3,1.3,12.2-2.6,23.1-8.8,33.3-.9,1.5-3.1,2.7-4.9,3.1-2.3.5-3.5,1.2-3.5,3.6,0,.6-.5,1.5-.9,1.7-3.9,1.1-7.8,2-11.7,3l-.3-.7c1.3-2,2.4-4.2,3.8-6.1,6.8-9.8,9.2-21.1,10.9-32.6.3-2.1.3-4.3.7-6.4.1-.7.7-1.6,1.3-2,3.6-2,7.4-3.9,11.8-6.2Z"/>
        <path class="cls-19" d="M231.9,147c.6,2,1.2,4.1,1.8,6.1.1,0,.5-.4.9-.7.3,0,.6.1,1,.2-.7,4.3-1.4,8.6-2.1,12.9-.5,2.5-1.2,4.9-1.4,7.4-1.3,12.7-5.1,24.3-13.9,33.9-1.3,1.4-3.2,2.4-4.9,3.5,0,0-.2-.2-.2-.2,1.6-3.7,4-7.3,4.6-11.2,1.1-6.9,1.5-14,1.7-21,0-2.9-1.1-5.8-1.5-8.8,0-.7.4-1.7.9-2.2,5.5-5.9,8.8-12.9,10-21.1,1.2.5,2.2.9,3.2,1.2Z"/>
        <path class="cls-4" d="M77.3,41.5c.9-.2,1.7-.4,2.6-.7.9-.3,1.8-.8,2.7-1.2,0,0,.1.1.1.1-2.8,4-5.6,8-8.4,11.9,0,.3.2.5.3.8,2.9-2.6,6.4,2.9,9.8-2.2.3,1.9.9,3.1.5,4-1.8,5.2-2.4,11.4-9.5,13.1v-5c-2,1.6-3.7,3-5.4,4.3-1.1-2.8-3.7-3-6.7-.2-1.4,1.3-2.2,3.1-3.2,4.7-1.2,1.9-1.6,4.5-4.6,4.6,5.6-12.5,12.2-24.4,21.9-34.3Z"/>
        <path class="cls-22" d="M65.8,154.8c-1,4.7-1.9,9.6-3.2,14.2-1,3.8-2.8,7.4-4,11.1-.3.9.2,2.1.3,3.1-3.6,7.9-7.7,15.6-8.9,24.4-.3,2.2-.3,4.5-.5,7.3-3.2-4.9-3.3-9.7-2.9-14.7.7-7.1,3.6-13.4,7.3-19.4,5.3-8.7,7.8-18.1,7.4-28.2,0-.4,0-.8.1-1.6,1.7,1.5,3,2.6,4.3,3.8Z"/>
        <path class="cls-19" d="M200.6,177.1c-2.8,12.2-3.3,24.7-11.1,35.2.4-12.1-2.7-24.6,4.2-36.2,2.1.3,4.4.7,6.9,1Z"/>
        <path class="cls-21" d="M165.3,92c-4.6-2.9-6.7-7.6-8.9-12.3-1.6-3.5-2.8-7.1-4.2-10.9-2.8,4.1-5.2,8.2-8.1,11.9-4.2,5.4-8.6,10.6-13.3,15.6-1.8,2-4.4,3.3-6.8,4.8-.5.3-1.4,0-2-.2,11.5-8.8,19.8-20.1,26.3-32.9,1.6-3.1,2.5-6.6,4.1-9.9,2.7,11.7,8.3,22,13.5,32.6-.2.4-.4.8-.6,1.2Z"/>
        <path class="cls-3" d="M223.4,144.3c-.4,9.2-6.5,17.3-15.5,20.1-2.7.8-5.6,1-8.5,1.3-1.6.2-1.9-.6-1-1.9,1.2,0,2.6.6,3.7.2,3.2-1.2,6.4-2.6,9.2-4.3,4.1-2.6,4.5-4.1,2.5-8.5-1.5-3.4-3.4-6.5-5-9.5,1.2-1.8,2.4-3.3,3.5-4.9,3.8.6,6.9,3.3,7.8,7.2.5-.8.9-1.4,1.3-2,.4.2.8.5,1.2.8,0,0-.1,0-.1,0,.3.6.5,1.1.8,1.7Z"/>
        <path class="cls-4" d="M237.7,71.3c-.9.3-1.8.7-2.9,1.1-.8-1.4-1.5-3-2.4-4.4-.4-.7-1.3-1.1-1.9-1.7-.3.8-.8,1.6-.8,2.4,0,1.8.2,3.6.3,5.4-3.7.1-5.7-1.6-6.8-4.7-1.3-3.6-2.9-7.1-4.2-10.8-.6-1.7-.8-3.6,1.6-4.5,2.4-.9,2.8.8,3.7,2.4,1.5,2.8,3.3,5.5,5,8.3.4-.2.8-.4,1.2-.6-1.7-3.9-3.5-7.8-5.2-11.7.3-.2.5-.5.8-.7,1.8,1.2,3.6,2.5,5.4,3.7,0,0,0,0,0,0,.1.3.3.5.4.8,1.9,4.9,3.8,9.9,5.7,14.8Z"/>
        <path class="cls-3" d="M133.8,260.3c-3.2,3.6-6.4,4.5-10.5,2.6-2.9-1.4-5.5-3.2-8.2-4.8,0-.1,0-.3,0-.4.2-.3.4-.6.6-.8.9-.8,1.9-1.7,2.8-2.5,4.8-2.4,9.6-4.9,15.4-7.9v13.8Z"/>
        <path class="cls-19" d="M193.7,123.6c2.8,2,6,3.9,8.7,6.4,1.1,1,1.8,3.4,1.5,4.8-1.5,5.6-4.7,10.4-9.1,15-.4-9.1-.7-17.6-1.1-26.2Z"/>
        <path class="cls-19" d="M195.9,233.3c-.4-2.3-.8-4.7-1.2-7.3,6-1.4,11-5.9,17.6-4.4-1.3,6.2-10,12.5-16.3,11.7Z"/>
        <path class="cls-19" d="M246.4,200.6c1.1.1,2.2.2,3.4.3.2-1.9.5-3.5.7-5.4-.6,0-1.5-.2-3.2-.5,3.3-1.4,5.9-2.5,8.5-3.6-1.9,6.1-2.7,12.7-7.4,17.5-2.9,3-6.5,5.3-9.8,8-.1-.1-.3-.2-.4-.3,1.4-2.3,3-4.6,4.2-7,1.5-2.9,2.6-6,3.9-9ZM247.3,202.7v.3h.9v-.3h-.9Z"/>
        <path class="cls-17" d="M212.4,136.6c-1.1,1.6-2.2,3.1-3.5,4.9,1.6,3,3.5,6.1,5,9.5,2,4.4,1.6,6-2.5,8.5-2.9,1.8-6.1,3.1-9.2,4.3-1,.4-2.4,0-3.7-.2.8-1.7,1.2-3.6,2.4-4.9,3.2-3.3,5.6-6.4,3.4-11.3-.4-.9.6-2.5,1.2-3.8.5-1,1.2-1.9,1.9-2.9.7-1.4,1.4-2.7,2.1-4.1,0,0,0,0,0,0,.2-.9.5-1.8.7-2.6.7.8,1.4,1.6,2.1,2.4ZM208.1,143.9c-.5,0-1,0-1.4.1,0,1.8-.5,3.6-.1,5.3.7,3.1.3,5.7-1.9,8-1.5,1.6-2.9,3.3-4.3,4.9.2.3.4.6.6.9,3.3-1.6,6.7-3.1,9.8-5,2.4-1.4,3-3.9,1.7-6.5-1.4-2.6-2.9-5.2-4.3-7.8Z"/>
        <path class="cls-21" d="M125.3,76.5c-6.4,5.8-12.8,11.7-19.3,17.4-2.5,2.2-5.2,4-7.9,6-.7-.6-1.4-1.2-2.3-1.9,11.6-6.5,20.4-15.9,28.6-25.8.8-1,1.7-1.9,2.6-2.8.5.3,1,.5,1.5.8,0,0,0,0,0,0-.2.4-.5.9-.7,1.3,0,0,0,0,0,0-.9,1.7-1.8,3.4-2.7,5.1Z"/>
        <path class="cls-21" d="M93.7,101c-4.5,3.6-9,7.3-13.5,10.9-1.4,1.1-2.7,2.3-4.1,3.4.5-1.6,1-3.2,1.5-4.8,0,0,0-.2,0-.2.2-.3.4-.5.6-.8,0,0,0,0,0,0,.3-.4.5-.9.8-1.3,2.8-3.7,6.6-5.8,10.8-7.2,1.2-.4,2.6,0,4,0Z"/>
        <path class="cls-4" d="M83.1,72.5c-.7-1.2-3.6-.5-2.8-2.7.8-2.1,2.2-4,3.4-5.8.9-1.4,2-2.6,3.2-3.7,1-1,2.1-1.7,3.2-2.6.4.3.7.6,1.1.9-1.8,3.2-3.6,6.4-5.4,9.6,0,.4,0,.9,0,1.3,0,0,0,0,0,0-2.7-.5-1.9,2.1-2.8,3.2Z"/>
        <path class="cls-17" d="M77.7,110.5c-.5,1.6-1,3.2-1.5,4.8-.8,3.5-1.6,6.9-2.4,10.4.6,3.5,1.1,6.9,1.7,10.4,0,0-.2,0-.2,0,.5,4.7,1,9.4,1.5,14.1-.4-1.1-1-2.1-1.2-3.2-.9-4.7-1.8-9.5-2.6-14.2,0-3.2,0-6.5,0-9.7-.2-.2-.4-.5-.6-.7,0-.2,0-.4,0-.7,0-.3-.1-.6-.2-1,1.5-4.1,3-8.2,4.5-12.2.3.7.7,1.3,1,2Z"/>
        <path class="cls-19" d="M73.8,153.9c-3.5-3.6-5-16.4-3.6-26.8,1.2,8.9,2.4,17.9,3.6,26.8Z"/>
        <path class="cls-19" d="M211.5,232.1c1.8-6.7,5.7-9.9,12.3-9.8-3.6,4.1-6.6,8.4-12.3,9.8Z"/>
        <path class="cls-20" d="M192.4,155.9c-.7.9-1.5,1.8-2.4,2.9.2-9.6.4-18.5.5-27.4,0-2.6-.1-5.3-.2-7.9.2.5.3,1,.5,1.6.3,7.8.6,15.6.9,23.5-.4,2.8-.8,5.7-1.3,9,.9-.7,1.5-1.2,2.1-1.6Z"/>
        <path class="cls-4" d="M76.7,108.5c-1.5,4.1-3,8.2-4.5,12.2.2-3.3,0-6.8.7-10,.3-1.3,2.3-2.2,3.6-3.3,0,.3.2.7.3,1Z"/>
        <path class="cls-20" d="M136.3,96.6c.1-.5,0-1.3.4-1.5,4.8-2.6,16.6-4.4,22.2-.5l-.2.2c-1-.2-1.9-.4-2.9-.6,0,0,0,.1,0,.1-4.9-1.9-9.7-1.2-14.6.1-1.7.7-3.3,1.4-5,2.1Z"/>
        <path class="cls-17" d="M186.8,187.4c.1.4.4.8.4,1.2,0,8.7,0,17.3,0,26,0,.3-.3.6-.4.9-.2-8.2-.5-16.4-.7-24.6,0,0-.1,0-.1,0,.3-1.2.5-2.4.8-3.6Z"/>
        <path class="cls-17" d="M134.2,98.4c5.7-.6,11.4-1.6,17.1-1.8,2.7-.1,5.5,1.1,8.2,1.8,0,0,0,0,0,0-7.4-1.6-14.7-2.1-22,.3,0,0-.2-.1-.2-.1-1.1,0-2.3-.1-3.4-.2,0,0,0,0,0,0,.2,0,.3,0,.5-.2Z"/>
        <path class="cls-17" d="M127.8,44.2c4.7-2.6,9.2-5.7,15-3.8-5.2-.7-9.4,2.1-13.7,4.3-.4-.2-.9-.3-1.3-.4Z"/>
        <path class="cls-8" d="M186.2,190.9c.2,8.2.5,16.4.7,24.6,0,.4,0,.8,0,1.3-.2.3-.4.5-.6.8-.3-8-.6-16-.8-24,0-.9.5-1.7.7-2.6Z"/>
        <path class="cls-17" d="M191.6,148.5c-.3-7.8-.6-15.6-.9-23.5.6,2,1.6,4.1,1.6,6.1.2,6.1,0,12.2,0,18.4-.3-.2-.5-.3-.6-.4-.1-.2-.2-.4-.2-.6Z"/>
        <path class="cls-17" d="M53.4,205.2c-1.1,5.2-1,10.3,1,15.4-3.5-3.4-2.9-7.7-2.5-11.9.1-1.2,1-2.3,1.5-3.5Z"/>
        <path class="cls-20" d="M193.3,236.7c-1.1-2.7-2.2-5.4-3.2-7.8-2.2-.8-4.4-1.7-6.6-2.6,2.6.3,5.2.7,7.9,1,.6,2.9,1.3,6.1,2,9.3Z"/>
        <path class="cls-13" d="M116.3,238.7c-.9-.1-1.8-.2-2.9-.3.2.7.4,1.3.7,1.9-2.2-2.2-4.4-4.3-6.7-6.5l.6-.6c2.8,1.8,5.5,3.7,8.3,5.5Z"/>
        <path class="cls-20" d="M165.8,97.6c.8,0,1.6-.2,1.9-.2-.1-1.2-.3-2.4-.4-3.6,1.7,2.4,3.4,4.8,5.1,7.2-.1.2-.2.3-.4.5-2.1-1.3-4.2-2.6-6.3-3.9Z"/>
        <path class="cls-16" d="M72.9,123.1c0,3.2,0,6.5,0,9.7-2.5-2.1-2.8-8.4-.6-11,0,.2,0,.4,0,.7.2.2.4.5.6.7Z"/>
        <path class="cls-17" d="M77.5,159.8c.9,4.7,1.9,9.4,2.8,14.2-1-3.8-2-7.5-2.8-11.3-.2-.9,0-1.9,0-2.9Z"/>
        <path class="cls-13" d="M76.7,150.2c-.5-4.7-1-9.4-1.5-14.1,1.9,4.8,2.7,9.6,1.7,14.7,0-.2-.2-.4-.2-.6Z"/>
        <path class="cls-17" d="M141.2,94.5c4.8-1.4,9.7-2,14.6-.1-4.9,0-9.7,0-14.6.1Z"/>
        <path class="cls-17" d="M223.4,155.9c.9-3.9,1.7-7.7,2.6-11.6,1.3,2.9-.1,9.2-2.6,11.6Z"/>
        <path class="cls-17" d="M120.1,218.6c3.4,0,6.8-.1,10.1-.2-3,2.2-7.3,2.3-10.1.2Z"/>
        <path class="cls-17" d="M80.2,173.9c.9,2.6,1.8,5.1,2.7,7.7-2.6-2-3-4.7-2.7-7.7Z"/>
        <path class="cls-20" d="M158.9,94.6c2.7,0,5.2.4,6.7,3-1.5-.6-3.1-1.1-4.6-1.7-.8-.3-1.5-.7-2.3-1l.2-.2Z"/>
        <path class="cls-8" d="M128.5,70.1c-.5-.3-1-.5-1.5-.8,1-1.4,1.9-2.8,2.9-4.2.2,0,.4.2.6.3-.7,1.6-1.3,3.1-2,4.7Z"/>
        <path class="cls-8" d="M125.3,76.5c.9-1.7,1.8-3.4,2.7-5.1-.7,1.9-1.3,3.9-2,5.8-.2-.2-.5-.5-.7-.7Z"/>
        <path class="cls-17" d="M54.9,205.7c-.5-.4-1-.9-1.5-1.3.3-.9.5-1.7.8-2.6.4.2.8.3,1.3.5-.2,1.1-.4,2.3-.6,3.4Z"/>
        <path class="cls-20" d="M204.3,246.8c-1.8-1-3.5-2-5.3-3.1,1.8,1,3.5,2,5.3,3.1Z"/>
        <path class="cls-8" d="M186.8,187.4c-.3,1.2-.5,2.4-.8,3.6-.3-.9-.6-1.8-.9-2.7.7-.8,1.3-1.5,2-2.3-.1.5-.2,1-.3,1.4,0,0,0,0,0,0Z"/>
        <path class="cls-17" d="M164.6,100.6c-.9-.3-1.9-.6-2.8-.9-.8-.4-1.6-.8-2.3-1.2,0,0,0,0,0,0,1.7.7,3.4,1.4,5.1,2.1Z"/>
        <path class="cls-4" d="M55.5,75.8c-.8,1.5-1.5,3-2.3,4.5.8-1.5,1.5-3,2.3-4.5Z"/>
        <path class="cls-17" d="M158.7,94.8c.8.3,1.5.7,2.3,1-1.7-.5-3.4-1.1-5.1-1.6,1,.2,1.9.4,2.9.6Z"/>
        <path class="cls-20" d="M199.1,243.8c-1.1-1.1-2.2-2.2-3.3-3.3,1.1,1.1,2.2,2.2,3.3,3.3Z"/>
        <path class="cls-17" d="M130.3,218.5c1.5-.5,3-.9,4.5-1.4-1.5.5-3,.9-4.5,1.4Z"/>
        <path class="cls-20" d="M190.3,123.3c-.5-1.6-1.1-3.3-1.6-4.9.5,1.6,1.1,3.3,1.6,4.9Z"/>
        <path class="cls-20" d="M207.1,133.3c-.4,1.3-.8,2.6-1.2,3.9.4-1.3.8-2.6,1.2-3.9Z"/>
        <path class="cls-17" d="M134.8,217.1c1.3-.5,2.5-.9,3.8-1.4-1.3.5-2.5.9-3.8,1.4Z"/>
        <path class="cls-17" d="M141.9,214.6c1.1-.5,2.2-.9,3.4-1.4-1.1.5-2.2.9-3.4,1.4Z"/>
        <path class="cls-13" d="M118.1,242.1c-.7-.1-1.5-.2-2.2-.4-.4-.3-.7-.7-1.1-1,1.1.5,2.2.9,3.3,1.4Z"/>
        <path class="cls-13" d="M77,152.2c.1,1,.3,1.9.4,2.9-.1-1-.3-1.9-.4-2.9Z"/>
        <path class="cls-17" d="M223.4,144.3c-.2-.6-.5-1.1-.8-1.7.7.4,1.4.7,2.1,1.1-.5.2-.9.4-1.4.6Z"/>
        <path class="cls-20" d="M210.2,134.2c-.2.9-.5,1.8-.7,2.6,0-1-.1-1.9-.2-2.9.3,0,.6.2.9.2Z"/>
        <path class="cls-17" d="M138.7,215.8c1.1-.4,2.2-.8,3.3-1.2-1.1.4-2.2.8-3.3,1.2Z"/>
        <path class="cls-20" d="M205.1,139c-.5.9-.9,1.9-1.4,2.8.5-.9.9-1.9,1.4-2.8Z"/>
        <path class="cls-17" d="M174.3,105.1c-.9-.4-1.8-.9-2.7-1.3.9.4,1.8.9,2.7,1.3Z"/>
        <path class="cls-17" d="M186.2,217.5c.2-.3.4-.5.6-.8-.3.6-.6,1.2-.8,1.8,0-.4.1-.8.2-1.1h0Z"/>
        <path class="cls-17" d="M171.7,103.9c-.9-.4-1.8-.9-2.7-1.3.9.4,1.8.9,2.7,1.3Z"/>
        <path class="cls-17" d="M186.9,187.3c.1-.5.2-1,.3-1.4.1-.3.2-.5.3-.8.2,0,.4.2.6.3-.4.7-.8,1.3-1.2,2Z"/>
        <path class="cls-20" d="M209.4,134c-.7-.4-1.4-.8-2.1-1.2.7.4,1.4.8,2.1,1.2Z"/>
        <path class="cls-20" d="M165.3,92c.2-.4.4-.8.6-1.2.3.6.5,1.2.8,1.9-.5-.2-.9-.4-1.4-.6Z"/>
        <path class="cls-17" d="M82.9,181.6c.4.7.7,1.4,1.1,2.1-.4-.7-.7-1.4-1.1-2.1Z"/>
        <path class="cls-20" d="M205.9,137.1c-.3.6-.5,1.3-.8,1.9.3-.6.5-1.3.8-1.9Z"/>
        <path class="cls-13" d="M121.1,240.6c-.8-.3-1.5-.5-2.3-.8.8.3,1.5.5,2.3.8Z"/>
        <path class="cls-20" d="M204.1,248.4c.1-.5.3-1.1.4-1.6.3.1.6.2,1,.3,0,.2,0,.4,0,.6,0,0,0,0,0,0-.2.2-.4.4-.6.7h0c-.2,0-.4,0-.7,0Z"/>
        <path class="cls-19" d="M238.6,216.9c-.3.3-.6.6-.9,1-.1-.1-.2-.2-.4-.3.3-.3.6-.7.8-1,.1.1.3.2.4.3Z"/>
        <path class="cls-17" d="M169,102.7c-.6-.3-1.2-.6-1.8-.9.6.3,1.2.6,1.8.9Z"/>
        <path class="cls-10" d="M74.2,105.6c-.2.3-.5.6-.7.9-.1-.1-.2-.3-.4-.4.3-.2.6-.4,1-.6,0,0,0,.1,0,.1Z"/>
        <path class="cls-17" d="M222.8,142.6c-.4-.3-.8-.5-1.2-.8.4.3.8.5,1.2.8Z"/>
        <path class="cls-17" d="M226.1,144.5c-.4-.3-.8-.5-1.2-.8.4.3.8.5,1.2.8Z"/>
        <path class="cls-10" d="M69.9,152.6c0,.3.2.7.3,1-.3-.2-.5-.3-.8-.5.2-.2.4-.3.5-.5Z"/>
        <path class="cls-17" d="M115,215.2c.4.3.8.6,1.1.9-.4-.3-.8-.6-1.1-.9Z"/>
        <path class="cls-17" d="M117.7,217.1c.4.3.8.6,1.3.8-.4-.3-.8-.6-1.3-.8Z"/>
        <path class="cls-8" d="M186.2,217.4c0,.4-.1.8-.2,1.1-.2.2-.4.3-.6.5.3-.5.5-1.1.8-1.6Z"/>
        <path class="cls-17" d="M118.9,217.9c.4.2.9.5,1.3.7-.4-.2-.9-.5-1.3-.7Z"/>
        <path class="cls-17" d="M62,220.5c-.3-.4-.5-.8-.8-1.2.3.4.5.8.8,1.2Z"/>
        <path class="cls-8" d="M127.9,71.4c.2-.4.5-.9.7-1.3-.2.4-.5.9-.7,1.3Z"/>
        <path class="cls-20" d="M180.9,223.9c.2,0,.3,0,.5,0,.1.4.2.8.3,1.2-.3-.4-.5-.8-.8-1.2Z"/>
        <path class="cls-20" d="M183.5,226.4c-.4-.2-.9-.5-1.3-.7.4.2.9.5,1.3.7Z"/>
        <path class="cls-20" d="M193.9,238c-.2-.4-.5-.9-.7-1.3.2.4.5.9.7,1.3Z"/>
        <path class="cls-20" d="M194.7,239.2c-.3-.4-.5-.8-.8-1.3.3.4.5.8.8,1.3Z"/>
        <path class="cls-13" d="M117.7,239.3c-.5-.2-1-.4-1.4-.7.5.2,1,.4,1.4.7Z"/>
        <path class="cls-13" d="M119,239.9c-.5-.2-.9-.5-1.4-.7.5.2.9.5,1.4.7Z"/>
        <path class="cls-20" d="M167.4,93.9c-.2-.4-.5-.9-.7-1.3.2.4.5.9.7,1.3Z"/>
        <path class="cls-17" d="M128.5,245.8c.4-.3.8-.6,1.1-.9-.4.3-.8.6-1.1.9Z"/>
        <path class="cls-20" d="M134.2,98.4c-.2,0-.3.1-.5.2.3-.4.6-.8.8-1.2-.1.4-.2.7-.4,1.1Z"/>
        <path class="cls-17" d="M165.9,101.2c-.5-.2-.9-.4-1.4-.6.5.2.9.4,1.4.6Z"/>
        <path class="cls-17" d="M167.3,101.7c-.5-.2-.9-.4-1.4-.6.5.2.9.4,1.4.6Z"/>
        <path class="cls-17" d="M175.6,105.7c-.5-.2-.9-.4-1.4-.7.5.2.9.4,1.4.7Z"/>
        <path class="cls-17" d="M78.9,108.2c-.3.4-.5.9-.8,1.3.3-.4.5-.9.8-1.3Z"/>
        <path class="cls-20" d="M188.2,117.8c-.3-.3-.5-.5-.8-.8.3.3.5.5.8.8Z"/>
        <path class="cls-20" d="M188.7,118.5c-.2-.3-.4-.5-.6-.8.2.3.4.5.6.8Z"/>
        <path class="cls-19" d="M213.2,210.4c-.2.2-.5.4-.7.6,0,0,0,0,0,0,.2-.2.4-.5.6-.7,0,0,.2.2.2.2Z"/>
        <path class="cls-19" d="M212.6,211c-.1,0-.2.2-.3.3,0-.1.2-.2.3-.3,0,0,0,0,0,0Z"/>
        <path class="cls-10" d="M231.9,56.4c-.1-.3-.3-.5-.4-.8.1.3.3.5.4.8Z"/>
        <path class="cls-17" d="M116.2,216.2c.3.2.5.4.8.5-.3-.2-.5-.4-.8-.5Z"/>
        <path class="cls-17" d="M116.9,216.6c.3.2.6.4.8.6-.3-.2-.6-.4-.8-.6Z"/>
        <path class="cls-1" d="M234.5,217.5c0-.1,0-.3,0-.4,0,0,.2,0,.2,0,0,.1-.1.3-.2.4h0Z"/>
        <path class="cls-1" d="M234.5,217.4c-.2.2-.4.5-.5.7-.1-.2-.3-.4-.4-.6.3,0,.6,0,1-.1,0,0,0,0,0,0Z"/>
        <path class="cls-17" d="M62.6,221.3c-.2-.2-.4-.5-.6-.7.2.2.4.5.6.7Z"/>
        <path class="cls-20" d="M182.3,225.8c-.2-.3-.5-.5-.7-.8.2.3.5.5.7.8Z"/>
        <path class="cls-20" d="M195.3,240c-.2-.3-.5-.5-.7-.8.2.3.5.5.7.8Z"/>
        <path class="cls-19" d="M108,239.9c0,.1.1.3.2.4-.1,0-.3-.1-.4-.2,0,0,.2-.2.2-.2Z"/>
        <path class="cls-13" d="M114.1,240.2c.3.2.5.5.8.7-.3-.2-.5-.5-.8-.7Z"/>
        <path class="cls-17" d="M129.6,245c.3-.3.7-.5,1-.8-.3.3-.7.5-1,.8Z"/>
        <path class="cls-20" d="M134.6,97.4c0-.2,0-.3,0-.5.1,0,.3.1.4.2,0,.2-.2.3-.4.3Z"/>
        <path class="cls-17" d="M205.4,247.7c0-.2,0-.4,0-.6,0,.1.2.3.2.4,0,0-.1.1-.2.2Z"/>
        <path class="cls-17" d="M204.8,248.4c.2-.2.4-.4.6-.7-.2.2-.4.4-.6.7Z"/>
        <path class="cls-10" d="M117.8,100c-.2,0-.5,0-.7,0,0-.2.2-.3.3-.5.1.1.3.3.4.4Z"/>
        <path class="cls-17" d="M78.2,109.5c-.2.3-.4.5-.6.8.2-.3.4-.5.6-.8Z"/>
        <path class="cls-20" d="M193.1,155.2c-.2.2-.5.5-.7.7.2-.2.5-.5.7-.7Z"/>
        <path class="cls-20" d="M132.3,286c6.1,1.3,12.2.6,18.3.1-5.4,2.3-11,1.8-16.6,1.1h0c-.6-.4-1.2-.8-1.8-1.2Z"/>
        <path class="cls-6" d="M115.6,267.1c.2.2.4.3.6.5.5.2.9.5,1.4.7,0,0,0,0,0,0-.9.9-1.8,1.8-2.7,2.7-.2-1.3-.5-2.6-.7-3.8h0c.4,0,.9,0,1.3,0Z"/>
        <path class="cls-20" d="M150.8,286.3c1.9-.7,3.8-1.4,5.7-2.1-1.9.7-3.8,1.4-5.7,2.1Z"/>
        <path class="cls-20" d="M159.6,282.7c.7-.4,1.4-.7,2.1-1.1-.7.4-1.4.7-2.1,1.1Z"/>
        <path class="cls-6" d="M118.6,275.4c-.1.1-.2.2-.3.3,0,0-.2-.1-.2-.2,0-.2,0-.3,0-.5.2.1.3.2.5.3Z"/>
        <path class="cls-20" d="M157.9,283.7c.6-.3,1.2-.6,1.7-1-.6.3-1.2.6-1.7,1Z"/>
        <path class="cls-6" d="M134,287.2c-.5.2-1,.4-1.5.6v-.5c.4,0,1,0,1.5-.1,0,0,0,0,0,0Z"/>
        <path class="cls-20" d="M161.6,281.6c.5-.3,1-.6,1.5-.9-.5.3-1,.6-1.5.9Z"/>
        <path class="cls-20" d="M156.5,284.3c.4-.2.9-.4,1.3-.6-.4.2-.9.4-1.3.6Z"/>
        <path class="cls-20" d="M130.7,285.3c.5.2,1.1.5,1.6.7-.5-.2-1.1-.5-1.6-.7Z"/>
        <path class="cls-6" d="M113.1,260.6v-1.2c0,0,.2,0,.3,0,0,.4.1.8.2,1.2-.2,0-.3,0-.5,0Z"/>
        <path class="cls-6" d="M113.3,263c0,0,.1.2.1.3,0,0-.1.1-.2.2,0-.2,0-.3,0-.5Z"/>
        <path class="cls-6" d="M115.6,256.8c-.2.3-.4.6-.6.8.2-.3.4-.6.6-.8Z"/>
        <path class="cls-6" d="M114.3,267.2c0,0-.2-.1-.2-.2,0,0,.2,0,.3.1,0,0,0,0,0,0Z"/>
        <path class="cls-6" d="M211.2,245.2l-.6.6c-.3-.4-.6-.8-.9-1.2.4-.2.9-.5,1.3-.7,0,.4.2.8.3,1.2Z"/>
        <path class="cls-6" d="M215.1,243.2c0,.4,0,.9,0,1.3-.3-.3-.6-.5-.9-.8.3-.2.6-.4.9-.5Z"/>
        <path class="cls-1" d="M36.7,168.3c0,0,0-.2.1-.3,0,0,0,.2-.1.2h0Z"/>
        <path class="cls-1" d="M36.7,168.3c-.2.2-.4.4-.6.6,0,0,0,0,0,0,.2-.2.4-.4.6-.6,0,0,0,0,0,0Z"/>
        <path class="cls-6" d="M151,30.7c-11.1-7.1-22.9-6-34.6-2.1-5.6,1.8-10.9,4.3-16.3,6.5h0c5.2-5.3,11.9-8,18.6-10.2,9.1-3,18.3-3.6,27.2.8,2.1,1,3.6,3.1,5.5,4.7-.1.1-.3.2-.4.4ZM126.5,23.9c0,.2,0,.4,0,.6h11.5c0-.2,0-.4,0-.6h-11.5Z"/>
        <path class="cls-4" d="M213.8,59.7c3.4,2.8,5.4,6.3,5.7,10.7,0,.5-1.7,1.6-2.3,1.4-2.9-.8-5.4-9.3-3.5-12.1Z"/>
        <path class="cls-3" d="M184.7,59.9c5.2.8,8.3,4.6,8.8,9.9-.9.2-1.8.4-3,.7-1.8-3.3-3.6-6.6-5.8-10.6Z"/>
        <path class="cls-6" d="M164.2,25.5c-4.2-2.4-8.9-5-13.3-7.6,3.1-2.1,11.5,2.7,13.3,7.6Z"/>
        <path class="cls-4" d="M182.7,69c-.9.8-1.4,1.2-1.9,1.6-.8-1.2-1.7-2.4-2.5-3.7,0-.1.9-.8,1.4-1.3.9,1,1.8,2.1,3,3.4Z"/>
        <path class="cls-17" d="M172.9,27.8c2.9-1.2,5.8-2.4,8.6-3.6.1.3.3.6.4,1-2.9,1-5.8,2-8.8,3,0-.1-.2-.2-.3-.3Z"/>
        <path class="cls-6" d="M166,30.6c-.5-.9-.9-1.8-1.4-2.8l.8-.3c.2,1,.4,2,.6,3h0Z"/>
        <path class="cls-17" d="M170.5,29.3c.8-.5,1.6-1,2.4-1.5,0,.1.2.2.3.3-.9.4-1.8.8-2.7,1.2h0Z"/>
        <path class="cls-17" d="M170.5,29.3c-.6.4-1.3.8-1.9,1.1,0-.2-.1-.3-.2-.5.7-.2,1.4-.4,2.1-.6,0,0,0,0,0,0Z"/>
        <path class="cls-6" d="M166,30.6c.2,0,.5.1,0,0,.3.2.1,0,0,0,0,0,0,0,0,0Z"/>
        <path class="cls-4" d="M82.6,39.6c.2-.1.5-.3.7-.4,0,0,.1.1.2.2-.3.1-.5.2-.8.4,0,0-.1-.1-.1-.1Z"/>
        <path class="cls-6" d="M169.2,56.5c-.2-.2-.3-.5,0,0,0-.5,0-.2,0,.1,0,0,0,0,0,0Z"/>
        <path class="cls-6" d="M85.8,69.4c0-.4,0-.9,0-1.3,0,.4,0,.9,0,1.3Z"/>
        <path class="cls-6" d="M151.4,30.4c0,.3,0,.5,0,.8-.2-.1-.3-.3-.5-.4.1-.1.2-.3.4-.4Z"/>
        <path class="cls-6" d="M100.1,35.1c0,.1-.1.2-.2.3,0,0,0-.1,0-.2,0,0,.1,0,.2-.1,0,0,0,0,0,0Z"/>
        <path class="cls-6" d="M169.8,57.2c-.2-.3-.3-.5-.5-.8,0,0,0,0,0,0,.2.2.5.4.7.6,0,0-.2.2-.2.2Z"/>
        <path class="cls-6" d="M168.2,141.3c-.7.1-1.5.2-2.2.4-4.9,0-9.9,0-14.8,0-.2-.1-.5-.2-.7-.3-1.3-.5-2.6-.9-4-1.4h0c-2-.4-4-1-5.9-1.5,3.1-.5,2.7-2.3,1.6-4.4,7.2,2.6,14.6,3.3,22.2,2,3.8-.5,7.6-.9,12.3-1.5-1.8,1.4-3,2.4-4.5,3.6,1.2.2,2.1.4,3.1.5,0,.2.2.5.2.7-1,.3-2,.6-3.1.9-.2,0-.4.2-.5.3,0,0,0,0,0,0-1.2.2-2.5.5-3.7.7Z"/>
        <path class="cls-16" d="M101.9,136.5c0,.2.1.5.2.7,0,.4,0,.8,0,1.3h-.2c0,.1-.3,0-.3,0-1.1.4-2.2.9-3.3,1.3-1.5.3-2.9.4-4.3.8-4.9,1.4-9.8,1.7-14.4-1,.6-.9,1.3-1.7,1.9-2.6.2-2.6,2-1,2.9-.9,2.7.2,5.4.9,8.1.9,3.2,0,6.3-.4,9.5-.7Z"/>
        <path class="cls-17" d="M111.6,148.9c-1.4,2.5-2.5,5.3-4.3,7.5-1.4,1.7-1.8,3-.7,4.8.9,1.6,2,3.1,2.7,4.7.5,1,.6,2.1.9,3.2-.3,0-.5.2-.8.2-1.5-2.9-3.1-5.8-4.3-8.8-.4-1.1-.3-2.8.3-3.8,1.7-2.8,3.7-5.4,5.7-8.1.2,0,.4.2.6.3Z"/>
        <path class="cls-17" d="M123.4,185.9s0,.2,0,.2c2.4-.7,4.8-1.4,7.1-2.1,0,0,.2.2.2.2,2.5-.7,5-1.5,7.6-2.2,0,0,0,0,0,0,1-.5,1.9-.9,2.9-1.4.8-.2,1.5-.4,2.3-.5h0c-2.6,1.6-5.3,3.2-7.9,4.8-4,.4-8.1.7-12.1,1.1Z"/>
        <path class="cls-17" d="M157.8,131.9c-5.9-2-11.7-2.9-17.8-.4,3.3-4.5,13.8-4.2,17.8.4Z"/>
        <path class="cls-17" d="M101.9,136.5c-3.2.2-6.3.7-9.5.7-2.7,0-5.4-.8-8.1-.9-1,0-2.7-1.6-2.9.9-.4,0-.8-.2-1.3-.3-1.1-.5-2.1-1-3.2-1.5,2.9,0,5.9,0,8.8.1,0,0,0,0,0,0,4.6,1.8,9.2.7,13.9,0,0,0,0,0,0,0,.7-.2,1.3-.5,2-.7,0,0,0,0,0,0,.8-.1,1.6-.3,2.5-.4,0,0,.1,0,.1,0-.4.4-.8.8-1.2,1.2l-1,.6Z"/>
        <path class="cls-8" d="M81.9,156.5c4.2-2.7,8.1-5.3,12.1-7.9.2.2.3.5.5.7-3.4,2.9-6.9,5.8-10.6,9-.4-.4-1.1-1-2-1.8Z"/>
        <path class="cls-14" d="M150.4,141.3c.2.1.5.2.7.3,3.9.1,7.7.2,11.6.3-.3.4-.6,1-.8,1-3.8-.1-7.5-.3-11.2-.6-2.8-.3-5.6-.8-8.4-1.3-.9-.2-1.7-.9-2.6-1.4,2.3.1,4.6.3,6.9.4,0,0,0,0,0,0,1.3.4,2.6.9,4,1.4Z"/>
        <path class="cls-20" d="M159.5,98.5c.8.4,1.6.8,2.3,1.2-5.9-.4-11.8-.9-17.8-1.2-2.2-.1-4.4.2-6.6.3,7.3-2.4,14.7-1.9,22-.3Z"/>
        <path class="cls-17" d="M102.6,131.6c-4.2.2-8.7.4-12.6.6,3.6-3.2,9.4-3.5,12.6-.6Z"/>
        <path class="cls-17" d="M79.4,139.7c4.7,2.7,9.5,2.3,14.4,1,1.4-.4,2.9-.5,4.3-.8h0c-.5.4-1.1.7-1.6,1.1,0,0,0-.1,0-.1-1.5.5-3,1-4.5,1.4,0,0,0-.2,0-.2,0,0-.2,0-.2,0-4.7-.3-9.3-.5-14-.8,0-.4,0-.8,0-1.2.4,0,.8-.2,1.3-.3Z"/>
        <path class="cls-13" d="M164.4,136.1c-7.6,1.3-15,.6-22.2-2,1.8.2,3.6.5,5.4.6,5.6.5,11.2.9,16.8,1.4Z"/>
        <path class="cls-17" d="M111.4,129.3c-1.6-4.2-3.2-8.4-4.8-12.5.3-.1.6-.2.9-.4,1.6,4.2,3.2,8.3,4.8,12.5-.3.1-.6.3-1,.4Z"/>
        <path class="cls-13" d="M78.1,141.2c4.7.3,9.3.5,14,.8-1.5.6-3,1.6-4.5,1.6-3-.1-5.9-.8-8.8-1.4-.3,0-.5-.6-.7-1Z"/>
        <path class="cls-17" d="M108.9,183.6c2.3.8,4.5,1.6,6.8,2.4-2.6.5-5.3,1.1-6.8-2.4Z"/>
        <path class="cls-20" d="M99.6,135.5c-4.6.7-9.2,1.9-13.9,0,4.6,0,9.2,0,13.9,0Z"/>
        <path class="cls-17" d="M162.7,142c-3.9-.1-7.7-.2-11.6-.3,4.9,0,9.9,0,14.8,0-1.1.1-2.1.2-3.2.3Z"/>
        <path class="cls-20" d="M123.4,185.9c4-.4,8.1-.7,12.1-1.1-2.6,2.3-9.8,2.9-12.1,1.1Z"/>
        <path class="cls-20" d="M85.7,135.6c-2.9,0-5.9,0-8.8-.1,1.6-2,6.2-1.9,8.8.1Z"/>
        <path class="cls-13" d="M75.4,136.1c-.6-3.5-1.1-6.9-1.7-10.4.6,3.5,1.1,6.9,1.7,10.4Z"/>
        <path class="cls-20" d="M138.3,182c-2.5.7-5,1.5-7.6,2.2,2.5-.7,5-1.5,7.6-2.2Z"/>
        <path class="cls-20" d="M130.6,184c-2.4.7-4.8,1.4-7.1,2.1,0-2.3,1.8-2.3,3.4-2.3,1.3,0,2.5.1,3.8.2Z"/>
        <path class="cls-17" d="M146.5,140.1c-2.3-.1-4.6-.3-6.9-.4.3-.4.6-.8.9-1.2,2,.5,4,1.1,5.9,1.6Z"/>
        <path class="cls-13" d="M79.4,139.7c-.4,0-.8.2-1.3.3.6-1,1.3-2.1,1.9-3.1.4,0,.8.2,1.3.3-.6.9-1.3,1.7-1.9,2.6Z"/>
        <path class="cls-20" d="M133.8,98.5c1.1,0,2.3.1,3.4.2-1.2.4-2.4.8-3.5,1.2,0-.5,0-.9.1-1.4Z"/>
        <path class="cls-13" d="M92.2,142.3c1.5-.5,3-1,4.5-1.4-1.5.5-3,1-4.5,1.4Z"/>
        <path class="cls-17" d="M102,138.5c0-.4,0-.8,0-1.3.8.2,1.5.3,2.3.5,0,.2,0,.4,0,.5-.8,0-1.6.2-2.3.2Z"/>
        <path class="cls-20" d="M209.5,136.8c-.7,1.4-1.4,2.7-2.1,4.1.7-1.4,1.4-2.7,2.1-4.1Z"/>
        <path class="cls-17" d="M168.2,141.3c1.2-.2,2.5-.5,3.7-.7-1.2.2-2.5.5-3.7.7Z"/>
        <path class="cls-17" d="M98.2,139.9c1.1-.4,2.2-.9,3.3-1.3-.5.3-1,.6-1.6,1-.6.1-1.1.3-1.7.4,0,0,0,0,0,0Z"/>
        <path class="cls-13" d="M98.3,140c.6-.1,1.1-.3,1.7-.4-1.1.5-2.2.9-3.3,1.4.5-.3,1.1-.7,1.6-1Z"/>
        <path class="cls-20" d="M104,134.6c-.8.1-1.6.3-2.5.4.8-.1,1.6-.3,2.5-.4Z"/>
        <path class="cls-20" d="M141.2,180.6c-1,.5-1.9.9-2.9,1.4,1-.5,1.9-.9,2.9-1.4Z"/>
        <path class="cls-20" d="M101.5,134.9c-.7.2-1.3.5-2,.7.7-.2,1.3-.5,2-.7Z"/>
        <path class="cls-20" d="M102.9,135.9c.4-.4.8-.8,1.2-1.2-.4.4-.8.8-1.2,1.2Z"/>
        <polygon class="cls-17" points="143.5 180.1 143.5 179.9 143.5 180 143.5 180.1"/>
        <path class="cls-17" d="M171.9,140.6c.2,0,.4-.2.5-.3-.1.2-.3.3-.5.3Z"/>
        <path class="cls-17" d="M117.7,268.3c-.5-.2-.9-.5-1.4-.7.5.2.9.5,1.4.7Z"/>
        <path class="cls-19" d="M246.1,198.6c.3-.4.7-.7,1-1.1.2.2.3.5.5.7-.5.1-1,.3-1.5.4,0,0,0,0,0,0Z"/>
        <path class="cls-22" d="M247.3,202.7h.9v.3h-.9v-.3Z"/>
        <path class="cls-21" d="M208.1,143.9c1.4,2.6,2.9,5.2,4.3,7.8,1.4,2.6.7,5-1.7,6.5-3.1,1.9-6.5,3.3-9.8,5-.2-.3-.4-.6-.6-.9,1.4-1.6,2.8-3.4,4.3-4.9,2.3-2.3,2.7-4.9,1.9-8-.4-1.7,0-3.5.1-5.3.5,0,1,0,1.4-.1Z"/>
        <path class="cls-6" d="M72.9,123.1c-.2-.2-.4-.5-.6-.7.2.2.4.5.6.7Z"/>
        <path class="cls-16" d="M126.5,23.9h11.5c0,.2,0,.4,0,.6h-11.5c0-.2,0-.4,0-.6Z"/>
        <path class="cls-17" d="M150.4,141.3c-1.3-.5-2.6-.9-4-1.4,1.3.5,2.6.9,4,1.4Z"/>
      </g>
    </g>
  </g>
</svg>