<?xml version="1.0" encoding="UTF-8"?>
<svg id="_レイヤー_1" data-name="レイヤー_1" xmlns="http://www.w3.org/2000/svg" version="1.1" viewBox="0 0 1024 1024">
  <!-- Generator: Adobe Illustrator 29.6.1, SVG Export Plug-In . SVG Version: 2.1.1 Build 9)  -->
  <defs>
    <style>
      .st0 {
        fill: #898989;
      }
    </style>
  </defs>
  <path class="st0" d="M276,727h-71.5c-37.93,0-82.01-47.44-81.49-85.51V214.52c4.65-46.72,43.13-81.99,89.45-85.55h595.09c47.75,2.69,87.51,38.55,92.44,86.55l.05,424.03c-2.96,46.62-39.28,83.07-85.55,87.45l-294.55.45-200.47,169.53c-31.9,23.07-74.36-1.78-64.31-41.31l20.83-128.67ZM319.01,825l177.68-149.81c4.71-2.85,10.31-3.82,15.76-4.24l298.04.04c18.46-2.6,34.25-17.42,35.55-36.45-1.06-138.8,1.95-278-1.51-416.56-4.94-16.92-19.42-29.06-36.99-31.01H217.45c-21.34,1.48-37.48,16.23-40.49,37.5l.29,412.78c3.03,18.1,17.71,32.19,36.21,33.79,30.96,2.68,65.96-2.62,97.02-.02,16.36,1.37,29.32,11.91,28.51,29.46-1.72,37.33-16.52,81.12-19.86,119.16-.16,1.8-.22,3.58-.12,5.37Z"/>
</svg>