<?xml version="1.0" encoding="UTF-8"?>
<svg xmlns="http://www.w3.org/2000/svg" version="1.1" viewBox="0 0 1024 1024">
  <defs>
    <style>
      .cls-1 {
        fill: #898989;
      }

      .cls-2 {
        fill: none;
      }
    </style>
  </defs>
  <!-- Generator: Adobe Illustrator 28.7.8, SVG Export Plug-In . SVG Version: 1.2.0 Build 200)  -->
  <g>
    <g id="_レイヤー_1">
      <path class="cls-1" d="M577.3,812.1c1.3.4,1.4,2,1.3,3.2-1,10.8-7.4,24.9-9.4,35.8H237.3c-30.8-2.6-55.2-25.9-61.2-55.8-2.9-200.1-.4-400.5-1.2-600.7,3.1-36.4,32.9-64.5,69.4-65.6h533.1c34.7,2.9,63.8,28.3,67.5,63.6l-.5,319.5c-.7,1.9-1.8,3.4-3,5-3.3,4.2-26.2,27.6-30,30-1.2.8-2,1.2-3.5,1,.2-5.5-.2-11,0-16.5,2.4-75,1.4-150.8,1.1-226-.1-28.9,1-59.1,0-88-.7-22.1-1.5-41.2-27-47l-535.6-.5c-20.8,1.4-32.8,14.8-33.5,35.5v572.1c-1.4,15.1,12.8,34.5,28.5,34.5h336,0Z"/>
      <path class="cls-1" d="M594.1,893.9c-2.9-3-.4-10.9.5-14.5,5.9-23.2,18.3-60.5,27.5-82.5,1.8-4.3,4-8.5,6.8-12.2l194.5-194.5c1.6-1.3,5.4-4.5,7.2-4.8,5.1-.8,15.6,13.8,19.2,17.4,6.6,6.6,14,12.8,20.6,19.4,7.1,7.1,21.3,19.2,26.5,26.5,2.4,3.4,2.8,4.8.5,8.5l-198,198c-24.9,13.3-54.1,23.5-81,33-5.2,1.8-14.7,6-19.5,6.6-1.6.2-3.5.4-4.8-.8h0Z"/>
      <path class="cls-1" d="M687.8,401.1v37.5c2.2,2.4,7.8,2.4,10,0v-15.5h23v21.5c0,2.1-3.9,9.6-5.6,11.4-9.8,11.2-37,11.4-46.4-.4-2.5-3.2-6-13.2-6-17v-38.5l-6.9,1.1c-3.7,15.1-9.1,30.2-19.2,42.3-3.8,4.6-25.8,24.8-31,22.1l-12.8-17.2v-2.2c9.8-5.3,18.7-13.1,25.2-22.2,3.3-4.5,9.9-16.2,10.6-21.5.2-2,0-1.3-1.5-1.5-2.4-.3-13,.9-13.6-1.7l2.5-122.3h95l1.5,1.5v121l-1.5,1.5h-23.5,0ZM685.8,300.1h-46v12h46v-12ZM686.8,333.1h-48l1,12h47v-12ZM686.8,366.1h-48v11h48v-11Z"/>
      <path class="cls-1" d="M502.8,550.1c.2,1.5.9,2.9,1,4.5.6,5.7-.3,23.1-4,27-2.9,3.1-9.4,4.2-13.5,4.5-7.5.6-30.9,1-36.5-2.6-1.6-1-5-5.2-5-7v-38.5h-19.5c-2.9,6.8-3.7,14.9-5.8,22.2-3.2,11-7.8,21.5-12.7,31.8h83.5c2.9,0,.1,9.6-.4,11.6-4.5,19.7-15.2,40.5-30.1,53.9,0,1.9,3.3,3.4,4.7,4.3,11.2,6.9,25,11.6,37.3,16.2-1.7,4.7-7.6,21.3-12.6,22-2.9.4-19.8-5.7-23.7-7.3-10.6-4.2-20.6-9.6-30.2-15.8-9.7,5.8-19.4,11.8-29.8,16.2-3.2,1.3-18.9,7.5-20.7,6.4l-9.6-22.6c4.9-1.5,39.3-15.4,39.6-17.5s-7-9.6-8.9-12.2c-2.2-3.1-12.4-17.8-13-20.1-1-3.8,2.1-4,2.7-6,1.1-3.8-12.8-30.2-14.9-35.8-.3-2.6,5.6-10.3,7.2-13.8,4.9-10.7,8.2-22,10.5-33.5,1.7-8.3,1.8-17.7,4.8-25.2h64l1.5,1.5v49c1.4,2.3,9.5,2.1,10.6.6,1.6-4.5-1.4-10.5,1.9-14.1h21.5ZM456.8,617.1h-38c2.2,3.6,16.1,25.5,19.4,24.9,8-6.8,13.5-15.9,18.6-24.9Z"/>
      <path class="cls-1" d="M556.8,543.1l-21.9,2.9-2-21.8,62.6-11.9,1.8.8c2.2,7.8,1.4,16,1.4,24l-18,2v23h18c-.5,1.3,1,3,1,3.5v19l-1.5,1.5h-17.5v10.5l17.5,13.5,3-6h110l1.5,1.5v49c-.8,1.5-1.9,2.7-3,4-4.1,5.3-23,24.3-28.1,27.9-1.3.9-4.2,3.2-3.9,0l12-15v-49.5h-67v76h-21.5l-1.5-1.5v-77.5l-5.7,12.9-13.3-6.9v73h-22.5l-1.5-1.5v-59.5c-2.3-.6-1.7.5-2.3,1.3-2.5,3.1-12,19.8-15.2,19.5l-15.4-15.4c2.9-5.5,7.5-9.7,10.9-14.8,8.2-12.4,12-25.5,16.6-39.5l-1.1-2.1h-19l-1.5-1.5v-21l1.5-1.5h25.5v-19h0Z"/>
      <path class="cls-1" d="M372.8,291.1h36v21.5c-1.7,3.2-11.9.5-13,1.5l-6,24c4.5-2,8,0,12.5.1,1.8,0,8.5-2.1,8.5.4v21.5h-38v14h34v22h-27c4.5,5.6,9.2,11.1,14.5,16,2.5,2.3,8.9,5.2,8.6,8.4-.2,1.5-13.4,20-14.5,20.6l-15.5-17v38.5l-1.5,1.5h-23.5v-37l-16,16.5-8.5,6.5c-3.4,0-13.1-15.3-15.4-18.5,14-9.6,27-20.9,35.9-35.5h-34v-20.5l1.5-1.5h36.5v-14h-35.5l-1.3-1.7c-.3-.9-.2-1.9-.2-2.8-.1-1.9,1-16.9,1.5-17.6,1.6-2.3,16.5.7,16.6-.5.1-3-6.1-22.7-7.1-23.4-2-1.3-9.1,1.7-10.7-1.8-.5-1.6.4-16.5.9-18.9.2-1.1.5-1.9,1.5-2.5h34.5v-17.5l1.5-1.5h22l1.5,1.5v17.5ZM369.8,314.1h-22l5.1,22.9,10.3.2,6.6-23.1Z"/>
      <path class="cls-1" d="M439.8,362.1c.7,35-3.4,77.6-32.5,101l-16.4-16.7c3-4.5,6.9-8.2,9.9-12.8,23.2-36.5,15.2-98.1,15.2-140,0-1.4.5-3,1-4.2,5.5-2.2,11.4-.7,17.1-1.4,10.1-1.2,22.1-5.6,31.6-9.4,3.7-1.5,17.7-9.1,19.7-9.3s9.5,9.9,10.7,11.9c1.4,2.4,4.5,7.3,1.3,9.2-16.7,9.9-38,17.8-56.7,22.8l-1,24h64c-.3,1,1,2.2,1,2.5v21l-1.5,1.5h-19.5v100.5l-1.5,1.5h-22l-1.5-1.5v-100.5h-19Z"/>
      <path class="cls-1" d="M582.8,304.1h21.5c1,.6,1.3,1.4,1.5,2.5.6,3.2.5,15.5,0,19-.2,1.5-.1,2.6-1.5,3.5h-22.5c2,6.2,1.1,13.6,0,20h22.5l1.5,1.5v23.5h-25c4,10.1,11.1,19.2,18.6,26.9,2.4,2.4,11.9,8.4,11.2,11.4-1.9,3.2-14.3,20.2-17.2,19.7l-17.6-21.9c-2.2,10.1-5.9,20.4-11.2,29.3-2.7,4.4-14.4,20.2-19.2,19.8-2.7-.2-15.8-16.6-15.4-18.4,15-13.8,23.6-30.9,25.7-51.3.5-5.2-.8-10.6,1.1-15.4h-22.5c-1-.6-1.3-1.4-1.5-2.5-.6-3.2-.5-15.5,0-19,.2-1.5.1-2.6,1.5-3.5h22.5v-20h-21v-23.5l1.5-1.5h19.5v-29h24.5l1.5,1.5v27.5h0Z"/>
      <path class="cls-1" d="M363.8,511.1v35h21v24h-21v30l16-2.6,6,21-21.9,7.2-.6,58.4c-3.2,8.1-8.2,12.3-17,13-21,1.8-25.9-1.4-24.4-23.4l1.5-1.5c4.3-1.4,11.7,1.8,15.4-1.6v-37.5l-21,5c-.5-5.2-6.6-19.9-4.6-24,1.3-2.5,21.4-7.7,25.5-8v-36h-26.5c-2.6-2.9-.6-7.7-.6-10.6,0-4-1.7-9.8,1.6-13.4h25.5v-33.5l1.5-1.5h23.5Z"/>
      <path class="cls-1" d="M921.3,538.7c13.9,13.6,27.4,27.6,41.6,41,3.9,5.6,2.4,9.6-1.5,14.5-6.4,8-27,28.8-35,35-4.4,3.4-7.8,4.7-12.5.5-17.5-21.3-46.2-41.2-62.5-62.5-1-1.3-2.4-2.5-2.3-4.4.7-2.5,2.2-4.3,3.8-6.2,7.2-8.8,24.7-26.1,33.5-33.5,4.6-3.8,8.5-8.2,14.5-4.4,4.7,3,15.6,15.3,20.5,20h0Z"/>
      <path class="cls-1" d="M703.8,553.1v44h-91v-42.5l1.5-1.5h89.5ZM680.8,571.1h-45v8h45v-8Z"/>
      <path class="cls-1" d="M755.8,851.1l92-92c2,34.8-10,68.9-43,84.5-6.7,3.2-20.3,7.5-27.5,7.5h-21.5,0Z"/>
      <polygon class="cls-1" points="669.8 511.1 669.8 526.1 715.3 526.1 716.8 527.6 716.8 546.1 600.8 546.1 600.8 527.6 602.3 526.1 644.8 526.1 644.8 511.1 669.8 511.1"/>
      <path class="cls-1" d="M683.8,671.1h-34v10h-20v-52h52.5l1.5,1.5v40.5ZM662.8,645.1h-13v10h13v-10Z"/>
      <polygon class="cls-2" points="686.8 333.1 686.8 345.1 639.8 345.1 638.8 333.1 686.8 333.1"/>
      <rect class="cls-2" x="639.8" y="300.1" width="46" height="12"/>
      <rect class="cls-2" x="638.8" y="366.1" width="48" height="11"/>
      <path class="cls-2" d="M456.8,617.1c-5.2,9-10.6,18.1-18.6,24.9-3.2.6-17.1-21.3-19.4-24.9h38Z"/>
      <polygon class="cls-2" points="369.8 314.1 363.2 337.2 352.9 337 347.8 314.1 369.8 314.1"/>
      <rect class="cls-2" x="635.8" y="571.1" width="45" height="8"/>
      <rect class="cls-2" x="649.8" y="645.1" width="13" height="10"/>
    </g>
  </g>
</svg>