<?xml version="1.0" encoding="UTF-8"?>
<svg id="_レイヤー_1" data-name="レイヤー_1" xmlns="http://www.w3.org/2000/svg" version="1.1" viewBox="0 0 1024 1024">
  <!-- Generator: Adobe Illustrator 29.6.1, SVG Export Plug-In . SVG Version: 2.1.1 Build 9)  -->
  <defs>
    <style>
      .st0 {
        fill: #898989;
      }
    </style>
  </defs>
  <path class="st0" d="M706.42,648.58c1.19,1.04,3.62,4.03,4.25,4.26,5.7,2.01,19.18-1.17,25.66,5.34l158.71,156.29c24.52,28.2,11.86,50.28-12.5,71.55-18.75,16.38-36.8,18.94-57.41,3.32l-157.94-159.02c-4.46-8.55-4.9-17.92-3.72-27.37l-41.09-40.88c-45.19,36.77-99.78,61.62-158,68.79C197.11,763.78,10.6,454.59,178.6,238.1c126.46-162.94,365.16-163.44,493.35-2.56,85.44,107.22,87.42,270.18-2.89,375.09l.87,1.9c12.53,11.56,23.67,24.81,36.48,36.05ZM405.8,170.3c-181.34,13.21-290.99,211.71-204.32,372.73,92.38,171.62,336.5,182.32,439.94,15.89,110.74-178.17-27.31-403.79-235.62-388.62Z"/>
  <path class="st0" d="M301.5,493c-4.08-.67-7.52-3.58-8.26-7.74s-.83-25.63.52-29c.51-1.26,2.13-2.98,3.32-3.68,7.05-4.19,47.18.16,48.93-1.57l7-58.01c-7.04.96-14.82-1.07-21.51-1.09-2.37,0-4.57,1.14-6.95,1.13-12.01-.07-27.96,3.88-29.53-11.56-.88-8.68-2.61-28.2,8.46-29.51,7.93-.94,52.05,1.42,54.59-.41l12.21-77.3c3.64-4.42,25.14-3.92,30.97-3.03,3.83.58,6.82,2.33,7.68,6.31l-8.94,74.45h64.5c.53,0,2.56-2.47,2.48-3.52,4.18-21.04,3.42-49.68,9.29-69.71,1.05-3.57,2.96-6.32,6.71-7.29,4.04-1.05,22.02-1.09,26.46-.41,2.96.45,6.73,2.51,7.35,5.65-.01,24.53-5.65,48.88-8.37,73.25l1.08,2.04h34c4.75,0,10.33.32,12.05,5.95,1.03,3.38.93,25.73-.31,28.8-1.89,4.7-7.28,5.83-11.76,6.24-13.29,1.2-27.15-2.63-40.05-.05l-8.43,58.07h50.5c.29,0,4.48,2.47,4.97,3.03,3.27,3.73,3.28,24.14,2.47,29.4-.88,5.66-4.96,8.95-10.44,9.56-15.51,1.74-34.74-1.93-50.05-.05-1.06.13-2.33-.04-3.02.98l-9.7,71.3c-1.62,5.51-4.61,7.28-10.18,7.82-6.32.61-27.91,1.74-30.11-4.99-.8-24.95,5.4-50.31,8.56-75.06h-67l-10.3,72.21c-.53,3.31-3.51,6.43-6.66,7.33-3.32.95-23.78,1.04-27.33.25-4.95-1.1-6.75-6.58-6.63-11.14l9.92-68.65c-11.63-1.36-27.4,1.83-38.5,0ZM386,451h66.5l8.06-58.07c-1.68-2.38-17.62-.29-21.23-.3-10.26-.04-20.66-.73-30.79-.68-3.04.02-13.56-.95-14.4,1.7l-8.15,57.35Z"/>
</svg>