<?xml version="1.0" encoding="UTF-8"?>
<svg id="_レイヤー_1" data-name="レイヤー_1" xmlns="http://www.w3.org/2000/svg" version="1.1" viewBox="0 0 1024 1024">
  <!-- Generator: Adobe Illustrator 29.6.1, SVG Export Plug-In . SVG Version: 2.1.1 Build 9)  -->
  <defs>
    <style>
      .st0 {
        fill: #898989;
      }
    </style>
  </defs>
  <path class="st0" d="M727.65,537.65c-10.67,10.8-31.19,23.81-44.34,32.16-107.1,68.01-220.21,127.71-327.63,195.37-28.41,14.53-61.16-.84-63.71-33.64-2.92-37.46.36-81.73.08-120.08-.77-105.18-1.56-210.67-1.08-315.99,4.92-29.29,31.95-47.16,60.72-35.64,20.18,8.07,50.67,29.5,70.63,41.37,93.99,55.88,189.51,110.77,282,169,19.08,12.01,39.9,23.17,33.2,49.82-1.55,6.17-5.4,13.12-9.86,17.64Z"/>
</svg>