<?xml version="1.0" encoding="UTF-8"?>
<svg id="_レイヤー_1" data-name="レイヤー_1" xmlns="http://www.w3.org/2000/svg" version="1.1" viewBox="0 0 1024 1024">
  <!-- Generator: Adobe Illustrator 29.6.1, SVG Export Plug-In . SVG Version: 2.1.1 Build 9)  -->
  <defs>
    <style>
      .st0 {
        fill: #898989;
      }
    </style>
  </defs>
  <path class="st0" d="M518.65,228.03c24.57,24.4,33.2,46.57,48.32,76.18.48.94.57,2.37,2.02,2.47,18.69-54.05,60.61-101.39,114.76-121.75,144.23-54.23,286.58,64.28,265.08,215.08-12.88,90.38-84.67,169.84-147.31,231.69-54.8,54.12-112.8,105.29-168.54,158.46-18.35,17.51-42.17,45.57-60.96,60.03-1.11.86-2.11,1.9-3.54,2.24l-96.47-92.27c-105.27-105.85-302.75-243.56-285-412.97,16.78-160.21,215.39-234.58,331.64-119.16Z"/>
</svg>