<?xml version="1.0" encoding="UTF-8"?>
<svg xmlns="http://www.w3.org/2000/svg" width="251.4" height="66.7" version="1.1" viewBox="0 0 251.4 66.7">
  <defs>
    <style>
      .cls-1 {
        fill: #f49a2f;
      }
    </style>
  </defs>
  <!-- Generator: Adobe Illustrator 28.7.8, SVG Export Plug-In . SVG Version: 1.2.0 Build 200)  -->
  <g>
    <g id="_レイヤー_1" data-name="レイヤー_1">
      <g>
        <path d="M0,19.8c0-.7.5-1.2,1.2-1.2h12.2c.7,0,1.2.5,1.2,1.2v44.6h27.6c.7,0,1.2.5,1.2,1.2s-.5,1.2-1.2,1.2H1.2c-.7,0-1.2-.5-1.2-1.2V19.8Z"/>
        <path d="M51.2,65.5V26.6c0-.7.5-1.2,1.2-1.2h10.4c.7,0,1.2.5,1.2,1.2v37.7h22.1V26.6c0-.7.5-1.2,1.2-1.2s1.2.5,1.2,1.2v38.9c0,.7-.5,1.2-1.2,1.2h-34.9c-.7,0-1.2-.5-1.2-1.2Z"/>
        <path d="M97,26.7c0-.7.5-1.2,1.2-1.2h38.9c.7,0,1.2.5,1.2,1.2v38.9c0,.7-.5,1.2-1.2,1.2s-1.2-.5-1.2-1.2V27.9h-9v37.7c0,.7-.5,1.2-1.2,1.2s-1.2-.5-1.2-1.2V27.9h-14.7v37.7c0,.7-.5,1.2-1.2,1.2h-10.4c-.7,0-1.2-.5-1.2-1.2V26.7Z"/>
        <path d="M168.2,65.5V26.7c0-.7.5-1.2,1.2-1.2h34.9c.7,0,1.2.5,1.2,1.2v38.9c0,.7-.5,1.2-1.2,1.2s-1.2-.5-1.2-1.2V27.9h-22.1v37.7c0,.7-.5,1.2-1.2,1.2h-10.4c-.7,0-1.2-.5-1.2-1.2Z"/>
        <path class="cls-1" d="M151.8,10.4l1.1-10.4,1.1,10.4c.3,2.9,2.6,5.2,5.5,5.5l10.4,1.1-10.4,1.1c-2.9.3-5.2,2.6-5.5,5.5l-1.1,10.4-1.1-10.4c-.3-2.9-2.6-5.2-5.5-5.5l-10.4-1.1,10.4-1.1c2.9-.3,5.2-2.6,5.5-5.5Z"/>
        <path d="M214,26.7c0-.7.5-1.2,1.2-1.2h35c.7,0,1.2.5,1.2,1.2v38.9c0,.7-.5,1.2-1.2,1.2h-34.9c-.7,0-1.2-.5-1.2-1.2v-23.3c0-.7.5-1.2,1.2-1.2h23.3v-13.1h-23.4c-.7,0-1.2-.5-1.2-1.2ZM216.5,64.3h22.1v-20.9h-22.1v20.9Z"/>
        <path d="M158.5,29c.7,0,1.2.5,1.2,1.2v35.4c0,.7-.5,1.2-1.2,1.2h-10.4c-.7,0-1.2-.5-1.2-1.2V30.2c0-.7.5-1.2,1.2-1.2h10.4Z"/>
      </g>
    </g>
  </g>
</svg>