<?xml version="1.0" encoding="UTF-8"?>
<svg id="_レイヤー_1" data-name="レイヤー_1" xmlns="http://www.w3.org/2000/svg" version="1.1" viewBox="0 0 1024 1024">
  <!-- Generator: Adobe Illustrator 29.6.1, SVG Export Plug-In . SVG Version: 2.1.1 Build 9)  -->
  <defs>
    <style>
      .st0 {
        fill: #ffa88a;
      }

      .st1 {
        fill: #ed326c;
      }

      .st2 {
        fill: #fefefe;
      }

      .st3 {
        fill: #bd907e;
      }
    </style>
  </defs>
  <path class="st3" d="M514.96,536.33c3.74-19.74,19.22-35.18,34.68-46.83,67.7-51.03,180.54-65.82,260.33-39.66,11.9,3.9,17.35,6.34,20.54,19.46,4.48,18.45,6.93,39.18,10.93,58.07,12.02,56.72,25.75,113.11,38.28,169.72,2.69,11.81-6.24,23.07-18.24,23.04-10.06-.03-34.22-8.28-46.31-10.48-76.82-13.93-156.84-6.6-226.28,30.1-1.62.86-3.7,3.1-4.9,4.58,19.28-6.24,38.35-12.84,58.18-17.31,65.53-14.77,137.44-13.29,202.24,4.4,9.71,2.65,32.45,8.24,38.02,15.98,4.5,6.27,4.51,19.75,3.48,27.35s-8.83,16.02-16.65,17.35c-12.11,2.06-46.49-10.39-61.07-13.45-82.49-17.28-156.16-7.63-233.16,24.22-13.2,5.46-46.47,23.55-58.53,23.55-14.32,0-56.19-21.6-72.25-27.83-82.05-31.87-157.01-36.23-242.67-15.17-11.12,2.73-29.01,10.74-39.84,8.68-9.61-1.83-15.96-10.94-16.77-20.22-2.56-29.2,10.54-30.81,34.04-38.03,74.25-22.83,159.66-22.39,233.76.23,5.7,1.74,16.73,5.2,22.02,7.88-1.7-2.21-4.78-4.24-6.41-5.49-2.96-2.27-12.73-6.49-16.7-8.3-65.28-29.77-143.59-29.84-212.86-15.51-19.44,4.02-45.47,17.67-48.72-13.67,10.79-51.57,22.89-102.87,33.59-154.45,5.05-24.36,8.34-50.34,13.76-74.24,3.02-13.34,8.73-16.23,20.78-20.22,78.78-26.03,184.66-12.28,253.68,33.86,22.36,14.95,31.35,24.86,41.15,49.85.41,1.05.38,2.41,1.93,2.56ZM492.97,753.33l1.05-202.54c-1.49-24.45-10.47-33.12-29.32-46.68-47.2-33.95-122.74-50.56-180.21-45.77-7.77.65-62.52,9.41-65.05,12.95l-48.46,227.03c71.9-20.66,147.12-21.62,219.01-.46,21.46,6.32,50.08,18.45,70.38,31.62,9.25,6,18.53,14.87,28.3,21.66,1.35.94,2.54,2.41,4.3,2.18ZM858.97,698.32l-50.58-226.91c-61.37-19.47-128.46-18.21-188.93,3.9-22.3,8.15-50.06,22.45-67.5,38.5-14.88,13.7-18,23.88-19.03,43.97-1.77,34.73.7,70.37,1.08,105,.33,30.2-.79,60.48.97,90.54,12.19-9.5,24.85-18.33,37.95-26.54,6.26-3.92,19.82-12.84,24.92-15.04,70.9-30.59,148.49-36.39,224.31-22.1,12.43,2.34,24.52,5.83,36.81,8.68ZM866.97,773.34c-.05-3.7,2.58-9.36.1-12.6-2.24-2.92-39.88-12.58-46.06-13.94-74.63-16.43-151.69-12.03-223.55,13.52-21.67,7.7-42.13,18.22-63.51,26.49-11.59,4.48-14.56,7.58-27.48,3.55-17.82-5.57-37.32-15.97-55.24-22.76-85-32.22-169.49-41.49-258.25-16.75-4.16,1.16-25.39,7.15-27.01,8.99s-1.77,12.89.58,13.46c79.85-29.04,166.75-31.53,248.19-7.21,30.65,9.15,57.07,23.27,86.27,34.73,10.68,4.19,12.62,6.06,24.21,2.28,17.16-5.61,36.41-17.13,53.79-24.21,76.51-31.2,159.27-37.81,240.01-19.07,16.21,3.76,31.92,9.24,47.96,13.54Z"/>
  <path class="st0" d="M858.97,698.32c-12.29-2.84-24.38-6.33-36.81-8.68-75.82-14.29-153.41-8.5-224.31,22.1-5.1,2.2-18.66,11.12-24.92,15.04-13.1,8.21-25.76,17.04-37.95,26.54-1.75-30.06-.64-60.34-.97-90.54-.38-34.63-2.85-70.27-1.08-105,1.02-20.09,4.15-30.27,19.03-43.97,17.44-16.06,45.2-30.35,67.5-38.5,60.47-22.11,127.57-23.37,188.93-3.9l50.58,226.91Z"/>
  <path class="st0" d="M492.97,753.33c-1.76.22-2.95-1.25-4.3-2.18-9.77-6.79-19.05-15.65-28.3-21.66-20.3-13.17-48.92-25.3-70.38-31.62-71.88-21.16-147.11-20.2-219.01.46l48.46-227.03c2.53-3.54,57.28-12.31,65.05-12.95,57.47-4.79,133.01,11.82,180.21,45.77,18.85,13.56,27.83,22.23,29.32,46.68l-1.05,202.54Z"/>
  <path class="st0" d="M866.97,773.34c-16.04-4.3-31.75-9.78-47.96-13.54-80.73-18.74-163.5-12.13-240.01,19.07-17.38,7.08-36.63,18.61-53.79,24.21-11.59,3.79-13.53,1.92-24.21-2.28-29.19-11.47-55.62-25.58-86.27-34.73-81.45-24.32-168.34-21.82-248.19,7.21-2.35-.56-2.24-11.59-.58-13.46s22.86-7.83,27.01-8.99c88.76-24.74,173.25-15.47,258.25,16.75,17.92,6.79,37.41,17.19,55.24,22.76,12.92,4.04,15.89.94,27.48-3.55,21.38-8.27,41.84-18.78,63.51-26.49,71.86-25.55,148.92-29.94,223.55-13.52,6.18,1.36,43.82,11.02,46.06,13.94,2.48,3.23-.15,8.9-.1,12.6Z"/>
  <path d="M498.62,568.45c-30.05-29.41-60.63-74.76-82.77-110.73-17.95-29.17-40.76-67.49-51.09-99.91-49.25-154.48,134.73-271.82,256.84-166.84,60.3,51.84,68.57,122.59,35.53,193.19-25.93,55.41-71.09,127.64-112.34,172.66-4.6,5.02-22.11,23.37-27.49,24.55-4.44.97-15.22-9.53-18.67-12.91ZM471.87,500.18c14.18,19.2,28.81,37.93,44.89,55.6,42.24-45.76,77.08-98.55,106.67-153.31,29.84-55.21,48.5-106.26,11.24-164.59-52.12-81.59-166.21-88.11-227.39-12.56-44.7,55.21-33.5,111.99-2.22,170.17,19.5,36.27,42.4,71.64,66.8,104.68Z"/>
  <path class="st1" d="M471.87,500.18c-24.4-33.04-47.3-68.42-66.8-104.68-31.28-58.17-42.48-114.96,2.22-170.17,61.18-75.55,175.27-69.03,227.39,12.56,37.26,58.32,18.59,109.38-11.24,164.59-29.59,54.76-64.44,107.55-106.67,153.31-16.08-17.68-30.71-36.41-44.89-55.6ZM583.66,270.42c-55.24-92.03-187.21-7.8-137.2,79.69,53.54,93.68,191.34,10.49,137.2-79.69Z"/>
  <path d="M583.66,270.42c54.14,90.19-83.66,173.37-137.2,79.69-50.01-87.49,81.96-171.72,137.2-79.69ZM506.03,253.06c-67.94,9.22-62.11,123.38,15.61,116.61,75.24-6.55,65.16-127.57-15.61-116.61Z"/>
  <path class="st2" d="M506.03,253.06c80.78-10.96,90.85,110.06,15.61,116.61-77.72,6.77-83.55-107.4-15.61-116.61Z"/>
</svg>