<?xml version="1.0" encoding="UTF-8"?>
<svg xmlns="http://www.w3.org/2000/svg" width="897.1" height="285.1" version="1.1" viewBox="0 0 897.1 285.1">
  <defs>
    <style>
      .cls-1 {
        fill: #7a6046;
      }

      .cls-2 {
        fill: #f41ebd;
      }

      .cls-3 {
        fill: #efcbab;
      }

      .cls-4 {
        fill: #fefefe;
      }
    </style>
  </defs>
  <!-- Generator: Adobe Illustrator 28.7.8, SVG Export Plug-In . SVG Version: 1.2.0 Build 200)  -->
  <g>
    <g id="_レイヤー_2">
      <g id="_レイヤー_2-2">
        <g id="_レイヤー_1-2">
          <g>
            <path class="cls-1" d="M784.5.4c153.1,16.1,148.8,276.2-5.2,284.7H114.3c-49.2-3.6-95.3-43.9-107.6-91.4C-16.9,110.6,22.7,3,120.2,0l664.3.3h0Z"/>
            <path class="cls-3" d="M834.3,35.5c-37.2-25.4-68-20.5-110-20.4-191.8.2-384.7-.2-576-.2-36.5,0-68.5,1.8-96,29.2C-16.9,114.7,13.2,271.3,126.2,271.1h645.1c117,.5,147.2-173.1,63-235.6h0Z"/>
            <path class="cls-2" d="M132.1,87.3c.4.3,4.7,3.7,5,4,2.3,2.1,8.2,11.3,10.8,11.3s6.3-8.1,8.4-10.2c35.9-36.2,101.4,6.7,72,54.8-13.4,21.9-47.5,50.2-69.7,63.6-9.1,5.5-12.5,5.7-21.6.1-10.7-6.6-28.9-19.4-38.6-27.6-3.8-3.3-4.2-4.2-9.2-7.9-1.3-.9-18.4-21.9-20-24.3-30.6-46.1,23.6-92.2,62.7-63.9h0Z"/>
            <path class="cls-4" d="M315.7,158v14.5c0,2.5-7.9.5-9.3-.4-5.6-3.5,2.9-16.4,9.3-14.1Z"/>
            <g>
              <path d="M311.3,123.4c-10.8.6-23.5,3.1-38.3,7.4v-18.9l38.7-3.7.5-13.8,20.7.5-.5,12.9h17.5l-.9,12.9-17,.9-.9,10.6c8.6.9,15.4,2.5,20.3,4.6,4.6,2.1,8.8,5.7,12.5,10.6,4.6,6.1,7.1,13.5,7.4,22.1.3,8-.8,17.1-3.2,27.2l-20.3-5.5c3.7-9.8,5.2-17.7,4.6-23.5-.9-7.4-3.7-12.8-8.3-16.1-2.8-1.8-7.7-3.1-14.8-3.7-1.2,11.4-2.6,20-4.1,25.8-4.3,15.4-14,23.4-29,24-5.8.3-11.1-.8-15.7-3.2-4.9-2.8-8.3-6.4-10.1-11.1-3.4-8.9-1.8-18.7,4.6-29.5,3.4-5.8,7.8-10.3,13.4-13.4,5.2-3.1,12.6-5.5,22.1-7.4l.9-9.7h0ZM309.5,149.2c-5.2.9-10.3,3.9-15.2,8.8-4,4-6,8.6-6,13.8s1.5,6.4,4.6,6.4,6.6-1.1,8.8-3.2c4-4,6.6-12.6,7.8-25.8h0ZM349.1,123.8c1.2-6.4,5.1-9.7,11.5-9.7s6.8,1.1,9.2,3.2c2.1,1.8,3.5,4,4.1,6.4.9,4,.5,7.5-1.4,10.6-1.8,3.4-4.8,5.2-8.8,5.5-4.3.3-8-1.1-11.1-4.1-3.1-3.4-4.3-7.4-3.7-12h0Z"/>
              <path d="M381.4,116l21.7-28.1,16.6,5.5-3.2,4.6,12.9-.9,57.2-.9v12.9l-41.9.9-13.4.9-26.7,2.3-11.1,15.7-14.3-8.3h-.5l2.8-4.6h0ZM382.8,139.1l23.5-3.2,35-2.3c4.9-.3,9.1-.5,12.4-.5,4.6.3,8,.9,10.1,1.8,3.7,1.8,5.7,5.1,6,9.7l2.8,29.5,1.4,4.6,7.4-12.4,11.1,13.8c-4,9.2-7.2,15.1-9.7,17.5-2.1,2.5-4.9,3.8-8.3,4.1-2.8.3-5.7-.2-8.8-1.4-5.8-2.5-9.1-6.3-9.7-11.5l-4.6-40.6-20.7.9,12,7.4-12.9,12.9,19.4,12.4-11.5,13.8-19.4-13.8h-.9l-17.5,18.9-17-11.1v-.5l19.8-17.5-14.8-8.8v-.5l11.1-10.1-16.1,2.3v-15.7h0ZM415.5,160.3l12.9-11.1-27.2,2.8.5.5,13.8,7.8h0ZM402.6,117.4h.5l42.9-2.3,28.1-.5-.5,14.3h-18.9l-52.1,3.7-.9-.9.9-14.3h0Z"/>
              <path d="M524.3,98.5c-3.1,20.3-4.9,35.2-5.5,44.7-.6,9.2-.8,26.1-.5,50.7l-20.7,2.3c.3-27.7.9-47,1.8-58.1,1.2-12,3.1-26.3,5.5-42.9l19.4,3.2h0ZM541.8,155.6c0,4.9.5,8.5,1.4,10.6,1.2,4,4.2,6.6,8.8,7.8,5.2,1.5,10.9,1.7,17,.5,3.4-.6,6.5-1.5,9.2-2.8,3.7-1.5,8.1-4.1,13.4-7.8l8.3,18.4c-9.2,5.5-17.4,9.1-24.4,10.6-14.5,3.4-26.4,2.6-36-2.3-6.5-3.4-11.2-8.6-14.3-15.7-1.5-3.7-2.6-9.7-3.2-18l19.8-1.4h0ZM594.8,101.7l-.5,16.1c-16.9.3-29.5,1.1-37.8,2.3-4.6.6-12.1,2.2-22.6,4.6l-1.8-19.8c11.4-1.2,20.9-2.2,28.6-2.8,7.4-.3,18.7-.5,34.1-.5h0Z"/>
              <path d="M623.4,166.7l31.8-42.4-7.8-12-1.8-.5-13.8,2.8-2.3-20.7c12.6-.9,19.7-1.4,21.2-1.4s3.5.5,6.9,1.4c2.5,1.8,4.3,3.4,5.5,4.6,7.4,9.5,14.8,20.3,22.1,32.3l33.2,55.3-17.5,15.7-11.1-19.4-22.6-39.2-26.7,38.3-13.4,20.3-22.1-8.8,18.4-26.3h0Z"/>
              <path d="M750.1,99.9c-2.5,12-4,19.8-4.6,23.5-.9,6.1-1.5,14.8-1.8,25.8l13.4-9.7,8.3,18.4-18.9,12.9c-7.4,4.9-13.2,5.7-17.5,2.3-2.2-1.8-3.7-5.2-4.6-10.1-.6-3.7-.9-8.8-.9-15.2.3-11.7,2.9-28.6,7.8-50.7l18.9,2.8h0s0,0,0,0ZM780.1,95.7l20.3-2.3c1.8,19.4,2.8,33.5,2.8,42.4,0,14.4-1.8,34.9-5.5,61.3l-20.7-1.8c3.1-19.1,5.1-35.6,6-49.8.9-13.8,0-30.4-2.8-49.8h0Z"/>
            </g>
          </g>
        </g>
      </g>
    </g>
  </g>
</svg>